<?xml version="1.0" encoding="UTF-8"?><svg id="Layer_2" xmlns="http://www.w3.org/2000/svg" viewBox="0 0 1605.07 1280.34"><defs><style>.cls-1{fill:#dc74aa;}.cls-2{fill:#70c2b9;}.cls-3{fill:#4b3584;}.cls-4{fill:#313b84;}.cls-5{fill:#b16516;}.cls-6{fill:#2d7cbb;}.cls-7{fill:#ee7e94;}.cls-8{fill:#f7af4d;}.cls-9{fill:#a49acb;}.cls-10{fill:#f5ae9e;}.cls-11{fill:#c6368b;}.cls-12{fill:#2b2150;}.cls-13{fill:#231f20;}.cls-14{fill:#5a8dbf;}</style></defs><g id="_Слой_2"><g><path class="cls-8" d="M967.99,1137.02v-41.66h22.16c-7.67,13.33-15.15,27.26-22.16,41.66Z"/><path class="cls-8" d="M995.91,1035.42h-51.71v-60.79h129.99c-19.12,23.19-49.61,62.66-78.27,110.91v-50.12Z"/><path class="cls-8" d="M997.22,1272.29l-30.53,.9v-33.77c10.38,11.44,20.81,22.73,30.53,32.87Z"/><path class="cls-8" d="M1260.75,1192.06l3.99,16.65s-4.01,1.85-3.99,3.12c.54,36.61,13.6,62.35,13.6,62.35h-169.96c4.21-15.01-4.45-38.82-14.74-39.99-38.76-4.25-46.62-9.3-55.5-28.57-1.22-2.62-8.14-10.89-10.52-11.22-16.41-2.2-41.43-24.41-55.64-45.45v-7.48l62.61,43.62s134.76-186.29,136.63-191.29l7.25-19.17h47.79c.05,22.21,2.57,98.66,31.56,217.43h6.92Z"/><path class="cls-10" d="M1021.72,1194.07c-17.77-3.88-44.05-28.57-56.95-50.17l4.02-4.63,51.48,36.66c-.51,6.87,.05,12.81,1.45,18.14Z"/><path class="cls-13" d="M923.38,1185.34c2.2-2.05,29.95-28.54,43.19-40.86,13.25,22.54,41.37,48.66,59.21,51.03,2.4,.32,9.31,8.64,10.52,11.24,8.92,19.25,16.75,24.34,55.52,28.59,11.17,1.23,21.04,25.37,13.94,40.41l-106.36-4.55c-19.98-19.29-71.17-71.76-75.62-76.19-1.59-1.58-3.31-3.5-3.06-5.67,.19-1.63,1.46-2.88,2.66-3.99Z"/><path class="cls-3" d="M1346.27,1171.06l-92.44,20.99c-34.84-142.52-31.47-224.16-31.47-224.16,0,0-12.3-17.86-28.57-44.19l-26.56,70.09c-1.87,5-136.63,191.29-136.63,191.29l-64.25-44.75c50.92-105.96,127.23-188.2,127.23-188.2,0,0-1.08-109.18,5-174.97,8.93,.51,20.29,1.17,25.53,1.36,2.24,.09,35.12,.51,37.5,.51,7.58,0,15.48-.19,23.52-.47,2.34-.05,22.63-1.08,30.53-1.73,2.34-.19,12.3-1.12,14.96-1.4,5.19-.56,10.38-1.22,15.52-1.96,.84-.14,2.76-7.25,2.76-7.25l4.16-21.28,3.46-6.31,14.26-2.06,2.67,8.37,3.23,10.05,.98,3.09,30.95,180.77,37.64,232.2Z"/><g><path class="cls-8" d="M1559.95,1191.5c-37.92,71.77-126.76,99.36-198.63,61.77,30.07-8,60.09-16.37,89.82-25.62,1.82-.56,3.93-1.36,4.63-3.13,.28-.7,.28-1.45,.33-2.2,.09-4.07-4.21-31.19-11.83-36.61-8.93-6.36-23.57-2.53-34.32,.79-33.85,10.38-39.75,5.56-59.62-3.55-2.62-1.22-5.8-.7-8.6,.05-1.96,.51-4.16,1.12-5.7,2.48-9.3-3.37-16.08-6.31-16.08-6.31l26.33-8.09-24.17-149.11c44.23-47.37,116.29-61.25,176.37-29.55,71.96,38.01,99.5,127.14,61.49,199.1Z"/><path class="cls-5" d="M1467.92,1172.69c-5.01,9.49-13.74,15.29-26.16,17.4-11.42,1.85-23.32,.3-35.7-4.67l-8.11,15.35-16.58-8.76,8.1-15.35c-11.59-7.7-19.9-16.9-24.91-27.58-5.01-10.69-5.11-20.59-.29-29.72l1.17-2.22,17.85,9.43c-3.9,7.4-3.98,15.16-.23,23.29,3.75,8.13,10.64,14.85,20.68,20.15,9.86,5.21,19.1,7.09,27.69,5.64,8.6-1.45,14.69-5.57,18.27-12.35,4.3-8.14,3.57-16.64-2.19-25.51-3.33-5.23-9.46-11.54-18.38-18.94-11.6-9.75-19.62-18.25-24.07-25.48-7.01-11.43-7.75-22.39-2.22-32.86,4.49-8.51,11.79-13.88,21.89-16.11,10.1-2.23,21-1.05,32.71,3.56l8.1-15.35,16.58,8.76-8.11,15.35c11.72,7.46,19.75,16.35,24.08,26.68,4.33,10.33,4.16,19.93-.53,28.81l-17.86-9.43c3.64-6.9,3.65-13.92,.02-21.04-3.63-7.12-9.95-13.06-18.97-17.83-8.51-4.49-16.47-6.1-23.89-4.81-7.42,1.28-12.9,5.25-16.41,11.91-3.52,6.66-2.99,13.48,1.59,20.47,3.01,4.58,8.85,10.42,17.5,17.52,11.83,9.72,20.32,18.77,25.46,27.16,7.92,13.02,8.89,25.2,2.9,36.53Z"/></g><path class="cls-14" d="M742.71,148.46v151.78c0,7.57-5.7,13.79-12.77,13.79h-7.86v917.31c0,24.31-17.86,44.05-39.88,44.05H110.21c-22.02,0-39.88-19.73-39.88-44.05V46.1c0-24.36,17.86-44.09,39.88-44.09H682.21c22.02,0,39.88,19.73,39.88,44.09v88.56h7.86c7.06,0,12.77,6.17,12.77,13.79Z"/><rect class="cls-13" x="97.66" y="64.85" width="597.07" height="1158.01" rx="14.52" ry="14.52"/><rect class="cls-12" x="304.19" y="33.39" width="167.48" height="7.01"/><path class="cls-13" d="M694.74,79.35V1208.33c0,8.04-6.5,14.54-14.54,14.54H112.17c-8,0-14.5-6.5-14.5-14.54V79.35c0-8,6.5-14.5,14.5-14.5H680.19c8.04,0,14.54,6.5,14.54,14.5Z"/><g><path class="cls-8" d="M694.74,1040.28v104.04c-12.53,33.15-36.89,61.53-69.67,78.55h-136.44c-.37-.19-.79-.42-1.17-.65-15.29-8.14-29.13-18.98-40.77-32.08-13.37-15.01-23.85-33.01-30.3-53.45-24.55-77.57,18.42-160.38,96.04-184.93,32.22-10.19,65.32-8.74,94.78,1.96-.23,.56-.51,1.17-.75,1.82-1.5,3.55-3.32,8.51-5.42,14.92-.47,1.4-.94,2.9-1.4,4.49-.14,.33-.23,.7-.33,1.12-.79,2.67-1.64,5.52-2.48,8.56-.09,.19-.14,.42-.19,.61-.33,1.31-.7,2.71-1.08,4.11-2.48,9.35-5,20.43-7.48,33.43-1.08,5.61-2.1,11.55-3.13,17.91-1.85,11.41-3.76,22.94-4.72,34.46-.42,4.98-1.18,9.93-1.59,14.92-1.48,17.79-3.08,35.56-3.93,53.4-.24,5.07-.53,10.13-.7,15.2-.14,4.11-.28,8.32-.42,12.58l10.61,.65,42.78,2.57,45.08-174.22c9.4,11.78,17.11,25.2,22.68,40.03Z"/><path class="cls-5" d="M573.59,1171.25c.14-4.26,.28-8.46,.42-12.58,.14-3.41,.28-6.73,.42-10.05,.09-1.73,.19-3.46,.28-5.14-.7,.28-1.4,.51-2.15,.75-10.8,3.41-20.43,3.6-28.85,.56-8.46-3.04-13.93-8.56-16.46-16.51l-19.22,6.08,.75,2.38c3.09,9.87,10.24,16.74,21.37,20.67,11.13,3.93,23.52,4.49,37.13,1.64l5.24,16.55,11.69-3.69-10.61-.65Zm-36.56-142.15c9.73-3.09,18.42-3.41,26.04-.98,7.62,2.38,12.62,7.34,14.96,14.78l6.92-2.2c1.03-6.36,2.06-12.3,3.13-17.91-3.04-2.71-6.69-4.86-10.94-6.59-10.38-4.16-22.35-4.72-35.91-1.59l-5.24-16.55-17.86,5.66,5.24,16.55c-11.5,5.1-20.01,12.02-25.53,20.81-5.47,8.74-6.78,17.72-3.88,26.89,3.6,11.32,11.88,18.47,24.97,21.51,8.28,1.92,19.97,2.15,35.02,.75,10.47-1.08,18.66-1.12,24.64-.14h.05c.09-1.03,.19-2.06,.28-3.09,.37-3.23,.7-6.41,1.03-9.54,.09-.79,.19-1.54,.28-2.29-7.48-.56-16.13-.33-25.95,.7-11.13,1.17-19.4,1.22-24.78,.14-8.18-1.64-13.42-6.03-15.71-13.23-2.24-7.2-1.22-13.84,3.04-20.06,4.3-6.17,11.03-10.71,20.2-13.61Z"/><path class="cls-8" d="M112.17,1222.87c-8,0-14.5-6.5-14.5-14.54v-86.74c40.96-52.37,96.42-123.54,97.59-126.62l7.01-18.52c7.62,.42,15.34,1.54,23.01,3.23,10.85,2.43,21.13,5.94,30.77,10.52,1.14,.54-.07,21.26,0,23.33,.94,30.91,5.03,61.73,11.65,91.93,.98,5.86,2.62,11.61,4.11,17.35,7.72,29.59,17.62,58.48,30.11,86.41l3.69,4.77c.61,.89,1.26,8.09,1.96,8.88H112.17Z"/><path class="cls-5" d="M256.1,1095.88c2.2-9.77-.19-19.08-7.06-27.91-6.92-8.84-17.02-15.29-30.25-19.41l3.74-16.93-18.28-4.07-3.79,16.93c-12.53-1.36-23.33,.37-32.5,5.24-9.16,4.82-14.78,11.88-16.83,21.28-2.62,11.6,1.03,21.98,10.8,31.14,6.17,5.8,16.18,11.88,29.93,18.24,10.57,4.77,18.14,9.26,22.72,13.42,7.9,7.01,10.85,15.01,8.84,24.03-1.68,7.48-6.45,13.05-14.35,16.69-7.9,3.69-17.3,4.3-28.2,1.87-11.08-2.48-19.5-7.11-25.25-13.98-5.8-6.83-7.76-14.35-5.94-22.54l-19.73-4.35-.51,2.43c-2.24,10.05,.47,19.59,8.09,28.57,7.67,9.02,18.1,15.66,31.33,20.06l-3.79,16.93,18.33,4.07,3.74-16.93c13.28,1.54,25.16-.09,35.68-4.91,11.46-5.33,18.33-13.23,20.67-23.71,2.76-12.48-1.36-23.99-12.44-34.46-7.2-6.73-17.77-13.23-31.75-19.5-10.19-4.54-17.35-8.65-21.46-12.25-6.27-5.56-8.6-12.02-6.97-19.36,1.64-7.34,5.89-12.62,12.72-15.8,6.78-3.18,14.92-3.74,24.27-1.64,9.96,2.2,17.63,6.27,23,12.16,5.38,5.94,7.25,12.67,5.56,20.29l19.69,4.4Z"/><path class="cls-4" d="M490.82,1221.28s-11.41,3.13-28.24,8.37l-147.57,43.63s-17.81-28.76-13.47-53.07c.65-3.69,1.96-6.13,3.69-7.62l.37,1.4c8.98,13.84,37.31,12.11,42.55,4.21,13.79-20.71,24.73-26.61,27.31-27.73,.37-.19,.56-.23,.56-.23,0,0,52.37,8.51,72.76-.98,31.14-14.54,42.04,32.03,42.04,32.03Z"/><path class="cls-10" d="M376.03,1190.23s-12.11,4.3-27.87,27.96c-5.24,7.9-33.57,9.63-42.55-4.21l-1.45-5.47,67.8-21.09-.56-3.32,4.63,6.12Z"/><path class="cls-2" d="M371.96,1187.43l-70.04,21.79c-2.99-4.28-4.27-9.47-6.15-14.28-2.1-5.35-4.31-10.65-6.33-16.03-4.01-10.65-7.68-21.44-10.99-32.33-6.64-21.78-11.88-43.99-15.67-66.45-5.17-30.64-8.01-61.81-6.64-92.89,.12-2.73,.27-5.46,.52-8.18,0,0-15.48-22.16-35.02-53.63l-26.37,69.53c-1.17,3.09-56.62,74.25-97.59,126.62v-138.26c15.1-18.7,25.06-29.41,25.06-29.41,0,0,.34-71.27,.51-80.71,.46-24.38,1.12-48.86,2.95-73.18,.77-10.05,1.5-20.1,2.66-30.11,.72-6.2,1.56-12.44,2.81-18.56,.5-3.15,1.3-6.43,2.34-9.45,2.29-6.61,7.31-.69,14.67-1.62,41.51-25.95,30.87-29.33,30.87-29.33,88.26,26.47,118.81,19.17,118.81,19.17l3.55,21.98,32.45,217.38,37.59,217.94Z"/><path class="cls-3" d="M506.63,650.83s.51-3.04,1.45-8.32c.33-2.01,.75-4.3,1.22-6.92,.47-2.71,.98-5.8,1.59-9.07l-91.69-47.79-76.4-109.55-.61-.84s-1.92-2.85-4.54-6.17c-2.2-2.81-4.86-5.99-7.25-8.04l-20.57-9.63-.79,2.85-4.4,15.48c0,.14-.05,.23-.09,.37l-1.68,5.99-2.48,8.79c-.05,.23-.09,.33-.09,.33,0,0-1.73-1.45-4.54-3.83-1.17-.98-2.48-2.1-3.93-3.32-.75-.61-1.5-1.26-2.29-1.96-2.48-2.1-5.28-4.49-8.18-7.01-2.67-2.29-5.47-4.72-8.28-7.2-1.12-1.03-2.29-2.06-3.46-3.04-.23-.23-.47-.47-.75-.7-1.36-1.22-2.76-2.48-4.11-3.69-2.71-2.38-5.33-4.77-7.71-7.01-.47-.42-.94-.84-1.36-1.26-1.36-1.26-2.62-2.48-3.79-3.65-.79-.79-1.54-1.5-2.2-2.2-1.22-1.22-2.24-2.34-3.04-3.32-.65-.65-1.12-1.26-1.5-1.78-.05-.09-.09-.19-.14-.23-.09-.14-.19-.23-.23-.37-.65-.94-.75-1.5-.28-1.64-1.73,.47-3.51,.65-5.38,.47,0,0-10.61,1.31-14.96,1.54-12.02,.7-35.96,5.19-35.96,5.19-7.2,1.22-17.72,6.69-29.69,14.4,0,.05-.05,.05-.05,.05-14.5,9.35-31.19,22.12-46.9,34.93-2.24,1.82-4.49,3.65-6.69,5.47-1.68,1.36-3.32,2.71-4.91,4.07-.75,.61-1.54,1.26-2.29,1.87v191.57l6.17-4.3,3.32-2.24,35.35-24.46,.89-.61-41.05-80.52s15.29-9.07,31.61-18.98c16.46-10.01,36.47-22.35,52.7-32.87-16.88,51.39-30.58,128.96-30.86,129.33-1.54,3.27-2.99,6.17-4.49,8.7,1.78,.84,3.65,1.68,5.38,2.53,1.5,.7,2.9,1.4,4.07,1.96h.05c1.26,.7,2.24,1.22,2.71,1.54,4.54,3.18,7.11,8.14,10.47,12.34,.42,.56,.89,1.12,1.36,1.64l.19,.19c1.12,1.22,2.38,2.29,3.79,3.23,1.64,1.08,3.51,1.87,5.28,2.76,.7,.33,1.4,.7,2.1,1.12,.51,.33,1.03,.66,1.5,1.03,1.45,1.12,2.67,3.04,1.54,4.44-.47,.51-1.22,.84-1.92,1.08-2.85,.98-5.89,1.36-8.88,1.17h-.14c-3.65-.19-7.25-1.17-10.29-2.95-.42-.19-.65-.33-.65-.33l9.3,13.23c1.08,1.68,1.92,3.97,2.38,6.31,10.43,3.41,19.83,6.22,26.33,7.86,51.76,13.05,77.85,12.91,87.67,11.97,.33,0,.65-.05,.94-.09,1.08-.09,1.92-.19,2.52-.33h.09c.37-.05,.65-.09,.84-.14,.09-.05,.14-.05,.23-.05,.14-.05,.19-.05,.19-.05l8.65-42.74s20.34-52.6,31.47-108.85l44.75,48.82c6.78,7.39,75.19,42.08,107.26,58.12,1.22-4.16,2.95-8.18,5.1-11.74,1.36-2.2,3.74-5.7,6.5-9.58,1.64-2.25,3.41-4.63,5.14-7.01,1.59-2.2,3.18-4.35,4.68-6.31h-5.28Z"/><path class="cls-10" d="M189.75,692.45c-.47,.51-1.25,.76-1.92,1.08-8.28,3.93-19.97-2.1-19.97-2.1l9.3,13.23c1.08,1.68,1.92,3.97,2.38,6.31,.84,4.25,.23,8.84-3.55,10.61,0,0-34.74,19.97-37.64,18.66-.98-.42-5-2.76-6.03-3.46-6.64-4.63-13.84-12.06-17.72-19.87-2.95-5.94-5.7-24.41-6.97-33.95-.23-1.59-.37-2.9-.47-3.88l35.35-24.46,.89,1.5s17.49,7.76,20.11,9.59c6.59,4.63,9.02,12.95,15.8,17.39,2.81,1.82,6.22,2.85,8.88,4.91,1.45,1.12,2.67,3.04,1.54,4.44Z"/><path class="cls-10" d="M258.57,378.93c-3.18-5.66-9.16-13.79-20.01-25.34-.51-.56-.94-1.12-1.31-1.73l-.05-.05c-.8-1.45-1.45-2.9-1.92-4.3-.09-.28-.19-.61-.23-.89-.7-3.65,.09-7.48,2.43-10.52,4.07-5.14,12.67-6.59,17.21-1.92,1.22,1.26,2.76,3.83,4.3,6.41,.42,10.01-.65,23.94-.42,38.34Z"/><path class="cls-10" d="M309.12,447.34c.56,1.87-8.84,30.95-8.84,30.95,0,0-60.83-50.83-55.78-52.23,8.28-2.29,13.7-22.35,15.52-27.35,.37,2.48,.79,4.96,1.36,7.39,4.44,19.26,26.37,25.72,45.22,27.63-.75,7.62-.56,13.61,2.53,13.61Z"/><path class="cls-10" d="M371.92,363.64c-1.4,4.16-8.6,9.02-11.69,11.46-11.41,9.07-19.4,3.41-32.5,2.95-10.05-.33-24.27,2.85-34.32,2.2-8.65-.56-16.93-5.99-20.95-13.7-3.13-5.89-1.87-15.71-1.92-22.07,0-.56-.28-3.09-.37-3.79v-.09c-1.59-16.18,8.42-23.52,16.32-28.01,12.25-6.87,28.2-3.41,40.87-1.08,7.57,1.36,15.38,1.5,22.96-.14,5.14-1.08,11.78-2.53,18.19-4.63,.09,.23,.14,.42,.19,.65,1.17,4.25,2.15,8.84,2.9,13.75,.89,5.75,1.5,11.97,1.87,18.7,.42,8.23-.09,16.23-1.54,23.8Z"/><path class="cls-7" d="M348.94,371.86c-.92,7.87,4.73,15.02,12.6,15.95,.77,.09,1.51,.14,2.27,.06,3.92-7.68,6.79-16.32,8.34-25.56-2-1.64-4.48-2.72-7.25-3.04-7.87-.92-15.02,4.69-15.95,12.6Z"/><path class="cls-12" d="M332.23,372.71c-2.91,0-5.79-.6-7.84-2.4-1.45-1.28-1.59-3.5-.31-4.95,1.28-1.44,3.49-1.59,4.95-.31,.82,.72,4.32,1.09,9.57-.34l-3.21-26.31c-.23-1.92,1.13-3.67,3.06-3.91,1.93-.2,3.67,1.13,3.91,3.06l3.26,26.73c.39,3.23-1.72,6.24-5.03,7.15-2.18,.6-5.28,1.27-8.36,1.27Z"/><path class="cls-12" d="M353.5,352.12c-1.89-.03-3.77-1.39-3.49-3.81l.61-5.19c.22-1.92,1.95-3.34,3.89-3.07,1.92,.23,3.3,1.97,3.08,3.89,0,0-.61,5.17-.61,5.19-.25,2.08-1.86,3.02-3.48,2.99Z"/><path class="cls-12" d="M310.06,349.17c-1.89-.03-3.77-1.38-3.49-3.81l.61-5.19c.22-1.92,1.97-3.35,3.89-3.07,1.92,.23,3.3,1.97,3.07,3.89,0,0-.61,5.17-.61,5.19-.24,2.07-1.86,3.02-3.48,2.99Z"/><path class="cls-7" d="M284.08,367.97c-.93,7.88,4.71,15.02,12.6,15.95,7.88,.93,15.02-4.71,15.95-12.6,.93-7.88-4.71-15.02-12.6-15.95-7.88-.93-15.02,4.71-15.95,12.6Z"/><path class="cls-12" d="M303.73,328.57c-1.74,0-3.26-1.3-3.48-3.08-.24-1.92,1.13-3.67,3.05-3.91,5.15-.63,10.37-.93,15.59-.85,1.48,.02,3.08,1.1,3.56,2.49,.5,1.43-.02,3.12-1.23,4.03-.99,.75-2.37,.93-3.54,.48-4.54,0-13.82,.83-13.97,.83Z"/><path class="cls-12" d="M361.05,327.32c-1.92,.02-4.03-.96-5.9-1.36-2.12-.45-4.19-.66-6.36-.69-1.92-.02-3.54-1.49-3.59-3.42-.05-1.94,1.49-3.54,3.42-3.59,4.7-.13,9.28,1.1,13.32,2.16,1.87,.5,2.99,2.42,2.49,4.29-.41,1.54-1.85,2.59-3.39,2.61Z"/><g><path class="cls-9" d="M259.07,440.51c2.35,2.38,4.7,4.77,7.14,7.01h-100.64c1.61-1.26,3.22-2.57,4.83-3.88,1.35-1.08,2.66-2.15,4.05-3.13h84.62Z"/><path class="cls-9" d="M282.09,462.16c2.86,2.15,5.63,4.44,8.04,7.01H133.74l9.26-7.01h139.08Z"/><path class="cls-9" d="M345.37,469.18h-42.92c.89-2.29,1.68-4.63,2.43-7.01h35.07c1.92,2.24,3.69,4.63,5.42,7.01Z"/><path class="cls-9" d="M354.07,490.87H107.09l9.45-7.01h233.14c1.46,2.34,2.88,4.68,4.39,7.01Z"/><path class="cls-9" d="M368.47,512.52H95.94c-.32-2.34-.6-4.68-.92-7.01H363.76c1.56,2.34,3.11,4.72,4.72,7.01Z"/><path class="cls-9" d="M383.41,534.17H186.25l2.86-7.01h190.7c1.51,2.34,2.13,4.63,3.61,7.01Z"/><path class="cls-9" d="M135.55,549l-11.06,7.01h-26.49c-.05-1.59-.09-3.23-.19-4.86-.05-.7-.09-1.45-.14-2.15h37.88Z"/><path class="cls-9" d="M398.31,555.82l-217.57,.05,1.49-7.01h211.45c1.01,2.29,4.64,6.97,4.64,6.97Z"/><path class="cls-9" d="M414.46,577.52H174.72l1.54-7.01h233.51c1.18,2.2,2.5,4.3,4.04,6.27,.18,.23,.41,.51,.64,.75Z"/><path class="cls-9" d="M111.24,599.15l-13.57-.08s-.14-4.29,0-6.62l10.05-.22,3.52,6.92Z"/><path class="cls-9" d="M171.19,592.15h160.16c-.22,2.38-.49,4.68-.88,7.01H169.69l1.5-7.01Z"/><path class="cls-9" d="M448.94,599.17h-86.77c-1.6-1.82-3.21-3.65-4.81-5.47-.45-.51-.89-1.03-1.34-1.54h81.25c3.69,2.57,7.61,4.91,11.66,7.01Z"/><path class="cls-9" d="M97.66,621.09c.17-.7,0-7.21,0-7.21l21.47-.03,2.93,7.01-24.4,.23Z"/><path class="cls-9" d="M166.58,613.85h159.53c-.52,2.38-1.18,4.72-1.92,7.01H165.1l1.49-7.01Z"/><path class="cls-9" d="M491.83,620.99l-110.87-.13c-1.88-2.24-3.72-4.63-5.52-7.01h105.19l11.2,7.14Z"/><path class="cls-9" d="M133.98,642.51h-37.13c.05-2.34,.19-4.68,.42-7.01h33.53l3.18,7.01Z"/><path class="cls-9" d="M162.29,635.5h158.25c-.4,1.26-.79,2.52-1.19,3.79-.31,1.08-.62,2.15-.84,3.23H160.79l1.5-7.01Z"/><path class="cls-9" d="M512.16,639c0,1.64-1.07,3.04-2.53,3.41-.26,.05-.51,.09-.77,.09h-94.83c-3.34-2.15-6.51-4.49-9.63-7.01h104.46c.68,0,1.33,.23,1.84,.61,.9,.61,1.46,1.68,1.46,2.9Z"/><path class="cls-9" d="M156.55,657.15l157.31,.18c-.23,1.31-2.53,5.81-2.76,6.83H156.71c-.03-1.54-.13-6.22-.16-7.01Z"/><path class="cls-9" d="M512.16,660.65c0,1.96-1.44,3.51-3.25,3.51h-53.02c-.46-.33-.89-.61-1.35-.89-3.59-2.29-7.35-4.25-11.15-6.12h65.52c1.82,0,3.25,1.59,3.25,3.51Z"/><path class="cls-9" d="M175.3,678.84h130.58c-.54,2.34-1.08,4.68-1.65,7.01h-126.07c.03-1.26-2.83-5.05-2.86-7.01Z"/><path class="cls-9" d="M300.59,700.49c-.43,2.34-.87,4.68-1.22,7.01h-117.16l-4.05-7.01h122.43Z"/></g></g><path class="cls-8" d="M364.9,263.34c-50.83-76.59-130.6-20.11-126.34-.61-14.36,5.8-44.42,27.68-23.05,80.8,5.38,13.33,22.16,38.39,43.53,46.34,.42,5.52,1.17,10.99,2.34,16.23,5.47,23.66,37.27,27.96,57.37,28.38,28.19,.56,48.16-24.13,50.73-50.45,.56-5.94,1.92-14.59,2.57-20.81-1.03,4.25-8.65,9.35-11.83,11.88-11.41,9.07-19.4,3.41-32.5,2.95-10.05-.33-24.27,2.85-34.32,2.2-8.65-.56-16.93-5.99-20.95-13.7-3.13-5.89-1.87-15.71-1.92-22.07,0-.56-.28-3.09-.37-3.79v-.09c-1.59-16.18,8.42-23.52,16.32-28.01,12.25-6.87,28.2-3.41,40.87-1.08,7.57,1.36,15.38,1.5,22.96-.14,5.28-1.12,12.16-2.62,18.7-4.82-.37,.7,6.08,33.95,4.58,48.35,1.31-1.31,2.48-2.85,3.37-4.49,1.82-3.27,2.71-6.92,3.46-10.57,2.76-13.28,3.97-26.89,3.65-40.45-.33,.19,2.38-2.24,3.6-3.83,7.15-9.35,10.71-36.94-22.77-32.22Zm-106.33,115.59c-3.18-5.66-9.16-13.79-20.01-25.34-4.44-4.77-5.1-12.34-1.08-17.49,4.07-5.14,12.67-6.59,17.21-1.92,1.22,1.26,2.76,3.83,4.3,6.41,.42,10.01-.65,23.94-.42,38.34Z"/><path class="cls-12" d="M323.36,398.54c-1.9,0-3.79-.25-5.61-.77-3.79-1.07-7.28-3.33-9.61-6.51-.7-.96-1.31-2.05-1.31-3.23,0-2.57,2.95-4.34,5.24-2.92,1.01,.63,1.61,1.72,2.37,2.64,3.71,4.51,10.21,4.4,15.25,2.56,2.78-1.02,3.56-2.86,5.51-4.8,2.41-2.4,6.01,.34,5.6,3.31-.22,1.6-1.23,2.98-2.38,4.11-2.46,2.41-5.66,3.99-8.99,4.85-1.98,.51-4.03,.78-6.07,.77Z"/><path class="cls-13" d="M920.81,1249.48l-59.29,9.82c-7.48,1.22-15.01-1.73-20.62-7.48-5.8-5.89-13.19-10.57-20.57-14.21l1.87,28.2-17.58,2.95-10.99-41.24c-16.42-6.97-5.97-38.57,2.15-48.44,6.69,9.45,26.84,20.15,34.88,22.44,30.11,8.65,34.93,.79,27.35-9.96,17.77,17.67,35.21,24.45,47.09,26.93,9.59,2.06,17.21,10.15,19.59,20.48l.65,2.99c.84,3.51-1.26,6.97-4.54,7.53Z"/><path class="cls-10" d="M830.66,1201.5c-8.79-2.52-32.08-15.1-36.42-25.06l46.24-14.31c4.58,10.85,9.63,19.92,15.24,26.46,10.52,12.16,7.72,22.35-25.06,12.91Z"/><path class="cls-13" d="M686.04,1264.21l-.05,3.09c0,3.65-2.85,6.5-6.17,6.27l-59.94-4.25c-7.57-.51-14.17-5.19-18.33-12.06-4.25-7.06-10.38-13.33-16.69-18.61l-4.72,27.87-17.77-1.26-1.12-42.64s-2.67-2.01-2.85-2.34c-6.64-13.23,5.38-36.1,16.23-44.33,4.3,10.75,21.42,25.9,28.71,30.02,27.59,15.57,33.9,8.7,28.76-3.74,13.19,21.6,28.66,32.31,39.7,37.59,8.79,4.21,14.35,13.84,14.26,24.41Z"/><path class="cls-10" d="M630.72,1199.21c7.34,14.26,2.29,23.52-27.4,6.73-8.42-4.77-30.02-24.27-29.74-34.69l50.27,3.04c1.17,9.63,3.37,18.1,6.87,24.92Z"/><path class="cls-4" d="M840.48,1162.13l-54.94,17.02c-52.09-138.73-46.43-211.25-46.43-211.25-.28-.42-18.33-36.05-39.56-78.09l-15.52,64.11-57.05,220.56-53.4-3.23c4.82-165.9,36.24-223.18,36.24-223.18-.42,.14,6.03-92.77-6.97-171.37-2.71-16.37-28.24-52.56-1.96-88.98l.23,.09s.09-.14,.09-.19c5.24,9.68,55.08,21.7,78.18,25.39,48.35,7.67,67.61,3.32,74.25,.7l8.32,44.56,50.13,211.25,28.38,192.6Z"/><path class="cls-10" d="M928.95,693.15c-.51,1.54-8.18,5.89-11.13,6.5-4.02,.79-19.64,.19-19.64,.19,5.47,4.91,30.67,46.15,21.65,52.88-13.7,9.45-30.21,14.73-38.39,4.26-13.61-13.33-31.79-37.13-35.44-53.77l38.34-29.97c4.77,.51,9.35,1.31,11.27,2.1,2.71,1.12,21.04,14.21,29.22,12.91,4.54-.75,5.75,.19,4.11,4.91Z"/><path class="cls-1" d="M827.81,604.49l-8.6-9.54-13.65-60.23c12.39-17.63,19.87-52.79-26.37-115.12-2.34-3.18-6.55-4.4-10.43-4.4h-5.14s17.16,59.34-52.84-2.38c0,0,.65-1.92,1.54-5.14-2.85,.84-5.75,1.87-8.6,3.09-7.58-.05-20.53,.19-31.56,4.44-53.87,20.71-133.92,76.17-136.25,85.24-10.85,42.41-29.27,150.37-29.27,150.37h50.22l20.99-125.03c2.01-1.78,52.6-25.62,80.33-37.73,9.16,109.7-4.16,117.74-27.21,147.43-9.26,11.88-27.07,41.05-30.07,49.61-3.51,9.96,53.35,23.89,78.51,27.91,60.65,9.63,75.56,.33,77.1-.79-.23-2.29,17.67-89.36,17.67-89.36l69.58,82.11,43.77-34.27-59.71-66.21Zm-148.55-131.2c-.09,0-.23-.05-.33-.14l.56-.37-.23,.51Z"/><path class="cls-10" d="M573.87,674.82l-18.05,44c-1.64,4.02-5.56,6.27-8.74,4.96l-6.87-2.8c-.75-.33-1.45-.75-2.1-1.26-3.41,4.3-8.88,8.14-13.33,5.7l-33.76-12.67c-5.56-3.09-3.93-25.06,4.58-39,2.9-4.72,10.52-15.15,16.32-22.91h44.93l1.08-6.41,1.36,5.94c1.22,1.78,2.24,6.27,2.99,11.36,.65,.14,1.31,.28,1.96,.56l6.87,2.8c3.18,1.31,4.4,5.66,2.76,9.73Z"/><path class="cls-12" d="M752.35,542.86c-.06,0-.12,0-.18,0-11.96-.92-23.69-4.69-33.93-10.91-1.1-.67-1.45-2.11-.78-3.21,.67-1.1,2.11-1.45,3.21-.79,9.61,5.84,20.63,9.39,31.86,10.24,1.29,.1,2.25,1.22,2.15,2.51-.09,1.23-1.12,2.16-2.33,2.16Z"/><path class="cls-13" d="M1344.86,345.68l3.23,9.96-2.9,1.03c-6.12,2.2-9.54,8.88-8.37,15.76-.98,.45-7.49-2.96-14.96,5.89l-4.44-13.75-9.21,6.83c-13.09,9.73-31.24,7.34-40.59-5.24l-.37-.47c-9.35-12.62-6.36-30.67,6.73-40.4l33.39-24.78,80.56-122.18,93.94,126.48-137,40.87Z"/><path class="cls-14" d="M1371,453.98l-7.01-2.1-23.52-7.11-7.01-2.1-12.67-3.83-6.55,24.45-1.87,7.01-2.38,8.98-7.01,26.28-5,18.75-.37,1.4s-1.26-1.4-1.26-1.4c-5.96-6.62-9.35-15.2-15.21-22.05-7.06-8.25-13.87-16.72-20.19-25.56-3.05-4.41-18.6-21.04-23.45-25.09-4.18-3.5-8.71-7.58-14.19-8.8-.84-.19-1.73-.37-2.71-.51-2.42-.35-4.82-.79-7.24-1.12-1.79-.24-3.86-.37-5.6-.07,1.12,4.16,4.29,8.41,6.29,12.27,4.12,7.96,8.24,15.92,12.34,23.89,2.05,3.99,3.95,8.06,5.89,12.11,2.76,5.69,5.47,11.49,7.48,17.49,18.84,56.2,26.79,229.77,26.79,229.77l-14.21,2.01s-42.5-191.48-53.44-220.37c-10.94-28.94-67.66-77.39-67.66-77.39,0,0-3.51-.47-4.35-.09-4.83,2.1-9.19,5.12-13.94,7.38-5.45,2.6-11.12,4.71-16.59,7.25-2.38,1.08-4.77,2.24-7.01,3.6-4.79,2.9-16.46,22.58-17.49,28.52-1.08,2.01-2.2,4.11-3.27,6.27-5.02,10.04-9.8,20.21-14.31,30.49-1.03,2.29-2.06,4.63-3.09,7.01-3.32,7.72-6.64,15.66-9.87,23.52-.98,2.34-1.92,4.68-2.85,7.01-1.08,2.66-2.1,5.28-3.13,7.86-3.04,7.53-5.93,15.11-8.88,22.68-6.8,17.77-14.86,35.64-19.87,54.01-.65,2.34-1.12,4.68-1.36,7.01-.84,8.23,.98,16.41,5,23.52,1.45,2.53,3.13,4.86,5.05,7.01,3.73,4.18,8.25,7.13,13.05,9.91l7.01,4.02,23.47,13.56,5.14,2.99,25.39,14.64s7.01,4.07,7.06,4.11c-.37,1.64-.79,3.23-1.17,4.77-.56,2.29-6.27,24.64-7.53,30.49-.65,2.81-1.12,5.14-1.31,7.01-.09,.37-.09,.65-.14,.98,0,0,28.57,1.78,37.87,2.1,2.24,.09,35.12,.51,37.5,.51,7.58,0,15.48-.19,23.52-.47,2.34-.05,22.63-1.08,30.53-1.73,2.34-.19,12.3-1.12,14.96-1.4,5.19-.56,10.38-1.22,15.52-1.96,.84-.14,2.76-7.25,2.76-7.25l4.16-21.28,3.46-6.31,12.37-1.41,2.06,8.81,1.5,9.5,8,11.29c1.08-.28,3.25-1.15,4.93-1.67,0,0-4.47-36.3-5.21-38.22,0,0-3.41-79.68-3.37-80.56,.37-6.97,1.12-45.87,.93-54.01,0-1.92-.05-3.83-.09-5.8l1.78,.84,10.71,4.96,12.81,5.94,.89,.42c1.96,.94,4.02,1.64,6.12,2.15,8,1.92,16.46,.61,23.47-3.6,2.24-1.31,4.35-2.95,6.27-4.86,0-.05,.75-2.43,.75-2.43l1.45-4.63,7.25-23.52,2.2-7.01,7.25-23.52,2.2-7.01,3.18-10.33,4.07-13.14,2.15-7.01,.79-2.48,6.5-21.09,1.96-6.22,2.1-6.87-10.57-3.18Zm-267.64,213.4l-7.01-3.93-7.01-3.93-10.9-6.12-4.16-2.34s.84-1.68,2.38-4.68c2.48-4.91,6.73-13.33,11.83-23.52,.28-.56,.56-1.17,.84-1.73,.89-1.73,1.73-3.46,2.62-5.28,1.45-2.85,2.9-5.8,4.4-8.84,2.34-4.77,4.77-9.68,7.15-14.64h.05v-.05c1.12-2.34,2.25-4.63,3.37-6.97,.42-.84-3.6,78.18-3.55,82.01Z"/><path class="cls-10" d="M1217.92,748.41l-18.28,32.78c-4.07,5.33-27.21,2.62-40.82-6.59-5.38-3.6-16.27-17.21-22.58-25.39,1.4-3.23,2.34-6.73,3.37-10.15,2.15-7.25,5.05-14.26,8.51-20.95,2.34-4.58,5.05-9.07,6.83-13.84,3.93-.09,18.1-.28,22.91,.23,8.46,.89,14.96,7.11,23.47,7.76,3.51,.23,7.2-.56,10.71,0,1.92,.28,4.02,1.4,3.69,3.18-.19,.7-.7,1.36-1.22,1.92-4.91,5.28-12.44,8.28-19.5,8.04l15.34,7.25c5.24,2.8,11.55,10.38,7.57,15.76Z"/><path class="cls-10" d="M1374.32,409.46c-5.56-14.73-17.3-49.05-17.3-49.05-1.36-3.88-5.28-6.03-8.79-4.82l-3.04,1.08c-6.12,2.2-9.54,8.88-8.37,15.76-.94,.42-1.59,.65-1.68,.42-3.37-1.4-7.43,.05-11.18,5.33-.61-2.1-16.6,40.54-3.18,57.14,1.64,2.01,4.49,3.97,7.86,5.89,.05,0,.05,.05,.09,.05l4.72,1.4,7.01,2.1,23.52,7.11,1.54,.47c4.4-6.31,17.49-19.83,8.79-42.88Z"/><path class="cls-13" d="M1361.04,421.85c-6.45,0-12.39-4.4-14.68-10.99l-5.94-16.79c-2.34,4.16-5.83,6.55-7.14,8.42,.05,.42-.09,5.24,0,7.25l3.67,13.67c2.2,6.78,13.06,12.01,19.42,10,3.37-1.12,7.76-5.41,9.17-8.5,.37-.75-2.2-2.5-2.02-3.3-.79,.19-1.64,.23-2.48,.23Z"/><polygon class="cls-9" points="97.66 664.5 121.47 664.5 132.42 657.15 97.66 657.15 97.66 664.5"/><polygon class="cls-9" points="97.66 534.17 160.25 534.17 171.08 527.16 97.66 527.16 97.66 534.17"/><g><path class="cls-4" d="M808.92,285.27c-2.38,4.44-9.02,7.62-13.51,9.87-11.69,5.89-28.85-.42-41.9-1.36-29.74-2.15-44.56,25.67-44.56,25.67-4.25-11.97-16.51-13.65-22.54-8.56-3.13,2.67-4.58,7.15-2.29,13,.98,2.57,1.92,4.68,2.85,6.5,4.86,9.63,8.28,10.15,12.95,29.5-4.4-2.99-8.65-6.31-12.58-10.01-.09,7.15-.89,14.26-3.55,20.9-5.75,14.12-19.83,23.94-34.93,27.54-15.1,3.55-31.09,1.54-46.01-2.76,13.47-7.29,26.65-18.28,28.66-33.2,1.73-12.91-4.26-26.47-7.01-38.95-2.43-11.08-4.35-22.35-4.63-33.71-.47-21.88,6.41-44,28.52-53.3,7.67-3.23,16.23-4.35,24.48-3.38,4.13,.49,8.21,1.51,12.06,3.11,1.62,.67,3.67,2.31,5.35,2.04,1.45-.23,3.89-2.77,5.23-3.58,15.2-9.2,33.51-10.34,50.65-7.17,28.1,5.19,38.06,20.76,40.54,21.65,13,4.68,30.02,21.65,22.21,36.19Z"/><path class="cls-10" d="M810.79,320.95c-.33,6.55-1.08,13-2.2,19.17-1.22,6.55-2.85,12.86-4.86,18.7-7.57,21.51-20.9,37.36-40.45,39.51l.33,16.88s17.16,59.34-52.84-2.38c0,0,5.66-15.9,5.89-33.15-6.78-5.99-12.86-13-17.58-20.34,.28,.19,.56,.37,.84,.56-4.68-19.36-8.09-19.87-12.95-29.5v-.05c-.94-1.78-1.87-3.88-2.85-6.45-2.29-5.84-.84-10.33,2.29-13,6.03-5.1,18.28-3.41,22.54,8.56,0,0,14.82-27.82,44.56-25.67,13.05,.93,30.21,7.25,41.9,1.36,4.49-2.24,11.13-5.42,13.51-9.87,0,0,0-.05,.05-.05,2.15,9.96,2.62,21.88,1.82,35.72Z"/><path class="cls-12" d="M770.43,375.71c-4.54,0-9.08-1.17-12.21-3.37-.42-.29-.81-.6-1.19-.91-1.52-1.2-1.97-3.55-.78-5.07,1.2-1.52,3.21-1.93,4.74-.74l.42,.33c.26,.21,.54,.43,.84,.64,3.1,2.17,9.5,2.73,13.69,1.21,1.54-.56,2.89-1.39,3.92-2.4,1.39-1.35,3.61-1.33,4.96,.05,1.36,1.38,1.33,3.61-.05,4.96-1.74,1.7-3.96,3.08-6.43,3.98-2.43,.89-5.17,1.31-7.91,1.31Z"/><path class="cls-12" d="M718.23,277.39c-.62,0-1.24-.25-1.71-.74-.88-.94-.84-2.42,.11-3.31,5.03-4.72,11.46-7.41,19.65-8.22,1.27-.09,2.43,.81,2.56,2.1,.13,1.29-.81,2.43-2.1,2.56-7.12,.71-12.65,2.99-16.91,6.98-.45,.42-1.02,.63-1.6,.63Z"/><path class="cls-12" d="M639.69,387.59c-1.25-.04-2.42-1.02-2.41-2.35,0-1.29,1.05-2.33,2.34-2.33,.04,.02,.05,0,.08,0,14.52,0,23.31-12.22,27.26-19.52,.62-1.13,2.04-1.56,3.17-.94,1.13,.61,1.56,2.03,.94,3.17-4.45,8.21-14.43,21.96-31.37,21.96Z"/><path class="cls-7" d="M756.93,351.37c0,7.89-6.4,14.29-14.29,14.29s-14.29-6.4-14.29-14.29,6.4-14.29,14.29-14.29,14.29,6.4,14.29,14.29Z"/><path class="cls-12" d="M700.73,333.98c-.63,0-1.27-.26-1.73-.77-3.12-3.43-6.27-8.5-6.27-12.08,0-1.29,1.05-2.34,2.34-2.34s2.34,1.05,2.34,2.34c0,1.86,2.26,5.87,5.05,8.94,.87,.95,.8,2.43-.16,3.3-.45,.41-1.01,.61-1.57,.61Z"/><path class="cls-12" d="M798.26,331.37c-1.94,0-3.51-1.57-3.51-3.51v-4.43c0-1.94,1.57-3.51,3.51-3.51s3.51,1.57,3.51,3.51v4.43c0,1.94-1.57,3.51-3.51,3.51Z"/><path class="cls-12" d="M749.18,333.92c-1.94,0-3.51-1.57-3.51-3.51v-4.08c0-1.94,1.57-3.51,3.51-3.51s3.51,1.57,3.51,3.51v4.08c0,1.94-1.57,3.51-3.51,3.51Z"/><path class="cls-7" d="M805.82,338.43c-.2,1.1-.43,2.19-.66,3.28-1.36,6.52-3.12,12.74-5.24,18.5-.68,1.85-1.39,3.66-2.14,5.39-6.05-1.47-10.45-7.49-10.16-14.47,.32-7.91,6.49-14.04,13.76-13.74,1.58,.06,3.08,.41,4.45,1.04Z"/></g><g><path class="cls-13" d="M651.73,711.95v350.69c-2.34,9.02-4.68,18.1-7.01,27.12v-379.4c2.29,.56,4.63,1.08,7.01,1.59Z"/><path class="cls-13" d="M680.72,717v233.7c-2.34,9.02-4.68,18.1-7.01,27.21v-261.94c2.34,.37,4.68,.75,7.01,1.03Z"/><path class="cls-13" d="M709.71,719.8v178.9c-2.85-6.59-5.28-12.48-7.01-16.79v-162.53c2.38,.19,4.72,.33,7.01,.42Z"/><path class="cls-13" d="M738.7,719.66v237.67c-2.15-5.28-5.1-12.11-7.01-14.87v-222.38c2.38-.09,4.72-.23,7.01-.42Z"/><path class="cls-13" d="M767.74,796.95v326.51c-2.43-8.18-4.72-16.41-7.01-24.64v-334.28c2.34,10.75,4.68,21.51,7.01,32.4Z"/><path class="cls-13" d="M796.73,919.18v257.32c-2.76,.65-5.38,1.17-7.01,1.54v-285.8c2.2,8.7,4.54,17.67,7.01,26.93Z"/><path class="cls-13" d="M825.72,1087.28v79.64l-7.01,2.34v-128.64c1.78,13.56,4.49,30.91,7.01,46.66Z"/><path class="cls-13" d="M593.75,707.88v30.77c-2.29-13.37-2.71-22.35,0-30.77Z"/><path class="cls-13" d="M593.75,1007.97v165.29c-2.39-.19-4.77-.33-7.01-.47v-111.94c.98-11.92,2.1-23.75,3.51-35.4,.84-6.87,2.1-12.48,3.51-17.49Z"/><path class="cls-13" d="M622.74,704.37v469.8c-1.4,.09-3.88-.05-7.01-.23v-472.04c2.2,.84,4.54,1.64,7.01,2.48Z"/></g><path class="cls-6" d="M1211.42,440.93v7.53c.84,1.5,1.68,3.18,2.62,4.91,.7,1.36,1.45,2.71,2.2,4.11,.7,1.36,1.45,2.81,2.2,4.25v-19.83c-2.06-.33-4.4-.65-7.01-.98Zm30.49,251.42v15.06h-23.47v-23.47h21.56c-.51-2.29-1.03-4.63-1.59-7.01h-19.97v-23.52h14.54c-.51-2.34-1.08-4.68-1.59-7.01h-12.95v-23.52h7.43c-.56-2.34-1.12-4.68-1.64-7.01h-5.8v-23.47h.19c-2.48-10.29-4.91-20.15-7.2-29.18v22.16h-23.8l.05-23.52h23.43c-.61-2.43-1.21-4.72-1.78-7.01h-21.65l.05-23.52h15.29c-.75-2.62-1.45-4.96-2.1-7.01h-13.19l.05-23.47h1.12c-2.43-3.41-5.14-6.87-8-10.33v3.32h-23.52v-23.52h5.14c-4.21-4.3-8.32-8.32-12.16-12.02v5h-23.47v-22.49c-2.15,.94-4.44,2.15-6.83,3.6-.05,.05-.14,.09-.19,.09v18.8h-23.52v-7.86c-2.38,1.08-4.77,2.24-7.01,3.6v4.26h-2.7c-1.82,1.78-3.55,4.21-5.1,7.01h7.79v23.52h-20.76c-.89,1.73-1.78,3.55-2.71,5.38v.09c-.23,.51-.51,1.03-.75,1.54h24.22v23.47h-23.52v-16.69c-.23,.47-.47,.98-.7,1.45h-3.88c-.84,1.73-1.64,3.46-2.43,5.19v10.05h-4.58c-.98,2.29-2.01,4.63-3.04,7.01h7.62v23.52h-17.49c-.98,2.34-1.92,4.68-2.85,7.01h20.34v23.52h-23.47v-15.66c-2.15,5.33-4.21,10.61-6.17,15.66-.28,.75-.56,1.45-.84,2.2v28.29h-10.71c-.94,2.48-1.82,4.82-2.62,7.01h13.33v23.52h-19.26c-1.26,0-2.43,.79-2.95,1.96-.14,.51-.28,1.03-.37,1.54,0,1.92,1.54,3.51,3.32,3.51h19.26v23.52h-18.1c1.45,2.53,3.13,4.86,5.05,7.01h13.05v9.91l7.01,4.02v-13.93h23.47v27.49l5.14,2.99h25.39v14.64l7.01,4.07v-18.7h23.52v23.52h-23.52v-4.58c-.37,1.59-.75,3.09-1.12,4.58-.42,1.73-3.74,14.73-5.89,23.57v6.92h-1.64c-.65,2.81-1.12,5.14-1.31,7.01h33.48v3.09c2.24,.09,4.58,.14,7.01,.23v-3.32h30.49v-1.87c-1.64-1.31-3.46-3.09-5.38-5.14h-25.11v-23.47h10.8c.05-1.22,1.4-5.89,1.87-7.01h-12.67v-23.52h25.81c1.22-2.29,2.34-4.58,3.18-7.01-.09,.28-.23,.23-.37,0h-28.62v-23.47h23.47v5.75c.7-1.26,3.83,15.66,5.14,17.72h1.87v-23.47h23.52v16.83s5.98,8.84,6.5,4.54l.05-21.37h23.99v52.09c.19-.65,7.01,1.92,7.01,1.92v-23.52h23.47v23.52h-28.15c.33,.28,.65,.61,.93,.94,.79,.89,1.59,1.82,2.01,2.95,.37,1.08,.42,2.1,.19,3.13h25.02v23.47h-23.47v-20.81c-.84,1.92-2.15,3.65-3.51,5.28-.66,.79-12.11,22.54-12.11,22.54h15.62s25.2-2.2,26.04-2.34l3.51-3.69,.94-.98v-45.17c-1.82-8-4.21-18.61-7.01-30.91Zm-183.11-15.43h-23.47v-23.52h23.47v23.52Zm0-30.53h-23.47v-23.52h23.47v23.52Zm0-30.53h-23.47v-23.47h23.47v23.47Zm37.55-145.56h23.52v23.52h-23.52v-23.52Zm0,30.53h23.52v23.47h-23.52v-23.47Zm0,30.49h23.52v23.52h-23.52v-23.52Zm0,30.53h23.52v23.52h-23.52v-23.52Zm-30.53-30.53h23.52v23.52h-23.52v-23.52Zm0,30.53h23.52v23.52h-23.52v-23.52Zm23.52,145.56h-23.52v-23.47h23.52v23.47Zm0-30.49h-23.52v-23.52h17.07c-2.29-2.71,.05-2.38-3.51-3.23,.14-1.31,.51-2.57,.94-3.79h-14.5v-23.52h23.52v-7.01h-23.52v-23.47h23.52v23.47h7.01v-23.47h23.52v23.47h-15.29c0,2.34-.09,4.68-.19,7.01h15.48v23.52h-15.76c0,.61,.05,1.26,.05,1.87,.05,1.73,.14,3.41,.19,5.14h15.52v23.52h-23.52v-15.06c-2.43-.93-4.82-2.06-7.01-3.41v18.47Zm7.01,30.49v-23.47h23.52v23.47h-23.52Zm0,61.02v-23.47h23.52v23.47h-23.52Zm54.01-91.51h-23.47v-23.52h23.47v23.52Zm0-30.53h-23.47v-23.52h23.47v23.52Zm0-30.53h-23.47v-23.47h23.47v23.47Zm0-30.49h-23.47v-23.52h23.47v23.52Zm0-30.53h-23.47v-23.52h23.47v23.52Zm0-30.53h-23.47v-23.47h23.47v23.47Zm0-30.49h-23.47v-23.52h23.47v23.52Zm30.53,183.11h-23.52v-23.52h23.52v23.52Zm0-30.53h-23.52v-23.52h23.52v23.52Zm0-30.53h-23.52v-23.47h23.52v23.47Zm0-30.49h-23.52v-23.52h23.52v23.52Zm0-30.53h-23.52v-23.52h23.52v23.52Zm0-30.53h-23.52v-23.47h23.52v23.47Zm30.53,152.62h-23.99l.05-23.52h23.94v23.52Zm0-30.53h-23.94l.05-23.52h23.89v23.52Zm0-30.53h-23.85l.05-23.47h23.8v23.47Zm51.48,61.07c.19,2.38,.33,4.72,.51,7.01h9.02v-7.01h-9.54Zm2.06,30.49c.14,2.48,.28,4.82,.42,7.01h7.06v-7.01h-7.48Zm112.5-244.13h-6.45v-9.31l-7.01-2.1v11.41h-23.52v-18.52l-7.01-2.1v20.62h-19.22l-1.87,7.01h21.09v23.52h-23.47v-14.54l-7.01,26.28v18.75h-23.52v-24.31l-4.12-4.68-.23-.28-2.67-3.04v1.82h-23.52v-23.57c-1.22-2.43-2.48-4.77-3.79-6.97h-25.9c1.22,2.29,2.38,4.63,3.65,7.01h19.03v23.52h-7.53s.05,.05,.05,.09c1.12,2.48,2.15,4.77,3.04,6.92h4.44v13.19c2.57,9.16,4.91,20.43,7.01,32.96v-15.66h23.52v23.52h-22.26c.37,2.29,.7,4.63,1.08,7.01h21.18v23.52h-18.05c.28,2.34,.56,4.68,.79,7.01h17.25v23.47h-14.73l.7,7.01h14.03v23.52h-11.92c.23,2.34,.42,4.68,.61,7.01h15.99c-.19-4.25-.28-6.87-.28-7.01,.37-6.97,1.12-45.87,.93-54.01,0-1.92-.05-3.83-.09-5.8l1.78,.84,10.71,4.96h12.81v5.94l.89,.42c1.96,.94,4.02,1.64,6.12,2.15v-8.51h23.47v4.91c2.24-1.31,4.35-2.95,6.27-4.86v-.05h.75v-30.53h8.7l2.2-7.01h-10.89v-23.52h18.14l1.12-3.6v-3.41h-19.26v-23.47h23.52v13.14l4.07-13.14,2.95-9.49v-21.04h6.5v-.05l1.96-6.22v-.05c-.56-.42-1.26-.7-2.01-.7Zm-105.02,61.02h-23.52v-23.47h23.52v23.47Zm30.53,61.07h-23.52v-23.52h23.52v23.52Zm0-30.53h-23.52v-23.52h23.52v23.52Zm30.49,30.53h-23.47v-23.52h23.47v23.52Zm0-30.53h-23.47v-23.52h23.47v23.52Zm0-30.53h-23.47v-23.47h23.47v23.47Zm30.53-30.49h-23.52v-23.52h23.52v23.52Z"/><path class="cls-8" d="M1266.54,736.63l-14.21,2.01s-42.5-191.48-53.44-220.37c-10.94-28.94-67.66-77.39-67.66-77.39l8.46-2.62c9.26,5.61,33.25,9.31,45.03,6.87,13.47-2.81,14.63-4.72,20.81-7.53h.09s28.24,51.76,34.13,69.25c18.84,56.2,26.79,229.77,26.79,229.77Z"/><path class="cls-11" d="M1240.73,316.51c-3.83,6.45-11.55,10.29-18.19,7.44-4.68-1.96-7.95-6.69-10.94-11.22-2.66-3.93-5.38-8.14-7.06-12.58-10.8,3.6-23.24,3.88-33.99,4.86-16.97,1.54-34.51,.61-50.12-6.92,11.18,9.17,14.73,20.71,19.22,29.64,4.21,8.42-2.43,17.82-7.71,13.93-5.84-4.25-11.46-5.94-16.88-3.41-12.58,7.11-.19,20.01,8,26.51,0,0,7.11,12.3,.79,18.98,0,0-10.8,2.43-25.58-7.39-15.99-10.71-18.84-22.07-24.03-40.49-5.24-18.42,2.1-46.06,20.43-53.77,1.08-16.04,15.1-31.09,30.58-37.17,10.24-4.07,22.21-7.34,33.2-7.39,18.28-.19,29.69,2.24,29.69,2.24,0,0,5-4.82,9.73-5.7,13.93-2.57,24.6,5.7,30.77,14.45,1.54,2.1,2.38,4.63,2.9,7.2,.7,3.37,.84,6.78,.47,10.15,6.36,8.04,10.52,17.91,11.97,28.1,1.12,7.76,.61,16.13-3.23,22.54Z"/><path class="cls-10" d="M1202.44,409.32c-1.82,.7-3.69,1.31-5.56,1.73,3.23,12.67,7.43,26.56,8.7,26.56-6.22,2.81-7.34,4.72-20.85,7.53-13.7,2.85-43.95-2.66-48.3-9.82,1.4-.23,6.83-35.07,6.97-35.4-7.01-4.4-13.7-9.82-19.54-16.18,6.31-6.69-.79-18.98-.79-18.98-8.18-6.5-20.57-19.4-8-26.51,5.42-2.52,11.04-.84,16.88,3.41,5.28,3.88,11.92-5.52,7.71-13.93-4.49-8.93-8.04-20.48-19.22-29.64,15.62,7.53,33.15,8.46,50.12,6.92,15.71-1.45,34.98-1.31,47.51-12.44,1.78-1.59,3.41-3.32,4.91-5.24,3.65,6.69,7.11,14.35,10.33,23.05,15.66,42.18,1.78,86.36-30.86,98.94Z"/><path class="cls-7" d="M1219.58,348.87c1.5,7.9,9.05,13.08,16.84,11.57,.77-.15,1.49-.33,2.18-.64,1.42-8.63,1.55-17.87,.22-27.28-2.4-.97-5.09-1.26-7.84-.72-7.79,1.52-12.91,9.14-11.41,17.07Z"/><path class="cls-12" d="M1216.92,328.6c-1.65,0-3.12-1.17-3.44-2.85l-.99-5.21c-.36-1.9,.89-3.74,2.79-4.1,1.87-.35,3.74,.89,4.1,2.79l.99,5.21c.36,1.9-.89,3.74-2.79,4.1-.22,.04-.44,.06-.66,.06Z"/><path class="cls-12" d="M1201.19,359.41c-1.47,0-2.91-.29-4.25-1-1.71-.9-2.37-3.02-1.47-4.74,.9-1.71,3.03-2.37,4.74-1.47,1.19,.63,4.71-.28,8.89-3.19l-12.57-28.4c-.79-1.77,.01-3.84,1.78-4.63,1.77-.78,3.84,.01,4.63,1.78l12.57,28.3c1.38,3.11,.37,6.77-2.4,8.7-2.79,1.95-7.47,4.64-11.92,4.64Z"/><path class="cls-12" d="M1174.58,339.06c-1.65,0-3.12-1.17-3.44-2.85l-.99-5.21c-.36-1.9,.89-3.74,2.79-4.1,1.91-.36,3.74,.89,4.1,2.79l.99,5.21c.36,1.9-.89,3.74-2.79,4.1-.22,.04-.44,.06-.66,.06Z"/><path class="cls-7" d="M1156.52,364.99c1.5,7.91,9.04,13.09,16.84,11.57s12.91-9.17,11.41-17.07c-1.5-7.91-9.04-13.09-16.84-11.57s-12.91,9.17-11.41,17.07Z"/><path class="cls-12" d="M1131.24,357.44c-.85,0-1.67-.47-2.09-1.28-1.19-2.35-5.7-4.11-7.18-4.55-1.24-.36-1.95-1.66-1.59-2.9,.36-1.24,1.65-1.95,2.9-1.59,.79,.23,7.73,2.37,10.04,6.92,.58,1.15,.12,2.56-1.03,3.14-.34,.17-.7,.25-1.06,.25Z"/><path class="cls-12" d="M1177.62,271.86c-.45,0-.91,0-1.37-.01-1.29-.03-2.31-1.1-2.29-2.39,.03-1.29,1.23-2.21,2.39-2.29,6.63,.15,11.62-.8,14.94-2.8,1.1-.67,2.54-.32,3.21,.79,.67,1.1,.32,2.54-.79,3.21-3.83,2.32-9.24,3.49-16.09,3.49Z"/><path class="cls-12" d="M1163.21,295.18s-.07,0-.1,0c-10.47-.44-20.88-2.49-28.79-4.23-1.26-.28-2.06-1.53-1.78-2.79,.28-1.26,1.53-2.06,2.79-1.78,7.72,1.7,17.87,3.7,27.98,4.13,1.29,.05,2.29,1.14,2.24,2.43-.05,1.26-1.09,2.24-2.33,2.24Z"/><path class="cls-12" d="M1174.11,295c-1.21,0-2.23-.93-2.33-2.15-.1-1.29,.86-2.41,2.14-2.52,2.04-.16,4.07-.41,6.1-.75,8.24-1.38,15.98-4.41,22.36-8.76,2.79-1.9,12.53-11.83,13.36-16.82,.21-1.28,1.43-2.15,2.69-1.92,1.27,.21,2.13,1.42,1.92,2.69-1.21,7.24-12.65,18.09-15.34,19.92-6.94,4.73-15.31,8.02-24.22,9.51-2.16,.36-4.33,.62-6.5,.8-.06,0-.13,0-.19,0Z"/><path class="cls-12" d="M1197.58,383.04c-1.82,0-3.65-.19-5.42-.65,.84,1.59,1.87,2.71,3.18,3.46,2.57,1.5,6.17,1.4,10.71-.19,4.26-1.49,6.58,5.12,2.34,6.64-3.13,1.08-6.03,1.64-8.7,1.64-2.9,0-5.56-.65-7.86-2.01-4.39-2.57-7.2-7.25-8.42-13.88-.6-3.28,3.49-6.66,6.36-4.4,4.44,3.51,12.02,2.71,17.21,.09,3.27-1.63,4.3-3.36,4.3-3.79,.02-4.49,6.9-4.79,7.01-.24,.09,3.88-2.85,7.62-8.18,10.29-3.65,1.82-8.09,3.04-12.53,3.04Z"/><path class="cls-12" d="M1163.07,326.35c-1.05,0-2.1-.47-2.79-1.37-1.18-1.54-.89-3.74,.65-4.92,.84-.65,8.42-6.34,14.83-7.28,1.95-.27,3.7,1.05,3.98,2.96,.28,1.92-1.05,3.7-2.96,3.98-3.91,.57-9.82,4.55-11.58,5.9-.63,.49-1.39,.72-2.13,.72Z"/><path class="cls-12" d="M1209.22,314.69c-1.27,0-2.5-.69-3.12-1.9-.89-1.72-.21-3.84,1.51-4.72,4.56-2.36,11.92-1.16,13.35-.9,1.9,.35,3.16,2.17,2.82,4.08-.34,1.9-2.13,3.17-4.08,2.82-2.59-.47-7.06-.71-8.87,.23-.52,.26-1.06,.39-1.6,.39Z"/><path class="cls-10" d="M1319.94,1179.15s6.78,2.95,16.08,6.31c-.28,.23-.51,.47-.75,.75-11.36,13.79-43.91,23.75-69.25,24.69l-3.93-18.84,57.84-12.91Z"/><path class="cls-13" d="M1261.15,1210.99c25.93,.29,62.07-10.07,74.14-24.76,1.54-1.87,4.13-2.63,6.46-3.24,2.8-.74,5.97-1.24,8.57-.04,19.88,9.14,25.76,13.96,59.63,3.54,10.74-3.3,25.41-7.12,34.34-.75,7.58,5.4,11.89,32.53,11.8,36.6-.02,.74-.04,1.49-.32,2.18-.71,1.76-2.78,2.55-4.61,3.12-49.62,15.5-99.94,28.4-150.24,41.29-6.09,1.56-12.17,3.12-18.26,4.68-2.18,.56-4.7,1.05-6.43-.27-1.3-1-17.63-37.76-15.08-62.35Z"/><path class="cls-12" d="M1089.66,1261.91s-.09,0-.13,0l-79.14-4.37-32.17-27.29c-.99-.83-1.11-2.31-.27-3.29,.83-.99,2.31-1.1,3.29-.27l30.98,26.27,77.57,4.28c1.29,.07,2.28,1.17,2.21,2.46-.07,1.25-1.1,2.21-2.33,2.21Z"/><path class="cls-12" d="M1601.57,1273.32h-149.49c47.04-7.06,88.33-35.86,110.96-78.74,18.84-35.63,22.63-76.45,10.75-114.93-11.88-38.53-38.06-70.09-73.69-88.89-21.65-11.46-45.96-17.54-70.32-17.54-40.07,0-77.62,15.71-105.35,42.78l-12.34-76.31-28.9-169.64c.84-.23,1.68-.47,2.48-.7,1.73-.51,2.81-2.24,2.43-4.07-.23-1.21-5.94-29.79-6.31-36.28,0,0,.75-89.73-2.34-135.18,0,0,22.87,9.54,22.91,9.54,19.45,9.82,38.48-1.78,40.73-8.42,11.27-33.53,41.8-135.23,41.85-135.32,.56-1.92-.47-3.79-2.34-4.4l-11.31-3.41c5.52-7.53,14.03-21.32,6.45-41.75-.05-.14-17.39-49.38-17.39-49.38-1.54-4.35-5.56-7.25-9.77-7.39l-1.26-3.88s129.24-38.53,133.54-39.79c2.34-.7,3.18-3.51,1.82-5.47,0,0-93.61-126.11-93.89-126.48-1.4-1.87-4.49-1.82-5.75,.19l-80.24,121.62-32.92,24.45c-7.06,5.24-11.69,12.81-13.14,21.32-3.27,19.26,12.2,37.08,31.56,37.08,7.2,0,14.12-2.29,19.97-6.69l5.28-3.93,2.62,8-.75,2.34c-5.94,18.42-13.05,39.51,.37,56.48-.19,.28-19.36,71.87-19.45,72.29-1.17,4.39,5.56,6.22,6.78,1.82l13.33-49.84s45.36,12.72,45.54,12.72c1.03,0,1.96-.65,2.24-1.68,.38-1.26-.37-2.53-1.59-2.9l-45.03-12.67,3.65-13.56,4.12,1.22,49.8,15.01-40.54,131.06c-6.08,9.77-20.81,9.91-31.28,5.05,0,0-27.82-12.95-28.62-13.33,0,0-2.2-20.39-2.71-24.64-2.62-20.15-5.19-40.12-10.75-59.71-1.68-5.7-9.12-27.31-12.58-32.08,17.21,19.59,44.51,62.42,44.89,62.7,0,.09,.05,.14,.05,.23l2.71,9.3c1.26,4.35,8.04,2.38,6.73-1.96l-2.71-9.31c-.23-.79-44.23-77.48-73.93-87.39-1.5-.98-20.48-5.33-20.95-5.19-1.36-3.09-3.97-11.74-6.36-20.76,.89-.28,1.73-.56,2.57-.89,19.96-7.71,34.32-27.21,38.34-52.23,1.54-9.21,1.59-18.75,.28-28.34-.42-3.23-1.03-6.41-1.78-9.59,1.22-1.22,2.29-2.62,3.18-4.11,4.86-8.14,4.68-18,3.69-24.83-1.5-10.57-5.61-20.43-11.83-28.62,.42-6.22-.42-13.23-4.12-18.42-4.3-6.13-13.79-16.37-28.48-16.37-1.92,0-3.83,.19-5.75,.51-4.11,.75-8.14,3.69-10.19,5.38-3.74-.61-13.33-2.01-27.03-2.01-12.53,.37-24.45,3.09-36.1,7.67-14.73,5.8-30.3,20.62-32.59,38.11-18.42,9.4-26.09,37.31-20.48,57.09,2.62,7.9,4.25,16.04,8.09,23.52,4.02,7.86,10.1,14.03,17.39,18.89,10.8,7.2,19.78,8.28,24.22,8.28,.79,0,1.45-.05,2.01-.09,5.05,5.33,10.66,10.05,16.65,14.07-.42,2.01-4.44,27.12-5.33,30.72-13.23,3.27-39.18,20.9-43.06,23.57-.05,.05-3.51,2.43-3.65,2.62-12.3,11.92-29.92,46.48-52.51,102.54-2.24,5.61-30.3,81.03-30.3,81.03-7.62,19.97,.51,42.32,19.31,53.21l65.04,37.55c-1.59,7.71-6.59,31.89-10.05,42.6-.79,2.52,.98,3.88,3.04,4.58,.14,.05,4.72,.42,12.58,.94-2.81,26.84-4.21,157.39-4.25,163.09,0,1.96,1.54,3.55,3.51,3.55s3.51-1.54,3.51-3.46c0-1.4,1.45-137.66,4.25-162.81,5.05,.28,10.89,.56,17.44,.75,6.45,20.39,16.41,42.92,27.59,65.09l-12.16,119.98-136.77,188.3-25.53-18.19c58.92-116.33,119.05-173.52,119.65-174.13,1.4-1.31,1.5-3.51,.14-4.96-1.31-1.4-3.51-1.45-4.96-.14-.14,.14-3.69,3.51-9.77,10.1h-132.75c-1.92,0-3.51,1.54-3.51,3.51v60.79c0,1.92,1.59,3.51,3.51,3.51h48.21v49.05c-.75,1.26-1.5,2.57-2.29,3.88h-22.12c-1.92,0-3.51,1.59-3.51,3.51v43.95c-.42,.84-.84,1.68-1.26,2.53,0,0-43.77,42.32-44.37,42.88-1.31,1.21-3.41,3.18-3.79,6.17-.47,4.02,2.62,7.11,4.07,8.56,0,0,42.36,42.78,44.05,44.47,0,0,.05,30.72,.14,31.05h-156.13l15.62-2.62c1.78-.28,3.04-1.87,2.9-3.69l-1.45-21.84c5.19,2.99,10.1,6.5,14.12,10.57,5.56,5.66,12.58,8.79,19.78,8.79,1.31,0,2.67-.09,3.97-.33l59.29-9.82c2.43-.42,4.54-1.82,5.99-3.93,1.5-2.24,2.01-5.1,1.4-7.85l-.7-2.99c-2.71-11.74-11.45-20.81-22.26-23.1-11.69-2.48-28.24-9.07-45.26-26-.65-.89-1.4-1.82-2.2-2.76-5.33-6.17-10.15-14.73-14.45-25.02l-28.43-192.55s-59.24-252.07-59.29-252.35c.61,1.36,3.79-4.54,3.83-5.05,.75-6.5,7.53-43.25,15.15-81.83l65.88,77.71c.7,.84,1.68,1.26,2.76,1.26,5.94,17.67,23.52,39.51,34.83,50.64,3.74,4.77,9.02,7.15,15.43,7.15,7.9,0,17.44-3.6,27.82-10.75,1.4-1.08,3.13-3.13,3.32-7.15,.51-11.41-11.97-33.62-19.73-44.84,4.82,.05,10.57,.05,13-.47,2.81-.56,12.48-5.19,13.75-8.74,.56-1.59,1.82-5.28-.33-7.86-2.15-2.57-5.85-1.96-7.67-1.68-5,.75-18-7.11-22.86-10.1-2.43-1.5-3.6-2.24-4.49-2.57-1.26-.51-3.41-1.03-5.94-1.5-.05-.79-.33-1.64-.89-2.24,0,0-59.57-66.12-59.66-66.21-2.95-3.23-8.32,1.26-5.19,4.72,0,0,43.95,48.77,43.95,48.86-11.5,10.9-23.71,21.32-36.29,30.95l-55.41-65.32s10.01-52.51,13.93-69.25c2.95-1.5,7.62-4.58,12.3-9.54l11.27,49.66c-3.65,.89-7.15,2.29-10.52,4.11-3.93,2.1-.56,8.37,3.41,6.17,3.69-2.06,12.48-4.25,12.67-4.35,1.5-.75,2.38-2.1,2.1-3.79-.05-.23-13.37-58.92-13.37-58.92,1.31-2.06,2.62-4.3,3.74-6.73,9.12-19.4,11.08-54.43-31.05-111.24-2.71-3.69-7.57-5.8-13.23-5.8h-1.68l-.19-10.38c17.81-3.32,31.84-17.72,40.12-41.38,1.87-5.33,3.41-11.04,4.58-17.02,6.27-3.55,10.47-10.29,10.47-18,0-6.36-2.85-12.06-7.39-15.85,0-8.88-.65-16.69-2.01-23.47,2.29-5.05,2.34-10.71,.14-16.41-4.21-10.99-15.71-20.11-24.5-23.19-.42-.28-.98-.89-1.73-1.64-4.91-4.82-17.02-16.04-40.35-20.34-.19-.05,0-75.56,0-75.56,0-9.54-7.29-17.3-16.27-17.3h-4.72V47.55c0-26.23-19.45-47.55-43.39-47.55H109.84c-23.89,0-43.39,21.32-43.39,47.55V565.64c0,1.96,1.59,3.51,3.51,3.51s3.51-1.54,3.51-3.51V47.55c0-22.35,16.32-40.54,36.38-40.54H681.83c20.06,0,36.38,18.19,36.38,40.54V224.53c-10.75,1.5-20.39,5.24-28.76,11.32-12.81-6.27-29.18-6.78-42.41-1.22-20.39,8.6-31.28,28.71-30.67,56.62,.23,10.05,1.68,20.67,4.72,34.37,.79,3.6,1.82,7.29,2.85,10.89,2.57,8.98,5.24,18.28,4.07,26.84-1.92,14.31-15.62,24.55-26.84,30.58-2.67,1.45-2.24,5.66,.7,6.45,10.85,3.13,21.13,4.72,30.53,4.72,6.03,0,11.83-.65,17.25-1.92,17.3-4.11,31.61-15.48,37.36-29.64,1.92-4.82,2.95-9.82,3.46-14.92,1.96,1.64,4.02,3.18,6.17,4.68,4.44,6.92,10.05,13.56,16.41,19.36-.33,10.71-2.76,20.76-4.25,26.18-.09-.05-2.43-.05-2.43-.05-7.29-.14-22.44-.42-35.49,4.58-52.51,20.2-135.46,76.31-138.41,87.67-7.25,28.34-17.96,86.41-24.22,121.57l-86.69-45.17s-84.12-121.48-88.61-125.36c-.23-.19-22.44-10.38-23.29-10.38,0-.84,.05-1.73,.09-2.71,3.32,.23,6.64,.42,9.96,.42,30.11,0,50.64-27.07,53.26-53.63,.28-3.09,2.24-17.77,2.52-20.76,.09-.42,1.54-6.83,1.54-7.29,1.17-1.26,2.15-2.67,2.99-4.16,2.1-3.79,3.09-8,3.83-11.6,2.71-13.05,3.93-26.42,3.69-39.79,1.08-.94,2.01-1.96,2.85-3.04,4.25-5.56,8.09-17.72,3.32-27.35-2.48-5.05-8.28-11.08-21.7-11.08-1.73,0-3.55,.14-5.42,.33-22.02-31.98-47.97-38.76-66.02-38.76-26.19,0-49.33,13.89-59.76,26.79-3.74,4.63-5.75,9.02-5.94,12.91-10.52,5.14-45.64,27.12-22.63,84.31,5.7,14.21,22.16,38.48,43.49,47.55,.19,1.96,.23,7.2-.05,8.04-1.68,5.14-6.87,20.81-12.16,22.26-.14,.05-27.21,2.24-41.8,4.82-5.61,.98-10.52,1.87-13.61,2.24-.09,0-.23,0-.37,.05-.14,0-.33,.05-.47,.09-.05,0-.14,0-.19,.05-19.08,3.6-58.12,33.39-89.45,59.48v9.21c20.57-17.35,45.08-36.89,64.76-49.38,.09-.05,.19-.09,.28-.19,10.33-6.5,19.31-11.04,25.62-12.25,.09-.05,.19-.05,.23-.05,.09,0,.14,0,.23-.05,3.27-.37,8.32-1.26,14.17-2.29,5.89-1.08,12.76-2.29,19.22-3.23l49.98,59.57,26.42-9.4c1.45,6.73,5.05,26.89,3.04,55.6-2.52,35.68-13.51,79.82-13.65,80.38-.61,2.9,3.79,4.07,4.54,1.12,.09-.47,11.22-45.03,13.79-81.17,1.87-26.14-.79-45.08-2.52-53.96l18.42,11.83,10.29-34.79c7.58,9.54,10.85,23.8,11.74,39.14,2.66,71.73-40.03,185.49-40.49,186.61,0,0-7.95,40.91-8.32,40.96-8.32,.84-35.12,1.82-88.7-11.69-6.97-1.73-15.34-4.25-24.17-7.11-.61-2.15-1.5-4.11-2.48-5.7l-3.23-4.58c1.17,.14,2.34,.23,3.51,.23,2.95,0,5.84-.47,8.6-1.4,2.81-.94,5.1-3.13,4.68-6.31-.33-2.76-2.38-4.63-3.27-5.33-2.81-2.15-6.22-3.13-9.12-5.05-2.95-1.92-5-4.82-7.2-7.95-2.38-3.32-4.82-6.78-8.51-9.35-2.34-1.64-5.52-3.79-8.88-5.7,.75-1.4,24.97-108.76,32.96-133.26,15.71-10.33,27.82-18.94,29.79-22.3,.98-1.68,.42-3.74-1.22-4.77s-3.79-.42-4.82,1.17c-1.26,2.01-8.7,7.48-20.01,15.06,0,0-19.69,12.81-25.25,16.32-10.99,6.92-68.03,41.52-68.27,41.71-1.03,1.08-1.31,2.67-.61,4.02l21.74,42.6,17.91,35.16-41.19,28.48v8.51l6.69-4.63c1.4,10.15,4.11,27.17,7.11,33.24,3.65,7.39,10.71,15.2,17.81,20.39-.56,.47-.98,1.08-1.17,1.82-7.95,28.43-7.72,78.41-7.53,126.76,.09,29.36-1.78,85.52-1.96,85.75-2.57,2.71-13.51,14.96-20.95,23.75v11.13c3.69-4.63,28.15-32.45,28.29-32.82,.19-.47,.28-.89,.28-1.36-.23-.23,1.45-57,1.36-86.5-.19-47.83-.42-97.3,7.25-124.84,0-.05,.05-.09,0-.14,.79,.42,5.33,2.25,6.69,2.48-.98,28.8,12.3,66.16,30.02,102.59l-20.62,124.75s-53.02,66.21-53.26,66.54v8.18l57.65-72.76,19.78-119.51c13.23,26.28,28.48,51.71,41.99,72.85l-25.06,66.12-1.78,4.72c-3.41,4.96-51.25,65.74-92.58,118.06v11.36c44.47-56.3,97.87-124.14,98.99-126.62l1.78-4.72,.09-.23,6.08-16.09c6.69,.51,13.33,1.54,19.92,2.99,9.35,2.1,18.33,5.05,26.84,8.84-2.06,27.12,.09,95.62,47.27,218.55,.42,.98,1.17,1.73,2.1,2.01,.19-.33,.28,.14,0,0-1.22,1.78-2.1,4.11-2.67,7.11-3.69,20.71,7.43,43.81,12.06,52.28H109.84c-20.06,0-36.38-18.19-36.38-40.54V580.32c0-1.92-1.54-3.51-3.51-3.51s-3.51,1.59-3.51,3.51v652.47c0,17.11,8.32,32.17,20.76,40.54H3.51c-1.92,0-3.51,1.59-3.51,3.51s1.59,3.51,3.51,3.51H1601.57c1.96,0,3.51-1.59,3.51-3.51s-1.54-3.51-3.51-3.51Zm-251.28-913.1c1.45,0,2.85,1.17,3.46,2.81l17.25,49.05c.23,.61,0,1.12-.19,1.22l-7.53,2.62c-.7,.28-1.45,.37-2.24,.37-3.41,0-6.78-2.57-8.09-6.31l-12.11-34.41c-2.1-5.99,.37-12.3,5.52-14.12,0,0,3.6-1.22,3.93-1.22Zm13.23,62.84c-.19,.79-.42,1.54-.79,2.29-1.4,3.09-3.93,5.33-7.29,6.45-6.36,2.01-13.65-2.15-15.85-8.93l-3.69-11.41c-.09-2.01-.7-6.69-.75-7.11,1.31-1.87,2.95-4.68,5.28-8.84l5.94,16.79c2.29,6.59,8.23,10.99,14.68,10.99,.84,0,1.68-.05,2.48-.23Zm-30.39-52.79c-2.1-.09-4.25,.47-6.27,1.68-.94,.56-2.99,1.96-3.18,1.96l-2.15-6.64,21.14-15.62,1.08,3.32c-6.31,2.34-10.24,8.42-10.61,15.29Zm54.99-184.37l87.95,118.44-133.07,39.65h-.05l-31.28-42.18,76.45-115.91Zm-81.45,120.92l30.07,40.49-7.62,5.66-29.32-41.05,6.87-5.1Zm-.56,63.22c-4.63,3.46-10.1,5.28-15.8,5.28-15.2,0-27.07-13.89-24.64-28.9,1.12-6.73,4.82-12.72,10.38-16.88l18.1-13.42,29.32,41.01-17.35,12.91Zm58.03,79.63s-33.76-10.15-33.85-10.19c-3.27-1.82-5.56-3.51-6.73-4.96-3.83-4.77-6.69-11.6-6.73-17.63-.09-4.54,1.31-9.21,2.2-13.61,.84-4.3,1.92-8.6,3.41-12.77,1.54-4.3,3.83-10.1,8.04-12.53,2.24-1.31,4.68,.89,5.19,2.62,1.5,5.24,.28,7.86,.28,7.86-1.26,2.2-8.46,11.97-7.62,18,1.17,8.51,.98,12.3-2.38,13.51-1.78,.7-2.71,2.71-2.06,4.54,.51,1.4,1.87,2.29,3.27,2.29,.42,0,.84-.09,1.26-.23,1.73-.65,3.13-1.54,4.16-2.62l.33,1.08c2.8,8.56,10.43,14.31,18.98,14.31,1.96,0,3.88-.28,6.03-.98,4.96-1.64,8.93-5.19,11.17-10.01,1.17-2.43,1.78-5.05,1.87-7.67l2.2-.79c2.57,14.4-4.49,23.71-8.93,29.65-.05,.05-.09,.09-.09,.14Zm-364.72,624.93v-37.31h24.17c-7.72,11.22-15.8,23.61-24.17,37.31Zm-51.71-44.33v-53.77h122.93c-10.29,11.64-24.83,29.27-41.52,52.93-.19,.28-.42,.56-.61,.84h-80.8Zm-53.44-350.22c.61,.23,1.82,1.03,3.51,2.06,9.68,5.94,20.57,12.16,27.63,11.04,.09,0,.19,0,.23-.05-1.64,1.4-6.64,4.16-8.51,4.54-2.62,.51-12.91,.37-18.8,.14-1.59-.14-2.85,.8-3.41,2.2-.56,1.36-.19,2.9,.94,3.93,4.58,4.12,22.91,34.55,22.4,45.59-.05,1.12-.28,1.68-.37,1.78-11.83,8.09-26.84,13.7-33.95,4.63-12.39-12.11-29.55-34.13-33.99-49.89l35.4-27.68c3.97,.51,7.53,1.17,8.93,1.73Zm-21.88-19.4l10.01,11.08-38.11,29.83-7.76-9.16c.14-.37,24.5-21,35.86-31.75Zm-58.07-338.02c.09-1.82,.19-3.65,.23-5.38,1.82,2.57,2.85,5.75,2.85,9.12,0,4.39-1.78,8.37-4.63,11.27,.75-4.91,1.26-9.91,1.54-15.01Zm-445.7,41.43c-1.26,4.26-7.15,7.25-10.57,9.73-9.49,6.92-19.59,2.57-30.21,2.2-5-.14-11.04,.51-16.83,1.17-6.08,.65-12.39,1.36-17.35,1.03-7.34-.47-14.64-5.19-18.1-11.83-2.01-3.74-1.78-10.33-1.59-15.62,.05-1.36-.28-9.02-.28-9.07-1.31-13.61,6.5-20.06,14.54-24.55,4.3-2.43,9.54-3.6,16.04-3.6,7.57,0,15.06,1.45,22.44,2.85,8.51,1.59,16.79,1.54,24.36-.09,4.07-.89,9.12-2.01,14.26-3.46,1.87,8,4.21,15.52,4.96,23.8,.33,3.74,.42,7.53,.33,11.27-.09,5.42-.51,10.99-2.01,16.18Zm12.02-57.14c-.09,10.61-1.17,21.18-3.18,31.56-.61-8.88-2.24-17.77-5-26.23-.19-.56-.47-1.87-.47-1.96,.09-.37,1.82-1.08,3.88-2.06,1.96-.98,4.21-2.34,4.77-2.48v1.17Zm-145.89,28.48c-5.05,6.41-4.49,15.9,1.31,22.02,4.49,4.77,8.93,9.63,12.91,14.82,1.96,2.62,5.94,8.84,6.17,9.4,.05,1.26,.09,2.57,.14,4.16,.09,.05,.14,.09,.19,.19-.05,0-.14-.05-.23-.09-16.23-8.09-29.83-25.9-36.42-42.22-21.13-52.56,10.05-71.26,19.69-75.61,3.51-.51,6.83-.56,10.38-.75,13.09-.7,19.17,2.34,19.45,2.34,2.57,0,3.18-3.6,.84-4.54-6.64-2.52-13.93-2.48-20.29-2.48-2.29,0-4.68-.14-6.92,.23-.14-2.29,1.45-5.75,4.4-9.4,9.68-12.02,31.47-24.17,54.29-24.17s44.75,12.72,60.93,36.75l-13.98,7.11c-1.92,.94-3.79,1.92-5.7,2.76-13.61,5.99-29.55,6.5-43.72,1.36-2.85-1.03-4.44,3.41-1.59,4.44,7.01,2.48,14.4,3.74,21.74,3.74,8.74,0,17.44-1.78,25.44-5.28,5.75-2.52,11.41-5.42,16.97-8.32,2.38-1.17,4.96-3.51,7.34-4.3,3.13-1.12,8.46,.19,11.55,1.17,11.22,3.51,11.6,17.91,5.28,26.18-7.53,9.82-24.03,12.06-35.3,14.49-15.34,3.32-30.02-2.9-45.31-2.9-13.79,0-29.41,6.83-35.35,20.29-2.67,5.98-2.06,11.41-1.92,17.77,.19,7.01-.98,14.26,.98,21.13,2.48,8.7,9.96,15.57,18.61,18.14,13.19,3.93,27.26-1.5,41.01-.75,6.87,.37,13.7,2.34,20.57,1.78,7.15-.56,14.07-3.93,18.94-9.26-.56,10.85-2.85,21.79-7.9,31.42-5.1,9.63-13.19,17.91-23.29,22.02-11.97,4.91-25.58,3.65-38.3,1.17-10.61-2.06-21.88-5.47-28.34-14.12-4.72-6.41-6.03-14.68-6.64-22.58-.84-11.04-.51-22.07-.28-33.1,.19-9.87,2.24-19.59-5.14-27.21-6.12-6.31-17.21-4.49-22.49,2.2Zm20.43,33.57c-3.51-4.63-8.09-10.01-14.03-16.32-3.37-3.6-3.74-9.26-.89-12.95,1.64-2.06,4.49-3.41,7.29-3.41,4.3,0,5.99,3.51,7.95,6.69,.23,4.82-.28,22.86-.33,26Zm18.52,117.74l-46.01-54.75c5.99-.75,11.22-1.12,14.45-.65,3.55,5.14,15.29,17.07,52.23,48.07l-20.67,7.34Zm24.83-13c-21.51-18.1-43.44-37.64-49.47-44.61,4.21-3.09,7.48-9.16,10.29-16.32,6.31,16.37,24.78,23.1,43.53,25.48-.37,5.84,.14,9.82,2.06,12.06,0,.51-3.46,14.07-6.41,23.38Zm20.99,15.62l-15.43-9.91c6.13-19.08,8-26.23,8.42-29.22l16.23,7.57,.05,.05-9.26,31.52Zm487.69,776.84l-8.56-32.17c5,1.68,11.6,4.07,18.33,7.34l1.54,22.96-11.32,1.87Zm56.72-61.81c.14-.37,.28-.7,.42-1.08,15.06,12.44,29.41,17.81,40.03,20.11,6.92,1.45,12.72,6.64,15.62,13.7,0,0-61.16,10.15-61.49,10.19-2.71,.47-2.43,4.63,.37,4.63,.14,0,62.52-10.29,62.52-10.29l.56,2.57c.28,1.17-.14,3.04-1.68,3.27l-59.29,9.82c-.94,.14-1.87,.23-2.81,.23-5.28,0-10.52-2.38-14.78-6.69-13.93-14.17-36.99-21.7-46.85-24.88-1.5-.51-3.13-1.03-3.93-1.36-6.64-8.84-2.9-27.96,3.41-38.48,2.71,2.76,6.08,5.47,9.68,7.9-4.11,7.43-5.84,16.55-4.72,25.3,.37,2.95,5,2.38,4.68-.61-.98-7.62,.42-15.62,3.97-22.12,7.9,4.86,16.04,8.56,20.11,9.73,8.84,2.53,16.04,3.83,21.51,3.83,6.64,0,10.94-1.96,12.67-5.8Zm-10.85-12.02c4.49,5.19,4.91,8.23,4.49,9.12-.37,.75-2.25,1.68-6.31,1.68-4.82,0-11.36-1.22-19.59-3.55-8.09-2.29-25.3-11.97-31.94-19.68l38.81-12.02c4.35,9.91,9.16,18.24,14.54,24.46Zm-53.96-261.47l9.54,40.63,27.96,189.61-49.05,15.2c-52.7-125.97-42.92-201.2-42.78-201.95,.09-.7-.05-1.36-.33-2.01-5.47-11.5-33.2-70.23-40.35-84.82l22.07-90.9,13-42.32c-.33-.98-1.12-1.78-2.15-2.1-1.87-.56-3.83,.42-4.44,2.24l-13.19,40.26-95.06,377.53-47.13-2.81c.05-.89,.05-1.78,.09-2.62h-.09c5.05-160.15,35.44-217.61,35.72-218.17,.28-.51,.47-1.12,.47-1.68,0-.14,1.22-54.8,1.12-60.6-.33-41.24-3.04-77.67-8.18-108.76-.65-4.07-2.53-9.02-4.72-14.73-4.21-11.08-9.31-24.5-8.98-39.04,.14-9.4,2.52-19.31,8.93-29.32,14.96,11.46,66.68,21.74,77.34,23.43,8.18,1.26,15.57,2.25,22.21,2.95,9.91,1.03,18.19,1.45,25.06,1.45,10.89,0,18.38-1.03,23.38-2.24l49.56,210.79Zm-171.51,271.38c2.99,5.8,2.85,8.88,2.29,9.82-.42,.7-1.87,.84-2.66,.84-3.23,0-9.63-1.5-22.16-8.6-7.67-4.3-23.19-18.84-27.07-27.82l42.83,2.57c1.22,8.88,3.41,16.69,6.78,23.19Zm128.91-488.58c.09-.05,.14-.09,.14-.09-.09,.23-.14,.23-.14,.09Zm50.83-391.46c-.37,6.36-1.12,12.67-2.2,18.75-.05,.33-.14,.7-.19,1.03-1.12,.28-2.34,.42-3.6,.42-8.84,0-15.99-7.2-15.99-16.04s7.15-16.04,15.99-16.04c2.24,0,4.4,.47,6.31,1.26,0,3.32-.09,6.92-.33,10.61Zm-5.99-16.55c-11.41,0-20.67,9.3-20.67,20.71,0,.89,.05,1.73,.19,2.57l-1.59,.09-1.5-6.87c-.42-1.87-2.29-3.09-4.16-2.67-1.92,.42-3.09,2.29-2.67,4.16l1.26,5.84-2.34,.14c-.09-11.36-9.3-20.53-20.71-20.53-9.49,0-17.49,6.36-19.92,15.1l-15.48-4.44c4.49-6.55,17.77-22.63,39.51-21.04,3.6,.28,7.62,.98,11.88,1.73,5.94,1.03,12.11,2.1,18.05,2.1,8.56,0,16.65-3.32,23.47-8.42,.51,3.83,.79,8,.93,12.48-2.01-.65-4.07-.98-6.27-.98Zm-36.14,24.17c0,8.84-7.15,16.04-16.04,16.04s-16.04-7.2-16.04-16.04,7.2-16.04,16.04-16.04,16.04,7.2,16.04,16.04Zm-39.98-190.21h4.72c5.1,0,9.26,4.63,9.26,10.29v74.44c-4.82-.51-9.49-.7-13.98-.47v-84.26Zm-44.7,231.31c-4.91,12.11-17.35,21.84-32.45,25.44-10.66,2.52-22.77,2.29-36.19-.65,13.61-9.02,21.56-19.78,23.1-31.42,1.36-10.01-1.5-20.01-4.3-29.69-1.03-3.65-2.01-7.11-2.76-10.52-2.9-13.23-4.3-23.38-4.54-32.96-.37-17.58,3.88-40.54,26.42-50.03,10.29-4.4,22.96-4.44,33.57-.23-2.34,2.1-4.49,4.35-6.45,6.78-.28-.37-.61-.65-1.08-.84-14.64-5.42-29.36,.84-38.53,16.41-1.5,2.57,2.48,4.96,4.07,2.38,7.9-13.47,20.43-18.98,32.78-14.4-10.24,13.84-15.52,31.56-15.01,50.87,.51,18.14,9.31,36,24.64,50.73-.14,6.36-.93,12.48-3.27,18.14Zm-14.35-69.06c-.7-24.6,8.88-46.29,26.32-59.52,10.1-7.72,22.44-11.6,36.61-11.6,5.24,0,10.75,.51,16.46,1.59,9.4,1.73,16.65,4.72,22.26,7.86,5.24,2.95,9.96,6.73,14.21,10.99,.65,.65-4.58,5.1-5.14,5.52-5.24,3.69-11.74,5.14-17.91,6.41-1.96,.37-7.25,.33-6.64,3.6,.37,2.1,2.38,1.92,3.97,1.64,10.05-1.82,23.43-4.3,29.55-14.35,7.48,2.76,17.02,10.38,20.39,19.17,5.56,14.5-11.08,22.4-23.05,22.4-5.33,0-11.18-1.03-16.83-2.01-4.44-.8-8.6-1.5-12.58-1.82-23.66-1.73-38.29,13.75-44.51,22.21-4.11-5.66-10.05-7.81-15.01-7.81-11.04,0-17.3,10.43-13.42,20.48,2.71,7.01,5.05,10.66,7.11,13.89,2.01,3.18,3.83,6.03,5.8,11.83-17.16-14.26-27.07-32.26-27.59-50.45Zm37.22,58.96c0-.09-6.41-19.22-9.49-24.08-2.01-3.13-4.02-6.31-6.5-12.67-1.22-3.18-1.17-5.89,.19-7.85,1.36-1.96,3.83-3.09,6.69-3.09,3.97,0,9.02,2.34,11.36,8.93,.47,1.31,1.68,2.2,3.04,2.29,.8,.09,1.54-.09,2.15-.51l17.67,5.05c-.05,.28-.05,.61-.05,.94,0,11.41,9.3,20.71,20.71,20.71,9.91,0,18.14-6.92,20.2-16.18l3.88-.23,3.65,16.69c-3.13,.28-6.31,.05-7.11-.56-1.45-1.26-3.69-1.08-4.91,.42-1.26,1.5-1.08,3.69,.42,4.96,2.2,1.82,5.7,2.34,8.88,2.34,2.52,0,4.82-.33,6.08-.51,1.68-.51,3.04-1.82,3.65-3.6,.61-1.59,.51-3.32-.23-4.82l-3.37-15.38,1.68-.09c2.9,7.9,10.47,13.51,19.36,13.51,.89,0,1.73-.05,2.57-.19-.98,4.26-2.15,8.32-3.51,12.2-4.91,13.98-16.79,37.41-41.66,37.41-20.29,0-42.41-16.65-55.36-35.68Zm56.86,76.31c-.56,.75-1.59,1.68-4.02,1.68-5.47,0-17.07-4.49-41.38-25.67,1.31-4.21,3.93-13.75,4.86-24.92,11.92,9.21,25.67,15.29,39.04,15.29,.37,0,.75,0,1.12-.05l.37,14.17c1.59,5.47,2.95,15.57,0,19.5Zm-220.98,65.74c7.06-6.87,83.04-61.86,134.15-82.95,6.64-2.76,14.26-3.6,20.76-3.93,8,9.49,37.17,35.77,51.53,40.26,4.4,1.4,9.26,2.76,14.12,2.76,2.53,0,5.1-.37,7.57-1.26,7.86-2.9,13.33-10.43,12.95-17.96-.05-1.31-1.22-2.38-2.43-2.24-1.31,.05-2.29,1.17-2.24,2.43,.28,5.47-3.97,11.22-9.87,13.37-5.94,2.15-12.77,.33-18.66-1.54-12.53-3.93-37.31-25.81-46.99-36.05,2.38-.05,7.11,.05,7.11,.05l1.22,1.08c22.07,19.5,37.69,28.94,47.74,28.94,5.14,0,8.09-2.43,9.63-4.49,4.3-5.71,2.9-21.18,2.9-21.18,3.37,0,6.22,1.12,7.57,2.95,28.71,38.72,40.12,72.24,33.06,96.98-5.61,19.59-20.99,27.21-22.02,27.73-1.17,.33-2.1,1.31-2.38,2.52-4.68,19.64-31.19,154.26-31.7,161.18-.09,.05-.19,.09-.28,.14-3.6,1.64-15.62,5.38-46.34,2.71-7.67-.66-16.51-1.78-26.7-3.37-30.63-4.91-73.69-17.49-75.75-23.29,2.81-8,20.2-36.66,29.5-48.63,1.54-1.96,3.04-3.83,4.49-5.66,20.53-25.86,31.94-40.26,23.71-141.77,7.43-3.18,12.67-5.28,14.12-5.56,1.92-.28,3.23-2.06,2.95-3.97-.28-1.92-2.06-3.23-4.02-2.95-4.77,.75-34.98,14.5-52.56,22.63-24.41,11.27-36.42,16.93-42.36,20.15-.09-.09-15.24-10.15-15.24-10.15-1.59-1.03-3.79-.61-4.86,1.03-1.08,1.59-.61,3.79,.98,4.86l13.42,8.84c-.05,.19-17.35,103.9-17.35,103.9-9.16,.98-18.61,.61-27.73,.28-5-.19-10.1-.37-15.24-.37,6.03-33.95,17.63-97.58,25.25-127.46Zm-26.04,132.14c5.28-.05,10.66,.19,15.85,.37,4.77,.19,9.63,.37,14.5,.37,4.21,0,8.46-.14,12.62-.56l-2.29,13.56h-43.11c.56-3.09,1.36-7.86,2.43-13.75Zm.47,20.76h43.16c.09,0,.23,0,.33-.05,.33,1.08,.65,2.48,.98,4.12-5.52,1.08-10.52,5.47-13.05,11.6l-13.14,32.08c-1.78,4.25-2.1,8.84-.93,12.91,.51,1.78,1.26,3.37,2.24,4.72-2.34,2.25-5.05,3.6-6.83,2.62-.14-.09-33.81-12.72-33.81-12.72-1.73-1.68-2.1-9.91,.05-19.12,.51-2.24,1.17-4.54,2.06-6.83,.98-2.76,2.29-5.52,3.83-8.09,2.67-4.35,9.54-13.7,15.1-21.23Zm47.09,10.8c.75,0,1.45,.14,2.15,.42l6.83,2.8c1.22,.47,1.82,2.76,.84,5.1l-18,44c-1.03,2.48-3.04,3.55-4.21,3.04l-6.83-2.81c-1.78-.7-3.13-2.34-3.79-4.63-.7-2.57-.47-5.52,.65-8.37l13.14-32.08c1.82-4.4,5.61-7.48,9.21-7.48Zm-218.36-88c.75-2.9,13.93-53.4,7.25-91.97l65.09,93.38s-7.06,8.37-7.11,8.42c-2.9,3.41,2.38,7.95,5.38,4.54l7.01-8.32,86.92,45.26c-2.29,13.05-3.74,21.51-3.79,21.79-.14,1.03,.14,2.06,.79,2.85,.33,.37,.75,.7,1.22,.94-4.96,6.78-10.24,14.07-12.58,17.91-1.64,2.67-2.99,5.56-4.16,8.6-44-22.02-97.26-49.7-102.63-55.55,0,0-43.49-47.55-43.49-47.6,.05-.05,.05-.14,.09-.23Zm-31.98,111.24c1.87-4.96,19.4-51.2,30.16-102.4l40.07,43.77c7.06,7.72,71.91,40.68,105.63,57.56-2.2,8.51-2.57,16.97-1.22,22.21,.79,3.04,2.24,5.19,4.21,6.31,.19,.05,34.04,12.81,34.04,12.81,1.36,.66,2.85,1.03,4.39,1.03,4.21,0,8.14-2.53,11.08-5.52,.05,0,.05,.05,.09,.05l6.83,2.8c1.03,.42,2.15,.66,3.27,.66,4.21,0,8.23-3.04,10.1-7.53l18-44c2.38-5.84,.28-12.2-4.68-14.26l-6.83-2.81s-.14-.05-.19-.09c-.75-4.16-1.68-7.81-2.85-9.96l-1.08-4.63,19.55-116.47c7.95-4.4,48.49-23.38,74.11-34.74,7.57,96.6-3.18,110.21-22.44,134.48-1.45,1.82-2.95,3.69-4.49,5.7-8.88,11.46-25.62,41.01-30.49,50.17-7.67,14.4-12.39,26.46-12.11,38.72,.28,14.92,5.42,28.52,9.45,39.04,2.06,5.38,3.79,10.01,4.35,13.42,5.19,31.38,7.9,68.36,8.09,110.35,.05,5.8-1.12,58.5-1.17,59.57-.42,.84-1.12,2.24-2.01,4.35-14.96-5-30.91-7.62-47.41-7.62-15.38,0-30.72,2.38-45.54,7.11-38.44,12.16-69.81,38.53-88.37,74.3-18.56,35.77-22.12,76.59-9.96,115.03,5.99,18.89,15.34,35.96,27.45,50.5-5.66,1.31-13.05,1.96-22.07,1.96-17.35,0-35.44-2.48-40.45-3.27l-3.18-4.25-34.51-213.17-38.29-239.36,8.46-41.8Zm117.36,508.59c-.75,1.54-1.82,2.85-2.67,3.69-4.11,4.25-10.05,6.97-16.27,7.39-5.1,.37-31.09-3.32-43.53-5.61,5.75-5.66,9.77-7.9,11.22-8.6,4.68,.75,23.38,3.41,41.85,3.41,3.32,0,6.5-.09,9.4-.28ZM106.98,576.3c13.33-7.9,46.43-27.73,73.32-44.93-8.56,28.05-27.68,119.23-27.82,119.84-.7,1.54-1.45,2.99-2.2,4.4-1.22-.47-2.38-.84-3.51-1.08-.05-.23-39.79-78.23-39.79-78.23Zm35.12,163.09c-2.9-.75-5.66-2.57-8.04-4.3-5.8-4.12-12.58-10.71-16.32-18.33-2.71-5.38-5.52-24.13-6.92-34.6,5.52-3.79,27.68-19.08,29.13-20.06,1.64-1.12,1.73-.94,3.51-1.03,3.32-.14,10.38,3.55,18,8.93,2.76,1.92,4.96,4.58,6.83,7.71,2.43,4.16,4.82,7.86,9.12,9.77,1.17,.51,7.25,4.77,8.32,4.49-6.55,1.82-14.12,.19-18.84-4.21-2.01-1.87-6.17-.51-5.28,2.29,.56,1.82,2.66,3.79,3.79,5.33l8.84,12.53c1.73,2.85,4.3,10.38-.14,12.16l-30.3,19.45c-.42,.09-.98,.05-1.68-.14Zm109.98,246.7c-8.28-3.51-16.93-6.31-26.04-8.37-6.22-1.4-12.53-2.38-18.84-2.95l14.64-38.53c15.15,23.24,27.4,40.07,31.05,45.08-.23,1.08-.51,2.67-.79,4.77Zm7.95-4.68c.28-1.03,.05-2.15-.56-2.99-.42-.56-15.57-20.95-34.51-50.45-1.54-2.38-48.4-85.19-48.63-85.75-16.97-35.3-29.27-70.84-27.73-97.44l28.85-18.56c2.67-1.26,4.54-3.46,5.38-6.41,.28-.84,.42-1.68,.51-2.57,9.73,3.13,17.67,5.42,21.65,6.45,9.4,2.38,17.96,4.3,25.76,5.89-.19,11.36-4.35,22.4-11.64,30.67-2.24,2.57-4.68,4.86-7.29,6.87-7.29,5.66-15.8,8.98-25.02,9.73-2.71,.23-2.76,4.68,.19,4.68h.19c9.17-.75,17.67-3.79,25.11-8.93l80.38,197.23s36.38,190.77,36.47,191.38c.56,2.95,5.19,2.2,4.63-.89l-36.61-191.8-81.03-198.86c2.29-1.87,4.44-3.97,6.5-6.31,7.85-8.93,12.39-20.71,12.76-32.82,23.57,4.49,39.46,5.66,49.56,5.66,4.82,0,8.23-.28,10.57-.56l37.83,236.46,31.37,194.05-68.73,18.38c-50.31-141.63-36.1-202.46-35.96-203.07Zm37.55,207.51l67.89-18.14,2.52,15.66-63.97,19.92c-2.24-5.94-4.4-11.78-6.45-17.44Zm67.33,5.85c-5.28,4.44-12.11,11.6-19.64,22.91-1.45,2.2-7.39,4.54-15.43,4.54-7.39,0-16.69-2.2-20.99-8.28l-.42-1.59,56.48-17.58Zm-51.67,69.06s163.14-48.21,163.42-48.3c2.85-.84,1.54-5.33-1.36-4.49l-138.87,41.05c-1.59-3.32-3.88-6.36-6.69-9.12-2.2-2.15-5.42,1.22-3.27,3.37,2.29,2.15,4.07,4.54,5.42,7.11l-20.57,6.08c-2.81-6.69-5.7-15.2-6.64-23.89,5.56,.98,10.9,3.04,15.52,5.84,2.52,1.54,5-2.43,2.43-3.97-5.42-3.32-11.69-5.61-18.24-6.69-.09-2.9,.09-5.75,.61-8.51,.09-.61,.23-1.12,.37-1.64,5.38,5.42,14.21,8.56,24.46,8.56,7.43,0,17.49-2.01,21.27-7.67,3.74-5.61,7.25-10.05,10.38-13.61,10.8,2.24,38.72,6.41,46.66,6.27,8.42-.19,15.43-3.79,20.34-8.88,2.24-2.34,3.69-4.82,4.35-7.34,7.29-.75,13.14-2.1,17.44-4.12,3.51-1.64,6.87-2.48,10.01-2.48,15.62,0,23.66,20.76,26.23,28.9-4.63,1.31-165.76,49.14-169.83,50.31-.89-1.59-2.1-3.93-3.46-6.78Zm19.17,9.49c2.06-.65,159.26-47.18,159.35-47.23,3.6-1.31,2.62-3.69,2.48-4.16-.33-1.54-9.07-37.55-33.95-37.55-4.07,0-8.28,.98-12.67,2.99-12.34-14.35-21.93-31.33-27.91-50.26-11.6-36.66-8.23-75.61,9.49-109.7,17.72-34.09,47.65-59.24,84.26-70.84,14.17-4.49,28.76-6.78,43.44-6.78,15.52,0,30.58,2.48,44.75,7.11-7.71,20.11-22.12,67.89-28.71,157.01-1.17,15.24-2.06,31.75-2.62,49.47,0,.84,.75,12.34,.23,12.81-11.55,10.19-22.35,33.01-15.29,47.09,.42,.84,.98,1.4,2.52,2.38l1.08,41.1c.05,1.82,1.45,3.27,3.27,3.41l17.77,1.26h.23c1.68,0,3.18-1.22,3.46-2.95l3.65-21.6c4.35,4.12,8.32,8.7,11.32,13.61,3.88,6.45,9.49,10.94,15.94,12.81H332.41Zm232.48-43.25c4.44,2.81,10.33,6.69,16.18,11.41l-3.88,22.72-11.41-.79-.89-33.34Zm117.6,38.67c0,1.5-1.03,2.76-2.24,2.76l-60.08-4.26c-6.22-.42-11.92-4.21-15.62-10.38-10.24-17.02-30.95-29.69-39.79-35.07-1.31-.84-2.81-1.73-3.51-2.2-4.4-10.15,3.69-27.87,12.25-36.66,1.96,3.32,4.63,6.78,7.57,10.01-5.75,6.27-9.49,14.68-10.43,23.43-.14,1.26,.79,2.43,2.1,2.57h.23c1.17,0,2.2-.89,2.34-2.1,.84-7.58,4.02-14.96,8.98-20.48,6.45,6.5,13.51,11.92,17.3,14.08,11.13,6.27,19.73,9.49,25.62,9.49,5.05,0,7.48-2.29,8.65-4.21,.05-.05,.09-.14,.09-.19,11.78,15.62,24.45,24.17,34.27,28.85,6.36,3.04,10.8,9.45,11.97,16.97l-62.14-4.4c-1.31-.09-2.38,.89-2.48,2.15-.09,1.31,.89,2.43,2.15,2.53l62.8,4.44-.05,2.67Zm-9.21-30.67c-8.04-3.83-18.24-10.52-28.1-22.12,21.88-15.8,38.86-37.03,49.56-61.21v-20.34c-8.93,30.3-27.73,57.23-53.87,76.08-1.87-2.53-3.74-5.28-5.56-8.23-.42-1.03-.94-2.1-1.5-3.18-2.81-5.52-4.77-12.16-5.98-19.73,1.22-.33,2.24-1.26,2.57-2.53l43.2-167.16c8.79,12.06,15.66,25.76,20.39,40.63,.28,.84,.51,1.73,.75,2.57v-20.34c-5.05-11.36-11.41-21.98-18.84-31.56l25.62-102.78c4.96,10.29,10.43,21.88,16.69,35.12,.14,.23,.23,.51,.37,.8v298.69c0,19.87-12.91,36.47-29.88,39.88,0-.05,.05-.05,.05-.09,.47-1.17,.75-2.48,.75-3.79l.05-3.09c.09-12.02-6.27-22.86-16.27-27.63Zm31.61,35.26c12.39-8.37,20.71-23.43,20.71-40.54v-283.92c3.74,7.95,7.76,16.46,12.06,25.58-1.17,10.05-7.43,84.49,44.65,207.51,.56,1.36,1.87,2.15,3.23,2.15,.37,0,4.3-1.17,4.3-1.17-7.81,13.23-11.69,35.49-2.24,46.66,.61,.75,1.31,1.12,2.99,1.78l10.66,39.7c.28,.98,.93,1.82,1.82,2.24h-98.19ZM1252.33,488.34c.51,1.54,4.25,12.62,4.91,14.92,2.1,7.06,4.07,14.87,5.8,23.24,.23,1.08,1.36,12.11,1.4,12.25,10.19,64.57,8.14,134.43,8.09,135.51,0,0,0,54.99,.14,55.41,1.78,4.58,5.84,23.71,7.95,33.85-.51,.14-1.03,.28-1.54,.42l-8.98-26.37s-3.97-74.39-9.63-128.12l-4.82-100.53-18-49.24c.47,.61,8.18,9.73,14.68,28.66Zm-24.03-40.54l22.68,61.72,2.01,42.22c-2.85-17.82-6.17-33.39-9.91-44.56-4.77-14.26-23.61-49.84-31.19-63.97l16.41,4.58Zm8.14,61.63c17.07,50.97,25.25,201.76,26.46,225.61l-7.86,1.12c-5.8-25.9-42.6-190.59-52.88-217.71-6.41-16.97-27.49-39.93-44.61-56.67,5.56,1.03,11.22,1.5,16.93,1.5,7.43,0,14.87-.84,22.12-2.53,5.8-1.36,10.19-3.04,13.84-5.28,8.74,16.55,22.21,42.69,26,53.96Zm-2.81-233.23c3.51,5.99,5.89,12.77,6.87,19.73,.75,5.47,.98,13.19-2.34,19.4-.47-1.59-1.03-3.18-1.59-4.72-2.9-7.95-6.08-15.06-9.45-21.46,2.85-3.97,5.05-8.42,6.5-12.95Zm-111.66,105.72c-2.85,.19-11.04,.09-21.74-7.06-10.1-6.73-15.8-17.02-19.59-28.29-3.46-10.38-5.71-20.34-3.74-31.28,2.06-11.32,7.95-23.8,19.12-28.52,1.21-.51,2.06-1.68,2.1-2.99,1.08-15.52,15.1-28.9,28.38-34.18,12.39-4.86,25.2-7.43,38.53-7.11,7.43,.23,15.01,2.15,22.35,2.15,1.12,.23,2.34-.09,3.13-.89,3.65-3.37,7.48-5.19,12.48-5.19,10.57,0,22.91,8.65,25.11,19.31,2.34,11.41-2.62,24.83-12.34,33.53-9.96,8.79-25.3,9.96-38.86,10.99-2.29,.19-4.49,.37-6.69,.56-19.83,1.82-35.26-.28-48.3-6.55-3.65-1.73-6.83,3.27-3.74,5.84,9.12,7.53,13.09,18.28,18.33,28.48,1.59,3.27,.89,6.45-.19,8.23-1.45,2.34-2.48,1.12-4.3-.05-1.96-1.26-4.02-2.38-6.27-3.09-7.95-2.57-18.8,1.54-19.54,10.8-.65,8.51,8.32,17.21,14.12,21.88,1.45,2.85,4.02,9.54,1.64,13.42Zm6.41,2.95c4.49-8.46-2.01-19.87-2.29-20.43-.23-.37-.51-.7-.84-.98-7.62-5.98-12.34-12.39-12.02-16.27,.05-.61,.19-2.52,3.32-4.3,3.88-1.82,8-.79,13.33,3.09,1.4,1.03,2.99,1.54,4.63,1.54,3.04,0,5.89-1.78,7.81-4.91,2.1-3.41,3.37-9.16,.47-14.96-.84-1.68-1.64-3.46-2.48-5.28-2.15-4.68-4.44-9.73-7.76-14.68,11.04,2.9,23.57,3.6,38.34,2.24,2.15-.19,4.35-.33,6.59-.51,14.64-1.12,31.24-2.38,42.92-12.76,.61-.56,1.26-1.12,1.82-1.73,2.71,5.47,5.28,11.5,7.76,18.14,2.57,6.87,4.35,14.17,5.38,21.42,1.26,8.88,1.17,17.72-.23,26.23-3.69,22.86-16.08,39.93-33.95,46.81-5.19,2.01-10.94,3.04-17.11,3.04-19.97,0-40.49-10.01-55.69-25.67Zm71.73,52.98c-13.47,6.73-27.59,7.06-42.13,4.21-1.31-.28-18-4.02-17.44-5.98,.89-3.23,4.63-26.7,5.05-29.22,12.11,6.83,25.44,10.71,38.48,10.71,3.55,0,6.97-.33,10.29-.89,.75,2.76,5.75,20.43,5.75,21.18Zm-60.69,5.66c9.16,4.82,25.44,7.39,36.33,7.39,3.74,0,7.01-.28,9.68-.84,10.75-2.24,14.07-3.97,17.95-5.98,.23-.14,.47-.23,.75-.37,1.03,1.87,2.43,4.49,4.12,7.67-3.23,2.06-7.25,3.55-12.72,4.82-14.59,3.41-29.93,3.18-44.37-.51-5.19-4.91-9.68-9.02-12.86-11.83l1.12-.33Zm-11.5-.09c.19,.61,57.23,49.75,67.71,77.53,4.68,12.34,15.34,55.46,25.86,100.3l-47.18-100.81-55.13-72.48c3.09-1.73,6.08-3.32,8.74-4.54Zm-100.72,247.16c-15.8-9.16-22.68-27.91-16.27-44.61,.05-.14,54.38-154.86,81.17-181.1,4.96-3.41,14.07-9.4,23.01-14.59l55.03,72.38,56.58,120.78c10.94,47.09,20.67,90.66,21.98,96.7l-7.06,31.28c-10.47,1.5-21.79,2.71-33.76,3.6l12.86-23.1c1.78-2.34,2.34-5.24,1.68-8.28-1.22-5.47-6.22-10.38-10.57-12.72l-5.47-2.57c4.07-1.59,7.81-4.02,10.71-7.11,.7-.75,1.68-1.92,2.1-3.74,.94-3.97-3.23-6.83-6.64-7.29-2.34-.33-9.59,.09-10.94,0-3.74-.28-7.2-1.87-10.8-3.6-3.88-1.78-7.86-3.65-12.58-4.16-3.83-.42-13.05-.37-18.98-.28l.84-1.96c.7-1.68,.05-3.55-1.54-4.44l-51.62-28.94c.05-2.48,.89-72.99,1.54-75.05,14.5-29.97,28.24-60.18,27.96-66.35-.09-1.92-1.78-3.37-3.6-3.32-1.92,.05-3.23,1.68-3.41,3.6-1.22,12.67-47.51,104.18-58.03,124.75-3.46,3.41-9.49,5.84-17.11,6.87-1.92,.28-3.27,2.06-2.99,3.97,.23,1.73,3.65,2.99,3.93,2.99,5.99-.84,13.89-2.76,19.59-7.48l56.62,31.79-21.27,49.84-82.95-47.88Zm129.05,18.61c5.1-.09,17.07-.19,21.23,.23,3.55,.37,6.83,1.92,10.33,3.55,4.07,1.92,8.23,3.88,13.28,4.21,1.78,.14,3.46,.05,5.14-.05,1.78-.09,3.51-.19,5.05,0-4.21,4.07-10.24,6.41-16.18,6.22-1.54-.05-3.13,1.03-3.51,2.66-.42,1.64,.37,3.27,1.92,3.97l15.15,7.2c2.85,1.54,6.22,4.96,6.87,7.95,.33,1.36-.09,2.1-.7,2.99l-18.1,32.5c-2.76,2.67-22.82,1.4-36-7.48-5.52-3.74-16.37-17.49-21.42-24.17l16.93-39.79Zm-25.2,41.33l-16.79-9.73,21.28-49.89,16.83,9.45-21.32,50.17Zm-30.39-142.71c-.23,10.75-.47,25.02-.61,45.82,0,3.46-.05,6.69-.09,9.26l-21-11.78c4.4-8.6,12.72-25.06,21.7-43.3Zm-14.03,166.93c3.09-11.08,6.78-28.48,8.56-36.8,0,0,35.72,20.62,35.82,20.67,2.06,1.22,4.44-.09,5.19-2.2,5.56,7.2,11.27,14.68,18.19,20.62-31.7,.09-57.84-1.59-67.75-2.29Zm39.61,8.93c7.85,.23,16.5,.37,25.62,.37,4.25,0,13.75-.19,14.07-.28,7.71,3.18,16.6,5.1,23.85,5.1,5.8,0,10.52-1.26,12.67-4.11,.09-.14,1.36-2.38,1.36-2.38,14.78-1.03,28.62-2.48,41.24-4.35,1.4-.19,2.57-1.26,2.9-2.71l7.25-32.08,8.93-1.26,8.79,27.4c.47,1.36,2.1,2.43,3.51,2.62l28.76,168.89,34.65,213.78-33.76,7.9-10.29-65.32-1.08-7.01-8.46-53.77-1.12-7.01-10.33-65.74-61.16-163.42c-.47-1.22-1.78-1.82-2.99-1.36-1.22,.47-1.82,1.78-1.36,2.99l60.93,162.77,10.19,64.76,1.08,7.01,8.46,53.77,1.12,7.01,10.43,66.4-49.19,11.5c-7.06-28.99-12.3-54.94-16.18-77.9-.42-2.38-.79-4.72-1.17-7.01-3.32-20.48-5.52-38.44-7.01-53.77-.19-2.43-.42-4.77-.61-7.01-2.76-32.64-1.96-52.32-1.5-59.01v-.28c0-4.77-6.31-11.27-8.79-15.06-6.31-9.63-12.53-19.36-18.61-29.18-17.39-28.1-33.99-56.81-48.68-86.5-8.88-18.09-17.21-36.57-23.52-55.74Zm-47.88,367.33h-17.54c11.92-16.37,25.58-35.16,39.04-53.77h129.15c2.76,16.41,6.22,34.32,10.52,53.77h-141.49c-4.54,0-4.54,7.01,0,7.01h143.08c2.76,12.25,5.89,25.06,9.35,38.43,.37,1.59,1.82,2.66,3.37,2.66,.28,0,5.61-1.31,5.61-1.31l2.1,10.24h-223.04c-.37-.8-.75-1.64-1.17-2.48-1.08-2.24-8.14-11.88-12.72-13.09-.42-2.06-.7-4.16-.84-6.41l4.82,3.37c1.5,1.03,3.79,.7,4.86-.79,5.52-7.62,13.28-18.24,22.26-30.63h22.63c4.49,0,4.54-7.01,0-7.01Zm140.13-174.5c-.33,9.77-.33,27.49,1.87,52.93,0,.28,0,.56,.05,.84h-72.15c.19-.28,19.12-26.65,20.39-28.76l9.49-25.02h40.35Zm-37.69-7.01l13.75-36.33c11.41,18.19,20.29,31.47,23.66,36.33h-37.41Zm40.21,67.8c1.45,15.2,3.65,32.82,6.87,52.93h-122.93c15.38-21.23,30.07-41.48,38.25-52.93h77.81Zm35.35,154.07c-1.03-3.97-2.01-7.86-2.95-11.69l48.77-11.41,1.78,11.22-47.6,11.88Zm63.26-7.06c1.73,.7,5.33,2.25,10.1,4.07-11.08,10.1-34.32,17.44-54.61,19.73-.23,0-.51-.05-.75-.05h-5.61l-2.48-11.88,53.35-11.88Zm-11.08-5.98l-1.78-11.13,33.81-7.95,1.73,10.66-33.76,8.42Zm-169.83-208.08l11.55-114c13.09,25.25,27.4,49.66,39.65,69.44l-27.63,72.94c-2.85,4.77-93.8,129.94-131.58,181.89l-29.22-21.37,137.24-188.9Zm-167.21,127h14.63c-4.86,8.51-9.73,17.44-14.63,26.75v-26.75Zm-2.15,48.21l47.32,33.67c-.05,.65,.05,8.28,.42,11.17-13.93-5.8-32.82-22.63-45.12-40.35-1.03-1.4-1.96-2.81-2.85-4.21l.23-.28Zm.84,127.88v-23.85c6.5,6.64,13,17.67,19.26,23.85h-19.26Zm131.06-.89l-84.91-3.6-17.63-.75c-10.24-9.96-21.23-21.18-32.03-32.26-1.17-1.17-44.65-45.54-44.65-45.73,.05-.47,3.79-3.97,6.36-6.41,0,0,30.49,29.36,30.67,29.55,2.15,2.06,5.42-1.31,3.23-3.37l-30.49-29.41c8.7-8.28,22.54-21.37,31.89-30.16,14.17,21.98,40.82,46.52,59.01,48.91,.75,.37,2.38,1.92,3.93,3.69-7.43,.98-17.72,7.01-17.86,7.11-2.01,1.31-1.4,4.4,1.17,4.07,2.1-.23,3.97-1.68,5.84-2.52,5.47-2.62,12.3-5.28,13.89-4.02,0,0,2.9,4.35,2.99,4.49-3.65,1.21-9.02,3.69-17.02,8.46-1.82,1.08-1.17,3.69,.7,4.25,2.06,.65,5.56-2.48,7.34-3.46,3.6-1.96,7.34-3.93,11.27-5.14,8.93,14.96,20.76,19.31,54.33,23,2.85,.33,6.08,3.27,8.7,7.9,3.18,5.7,5.42,14.21,4.21,21.79-.23,1.17-.51,2.38-.89,3.51h3.6c-1.78,.05-3.65,.05-3.65,.09Zm7.29,.89c.37-1.17,.56-3.32,.7-4.49,1.12-8.93-1.36-18.47-5.14-25.2-3.83-6.83-8.84-10.89-14.07-11.46-30.25-3.32-40.54-7.11-47.46-17.11h214.85c-1.4,20.99,5.47,44.05,11.18,53.77,0,0,1.96,3.55,2.2,4.49,0,0-162.3,.33-162.25,0Zm170.06-1.22c0-.14-4.58-7.95-4.72-8.23,0,0,43.11-11.78,43.3-11.83,2.81-.75,1.64-5.33-1.22-4.49l-44,12.02c-4.07-9.96-8.56-27.21-7.57-43.67,3.18-.05,6.55-.28,9.96-.66,24.36-2.48,52.74-12.06,63.64-25.34,.89-1.08,6.73-2.57,7.53-2.67-3.23,6.59-5.66,17.3-5.66,20.43,0,1.31,1.03,2.34,2.34,2.34s2.34-1.03,2.34-2.34c0-3.55,3.13-14.78,5.7-19.45l2.76,1.26c.75,.37,1.54,.7,2.24,1.08-2.76,5.47-2.9,13.61-2.85,15.15,.05,1.26,1.08,2.29,2.34,2.29s2.34-1.03,2.34-2.34c0-4.86,.84-10.47,2.38-13.23,.28,.14,.56,.28,.84,.37,13,5.42,23.75,6.73,50.69-1.54,6.5-1.96,14.03-4.02,20.67-4.02,4.44,0,8,.93,10.61,2.81,3.41,2.43,6.45,12.25,8.32,20.76l-109.09,29.79c-1.26,.33-1.96,1.59-1.64,2.85,.28,1.03,1.21,1.73,2.24,1.73,.23,0,109.42-29.79,109.42-29.79,.7,3.79,1.12,6.87,1.08,8.28-.05,.33-.05,.84-.09,.94-.05,.14-.47,.51-2.38,1.12-49.56,15.48-168.33,45.92-168.33,45.92-1.08,.28-2.57,.56-3.18,.47Zm25.02,1.22c18.89-4.86,38.11-9.82,57.33-14.92,14.21,6.69,29.69,11.17,46.2,14.92h-103.52Zm67.71-17.67c27.07-7.25,54.19-14.87,80.89-23.24,1.73-.51,5.38-1.68,6.78-5.14,.51-1.31,.56-2.53,.61-3.41,.05-3.41-3.79-32.78-13.28-39.56-3.83-2.71-8.74-4.07-14.68-4.07-7.58,0-15.76,2.2-22.72,4.35-12.91,3.97-21.79,5.7-28.8,5.7-8.84,0-14.92-2.85-24.17-7.15l-4.16-1.92c-2.85-1.31-6.17-1.45-10.94-.19-1.5,.42-3.46,.93-5.28,2.01-2.48-.94-4.72-1.78-6.69-2.57l18.24-4.54c1.78-.42,2.9-2.15,2.62-3.97l-23.89-147.38c26.7-27.96,64.01-44.33,103.94-44.33,23.19,0,46.38,5.8,67.05,16.69,33.99,17.96,58.92,48.07,70.28,84.77,11.32,36.71,7.67,75.66-10.29,109.6-24.97,47.32-73.74,76.68-127.28,76.68-19.97,0-39.89-4.25-58.21-12.34Z"/></g></g></svg>