<?xml version="1.0" encoding="UTF-8"?><svg id="Layer_2" xmlns="http://www.w3.org/2000/svg" xmlns:xlink="http://www.w3.org/1999/xlink" viewBox="0 0 181.25 186.73"><defs><style>.cls-1,.cls-2,.cls-3,.cls-4,.cls-5{fill:#fff;}.cls-1,.cls-6,.cls-7,.cls-8,.cls-9,.cls-10,.cls-11,.cls-12,.cls-13,.cls-14{stroke-linecap:round;stroke-linejoin:round;}.cls-1,.cls-6,.cls-7,.cls-9,.cls-10,.cls-11,.cls-12,.cls-14{stroke:#0d1435;}.cls-6{fill:#d6d6d6;}.cls-3{fill-rule:evenodd;}.cls-15{clip-path:url(#clippath-2);}.cls-7,.cls-9,.cls-10,.cls-16{fill:#231f20;}.cls-17{clip-path:url(#clippath-6);}.cls-8{stroke:#fff;}.cls-8,.cls-11,.cls-12,.cls-13,.cls-18{fill:none;}.cls-9{stroke-width:.73px;}.cls-19{clip-path:url(#clippath-7);}.cls-20{clip-path:url(#clippath-1);}.cls-21{clip-path:url(#clippath-4);}.cls-22{fill:gray;}.cls-10{stroke-width:.88px;}.cls-23,.cls-5{isolation:isolate;opacity:.2;}.cls-11{stroke-width:.82px;}.cls-13{stroke:gray;}.cls-24{clip-path:url(#clippath);}.cls-4{stroke:#151c3a;stroke-width:.5px;}.cls-25{clip-path:url(#clippath-3);}.cls-14{fill:#fabb27;}.cls-26{clip-path:url(#clippath-5);}</style><clipPath id="clippath"><rect class="cls-18" x="51.17" y="24.24" width="78.51" height="153.22" rx="14.52" ry="14.52"/></clipPath><clipPath id="clippath-1"><path class="cls-18" d="M168.9,52.35H85.29v24.8c-17.32,2.22-29.56,18.06-27.35,35.38,2.22,17.32,18.06,29.56,35.38,27.35,8.52-1.09,16.22-5.6,21.35-12.49h54.23V52.35Z"/></clipPath><clipPath id="clippath-2"><path class="cls-18" d="M54.84,139.43s8.75-30.48,10.41-36.99,4.14-10.76,9.31-11.79,14.68-1.99,14.68-1.99c4.74-.46,9.51-.6,14.27-.41,6,.41,11.48,3.62,14.38,5.79s11.27,9.72,11.27,9.72l-1.03-17.37,7.55,.62s5.48,24.2,6.21,28.65,.72,6.41,0,6.93,.52,.83-6.1-1.34-14.38-5.17-18.62-6.41-4.76-1.45-4.76-1.45c0,0-10.38,15.62-13.68,20.27-2.26,3.3-4.28,6.77-6.03,10.37"/></clipPath><clipPath id="clippath-3"><path class="cls-18" d="M95.85,79.45s-1.76,5.38-3.21,7.24-2.07,2.17-2.59,6.51,1.76,14.17,2.48,13.96,7.86-11.58,10.24-13.44,4.86-3.83,4.86-3.83c0,0-5.79-1.76-7.76-4.24-1.48-1.98-2.83-4.05-4.03-6.2Z"/></clipPath><clipPath id="clippath-4"><path class="cls-18" d="M117.88,65.69s-.31,6.93-.1,9.2,1.03,6.2-.83,9.93-3.41,6.1-5.17,6.72-7.45-.62-12-4.03-5.38-10.44-6.1-12.72,.1-10.03,4.76-12.51c3.77-1.94,8.14-2.35,12.2-1.14,2.49,.83,7.24,4.55,7.24,4.55Z"/></clipPath><clipPath id="clippath-5"><path class="cls-18" d="M94.4,77.59s.93-4.03,3.21-5.48,4.45-1.14,3.1-3.1-2.07-3.93,.83-4.86,8.58,.62,11.89,1.86,9.72,1.65,11.38-3c1.02-2.88-1.97-5.16-4.16-6.34-2.38-1.36-5.15-1.87-7.86-1.46-1.64,.29-3.24,.94-4.91,1.11-2.81,.28-5.29-1.02-8.09-.34-2.35,.56-4.46,1.86-6,3.72-2.58,3.2-3.31,9,.62,17.89Z"/></clipPath><clipPath id="clippath-6"><path class="cls-18" d="M79.61,95.87l7.59,23.7s17.44-10.15,21.53-15.45,6.45-11.28,7.88-11.84,6.54,.84,7.29,1.64,.57,1.74-.34,2.6c-.39,.43-.88,.76-1.42,.97,0,0-.05,1.86-.45,2.19s-.31-.09-.4,.32c-.07,.45-.23,.88-.48,1.26-.3,.42-.4,.63-.7,.74-.59,.25-1.21,.45-1.85,.57-1.12,.29-2.25,.49-3.4,.62-.72,.12-5.41,9.37-9.79,14.89s-18.28,18.14-20.45,18.21-14.99-21.09-17.73-26.28"/></clipPath><clipPath id="clippath-7"><path class="cls-18" d="M118.26,102.58c.63-.13,1.25-.32,1.85-.57,.31-.11,.4-.32,.7-.74,.25-.38,.41-.81,.48-1.26,.09-.42,.36-.56,.76-.88s.09-1.63,.09-1.63c.54-.21,1.03-.54,1.42-.97,.9-.85,1.08-1.79,.33-2.6s-5.86-2.2-7.29-1.64c-1.37,.54-3.6,6.04-7.37,11.16l3.49,2.86c1.1-1.83,1.88-3.07,2.14-3.11,1.15-.13,2.28-.33,3.4-.62Z"/></clipPath></defs><g id="Layer_1-2"><g id="Group_5933"><g id="Background_Simple"><g id="Group_5868"><path id="Path_10878" class="cls-4" d="M1.5,78.14s-3.45,33.23,21.09,60.76c24.54,27.53,62.49,36.77,93.1,45.06,30.61,8.29,56.73-4.45,63.92-30.19s-15.36-38.24-24.05-70.93-6.2-42.36-30.78-66.32S56.26-4.57,29.69,22.7C3.13,49.97,1.5,78.14,1.5,78.14Z"/></g></g><g id="Icons"><g id="Group_5869"><path id="Path_10879" class="cls-12" d="M39.37,19.82l52.23,85.34,63.47-60.13"/><path id="Path_10880" class="cls-12" d="M11.91,109.03l79.7-3.88-58-24.6"/><path id="Path_10881" class="cls-12" d="M104.4,9.71l-11.86,97.45,72.74,14.43"/><path id="Path_10882" class="cls-12" d="M34.82,165.89l56.79-60.74,58.92,44.64"/></g><g id="Group_5873"><g id="Group_5871"><g id="Group_5870"><path id="Path_10883" class="cls-16" d="M10.13,98.24c-5.6,0-10.13,4.54-10.13,10.13s4.54,10.13,10.13,10.13,10.13-4.54,10.13-10.13h0c0-5.59-4.54-10.13-10.13-10.13Z"/></g></g><g id="Group_5872"><path id="Path_10884" class="cls-3" d="M16.34,108.11c-.11-3.2-2.79-5.71-5.99-5.6-3.01,.1-5.44,2.49-5.6,5.5,0,.08,0,.17,0,.25,0,1.05,.29,2.08,.83,2.97l-1.05,3.09,3.21-1.02c2.81,1.54,6.34,.52,7.88-2.3,.46-.84,.71-1.78,.72-2.74,0-.05,0-.1,0-.15Zm-5.8,4.98c-.95,0-1.89-.28-2.68-.8l-1.87,.6,.61-1.8c-.6-.82-.93-1.82-.93-2.84,0-.16,0-.31,.02-.47,.28-2.68,2.68-4.62,5.36-4.34,2.32,.25,4.15,2.1,4.35,4.43,.01,.12,.02,.25,.02,.38-.01,2.68-2.19,4.84-4.87,4.84h0Z"/><path id="Path_10885" class="cls-3" d="M13.2,109.42c-.14-.07-.84-.41-.97-.46s-.22-.07-.32,.07-.37,.46-.45,.55-.17,.11-.31,.04c-.42-.16-.81-.4-1.14-.7-.31-.28-.58-.61-.79-.98-.08-.14,0-.22,.06-.29s.14-.17,.21-.25l.05-.07c.03-.05,.06-.11,.09-.17,.04-.08,.04-.17-.01-.25-.03-.07-.32-.77-.44-1.05s-.24-.23-.32-.23-.18-.01-.27-.01c-.15,0-.28,.07-.38,.18-.33,.3-.51,.73-.5,1.18,0,.16,.03,.32,.07,.48,.11,.35,.28,.68,.51,.98,.59,.92,1.43,1.66,2.43,2.13,1.45,.56,1.45,.38,1.71,.35,.4-.08,.75-.32,.96-.67,.09-.21,.12-.44,.08-.67-.03-.05-.12-.09-.26-.16Z"/></g></g><g id="Group_5877"><g id="Group_5875"><g id="Group_5874"><path id="Path_10886" class="cls-16" d="M36.99,8.07c-5.6,0-10.13,4.54-10.13,10.13s4.54,10.13,10.13,10.13h0c5.6,0,10.13-4.54,10.13-10.13s-4.54-10.13-10.13-10.13Z"/></g></g><g id="Group_5876"><path id="Path_10887" class="cls-2" d="M43.42,14.95c-.15-.58-.61-1.04-1.19-1.19-3.49-.38-7-.38-10.49,0-.58,.16-1.03,.61-1.19,1.19-.37,2.15-.37,4.35,0,6.5,.15,.58,.61,1.04,1.19,1.19,3.49,.38,7,.38,10.49,0,.58-.16,1.03-.61,1.19-1.19,.37-2.15,.37-4.35,0-6.5Z"/><path id="Path_10888" class="cls-16" d="M35.62,20.2v-3.99l3.51,2-3.51,1.99Z"/></g></g><g id="Group_5880"><g id="Group_5879"><g id="Group_5878"><path id="Path_10889" class="cls-16" d="M35.55,153.12c-7.34,0-13.29,5.95-13.29,13.29s5.95,13.29,13.29,13.29,13.29-5.95,13.29-13.29h0c0-7.34-5.95-13.28-13.29-13.29Z"/></g></g><path id="Path_10890" class="cls-2" d="M33.32,174.94h3.44v-8.61h2.4l.26-2.88h-2.65v-1.64c0-.68,.14-.95,.79-.95h1.86v-2.99h-2.38c-2.56,0-3.71,1.13-3.71,3.28v2.3h-1.79v2.92h1.79v8.57Z"/></g><g id="Group_5884"><g id="Group_5882"><g id="Group_5881"><path id="Path_10891" class="cls-16" d="M150.88,139.89c-5.6,0-10.13,4.54-10.13,10.13s4.54,10.13,10.13,10.13,10.13-4.54,10.13-10.13h0c0-5.59-4.54-10.13-10.13-10.13Z"/></g></g><g id="Group_5883"><path id="Path_10892" class="cls-2" d="M150.88,145.19c1.58,0,1.76,0,2.39,.03,.38,0,.75,.07,1.1,.2,.52,.2,.92,.61,1.12,1.12,.13,.35,.2,.72,.2,1.1,.03,.62,.03,.81,.03,2.39s0,1.76-.03,2.39c0,.38-.07,.75-.2,1.1-.2,.52-.61,.92-1.12,1.12-.35,.13-.72,.2-1.1,.2-.62,.03-.81,.03-2.39,.03s-1.76,0-2.39-.03c-.38,0-.75-.07-1.1-.2-.52-.2-.92-.61-1.12-1.12-.13-.35-.2-.72-.2-1.1-.03-.62-.03-.81-.03-2.39s0-1.76,.03-2.39c0-.38,.07-.75,.2-1.1,.2-.52,.61-.92,1.12-1.12,.35-.13,.72-.2,1.1-.2,.62-.03,.81-.03,2.39-.03m0-1.06c-1.6,0-1.8,0-2.43,.04-.49,0-.97,.1-1.43,.27-.79,.31-1.42,.93-1.73,1.73-.17,.46-.26,.94-.27,1.43-.03,.63-.04,.83-.04,2.43s0,1.8,.04,2.43c0,.49,.1,.97,.27,1.43,.31,.79,.93,1.42,1.73,1.73,.46,.17,.94,.26,1.43,.27,.63,.03,.83,.04,2.43,.04s1.8,0,2.43-.04c.49,0,.97-.1,1.43-.27,.79-.31,1.42-.93,1.73-1.73,.17-.46,.26-.94,.27-1.43,.03-.63,.04-.83,.04-2.43s0-1.8-.04-2.43c-.01-.49-.1-.97-.27-1.43-.31-.79-.93-1.42-1.73-1.73-.46-.17-.94-.26-1.43-.27-.63-.03-.83-.04-2.43-.04"/><path id="Path_10893" class="cls-2" d="M150.88,147c-1.67,0-3.03,1.36-3.03,3.03s1.36,3.03,3.03,3.03,3.03-1.36,3.03-3.03-1.36-3.03-3.03-3.03h0m0,5c-1.09,0-1.97-.88-1.97-1.97s.88-1.97,1.97-1.97,1.97,.88,1.97,1.97h0c0,1.09-.88,1.97-1.97,1.97"/><path id="Path_10894" class="cls-2" d="M154.74,146.88c0,.39-.32,.71-.71,.71s-.71-.32-.71-.71,.32-.71,.71-.71h0c.39,0,.71,.32,.71,.71"/></g></g><g id="Group_5887"><g id="Group_5886"><g id="Group_5885"><path id="Path_10895" class="cls-7" d="M154.58,59.15h0c-8.48,0-15.35-6.87-15.36-15.35h0c0-8.48,6.87-15.36,15.35-15.36h0c8.48,0,15.35,6.87,15.35,15.35h0c0,8.48-6.87,15.35-15.35,15.35Z"/></g></g><path id="Path_10896" class="cls-2" d="M146.4,48.93c4.44,2.84,10.34,1.55,13.19-2.89,1.07-1.66,1.59-3.61,1.5-5.59,.66-.47,1.22-1.06,1.67-1.74-.61,.27-1.26,.45-1.93,.53,.7-.42,1.23-1.08,1.48-1.86-.66,.39-1.38,.67-2.13,.82-1.27-1.35-3.4-1.42-4.75-.15-.87,.82-1.24,2.04-.97,3.21-2.7-.13-5.21-1.41-6.92-3.51-.89,1.53-.44,3.5,1.04,4.48-.53-.02-1.05-.16-1.52-.42-.02,1.61,1.11,3.01,2.69,3.33-.49,.13-1.01,.15-1.52,.06,.44,1.37,1.7,2.3,3.14,2.33-1.41,1.1-3.19,1.6-4.97,1.39Z"/></g><g id="Group_5893"><g id="Group_5890"><g id="Group_5889"><g id="Group_5888"><path id="Path_10897" class="cls-22" d="M34.15,72.05c-4.42,0-8,3.58-8,8s3.58,8,8,8,8-3.58,8-8c0-4.42-3.58-7.99-8-8Z"/></g></g></g><g id="Group_5892"><g id="Group_5891"><rect id="Rectangle_3610" class="cls-2" x="30.06" y="77.96" width="1.76" height="5.68"/><path id="Path_10898" class="cls-2" d="M30.93,77.21c.58,0,1.05-.46,1.06-1.04s-.46-1.05-1.04-1.06c-.58,0-1.05,.46-1.06,1.04,0,0,0,0,0,0,0,.58,.46,1.05,1.04,1.05h0Z"/></g><path id="Path_10899" class="cls-2" d="M34.63,80.66c0-.8,.37-1.28,1.07-1.28,.65,0,.96,.46,.96,1.28v2.98h1.75v-3.6c.11-1.13-.72-2.14-1.86-2.25-.77-.07-1.51,.28-1.93,.93v-.77h-1.69v5.68h1.69v-2.98Z"/></g></g><g id="Group_5897"><g id="Group_5894"><path id="Path_10900" class="cls-22" d="M164.86,128.78h0c-4.59,0-8.32-3.72-8.32-8.32h0c0-4.59,3.72-8.32,8.32-8.32h0c4.59,0,8.32,3.72,8.32,8.32h0c0,4.59-3.72,8.32-8.32,8.32Z"/></g><g id="Group_5896"><path id="Path_10901" class="cls-2" d="M163.62,123.62c.24-.05,.46-.15,.66-.29,.17-.12,.31-.28,.41-.46,.17-.28,.26-.6,.26-.93,0-.3-.07-.6-.23-.85-.16-.24-.4-.42-.67-.51,.17-.08,.32-.19,.44-.33,.19-.24,.28-.55,.27-.86,0-.32-.09-.63-.27-.89-.37-.44-.94-.67-1.51-.62h-2.82v5.82h2.62c.28,0,.55-.03,.83-.08Zm-2.29-4.73h1.27c.23,0,.46,.02,.69,.09,.21,.09,.34,.31,.31,.54,.02,.2-.07,.4-.24,.51-.19,.1-.4,.15-.62,.14h-1.42v-1.28Zm0,3.8v-1.55h1.43c.2,0,.4,.03,.58,.1,.24,.11,.39,.36,.37,.62,.03,.3-.12,.59-.38,.73-.19,.08-.39,.11-.59,.1h-1.41Z"/><g id="Group_5895"><path id="Path_10902" class="cls-2" d="M165.94,123.32c.43,.35,.96,.54,1.52,.53,.61,.04,1.2-.19,1.62-.63,.22-.21,.37-.48,.42-.78h-1.15c-.06,.11-.14,.22-.23,.3-.18,.14-.4,.21-.62,.2-.22,0-.43-.05-.62-.16-.3-.2-.47-.55-.45-.91h3.14c0-.29,0-.57-.04-.86-.05-.32-.16-.62-.34-.89-.18-.28-.44-.5-.74-.64-.32-.14-.66-.21-1.01-.2-.57-.02-1.13,.2-1.54,.6-.42,.47-.64,1.09-.59,1.72-.06,.64,.19,1.27,.66,1.71Zm.8-2.86c.18-.17,.42-.26,.67-.25,.24,0,.48,.07,.67,.23,.19,.18,.3,.42,.3,.68h-1.94c.03-.25,.13-.48,.3-.67h0Z"/><rect id="Rectangle_3611" class="cls-2" x="166.07" y="118.21" width="2.53" height=".59"/></g></g></g><g id="Group_5899"><g id="Group_5898"><path id="Path_10903" class="cls-22" d="M104.4,18.03h0c-4.59,0-8.32-3.72-8.32-8.32h0c0-4.59,3.72-8.32,8.32-8.32h0c4.59,0,8.32,3.72,8.32,8.32h0c0,4.59-3.72,8.32-8.32,8.32Z"/></g><path id="Path_10904" class="cls-3" d="M109.22,12.15h0c-.1-.06-.2-.1-.31-.12h0c-.51-.17-.96-.5-1.28-.93-.18-.23-.33-.49-.44-.77h0c-.05-.11-.04-.23,.02-.33h0c.12-.13,.27-.23,.44-.28h0c.22-.06,.42-.17,.6-.31h0s.06-.07,.09-.11c0-.01,.01-.03,.01-.04,.02-.05,.01-.11-.01-.16h0c-.05-.09-.12-.16-.21-.2h0c-.11-.06-.24-.07-.36-.03h0c-.1,.04-.21,.07-.32,.09,0,0,0,0,0,0-.12,.03-.24,.02-.36,0,0-.01,0-.04,0-.08h0c0-.22,.01-.44,.01-.67h0c.02-.36,.01-.72-.03-1.08h0c-.13-.61-.49-1.15-1.01-1.5-.37-.25-.79-.41-1.24-.44h0c-.15-.01-.3-.02-.45-.02-.61-.01-1.2,.18-1.69,.54-.36,.28-.64,.65-.83,1.08h0c-.14,.42-.19,.87-.13,1.31h0c.03,.29,.03,.58,.02,.86,0,0,0,.01,0,.02-.14,.02-.29,.02-.42-.01h0c-.11-.02-.22-.06-.33-.09,0,0,0,0,0,0-.11-.02-.23,0-.32,.07h0c-.1,.05-.16,.15-.17,.26,0,0,0,.02,0,.03h0c.01,.07,.05,.13,.11,.18,.05,.04,.09,.06,.11,.08h0c.21,.12,.43,.22,.67,.29h0c.14,.04,.25,.15,.3,.28,.02,.18-.02,.36-.12,.51h0c-.24,.46-.58,.86-1.01,1.16-.23,.15-.48,.27-.74,.34h-.01c-.1,.02-.2,.07-.26,.15,0,0,0,.02-.01,.03-.02,.07,0,.15,.04,.21,.03,.04,.07,.07,.11,.09h0c.22,.11,.45,.19,.69,.24h0c.15,.02,.29,.06,.43,.11,0,0,.02,.05,.05,.12,.04,.12,.06,.26,.1,.42,.01,.04,.05,.07,.09,.08,.05,.01,.11,0,.17-.01h.01c.36-.09,.72-.1,1.08-.04h0c.36,.14,.71,.32,1.02,.55h0c.24,.17,.52,.27,.81,.3h0c.23,0,.46,0,.69-.01h0c.19-.02,.38-.08,.54-.19h0c.37-.21,.69-.46,1.05-.62h0c.14-.03,.28-.05,.42-.05h0c.3,0,.6,0,.89,.04,0,0,.02,0,.03,0,.04,0,.07-.03,.1-.06,.02-.02,.03-.04,.03-.06,0-.03,.02-.04,0-.02,0,0,0-.02,.01-.03,.03-.16,.09-.3,.17-.44,.05-.04,.12-.06,.18-.06h.02c.24-.04,.48-.11,.71-.2,0,0,0,0,0,0,.11-.04,.21-.1,.29-.19h0c.06-.09,.04-.21-.05-.28,0,0,0,0-.02,0h0Z"/></g></g><g id="Device"><g id="Group_5906"><g id="Group_5901"><rect id="Rectangle_3612" class="cls-16" x="51.17" y="24.24" width="78.51" height="153.22" rx="14.52" ry="14.52"/><g class="cls-24"><g id="Group_5900"><path id="Path_10905" class="cls-5" d="M57.93,24.24c-3.74,0-6.77,3.03-6.77,6.77h0V170.69c0,2,.89,3.91,2.43,5.19L99.4,24.24H57.93Z"/><path id="Path_10906" class="cls-8" d="M93.09,173.03c0-1.47-1.19-2.67-2.67-2.67s-2.67,1.19-2.67,2.67,1.19,2.67,2.67,2.67h0c1.47,0,2.67-1.19,2.67-2.67Z"/></g></g><rect id="Rectangle_3614" class="cls-12" x="51.17" y="24.24" width="78.51" height="153.22" rx="14.52" ry="14.52"/></g><rect id="Rectangle_3615" class="cls-7" x="54.66" y="34.65" width="71.53" height="133.72"/><circle id="Ellipse_564" class="cls-2" cx="89.3" cy="108.51" r="32.8"/><rect id="Rectangle_3616" class="cls-2" x="57.13" y="50.7" width="66.87" height="15.23"/><rect id="Rectangle_3617" class="cls-2" x="57.13" y="150.67" width="66.87" height="15.23"/><rect id="Rectangle_3618" class="cls-2" x="57.13" y="145.38" width="66.87" height=".66"/><rect id="Rectangle_3619" class="cls-2" x="57.13" y="148.36" width="66.87" height=".66"/><g id="Group_5904"><g id="Group_5902"><rect id="Rectangle_3620" class="cls-11" x="117.83" y="36.03" width="5.93" height="3.25"/><rect id="Rectangle_3621" class="cls-9" x="117.83" y="36.03" width="4.62" height="3.25"/><rect id="Rectangle_3622" class="cls-9" x="123.75" y="36.94" width=".84" height="1.43"/></g><g id="Group_5903"><rect id="Rectangle_3623" class="cls-10" x="56.27" y="37.04" width="1.09" height="1.86"/><rect id="Rectangle_3624" class="cls-10" x="57.98" y="36.39" width="1.09" height="2.52"/><rect id="Rectangle_3625" class="cls-10" x="59.69" y="35.62" width="1.09" height="3.29"/></g></g><g id="Group_5905"><rect id="Rectangle_3626" class="cls-16" x="55.81" y="41.1" width="68.69" height="5.16"/></g></g></g><g id="Character"><g id="Group_5932"><g class="cls-20"><g id="Group_5931"><g id="Group_5929"><g id="Group_5909"><g id="Group_5908"><path id="Path_10907" class="cls-2" d="M54.84,139.43s8.75-30.48,10.41-36.99,4.14-10.76,9.31-11.79,14.68-1.99,14.68-1.99c4.74-.46,9.51-.6,14.27-.41,6,.41,11.48,3.62,14.38,5.79s11.27,9.72,11.27,9.72l-1.03-17.37,7.55,.62s5.48,24.2,6.21,28.65,.72,6.41,0,6.93,.52,.83-6.1-1.34-14.38-5.17-18.62-6.41-4.76-1.45-4.76-1.45c0,0-10.38,15.62-13.68,20.27-2.26,3.3-4.28,6.77-6.03,10.37"/><g class="cls-15"><g id="Group_5907"><path id="Path_10908" class="cls-23" d="M141.87,122.57c.72-.52,.72-2.48,0-6.93-.43-2.65-2.56-12.34-4.2-19.72,.65,8.71,.9,17.24-.44,18.83-2.9,3.44-7.15-1.08-7.15-1.08l-.81-6.7s-14.48-10.68-19.9-12.49c-5.42-1.93-11.33-2.06-16.83-.36-5.61,1.81-10.32,3.62-13.75,7.06s-15.38,30.94-15.38,30.94l-1.35,8.17,30.63,3.71c1.75-3.6,3.76-7.07,6.03-10.37,3.31-4.65,13.68-20.27,13.68-20.27,0,0,.52,.21,4.76,1.45s12,4.24,18.62,6.41,5.38,1.86,6.1,1.35Z"/></g></g><path id="Path_10910" class="cls-12" d="M54.84,139.43s8.75-30.48,10.41-36.99,4.14-10.76,9.31-11.79,14.68-1.99,14.68-1.99c4.74-.46,9.51-.6,14.27-.41,6,.41,11.48,3.62,14.38,5.79s11.27,9.72,11.27,9.72l-1.03-17.37,7.55,.62s5.48,24.2,6.21,28.65,.72,6.41,0,6.93,.52,.83-6.1-1.34-14.38-5.17-18.62-6.41-4.76-1.45-4.76-1.45c0,0-10.38,15.62-13.68,20.27-2.26,3.3-4.28,6.77-6.03,10.37"/></g><path id="Path_10911" class="cls-12" d="M115.35,108.57l-2.95,4.8,8.74-4.8"/><path id="Path_10912" class="cls-1" d="M129.15,103.75s.41,8.58,.93,9.93,2.79,1.96,2.79,1.96"/></g><g id="Group_5910"><path id="Path_10913" class="cls-16" d="M83.58,103.49s-1.13,2.68-.56,2.68,4.23-1.41,5.92-1.41,3.53,2.96,3.53,2.96c0,0,4.94-3.67,6.49-3.24,.76,.26,1.46,.67,2.05,1.21,.29,.25,.72,.22,.97-.07,.1-.12,.16-.27,.17-.43,.03-.76,.05-1.8,.05-3.11,0-3.1-2.68-11.57-7.62-11.99s-5.78,3.1-7.9,7.34-3.1,6.07-3.1,6.07Z"/><path id="Path_10914" class="cls-1" d="M94.2,85.24s-4.76,.62-6.93,2.69-1.45,5.38-2.59,8.38-3.1,9.1-2.07,9,4.65-3,5.69-2.27,3.41,3.72,3.83,3.93,5.69-3.62,6.41-4.03,4.24,4.14,4.34,2.9c.24-4.35,.1-8.71-.41-13.03-.72-4.45-5.89-7.45-8.27-7.56Z"/></g><g id="Group_5918"><g id="Group_5912"><path id="Path_10915" class="cls-2" d="M95.85,79.45s-1.76,5.38-3.21,7.24-2.07,2.17-2.59,6.51,1.76,14.17,2.48,13.96,7.86-11.58,10.24-13.44,4.86-3.83,4.86-3.83c0,0-5.79-1.76-7.76-4.24-1.48-1.98-2.83-4.05-4.03-6.2Z"/><g class="cls-25"><g id="Group_5911"><path id="Path_10916" class="cls-23" d="M103.81,92.91c2.01-1.58,3.83-3.02,3.83-3.02,0,0-5.79-1.76-7.76-4.24-1.48-1.98-2.83-4.05-4.03-6.21-.6,1.82-1.31,3.6-2.11,5.35,.87,2.47,3.32,6.47,10.06,8.12Z"/><path id="Path_10917" class="cls-16" d="M99.88,85.65c-1.48-1.98-2.83-4.05-4.03-6.21,0,0-.59,1.81-1.37,3.69,.76,2.47,2.24,4.65,4.25,6.27,1.87,1.24,3.95,2.15,6.13,2.68,1.55-1.22,2.78-2.19,2.78-2.19,0,0-5.79-1.76-7.76-4.24Z"/></g></g><path id="Path_10919" class="cls-12" d="M95.85,79.45s-1.76,5.38-3.21,7.24-2.07,2.17-2.59,6.51,1.76,14.17,2.48,13.96,7.86-11.58,10.24-13.44,4.86-3.83,4.86-3.83c0,0-5.79-1.76-7.76-4.24-1.48-1.98-2.83-4.05-4.03-6.2Z"/></g><g id="Group_5915"><g id="Group_5914"><path id="Path_10920" class="cls-2" d="M117.88,65.69s-.31,6.93-.1,9.2,1.03,6.2-.83,9.93-3.41,6.1-5.17,6.72-7.45-.62-12-4.03-5.38-10.44-6.1-12.72,.1-10.03,4.76-12.51c3.77-1.94,8.14-2.35,12.2-1.14,2.49,.83,7.24,4.55,7.24,4.55Z"/><g class="cls-21"><g id="Group_5913"><path id="Path_10921" class="cls-23" d="M98.44,62.28c-.66,.36-1.27,.82-1.78,1.38l2.4,1.7s3.08-3.08,9.95,1.27c2.57,1.75,5.65,2.61,8.76,2.43,.05-1.84,.12-3.36,.12-3.36,0,0-4.76-3.72-7.24-4.55-4.06-1.21-8.44-.8-12.21,1.14Z"/></g></g><path id="Path_10923" class="cls-12" d="M117.88,65.69s-.31,6.93-.1,9.2,1.03,6.2-.83,9.93-3.41,6.1-5.17,6.72-7.45-.62-12-4.03-5.38-10.44-6.1-12.72,.1-10.03,4.76-12.51c3.77-1.94,8.14-2.35,12.2-1.14,2.49,.83,7.24,4.55,7.24,4.55Z"/></g><path id="Path_10924" class="cls-16" d="M108.11,75.04c0,.74-.29,1.34-.64,1.34s-.64-.6-.64-1.34,.29-1.34,.64-1.34,.64,.6,.64,1.34Z"/><path id="Path_10925" class="cls-16" d="M115.66,75.74c0,.74-.29,1.34-.64,1.34s-.64-.6-.64-1.34,.29-1.34,.64-1.34,.64,.6,.64,1.34Z"/><path id="Path_10926" class="cls-12" d="M113.64,73.76s-1.96,1.96-1.45,2.79,1.72,1.29,1.35,2.48c-.39,1.24-3.1,1.65-4.03,0"/><path id="Path_10927" class="cls-7" d="M103.61,80.17c1.56,1.89,3.86,3.02,6.31,3.1,0,0-4.24,2.79-6.1,2.48s-.21-5.58-.21-5.58Z"/><path id="Path_10928" class="cls-12" d="M104.59,71.1s1.8-2.51,5.41-.94"/><path id="Path_10929" class="cls-12" d="M114.36,71.17c1.3-.3,2.62,.4,3.1,1.65"/></g><g id="Group_5917"><path id="Path_10930" class="cls-16" d="M94.4,77.59s.93-4.03,3.21-5.48,4.45-1.14,3.1-3.1-2.07-3.93,.83-4.86,8.58,.62,11.89,1.86,9.72,1.65,11.38-3c1.02-2.88-1.97-5.16-4.16-6.34-2.38-1.36-5.15-1.87-7.86-1.46-1.64,.29-3.24,.94-4.91,1.11-2.81,.28-5.29-1.02-8.09-.34-2.35,.56-4.46,1.86-6,3.72-2.58,3.2-3.31,9,.62,17.89Z"/><g class="cls-26"><g id="Group_5916"><path id="Path_10931" class="cls-13" d="M118.35,55.01s5.37,2.9,1.61,7.74-7.31,1.5-16.23-.21-14.18,2.69-14.18,2.69"/><path id="Path_10932" class="cls-13" d="M90.3,70.49s1.72-3.33,7.31-4.3c5.59-.97,5.91-.11,5.91-.11"/></g></g><path id="Path_10934" class="cls-12" d="M94.4,77.59s.93-4.03,3.21-5.48,4.45-1.14,3.1-3.1-2.07-3.93,.83-4.86,8.58,.62,11.89,1.86,9.72,1.65,11.38-3c1.02-2.88-1.97-5.16-4.16-6.34-2.38-1.36-5.15-1.87-7.86-1.46-1.64,.29-3.24,.94-4.91,1.11-2.81,.28-5.29-1.02-8.09-.34-2.35,.56-4.46,1.86-6,3.72-2.58,3.2-3.31,9,.62,17.89Z"/></g><path id="Path_10935" class="cls-1" d="M96.74,76.12s-2.68-6.14-5.05-2.95,1.92,7.24,5.13,6.46"/></g><g id="Group_5919"><path id="Path_10936" class="cls-1" d="M125.94,75.41s-1.76-.21-2.07,1.24-.62,3.72,0,3.72c.9,.02,1.73-.46,2.17-1.24,.38-1.25,.66-2.53,.83-3.83l-.93,.1Z"/><path id="Path_10937" class="cls-1" d="M128.74,74.9s-2.48-.41-2.79,.52-.72,4.14-.41,4.24c.75-.15,1.48-.39,2.17-.72l1.03-4.03Z"/><path id="Path_10938" class="cls-1" d="M132.05,75.11s-2.9-1.86-3.62-.93-.72,4.76-.72,4.76c.52,.11,1.07-.04,1.45-.41,.52-.62,1.14-1.45,1.14-1.45,.78,.21,1.57,.35,2.38,.41,.31-.1,1.03,0,.83-1.03s-1.45-1.34-1.45-1.34Z"/><path id="Path_10939" class="cls-1" d="M135.98,76.96c-1.3-.9-2.37-2.11-3.1-3.52-1.03-2.17-1.55-2.07-2.07-1.14s.1,1.86,.52,2.69c.65,.99,1.37,1.92,2.17,2.79l2.48-.83Z"/></g><path id="Path_10940" class="cls-14" d="M117.38,91.43s-1.5,12.8-1.27,13.49,2.77,1.5,3.34,1.04,.23-1.38,0-1.96,1.96-11.3,1.96-11.3l-4.04-1.27Z"/><g id="Group_5925"><g id="Group_5922"><g id="Group_5921"><path id="Path_10941" class="cls-2" d="M79.61,95.87l7.59,23.7s17.44-10.15,21.53-15.45,6.45-11.28,7.88-11.84,6.54,.84,7.29,1.64,.57,1.74-.34,2.6c-.39,.43-.88,.76-1.42,.97,0,0-.05,1.86-.45,2.19s-.31-.09-.4,.32c-.07,.45-.23,.88-.48,1.26-.3,.42-.4,.63-.7,.74-.59,.25-1.21,.45-1.85,.57-1.12,.29-2.25,.49-3.4,.62-.72,.12-5.41,9.37-9.79,14.89s-18.28,18.14-20.45,18.21-14.99-21.09-17.73-26.28"/><g class="cls-17"><g id="Group_5920"><path id="Path_10942" class="cls-23" d="M120.81,101.26c.25-.38,.41-.81,.48-1.26,.09-.42,0,0,.4-.32s.45-2.19,.45-2.19c.54-.21,1.03-.54,1.42-.97,.9-.85,1.08-1.79,.33-2.6s-5.86-2.2-7.29-1.64c-.56,.36-1.02,.86-1.33,1.45,.76,1.25,1.64,2.01,.82,4.18-1.25,3.32-4.15,7.47-6.64,11s-23.25,23.05-25.74,22.63c-2.03-.34-7.94-7.46-10.04-10.06,4.5,7.22,9.65,14.85,10.96,14.81,2.17-.07,16.07-12.7,20.45-18.21s9.07-14.76,9.79-14.89c1.15-.13,2.28-.33,3.4-.62,.63-.13,1.25-.32,1.85-.57,.31-.11,.4-.32,.7-.74Z"/></g></g><path id="Path_10944" class="cls-12" d="M79.61,95.87l7.59,23.7s17.44-10.15,21.53-15.45,6.45-11.28,7.88-11.84,6.54,.84,7.29,1.64,.57,1.74-.34,2.6c-.39,.43-.88,.76-1.42,.97,0,0-.05,1.86-.45,2.19s-.31-.09-.4,.32c-.07,.45-.23,.88-.48,1.26-.3,.42-.4,.63-.7,.74-.59,.25-1.21,.45-1.85,.57-1.12,.29-2.25,.49-3.4,.62-.72,.12-5.41,9.37-9.79,14.89s-18.28,18.14-20.45,18.21-14.99-21.09-17.73-26.28"/></g><path id="Path_10945" class="cls-12" d="M87.2,119.57s-1.99,.08-3.68,5.39"/></g><g id="Group_5924"><path id="Path_10946" class="cls-2" d="M118.26,102.58c.63-.13,1.25-.32,1.85-.57,.31-.11,.4-.32,.7-.74,.25-.38,.41-.81,.48-1.26,.09-.42,.36-.56,.76-.88s.09-1.63,.09-1.63c.54-.21,1.03-.54,1.42-.97,.9-.85,1.08-1.79,.33-2.6s-5.86-2.2-7.29-1.64c-1.37,.54-3.6,6.04-7.37,11.16l3.49,2.86c1.1-1.83,1.88-3.07,2.14-3.11,1.15-.13,2.28-.33,3.4-.62Z"/><g class="cls-19"><g id="Group_5923"><path id="Path_10947" class="cls-23" d="M120.81,101.26c.25-.38,.41-.81,.48-1.26,.09-.42,0,0,.4-.32s.45-2.19,.45-2.19c.54-.21,1.03-.54,1.42-.97,.9-.85,1.08-1.79,.33-2.6s-5.86-2.2-7.29-1.64c-.56,.36-1.02,.86-1.33,1.45,.76,1.25,1.64,2.01,.82,4.18-1.25,3.32-4.15,7.47-6.64,11s-23.25,23.05-25.74,22.63c-2.03-.34-7.94-7.46-10.04-10.06,4.5,7.22,9.65,14.85,10.96,14.81,2.17-.07,16.07-12.7,20.45-18.21s9.07-14.76,9.79-14.89c1.15-.13,2.28-.33,3.4-.62,.63-.13,1.25-.32,1.85-.57,.31-.11,.4-.32,.7-.74Z"/></g></g><path id="Path_10949" class="cls-12" d="M118.26,102.58c.63-.13,1.25-.32,1.85-.57,.31-.11,.4-.32,.7-.74,.25-.38,.41-.81,.48-1.26,.09-.42,.36-.56,.76-.88s.09-1.63,.09-1.63c.54-.21,1.03-.54,1.42-.97,.9-.85,1.08-1.79,.33-2.6s-5.86-2.2-7.29-1.64c-1.37,.54-3.6,6.04-7.37,11.16l3.49,2.86c1.1-1.83,1.88-3.07,2.14-3.11,1.15-.13,2.28-.33,3.4-.62Z"/></g></g><g id="Group_5928"><g id="Group_5927"><path id="Path_10950" class="cls-14" d="M113.74,83.07c-1.14,0-2.07,1.64-2.07,3.67s.93,3.67,2.07,3.67l25.34,7.65v-22.96l-25.34,7.96Z"/><g id="Group_5926"><line id="Line_143" class="cls-12" x1="127.99" y1="80.01" x2="118.11" y2="82.85"/><line id="Line_144" class="cls-12" x1="131.3" y1="79.06" x2="129.23" y2="79.66"/></g><path id="Path_10951" class="cls-7" d="M116.99,82.05l-3.24,1.02c-1.14,0-2.07,1.64-2.07,3.67s.93,3.67,2.07,3.67l2.93,.88c-1.4-2.95-1.28-6.4,.32-9.25Z"/></g><ellipse id="Ellipse_565" class="cls-6" cx="141.25" cy="86.74" rx="8.69" ry="15.42"/><path id="Path_10952" class="cls-6" d="M141.25,83.32l-8.27-2.22-.72,5.9,.93,6,8.07-2.84,.31-6.68"/><path id="Path_10953" class="cls-7" d="M141.25,69.93c-5.23,0-9.47,7.52-9.47,16.8s4.24,16.8,9.47,16.8,9.47-7.52,9.47-16.8-4.24-16.8-9.47-16.8Zm.23,31.22c-4.36,0-7.89-6.46-7.89-14.42s3.53-14.42,7.89-14.42,7.89,6.46,7.89,14.42-3.53,14.42-7.89,14.42h0Z"/><ellipse id="Ellipse_566" class="cls-14" cx="141.25" cy="86.74" rx="1.93" ry="3.42"/></g></g><g id="Group_5930"><line id="Line_145" class="cls-12" x1="165.66" y1="69.3" x2="167.59" y2="68.71"/><line id="Line_146" class="cls-12" x1="151.9" y1="73.56" x2="163.3" y2="70.04"/><line id="Line_147" class="cls-12" x1="153.39" y1="85.89" x2="163.85" y2="86.26"/><line id="Line_148" class="cls-12" x1="162.06" y1="101.25" x2="164.22" y2="101.95"/><line id="Line_149" class="cls-12" x1="152.65" y1="98.21" x2="160.34" y2="100.7"/><line id="Line_150" class="cls-12" x1="153.02" y1="79.17" x2="158.62" y2="78.42"/><line id="Line_151" class="cls-12" x1="150.41" y1="102.32" x2="154.51" y2="105.68"/></g></g></g></g></g></g></g></svg>