<?xml version="1.0" encoding="utf-8"?>
<!-- Generator: Adobe Illustrator 26.5.0, SVG Export Plug-In . SVG Version: 6.00 Build 0)  -->
<svg version="1.1" id="Layer_1" xmlns="http://www.w3.org/2000/svg" xmlns:xlink="http://www.w3.org/1999/xlink" x="0px" y="0px"
	 viewBox="0 0 52.7 52.7" style="enable-background:new 0 0 52.7 52.7;" xml:space="preserve">
<style type="text/css">
	.st0{opacity:0.7;fill:#231F20;enable-background:new    ;}
	.st1{fill:#0D1435;}
</style>
<g id="crescent-moon" transform="translate(-1 -1)">
	<path id="Path_11165" class="st0" d="M52.9,41.8H52V23.1h0.8c0.5,0,0.9-0.4,0.9-0.9s-0.4-0.9-0.9-0.9H52c-0.4-2.9-2.9-5.1-5.9-5.1
		c-2.3,0-4.3-1.9-4.3-4.2c0,0,0,0,0,0c0-0.5-0.4-0.9-0.8-0.9c-0.5,0-0.9,0.4-0.9,0.9c0,2.3-1.9,4.2-4.2,4.2c-3,0-5.5,2.2-5.9,5.1
		h-0.9c-0.5,0-0.8,0.4-0.8,0.9s0.4,0.9,0.8,0.9h0.8v18.7h-0.8c-0.5,0-0.8,0.4-0.8,0.8c0,0.5,0.4,0.9,0.8,0.9H30
		c0.4,2.9,2.9,5.1,5.9,5.1c2.3,0,4.2,1.9,4.2,4.3c0,0.5,0.4,0.8,0.8,0.8c0.5,0,0.9-0.4,0.9-0.8c0-2.3,1.9-4.3,4.3-4.3
		c3,0,5.5-2.2,5.9-5.1h0.9c0.5,0,0.9-0.4,0.9-0.8C53.7,42.2,53.3,41.8,52.9,41.8L52.9,41.8L52.9,41.8z M35,41.8h-3.4V23.1H35
		L35,41.8z M40.1,41.8h-3.4V23.1h3.4L40.1,41.8z M45.2,41.8h-3.4V23.1h3.4L45.2,41.8z M50.3,41.8h-3.4V23.1h3.4V41.8z"/>
	<g id="Group_5992" transform="translate(1 0.999)">
		<path id="Path_11166" class="st1" d="M42.2,17.9c0-0.5-0.4-0.9-0.9-0.9c-0.5,0-0.8,0.4-0.8,0.9c-1.4,7.4-8.5,12.2-15.9,10.8
			s-12.2-8.5-10.8-15.9c1-5.5,5.3-9.8,10.8-10.8c0.5,0,0.9-0.4,0.9-0.8s-0.4-0.9-0.9-0.9C23.5,0.1,22.4,0,21.3,0C9.5,0,0,9.5,0,21.3
			C0,33,9.5,42.5,21.3,42.5S42.5,33,42.5,21.3c0,0,0,0,0,0C42.5,20.1,42.4,19,42.2,17.9L42.2,17.9z M21.3,40.8
			C10.5,41.2,1.4,32.7,1.1,21.9S9.2,2,20,1.7c0,0,0.1,0,0.1,0c-7.5,3.9-10.4,13.2-6.4,20.7s13.2,10.4,20.7,6.4
			c2.7-1.4,5-3.7,6.4-6.4C40.2,32.7,31.6,40.8,21.3,40.8z"/>
		<path id="Path_11167" class="st1" d="M21.3,36.6C12.8,36.6,6,29.7,6,21.3c0,0,0,0,0,0c0-0.5-0.4-0.8-0.9-0.8
			c-0.5,0-0.8,0.4-0.8,0.8c0,9.4,7.6,17,17,17c0.5,0,0.9-0.4,0.9-0.9C22.1,36.9,21.7,36.6,21.3,36.6z"/>
		<path id="Path_11168" class="st1" d="M19,11.8c-0.5,0.1-0.8,0.5-0.7,1c0,0.2,0.1,0.4,0.2,0.5l4,3.9l-1,5.6c-0.1,0.5,0.2,0.9,0.7,1
			c0.2,0,0.4,0,0.5-0.1l5-2.6l5,2.6c0.4,0.2,0.9,0.1,1.1-0.4c0.1-0.2,0.1-0.4,0.1-0.5l-0.9-5.6l4-3.9c0.3-0.3,0.3-0.9,0-1.2
			c-0.1-0.1-0.3-0.2-0.5-0.2L31.1,11l-2.5-5c-0.2-0.4-0.7-0.6-1.1-0.4c-0.2,0.1-0.3,0.2-0.4,0.4l-2.5,5L19,11.8z M25.9,12.2l1.9-3.9
			l1.9,3.9c0.1,0.3,0.4,0.4,0.6,0.5l4.3,0.6l-3.1,3c-0.2,0.2-0.3,0.5-0.2,0.7l0.7,4.3l-3.9-2c-0.2-0.1-0.5-0.1-0.8,0l-3.9,2l0.7-4.3
			c0-0.3,0-0.6-0.2-0.7l-3.1-3l4.3-0.6C25.5,12.6,25.8,12.4,25.9,12.2L25.9,12.2z"/>
	</g>
</g>
</svg>
