<?xml version="1.0" encoding="utf-8"?>
<!-- Generator: Adobe Illustrator 26.5.0, SVG Export Plug-In . SVG Version: 6.00 Build 0)  -->
<svg version="1.1" id="Layer_1" xmlns="http://www.w3.org/2000/svg" xmlns:xlink="http://www.w3.org/1999/xlink" x="0px" y="0px"
	 viewBox="0 0 52 53.4" style="enable-background:new 0 0 52 53.4;" xml:space="preserve">
<style type="text/css">
	.st0{opacity:0.6;fill:#231F20;enable-background:new    ;}
	.st1{fill:#0D1435;}
</style>
<g id="discount-tag" transform="translate(2 4.282)">
	<path id="Path_11157" class="st0" d="M47.6,23.9L47.6,23.9c1.3-1.7,0.9-4.2-0.8-5.5c-1.7-1.3-4.2-1-5.5,0.8
		c-0.2,0.2-0.3,0.4-0.4,0.7c-0.9-2-3.3-2.8-5.2-1.9c-2,0.9-2.8,3.3-1.9,5.2c0.1,0.3,0.3,0.5,0.4,0.7h0c-1.3,0-2.4,1.1-2.4,2.4v11.1
		h8.3V25.4h1.6v11.9H50V26.2C50,24.9,48.9,23.9,47.6,23.9C47.6,23.9,47.6,23.9,47.6,23.9z M39.7,23.9h-2.4c-1.3,0-2.4-1.1-2.4-2.4
		s1.1-2.4,2.4-2.4c1.3,0,2.4,1.1,2.4,2.4c0,0,0,0,0,0V23.9z M44.5,23.9h-2.4v-2.4c0-1.3,1.1-2.4,2.4-2.4s2.4,1.1,2.4,2.4
		S45.8,23.9,44.5,23.9C44.5,23.9,44.5,23.9,44.5,23.9z M41.7,38.9H50v7.9c0,1.3-1.1,2.4-2.4,2.4c0,0,0,0,0,0h-5.9V38.9z M31.8,38.9
		h8.3v10.3h-5.9c-1.3,0-2.4-1.1-2.4-2.4L31.8,38.9z M28.2,33.4c0.9-1.5,0.4-3.4-1.1-4.3c-1.5-0.9-3.4-0.4-4.3,1.1c0,0,0,0.1-0.1,0.1
		c-0.8-1.5-2.7-2.1-4.3-1.3c-1.5,0.8-2.1,2.7-1.3,4.3c0,0,0.1,0.1,0.1,0.1c-1.2,0.2-2,1.2-2,2.3v4.7h6.7v-5.5h1.6v5.5h6.7v-4.7
		C30.2,34.5,29.4,33.5,28.2,33.4L28.2,33.4z M21.5,33.3H20c-0.9,0-1.6-0.7-1.6-1.6c0-0.9,0.7-1.6,1.6-1.6c0.9,0,1.6,0.7,1.6,1.6
		V33.3z M25.5,33.3h-1.6v-1.6c0-0.9,0.7-1.6,1.6-1.6c0.9,0,1.6,0.7,1.6,1.6C27.1,32.6,26.4,33.3,25.5,33.3
		C25.5,33.3,25.5,33.3,25.5,33.3L25.5,33.3z M23.5,42h6.7v4.7c0,1.3-1.1,2.4-2.4,2.4h-4.3V42z M15.2,42h6.7v7.1h-4.3
		c-1.3,0-2.4-1.1-2.4-2.4c0,0,0,0,0,0V42z"/>
	<path id="Path_11158" class="st1" d="M2.3,35.5c2.4,0,4.3-1.9,4.3-4.3V6.2c0-4.8,3.9-8.7,8.7-8.7c4.6,0,8.4,3.6,8.7,8.3l-10.7,6.4
		c-0.7,0.4-1.1,1.2-1.2,2v18.9c0,1.3,1.1,2.4,2.4,2.4c0,0,0,0,0,0h20.5c1.3,0,2.4-1.1,2.4-2.4c0,0,0,0,0,0l-0.1-18.9
		c0-0.8-0.4-1.6-1.1-2L25.6,5.8C25.6,0.1,20.9-4.5,15.2-4.4S5,0.3,5.1,6c0,0.1,0,0.1,0,0.2v24.9c0,1.5-1.2,2.8-2.8,2.8
		c-1.5,0-2.8-1.2-2.8-2.8c0,0,0,0,0,0V15.7c0-0.4-0.4-0.8-0.8-0.8S-2,15.3-2,15.7v15.4C-2,33.5-0.1,35.5,2.3,35.5z M24.9,11.7
		c0.4,0,0.8,0.4,0.8,0.8s-0.4,0.8-0.8,0.8c-0.4,0-0.8-0.4-0.8-0.8C24.1,12.1,24.4,11.7,24.9,11.7C24.9,11.7,24.9,11.7,24.9,11.7z
		 M35.8,14.2l0.1,18.9c0,0.4-0.3,0.8-0.8,0.8c0,0,0,0,0,0H14.6c-0.4,0-0.8-0.4-0.8-0.8l0,0V14.2c0-0.3,0.1-0.5,0.4-0.7l9.9-5.9v2.7
		c-1.2,0.4-1.9,1.8-1.4,3s1.8,1.9,3,1.4s1.9-1.8,1.4-3c-0.2-0.7-0.8-1.2-1.4-1.4V7.6l9.8,5.9C35.6,13.7,35.8,13.9,35.8,14.2z
		 M20.3,29.5l7.9-11.1c0.3-0.4,0.7-0.4,1.1-0.2c0.4,0.3,0.4,0.7,0.2,1.1l-7.9,11.1c-0.3,0.4-0.7,0.4-1.1,0.2
		C20.1,30.3,20,29.8,20.3,29.5z M26.5,27.6c-0.1,1.6,1.1,3,2.8,3.2c1.6-0.1,2.9-1.5,2.8-3.2c0.1-1.6-1.1-3-2.8-3.2
		C27.6,24.5,26.4,25.9,26.5,27.6z M30.4,27.6c0,0.9-0.5,1.6-1.2,1.6S28,28.4,28,27.6s0.5-1.6,1.2-1.6C29.9,26,30.4,26.7,30.4,27.6
		L30.4,27.6z M23.3,21.2c0.1-1.6-1.1-3-2.8-3.2c-1.6,0.1-2.9,1.5-2.8,3.2c-0.1,1.6,1.1,3,2.8,3.2C22.2,24.3,23.4,22.9,23.3,21.2z
		 M19.3,21.2c0-0.9,0.5-1.6,1.2-1.6s1.2,0.7,1.2,1.6s-0.5,1.6-1.2,1.6S19.3,22.1,19.3,21.2L19.3,21.2z"/>
</g>
</svg>
