<?xml version="1.0" encoding="utf-8"?>
<!-- Generator: Adobe Illustrator 26.5.0, SVG Export Plug-In . SVG Version: 6.00 Build 0)  -->
<svg version="1.1" id="Layer_1" xmlns="http://www.w3.org/2000/svg" xmlns:xlink="http://www.w3.org/1999/xlink" x="0px" y="0px"
	 viewBox="0 0 51.1 51.9" style="enable-background:new 0 0 51.1 51.9;" xml:space="preserve">
<style type="text/css">
	.st0{opacity:0.6;fill:#231F20;enable-background:new    ;}
	.st1{fill:#0D1435;}
</style>
<g id="discount" transform="translate(-1.497 -1)">
	<path id="Path_11149" class="st0" d="M51.6,47.8c-0.2,0.1-0.5,0.1-0.7,0l-3.4-1.5l-3.4,1.5c-0.2,0.1-0.5,0.1-0.7,0L40,46.3
		l-3.4,1.5c-0.2,0.1-0.5,0.1-0.7,0l-3.4-1.5L29,47.8c-0.2,0.1-0.5,0.1-0.7,0l-0.9-0.4v3c0,1.4,1.1,2.5,2.5,2.5H50
		c1.4,0,2.5-1.1,2.5-2.5v-3L51.6,47.8z"/>
	<path id="Path_11150" class="st0" d="M51.5,28.3l-10-7.2c-0.9-0.6-2-0.6-2.9,0l-10,7.2l0,0c-0.7,0.5-1,1.2-1.1,2v13.6l1.3,0.6
		l3.4-1.5c0.2-0.1,0.5-0.1,0.7,0l3.4,1.5l3.4-1.5c0.2-0.1,0.5-0.1,0.7,0l3.4,1.5l3.4-1.5c0.2-0.1,0.5-0.1,0.7,0l3.4,1.5l1.3-0.6
		V30.3C52.5,29.5,52.2,28.7,51.5,28.3z M40,24.4c1.6,0,2.9,1.3,2.9,2.9c0,1.6-1.3,2.9-2.9,2.9c-1.6,0-2.9-1.3-2.9-2.9
		C37.1,25.7,38.4,24.4,40,24.4L40,24.4z M48.4,40.3H31.6c-0.5,0-0.8-0.4-0.8-0.8c0-0.5,0.4-0.8,0.8-0.8h16.7c0.5,0,0.8,0.4,0.8,0.8
		C49.2,40,48.8,40.3,48.4,40.3L48.4,40.3z M48.4,35.3H31.6c-0.5,0-0.8-0.4-0.8-0.8c0-0.5,0.4-0.8,0.8-0.8h16.7
		c0.5,0,0.8,0.4,0.8,0.8C49.2,34.9,48.8,35.3,48.4,35.3L48.4,35.3z"/>
	<g id="Group_5990" transform="translate(1.497 1)">
		<path id="Path_11151" class="st1" d="M39.8,19.1c1-3.1-0.1-6.5-2.7-8.4c-1-0.7-1.7-1.8-2.1-2.9c-1-3.1-3.9-5.2-7.1-5.2
			c-1.2,0-2.4-0.4-3.4-1.1c-2.6-1.9-6.2-1.9-8.8,0c-1,0.7-2.2,1.1-3.4,1.1C9,2.6,6.2,4.7,5.2,7.8C4.8,8.9,4.1,10,3.1,10.7
			c-2.6,1.9-3.7,5.3-2.7,8.4c0.4,1.2,0.4,2.4,0,3.6c-1,3.1,0.1,6.5,2.7,8.4c1,0.7,1.7,1.8,2.1,2.9c1,3.1,3.9,5.2,7.1,5.2
			c1.2,0,2.4,0.4,3.4,1.1c2.6,1.9,6.2,1.9,8.8,0c1-0.7,2.2-1.1,3.4-1.1c3.2,0,6.1-2.1,7.1-5.2c0.4-1.2,1.1-2.2,2.1-2.9
			c2.6-1.9,3.7-5.3,2.7-8.4C39.4,21.6,39.4,20.3,39.8,19.1z M38.2,23.2c0.8,2.4-0.1,5.1-2.1,6.6c-1.3,0.9-2.2,2.3-2.7,3.8
			c-0.8,2.4-3,4-5.5,4c-1.6,0-3.1,0.5-4.4,1.4c-2,1.5-4.8,1.5-6.8,0c-1.3-0.9-2.8-1.4-4.4-1.4c-2.5,0-4.8-1.6-5.5-4
			c-0.5-1.5-1.4-2.8-2.7-3.8c-2-1.5-2.9-4.1-2.1-6.5c0.5-1.5,0.5-3.1,0-4.7c-0.8-2.4,0.1-5,2.1-6.5c1.3-0.9,2.2-2.3,2.7-3.8
			c0.8-2.4,3-4,5.5-4c1.6,0,3.1-0.5,4.4-1.4c2-1.5,4.8-1.5,6.8,0c1.3,0.9,2.8,1.4,4.4,1.4c2.5,0,4.7,1.6,5.5,4
			c0.5,1.5,1.4,2.8,2.7,3.8c2,1.5,2.9,4.1,2.1,6.5C37.7,20.1,37.7,21.7,38.2,23.2L38.2,23.2z"/>
		<path id="Path_11152" class="st1" d="M15.8,31.2c0.4,0.2,0.9,0,1.1-0.4c0,0,0,0,0,0L25,11.3c0.2-0.4,0-0.9-0.4-1.1
			c-0.4-0.2-0.9,0-1.1,0.4c0,0,0,0,0,0l-8.1,19.5C15.2,30.6,15.4,31.1,15.8,31.2L15.8,31.2z"/>
		<path id="Path_11153" class="st1" d="M14.6,19.3c2.4,0,4.4-2.3,4.4-5s-2-5-4.4-5s-4.4,2.3-4.4,5S12.2,19.3,14.6,19.3z M14.6,10.9
			c1.5,0,2.8,1.5,2.8,3.4s-1.2,3.4-2.8,3.4s-2.8-1.5-2.8-3.4S13.1,10.9,14.6,10.9z"/>
		<path id="Path_11154" class="st1" d="M25.6,22.6c-2.4,0-4.4,2.3-4.4,5s2,5,4.4,5s4.4-2.3,4.4-5S28,22.6,25.6,22.6z M25.6,31
			c-1.5,0-2.8-1.5-2.8-3.4s1.2-3.4,2.8-3.4s2.8,1.5,2.8,3.4C28.3,29.5,27.1,31,25.6,31z"/>
		<path id="Path_11155" class="st1" d="M20.1,5c-0.5,0-0.8,0.3-0.9,0.8c0,0.5,0.3,0.8,0.8,0.9c0,0,0,0,0.1,0
			c7.8,0,14.1,6.4,14.1,14.2c0,0.5,0.4,0.8,0.8,0.8c0.5,0,0.8-0.4,0.8-0.8C35.9,12.2,28.8,5.1,20.1,5z"/>
		<path id="Path_11156" class="st1" d="M20.1,35.1C12.3,35.1,6,28.7,6,20.9c0-0.5-0.4-0.8-0.8-0.8c-0.5,0-0.8,0.4-0.8,0.8
			c0,8.7,7,15.9,15.8,15.9c0.5,0,0.8-0.3,0.9-0.8C21,35.6,20.6,35.2,20.1,35.1C20.1,35.1,20.1,35.1,20.1,35.1L20.1,35.1z"/>
	</g>
</g>
</svg>
