<?xml version="1.0" encoding="utf-8"?>
<!-- Generator: Adobe Illustrator 26.5.0, SVG Export Plug-In . SVG Version: 6.00 Build 0)  -->
<svg version="1.1" id="Group_5248" xmlns="http://www.w3.org/2000/svg" xmlns:xlink="http://www.w3.org/1999/xlink" x="0px" y="0px"
	 viewBox="0 0 170.3 51.8" style="enable-background:new 0 0 170.3 51.8;" xml:space="preserve">
<style type="text/css">
	.st0{fill:#231F20;}
	.st1{enable-background:new    ;}
	.st2{fill:#FFFFFF;}
</style>
<path id="Rectangle_3371" class="st0" d="M5,0h160.3c2.8,0,5,2.2,5,5v41.8c0,2.8-2.2,5-5,5H5c-2.8,0-5-2.2-5-5V5C0,2.2,2.2,0,5,0z"
	/>
<g class="st1">
	<path class="st2" d="M49.6,14.9h-2.1L47.2,16H46l1.4-6.1h2.4l1.4,6.1h-1.2L49.6,14.9z M48.8,10.9h-0.4l-0.6,2.9h1.7L48.8,10.9z"/>
	<path class="st2" d="M51.3,11.5h1.3l0.7,3.5h0.3l0.8-3.5h1.2L54.4,16h-2.1L51.3,11.5z"/>
	<path class="st2" d="M55.8,14.6c0-0.5,0.1-0.8,0.4-1s0.6-0.3,1.2-0.4l1-0.1v-0.3c0-0.2,0-0.3-0.1-0.4c-0.1-0.1-0.2-0.1-0.4-0.1
		c-0.2,0-0.5,0-0.8,0c-0.3,0-0.6,0-0.9,0l0-0.8c0.6-0.2,1.3-0.3,1.8-0.3s1,0.1,1.2,0.4c0.3,0.2,0.4,0.6,0.4,1.2v1.9
		c0,0.1,0,0.3,0.1,0.3s0.1,0.1,0.2,0.1l0,0.9c-0.3,0-0.6,0-0.7-0.1s-0.4-0.1-0.5-0.3c-0.4,0.2-0.9,0.3-1.3,0.3
		C56.3,16.1,55.8,15.6,55.8,14.6z M58.2,15l0.1,0v-1l-0.8,0.1c-0.3,0-0.5,0.2-0.5,0.5s0.1,0.5,0.4,0.5C57.7,15.1,57.9,15.1,58.2,15z
		"/>
	<path class="st2" d="M60.7,9.7h1.2v1.2h-1.2V9.7z M60.7,11.5h1.2V16h-1.2V11.5z"/>
	<path class="st2" d="M63.1,9.7h1.2V16h-1.2V9.7z"/>
	<path class="st2" d="M65.2,14.6c0-0.5,0.1-0.8,0.4-1s0.6-0.3,1.2-0.4l1-0.1v-0.3c0-0.2,0-0.3-0.1-0.4c-0.1-0.1-0.2-0.1-0.4-0.1
		c-0.2,0-0.5,0-0.8,0c-0.3,0-0.6,0-0.9,0l0-0.8c0.6-0.2,1.3-0.3,1.8-0.3s1,0.1,1.2,0.4c0.3,0.2,0.4,0.6,0.4,1.2v1.9
		c0,0.1,0,0.3,0.1,0.3s0.1,0.1,0.2,0.1l0,0.9c-0.3,0-0.6,0-0.7-0.1s-0.4-0.1-0.5-0.3c-0.4,0.2-0.9,0.3-1.3,0.3
		C65.6,16.1,65.2,15.6,65.2,14.6z M67.6,15l0.1,0v-1l-0.8,0.1c-0.3,0-0.5,0.2-0.5,0.5s0.1,0.5,0.4,0.5C67,15.1,67.3,15.1,67.6,15z"
		/>
	<path class="st2" d="M70.4,16l-0.3,0V9.7h1.2v1.9c0.2-0.1,0.4-0.2,0.6-0.2c0.1,0,0.3-0.1,0.5-0.1c0.6,0,1,0.2,1.3,0.5
		c0.3,0.4,0.4,1,0.4,1.8c0,0.6-0.1,1.1-0.2,1.4c-0.1,0.3-0.4,0.6-0.7,0.7c-0.3,0.2-0.7,0.2-1.3,0.2C71.5,16.1,71,16.1,70.4,16z
		 M72.6,14.7c0.1-0.2,0.2-0.5,0.2-1c0-0.5-0.1-0.8-0.2-1c-0.1-0.2-0.3-0.3-0.6-0.3c-0.2,0-0.5,0-0.8,0.1V15c0.2,0,0.4,0,0.6,0
		C72.2,15,72.5,14.9,72.6,14.7z"/>
	<path class="st2" d="M75,9.7h1.2V16H75V9.7z"/>
	<path class="st2" d="M77.6,15.6c-0.3-0.4-0.5-0.9-0.5-1.7c0-0.8,0.2-1.4,0.5-1.9c0.3-0.4,0.8-0.6,1.5-0.6c0.6,0,1.1,0.2,1.4,0.5
		s0.5,0.8,0.5,1.5L81,14.3h-2.6c0,0.2,0,0.4,0.1,0.5c0.1,0.1,0.2,0.2,0.3,0.2c0.1,0,0.3,0.1,0.6,0.1c0.2,0,0.4,0,0.7,0
		c0.3,0,0.5,0,0.6,0l0.3,0l0,0.9c-0.7,0.2-1.3,0.3-1.8,0.3C78.4,16.1,77.9,15.9,77.6,15.6z M79.9,13.3c0-0.4-0.1-0.6-0.2-0.8
		c-0.1-0.1-0.3-0.2-0.6-0.2c-0.3,0-0.5,0.1-0.6,0.2s-0.2,0.4-0.2,0.7H79.9z"/>
	<path class="st2" d="M84.2,15.5c-0.4-0.4-0.5-1-0.5-1.8c0-0.8,0.2-1.3,0.5-1.7s0.9-0.6,1.5-0.6c0.7,0,1.2,0.2,1.5,0.6
		c0.4,0.4,0.5,1,0.5,1.7c0,0.8-0.2,1.3-0.5,1.8c-0.4,0.4-0.9,0.6-1.5,0.6C85.1,16.1,84.6,15.9,84.2,15.5z M86.4,14.8
		c0.1-0.2,0.2-0.6,0.2-1s-0.1-0.8-0.2-1c-0.1-0.2-0.4-0.3-0.6-0.3s-0.5,0.1-0.6,0.3c-0.1,0.2-0.2,0.5-0.2,1s0.1,0.8,0.2,1
		c0.1,0.2,0.4,0.3,0.6,0.3S86.2,15,86.4,14.8z"/>
	<path class="st2" d="M88.7,11.5h1.2v0.3c0.2-0.1,0.4-0.2,0.6-0.3c0.2-0.1,0.4-0.1,0.6-0.1c0.6,0,0.9,0.2,1.2,0.5
		c0.2,0.4,0.4,0.9,0.4,1.6V16h-1.2v-2.4c0-0.4,0-0.7-0.1-0.9c-0.1-0.2-0.3-0.3-0.6-0.3c-0.2,0-0.4,0-0.7,0.1l-0.1,0V16h-1.2V11.5z"
		/>
	<path class="st2" d="M96.4,15.9c-0.2-0.1-0.3-0.3-0.4-0.5s-0.1-0.6-0.1-1v-1.9h-0.5v-1h0.5v-1.3H97v1.3h1.1v1H97v1.8
		c0,0.2,0,0.4,0.1,0.5c0,0.1,0.1,0.2,0.3,0.1l0.7,0l0.1,1c-0.2,0.1-0.4,0.1-0.6,0.1c-0.1,0-0.3,0-0.4,0C96.8,16.1,96.6,16,96.4,15.9
		z"/>
	<path class="st2" d="M98.9,9.7h1.2v2c0.2-0.1,0.4-0.2,0.6-0.2s0.4-0.1,0.6-0.1c0.6,0,0.9,0.2,1.2,0.5c0.2,0.4,0.3,0.9,0.3,1.6V16
		h-1.2v-2.4c0-0.4,0-0.7-0.1-0.9c-0.1-0.2-0.3-0.3-0.6-0.3c-0.2,0-0.4,0-0.7,0.1l-0.1,0V16h-1.2V9.7z"/>
	<path class="st2" d="M104.1,15.6c-0.3-0.4-0.5-0.9-0.5-1.7c0-0.8,0.2-1.4,0.5-1.9c0.3-0.4,0.8-0.6,1.5-0.6c0.6,0,1.1,0.2,1.4,0.5
		s0.5,0.8,0.5,1.5l-0.1,0.8h-2.6c0,0.2,0,0.4,0.1,0.5c0.1,0.1,0.2,0.2,0.3,0.2s0.3,0.1,0.6,0.1c0.2,0,0.4,0,0.7,0c0.3,0,0.5,0,0.6,0
		l0.3,0l0,0.9c-0.7,0.2-1.3,0.3-1.8,0.3C105,16.1,104.5,15.9,104.1,15.6z M106.4,13.3c0-0.4-0.1-0.6-0.2-0.8
		c-0.1-0.1-0.3-0.2-0.6-0.2c-0.3,0-0.5,0.1-0.6,0.2s-0.2,0.4-0.2,0.7H106.4z"/>
</g>
<g class="st1">
	<path class="st2" d="M49,35.5c-0.7-0.4-1.2-1.1-1.6-2.1s-0.5-2.1-0.5-3.7c0-1.5,0.2-2.7,0.5-3.6c0.3-0.9,0.8-1.6,1.6-2
		c0.7-0.4,1.7-0.6,2.9-0.6c1.1,0,2.3,0.1,3.6,0.4l0.6,0.1L56,26c-1.4-0.2-2.6-0.2-3.5-0.2c-0.9,0-1.6,0.2-2.1,0.5
		c-0.4,0.3-0.7,0.8-0.8,1.3c-0.1,0.5-0.2,1.4-0.2,2.4c0,1.1,0.1,1.9,0.2,2.5s0.4,1,0.8,1.2c0.4,0.3,0.9,0.4,1.7,0.4
		c0.7,0,1.2,0,1.5-0.1v-2.4h-1.1v-2.2h3.6v6.4c-1.8,0.3-3.1,0.4-4.2,0.4C50.7,36.2,49.7,36,49,35.5z"/>
	<path class="st2" d="M58.8,35c-0.7-0.8-1.1-2-1.1-3.5c0-1.5,0.4-2.7,1.1-3.5c0.7-0.8,1.7-1.2,3.1-1.2c1.4,0,2.4,0.4,3.1,1.2
		s1.1,2,1.1,3.5c0,1.5-0.4,2.7-1.1,3.5s-1.7,1.2-3.1,1.2C60.6,36.2,59.5,35.8,58.8,35z M63.2,33.5c0.3-0.4,0.4-1.1,0.4-2.1
		c0-0.9-0.1-1.6-0.4-2s-0.7-0.6-1.3-0.6c-0.6,0-1,0.2-1.3,0.6c-0.3,0.4-0.4,1.1-0.4,2c0,0.9,0.1,1.6,0.4,2.1
		c0.3,0.4,0.7,0.6,1.3,0.6C62.5,34.1,62.9,33.9,63.2,33.5z"/>
	<path class="st2" d="M68.4,35c-0.7-0.8-1.1-2-1.1-3.5c0-1.5,0.4-2.7,1.1-3.5c0.7-0.8,1.7-1.2,3.1-1.2c1.4,0,2.4,0.4,3.1,1.2
		s1.1,2,1.1,3.5c0,1.5-0.4,2.7-1.1,3.5s-1.7,1.2-3.1,1.2C70.1,36.2,69.1,35.8,68.4,35z M72.8,33.5c0.3-0.4,0.4-1.1,0.4-2.1
		c0-0.9-0.1-1.6-0.4-2s-0.7-0.6-1.3-0.6c-0.6,0-1,0.2-1.3,0.6c-0.3,0.4-0.4,1.1-0.4,2c0,0.9,0.1,1.6,0.4,2.1
		c0.3,0.4,0.7,0.6,1.3,0.6C72.1,34.1,72.5,33.9,72.8,33.5z"/>
	<path class="st2" d="M78,39.6c-0.7-0.4-1.1-1-1.1-1.8c0-0.4,0.1-0.8,0.3-1.2s0.5-0.7,1-1.1c-0.2-0.1-0.4-0.3-0.5-0.6
		c-0.1-0.2-0.2-0.5-0.2-0.7c0-0.2,0-0.4,0.1-0.6c0.1-0.2,0.3-0.5,0.6-1c-0.8-0.6-1.2-1.5-1.2-2.6c0-1.1,0.3-1.9,1-2.4
		c0.7-0.5,1.6-0.8,2.8-0.8c0.5,0,1.1,0.1,1.8,0.2l2.9-0.1v1.9l-1.4-0.1c0.2,0.3,0.3,0.5,0.3,0.6c0.1,0.2,0.1,0.4,0.1,0.7
		c0,1.1-0.3,1.9-0.9,2.3c-0.6,0.5-1.5,0.7-2.8,0.7c-0.4,0-0.6,0-0.8-0.1c-0.1,0.3-0.2,0.5-0.2,0.7c0,0.3,0.1,0.4,0.4,0.5
		c0.2,0.1,0.7,0.1,1.4,0.1c0.9,0,1.7,0.1,2.2,0.2c0.5,0.1,1,0.4,1.3,0.7c0.3,0.4,0.5,0.9,0.5,1.6c0,1.1-0.4,1.9-1.1,2.4
		s-1.9,0.8-3.4,0.8C79.7,40.1,78.7,39.9,78,39.6z M82.7,37.9c0.3-0.2,0.5-0.4,0.5-0.7c0-0.3-0.1-0.5-0.3-0.6s-0.5-0.1-0.8-0.1
		s-0.5,0-0.6,0l-1.6-0.1c-0.3,0.3-0.5,0.6-0.5,1c0,0.3,0.2,0.5,0.5,0.6c0.3,0.1,0.8,0.2,1.4,0.2C81.9,38.1,82.4,38.1,82.7,37.9z
		 M82.2,30c0-0.9-0.5-1.3-1.4-1.3c-0.9,0-1.4,0.4-1.4,1.3c0,0.9,0.5,1.3,1.4,1.3C81.8,31.3,82.2,30.9,82.2,30z"/>
	<path class="st2" d="M87.1,23.4h2.4V36h-2.4V23.4z"/>
	<path class="st2" d="M92.3,35.1c-0.6-0.7-0.9-1.9-0.9-3.4c0-1.7,0.3-2.9,1-3.7s1.7-1.2,3.1-1.2c1.3,0,2.2,0.3,2.9,1
		c0.7,0.7,1,1.7,1,3.1L99,32.5h-5.3c0,0.4,0.1,0.7,0.2,1c0.1,0.2,0.3,0.4,0.6,0.5s0.7,0.1,1.2,0.1c0.4,0,0.9,0,1.4,0
		c0.6,0,1,0,1.2-0.1l0.5-0.1l0,1.8c-1.4,0.3-2.6,0.5-3.6,0.5C93.9,36.2,92.9,35.8,92.3,35.1z M96.9,30.7c0-0.7-0.1-1.2-0.3-1.5
		c-0.2-0.3-0.6-0.4-1.2-0.4c-0.6,0-1,0.1-1.2,0.4c-0.2,0.3-0.4,0.8-0.4,1.5H96.9z"/>
	<path class="st2" d="M105.1,23.7h4.5c2.9,0,4.4,1.4,4.4,4.2c0,1.4-0.4,2.5-1.1,3.3c-0.7,0.8-1.8,1.1-3.2,1.1h-2V36h-2.5V23.7z
		 M109.6,30.3c1.2,0,1.9-0.8,1.9-2.3c0-0.7-0.1-1.3-0.4-1.6s-0.8-0.5-1.4-0.5h-2v4.4H109.6z"/>
	<path class="st2" d="M115.6,23.4h2.4V36h-2.4V23.4z"/>
	<path class="st2" d="M119.8,33.2c0-0.9,0.2-1.6,0.7-2c0.5-0.4,1.3-0.7,2.4-0.7l1.9-0.1v-0.6c0-0.4-0.1-0.6-0.2-0.8
		c-0.2-0.1-0.4-0.2-0.8-0.2c-0.4,0-0.9,0-1.6,0c-0.7,0-1.3,0.1-1.7,0.1l-0.1-1.7c1.3-0.3,2.5-0.5,3.7-0.5c1.2,0,2,0.2,2.5,0.7
		s0.8,1.2,0.8,2.3v3.7c0,0.3,0.1,0.5,0.2,0.6c0.1,0.1,0.2,0.2,0.4,0.2l-0.1,1.8c-0.6,0-1.1,0-1.5-0.1s-0.7-0.3-1.1-0.5
		c-0.9,0.4-1.8,0.6-2.6,0.6C120.7,36.2,119.8,35.2,119.8,33.2z M124.6,34l0.3-0.1V32l-1.6,0.1c-0.7,0.1-1,0.4-1,1.1s0.3,1,0.9,1
		C123.6,34.2,124,34.2,124.6,34z"/>
	<path class="st2" d="M132.5,36h-1.7l-2.2-9h2.4l1.6,6.9h0.4l1.6-6.9h2.4l-3.2,12.8h-2.4L132.5,36z"/>
</g>
<g id="Group_5246" transform="translate(10.321 11.558)">
	<g id="Group_5245">
		<g id="Group_5244">
			<g id="Group_5243">
				<path id="Path_9779" class="st2" d="M26.4,13.9L21,10.7l-4.5,4.3l4.1,4l5.8-3.4c0.5-0.3,0.7-0.9,0.4-1.4
					C26.7,14.1,26.6,14,26.4,13.9L26.4,13.9z"/>
				<path id="Path_9780" class="st2" d="M20,10.2l-6-3.5L0.9,0l14.9,14.4L20,10.2z"/>
				<path id="Path_9781" class="st2" d="M1.1,29.9l13-7.1l5.6-3.2l-3.9-3.8L1.1,29.9z"/>
				<path id="Path_9782" class="st2" d="M0,0.6l0,29l15-14.5L0,0.6z"/>
			</g>
		</g>
	</g>
</g>
</svg>
