<svg xmlns="http://www.w3.org/2000/svg" width="125.091" height="38.737" viewBox="0 0 125.091 38.737">
  <g id="Group_5775" data-name="Group 5775" transform="translate(0.5 0.5)">
    <rect id="Rectangle_3584" data-name="Rectangle 3584" width="124.091" height="37.737" rx="5" fill="none" stroke="#0d1435" stroke-miterlimit="10" stroke-width="1"/>
    <g id="Group_5773" data-name="Group 5773" transform="translate(20.443 8.4)">
      <path id="Path_10787" data-name="Path 10787" d="M279.493,425.4c-1.719,2.986-.626,7.514,1.277,10.262.948,1.373,1.91,2.605,3.227,2.605l.076,0a3.968,3.968,0,0,0,1.5-.4,4.077,4.077,0,0,1,1.775-.422,3.881,3.881,0,0,1,1.689.408,3.583,3.583,0,0,0,1.616.388c1.483-.027,2.394-1.358,3.2-2.532a11.171,11.171,0,0,0,1.4-2.868l0-.017a.171.171,0,0,0-.088-.206l-.012,0a4.249,4.249,0,0,1-2.576-3.892,4.381,4.381,0,0,1,2.068-3.659l.017-.01a.159.159,0,0,0,.071-.106.167.167,0,0,0-.025-.128,4.811,4.811,0,0,0-3.784-2.055,2.963,2.963,0,0,0-.332-.017,6.581,6.581,0,0,0-2.375.594,3.843,3.843,0,0,1-1.137.339,3.733,3.733,0,0,1-1.179-.344,5.732,5.732,0,0,0-2.075-.525h-.052A5.091,5.091,0,0,0,279.493,425.4Z" transform="translate(-278.636 -417.919)" fill="#0d1435" stroke="rgba(0,0,0,0)" stroke-width="1"/>
      <path id="Path_10788" data-name="Path 10788" d="M286.126,420.778a4.629,4.629,0,0,0-3.065,1.574,4.341,4.341,0,0,0-1.1,3.227.165.165,0,0,0,.152.142,2.064,2.064,0,0,0,.216.01,3.927,3.927,0,0,0,2.893-1.486,4.594,4.594,0,0,0,1.08-3.32A.169.169,0,0,0,286.126,420.778Z" transform="translate(-273.838 -420.778)" fill="#0d1435" stroke="rgba(0,0,0,0)" stroke-width="1"/>
    </g>
    <g id="Group_5774" data-name="Group 5774" transform="translate(43.719 12.134)">
      <text id="App_Store" data-name="App Store" transform="translate(28 11)" fill="#0d1435" font-size="11" font-family="Montserrat-SemiBold, Montserrat" font-weight="600"><tspan x="-28.099" y="0">App Store</tspan></text>
    </g>
  </g>
</svg>
