<svg xmlns="http://www.w3.org/2000/svg" width="125.091" height="38.737" viewBox="0 0 125.091 38.737">
  <g id="Group_5781" data-name="Group 5781" transform="translate(0.5 0.5)">
    <g id="Group_5780" data-name="Group 5780">
      <rect id="Rectangle_3585" data-name="Rectangle 3585" width="124.091" height="37.737" rx="5" fill="none" stroke="#fff" stroke-miterlimit="10" stroke-width="1"/>
      <g id="Group_5776" data-name="Group 5776" transform="translate(40.15 10.967)">
        <text id="Google_Play" data-name="Google Play" transform="translate(34 12)" fill="#fff" font-size="11" font-family="Montserrat-SemiBold, Montserrat" font-weight="600"><tspan x="-33.731" y="0">Google Play</tspan></text>
      </g>
      <g id="Group_5779" data-name="Group 5779" transform="translate(15.941 9.179)">
        <g id="Group_5778" data-name="Group 5778">
          <g id="Group_5777" data-name="Group 5777">
            <path id="Path_10789" data-name="Path 10789" d="M343.8,426.191l-3.7-2.131L337.061,427l2.777,2.684L343.8,427.4a.7.7,0,0,0,0-1.208Z" transform="translate(-325.886 -416.78)" fill="#fff" stroke="rgba(0,0,0,0)" stroke-width="1"/>
            <path id="Path_10790" data-name="Path 10790" d="M345.739,428.012l-4.068-2.348-8.915-4.569,10.069,9.734Z" transform="translate(-332.152 -421.095)" fill="#fff" stroke="rgba(0,0,0,0)" stroke-width="1"/>
            <path id="Path_10791" data-name="Path 10791" d="M332.816,435.044l8.782-4.838,3.791-2.189-2.652-2.564Z" transform="translate(-332.064 -414.751)" fill="#fff" stroke="rgba(0,0,0,0)" stroke-width="1"/>
            <path id="Path_10792" data-name="Path 10792" d="M332.52,421.256l-.009,19.658,10.172-9.834Z" transform="translate(-332.51 -420.862)" fill="#fff" stroke="rgba(0,0,0,0)" stroke-width="1"/>
          </g>
        </g>
      </g>
    </g>
  </g>
</svg>
