<?xml version="1.0" encoding="utf-8"?>
<!-- Generator: Adobe Illustrator 26.5.0, SVG Export Plug-In . SVG Version: 6.00 Build 0)  -->
<svg version="1.1" id="Layer_1" xmlns="http://www.w3.org/2000/svg" xmlns:xlink="http://www.w3.org/1999/xlink" x="0px" y="0px"
	 viewBox="0 0 46 50.9" style="enable-background:new 0 0 46 50.9;" xml:space="preserve">
<style type="text/css">
	.st0{opacity:0.6;}
	.st1{fill:#231F20;}
	.st2{fill:#151A6A;}
</style>
<g id="guarantee-certificate" transform="translate(-4 -1)">
	<g id="Group_5988" transform="translate(13.857 15.786)" class="st0">
		<path id="Path_11130" class="st1" d="M21.4,19.7v9c0,0.5,0.4,0.8,0.8,0.8h14V18.9h-14C21.7,18.9,21.4,19.3,21.4,19.7z M30.4,26.3
			h-3.3c-0.5,0-0.8-0.4-0.8-0.8c0-0.5,0.4-0.8,0.8-0.8h3.3c0.5,0,0.8,0.4,0.8,0.8C31.2,25.9,30.8,26.3,30.4,26.3z M25.5,21.4h4.9
			c0.5,0,0.8,0.4,0.8,0.8c0,0.5-0.4,0.8-0.8,0.8h-4.9c-0.5,0-0.8-0.4-0.8-0.8C24.6,21.7,25,21.4,25.5,21.4L25.5,21.4z"/>
		<path id="Path_11131" class="st1" d="M22.2,31.2c-1.4,0-2.5-1.1-2.5-2.5l0,0v-9c0-1.4,1.1-2.5,2.5-2.5l0,0h14V2.5
			C36.1,1.1,35,0,33.7,0l0,0h-9v9c0,1.4-1.1,2.5-2.5,2.5l0,0H14c-1.4,0-2.5-1.1-2.5-2.5v0V0h-9C1.1,0,0,1.1,0,2.5v0v31.2
			c0,1.4,1.1,2.5,2.5,2.5h0h31.2c1.4,0,2.5-1.1,2.5-2.5l0,0v-2.5H22.2z"/>
		<path id="Path_11132" class="st1" d="M14,9.9h8.2C22.6,9.9,23,9.5,23,9V0h-9.9v9C13.1,9.5,13.5,9.9,14,9.9L14,9.9z"/>
	</g>
	<path id="Path_11133" class="st2" d="M19.6,5.9c-5.9,0-10.7,4.8-10.7,10.7s4.8,10.7,10.7,10.7s10.7-4.8,10.7-10.7c0,0,0,0,0,0
		C30.3,10.7,25.5,5.9,19.6,5.9z M19.6,25.6c-5,0-9-4-9-9c0-5,4-9,9-9c5,0,9,4,9,9v0C28.6,21.6,24.6,25.6,19.6,25.6z"/>
	<path id="Path_11134" class="st2" d="M33,22.1c0.7-1.6,2.2-3.3,2.2-5.5c0-2.2-1.6-3.9-2.2-5.5c-0.7-1.7-0.8-4-2.3-5.5
		s-3.8-1.6-5.5-2.3C23.5,2.6,21.8,1,19.6,1s-3.9,1.6-5.5,2.2c-1.7,0.7-4,0.8-5.5,2.3s-1.6,3.8-2.3,5.5C5.6,12.7,4,14.4,4,16.6
		c0,2.2,1.6,3.9,2.2,5.5c0.7,1.7,0.8,3.9,2.3,5.4L4.8,38.7c-0.3,0.9,0.2,1.8,1,2.1c0.5,0.2,1,0.1,1.4-0.2l4.3-2.9
		c0.3-0.2,0.8-0.2,1,0.1l2.6,2.6c0.6,0.6,1.7,0.6,2.3,0c0.3-0.3,0.5-0.7,0.5-1.2v-7.3c1.1,0.4,2.2,0.4,3.3,0v7.3
		c0,0.9,0.7,1.6,1.6,1.6c0.4,0,0.8-0.2,1.2-0.5l2.6-2.6c0.3-0.3,0.7-0.3,1-0.1l4.3,2.9c0.8,0.5,1.8,0.3,2.3-0.5
		c0.3-0.4,0.4-1,0.2-1.4l-3.7-11.1C32.1,26.1,32.3,23.8,33,22.1L33,22.1z M16.3,39.3l-2.6-2.6c-0.8-0.8-2.1-1-3.1-0.3l-4.3,2.9
		l3.6-10.7c1.3,0.7,2.9,0.9,4.2,1.4c0.7,0.3,1.4,0.7,2.3,1.2L16.3,39.3z M28.6,36.4c-1-0.7-2.3-0.5-3.1,0.3l-2.6,2.6v-8.1
		c0.9-0.5,1.6-0.9,2.3-1.2c1.2-0.5,2.8-0.7,4.2-1.4l3.6,10.7L28.6,36.4z M31.5,21.5c-0.7,1.7-0.9,3.9-2,5s-3.2,1.3-5,2
		c-1.6,0.7-3.3,2.1-4.9,2.1c-1.6,0-3.2-1.4-4.9-2.1c-1.8-0.7-3.9-0.9-5-2s-1.3-3.2-2-5c-0.7-1.7-2.1-3.3-2.1-4.9s1.4-3.2,2.1-4.9
		s0.9-3.9,2-5s3.2-1.3,5-2C16.4,4,18,2.6,19.6,2.6s3.2,1.4,4.9,2.1c1.8,0.7,3.9,0.9,5,2s1.3,3.2,2,5c0.7,1.7,2.1,3.3,2.1,4.9
		S32.2,19.8,31.5,21.5L31.5,21.5z"/>
	<path id="Path_11135" class="st2" d="M24.1,12.6c-0.4-0.2-0.9-0.1-1.1,0.3c0,0,0,0,0,0l-3.5,5.6L17,15.3c-0.3-0.4-0.8-0.4-1.2-0.2
		c-0.4,0.3-0.4,0.8-0.2,1.2c0,0,0,0,0,0l3.3,4.1c0.2,0.2,0.4,0.3,0.6,0.3h0c0.3,0,0.5-0.2,0.6-0.4l4.1-6.6
		C24.7,13.4,24.5,12.9,24.1,12.6C24.2,12.6,24.2,12.6,24.1,12.6L24.1,12.6z"/>
</g>
</svg>
