<svg xmlns="http://www.w3.org/2000/svg" xmlns:xlink="http://www.w3.org/1999/xlink" width="164.698" height="27.796" viewBox="0 0 164.698 27.796">
  <defs>
    <clipPath id="clip-path">
      <rect width="164.698" height="27.796" fill="none"/>
    </clipPath>
  </defs>
  <g id="Repeat_Grid_167" data-name="Repeat Grid 167" clip-path="url(#clip-path)">
    <g transform="translate(-85.5 -65.102)">
      <g id="Component_14_1" data-name="Component 14 – 1" transform="translate(85.5 65.102)">
        <g id="Group_5241" data-name="Group 5241" transform="translate(48.117 4.965)">
          <g id="Group_5240" data-name="Group 5240" transform="translate(0 0)">
            <path id="Path_9766" data-name="Path 9766" d="M160.443,179.067v7.818h-3.52V169.339h3.52v7.868l6.385-7.868h4.248l-7.24,8.7,7.441,8.848h-4.449Z" transform="translate(-156.923 -169.246)" fill="#0d1435"/>
            <path id="Path_9767" data-name="Path 9767" d="M186.158,174.265a5.507,5.507,0,0,1,4.6,2.212v-1.986H194.3v13.926h-3.545v-2.036a5.492,5.492,0,0,1-4.625,2.263c-3.519,0-6.335-2.891-6.335-7.24S182.614,174.265,186.158,174.265Zm.905,3.091a3.715,3.715,0,0,0-3.67,4.048c0,2.639,1.785,4.148,3.67,4.148a4.12,4.12,0,0,0,0-8.2Z" transform="translate(-164.038 -170.778)" fill="#0d1435"/>
            <path id="Path_9768" data-name="Path 9768" d="M209.367,188.519h-3.519V174.593h3.519v2.4a4.83,4.83,0,0,1,4.274-2.363v2.87h-.93c-2.087,0-3.344.8-3.344,3.494Z" transform="translate(-172.14 -170.88)" fill="#0d1435"/>
            <path id="Path_9769" data-name="Path 9769" d="M220.641,175.929h-1.66v-2.891h1.66v-3.444h3.544v3.444H227.3v2.891h-3.117v6.737c0,.93.378,1.332,1.483,1.332H227.3v2.966H225.09c-2.665,0-4.449-1.131-4.449-4.323Z" transform="translate(-176.225 -169.325)" fill="#0d1435"/>
            <path id="Path_9770" data-name="Path 9770" d="M240.528,188.644a7.19,7.19,0,1,1,7.265-7.189A6.963,6.963,0,0,1,240.528,188.644Zm0-3.067c1.86,0,3.645-1.357,3.645-4.122,0-2.79-1.734-4.123-3.594-4.123s-3.545,1.332-3.545,4.123C237.035,184.219,238.643,185.576,240.528,185.576Z" transform="translate(-180.73 -170.778)" fill="#0d1435"/>
            <path id="Path_9771" data-name="Path 9771" d="M267.772,180.736c0-2.237-1.232-3.443-3.092-3.443-1.91,0-3.142,1.206-3.142,3.443v7.692h-3.519V174.5h3.519v1.735a5.2,5.2,0,0,1,4.2-1.936c3.242,0,5.555,2.112,5.555,5.957v8.17h-3.519Z" transform="translate(-188.367 -170.789)" fill="#0d1435"/>
            <path id="Path_9772" data-name="Path 9772" d="M287.18,174.265a5.507,5.507,0,0,1,4.6,2.212v-1.986h3.545v13.926H291.78v-2.036a5.492,5.492,0,0,1-4.625,2.263c-3.519,0-6.335-2.891-6.335-7.24S283.636,174.265,287.18,174.265Zm.905,3.091a3.715,3.715,0,0,0-3.67,4.048c0,2.639,1.785,4.148,3.67,4.148a4.12,4.12,0,0,0,0-8.2Z" transform="translate(-195.459 -170.778)" fill="#0d1435"/>
            <path id="Path_9773" data-name="Path 9773" d="M306.869,169.2h3.52v5.448a5.35,5.35,0,0,1,4.323-1.936c3.142,0,5.43,2.112,5.43,5.957v8.17h-3.519v-7.692c0-2.237-1.231-3.443-3.092-3.443-1.91,0-3.142,1.206-3.142,3.443v7.692h-3.52Z" transform="translate(-203.561 -169.204)" fill="#0d1435"/>
          </g>
        </g>
        <g id="Group_5242" data-name="Group 5242">
          <path id="Path_9774" data-name="Path 9774" d="M127.241,178.408l-5.12,8.87a5.028,5.028,0,0,1-4.353,2.514H95.327a1.983,1.983,0,0,1-1.4-.582,1.986,1.986,0,0,1,1.4-3.388h2.765a1.985,1.985,0,0,0,0-3.97H89.069a1.987,1.987,0,0,1,0-3.974h5.638v-.006a1.983,1.983,0,0,0,0-3.959v-.006H89.069a1.985,1.985,0,0,1,0-3.97h9.023a1.985,1.985,0,0,0,0-3.971H95.327a1.988,1.988,0,0,1-1.985-1.986,1.99,1.99,0,0,1,1.364-1.885,1.959,1.959,0,0,1,.621-.1h22.44a5.032,5.032,0,0,1,4.353,2.512l5.12,8.873A5.016,5.016,0,0,1,127.241,178.408Z" transform="translate(-87.084 -161.997)" fill="#0d1435"/>
          <path id="Path_9775" data-name="Path 9775" d="M126.434,176.579l5.193-9a.487.487,0,0,1,.843,0l5.2,9a1.955,1.955,0,0,1,0,1.957l-5.2,9a.487.487,0,0,1-.843,0l-5.193-9A1.955,1.955,0,0,1,126.434,176.579Z" transform="translate(-99.242 -163.658)" fill="#fbbb26"/>
          <path id="Path_9776" data-name="Path 9776" d="M112.908,165.1H123.3a.486.486,0,0,1,.422.73l-5.192,9a1.956,1.956,0,0,1-1.695.978l-10.39,0a.487.487,0,0,1-.421-.73l5.195-9A1.956,1.956,0,0,1,112.908,165.1Z" transform="translate(-92.953 -162.962)" fill="#fbbb26"/>
          <path id="Path_9777" data-name="Path 9777" d="M116.828,183.445H106.44a.486.486,0,0,0-.421.73l5.192,9a1.955,1.955,0,0,0,1.694.978l10.39,0a.486.486,0,0,0,.421-.73l-5.195-9A1.956,1.956,0,0,0,116.828,183.445Z" transform="translate(-92.953 -168.668)" fill="#fbbb26"/>
        </g>
      </g>
    </g>
  </g>
</svg>
