<svg xmlns="http://www.w3.org/2000/svg" width="165.199" height="28.796" viewBox="0 0 165.199 28.796">
  <g id="Component_12_1" data-name="Component 12 – 1" transform="translate(0.5 0.5)">
    <g id="Group_5241" data-name="Group 5241" transform="translate(48.118 4.964)">
      <g id="Group_5240" data-name="Group 5240" transform="translate(0 0)">
        <path id="Path_9766" data-name="Path 9766" d="M160.443,179.067v7.818h-3.52V169.339h3.52v7.868l6.385-7.868h4.248l-7.24,8.7,7.441,8.848h-4.449Z" transform="translate(-156.923 -169.246)" fill="#fff"/>
        <path id="Path_9767" data-name="Path 9767" d="M186.158,174.265a5.507,5.507,0,0,1,4.6,2.212v-1.986H194.3v13.926h-3.545v-2.036a5.492,5.492,0,0,1-4.625,2.263c-3.519,0-6.335-2.891-6.335-7.24S182.614,174.265,186.158,174.265Zm.905,3.091a3.715,3.715,0,0,0-3.67,4.048c0,2.639,1.785,4.148,3.67,4.148a4.12,4.12,0,0,0,0-8.2Z" transform="translate(-164.038 -170.778)" fill="#fff"/>
        <path id="Path_9768" data-name="Path 9768" d="M209.367,188.519h-3.519V174.593h3.519v2.4a4.83,4.83,0,0,1,4.274-2.363v2.87h-.93c-2.087,0-3.344.8-3.344,3.494Z" transform="translate(-172.14 -170.88)" fill="#fff"/>
        <path id="Path_9769" data-name="Path 9769" d="M220.641,175.929h-1.66v-2.891h1.66v-3.444h3.544v3.444H227.3v2.891h-3.117v6.737c0,.93.378,1.332,1.483,1.332H227.3v2.966H225.09c-2.665,0-4.449-1.131-4.449-4.323Z" transform="translate(-176.225 -169.325)" fill="#fff"/>
        <path id="Path_9770" data-name="Path 9770" d="M240.528,188.644a7.19,7.19,0,1,1,7.265-7.189A6.963,6.963,0,0,1,240.528,188.644Zm0-3.067c1.86,0,3.645-1.357,3.645-4.122,0-2.79-1.734-4.123-3.594-4.123s-3.545,1.332-3.545,4.123C237.035,184.219,238.643,185.576,240.528,185.576Z" transform="translate(-180.73 -170.778)" fill="#fff"/>
        <path id="Path_9771" data-name="Path 9771" d="M267.772,180.736c0-2.237-1.232-3.443-3.092-3.443-1.91,0-3.142,1.206-3.142,3.443v7.692h-3.519V174.5h3.519v1.735a5.2,5.2,0,0,1,4.2-1.936c3.242,0,5.555,2.112,5.555,5.957v8.17h-3.519Z" transform="translate(-188.367 -170.789)" fill="#fff"/>
        <path id="Path_9772" data-name="Path 9772" d="M287.18,174.265a5.507,5.507,0,0,1,4.6,2.212v-1.986h3.545v13.926H291.78v-2.036a5.492,5.492,0,0,1-4.625,2.263c-3.519,0-6.335-2.891-6.335-7.24S283.636,174.265,287.18,174.265Zm.905,3.091a3.715,3.715,0,0,0-3.67,4.048c0,2.639,1.785,4.148,3.67,4.148a4.12,4.12,0,0,0,0-8.2Z" transform="translate(-195.459 -170.778)" fill="#fff"/>
        <path id="Path_9773" data-name="Path 9773" d="M306.869,169.2h3.52v5.448a5.35,5.35,0,0,1,4.323-1.936c3.142,0,5.43,2.112,5.43,5.957v8.17h-3.519v-7.692c0-2.237-1.231-3.443-3.092-3.443-1.91,0-3.142,1.206-3.142,3.443v7.692h-3.52Z" transform="translate(-203.561 -169.204)" fill="#fff"/>
      </g>
    </g>
    <g id="Group_5242" data-name="Group 5242" transform="translate(0.001 -0.001)">
      <path id="Subtraction_1" data-name="Subtraction 1" d="M-10087.62,8208.8h-22.44a1.96,1.96,0,0,1-.62-.1,1.986,1.986,0,0,1-.781-.48,1.982,1.982,0,0,1-.582-1.4,1.972,1.972,0,0,1,1.363-1.884,1.933,1.933,0,0,1,.62-.1h2.766a1.988,1.988,0,0,0,1.985-1.986,1.97,1.97,0,0,0-.581-1.4,1.973,1.973,0,0,0-1.4-.581h-9.022a1.984,1.984,0,0,1-1.4-.585,1.962,1.962,0,0,1-.582-1.4,1.989,1.989,0,0,1,1.986-1.988h5.637v0a1.979,1.979,0,0,0,1.872-1.98,1.952,1.952,0,0,0-.584-1.4,1.953,1.953,0,0,0-1.288-.576v-.008h-5.637a1.98,1.98,0,0,1-1.4-.581,1.97,1.97,0,0,1-.582-1.4,1.987,1.987,0,0,1,1.986-1.983h9.022a1.988,1.988,0,0,0,1.985-1.986,1.97,1.97,0,0,0-.581-1.4,1.976,1.976,0,0,0-1.4-.584h-2.766a1.919,1.919,0,0,1-.62-.1,1.974,1.974,0,0,1-.781-.482,1.975,1.975,0,0,1-.582-1.4,1.984,1.984,0,0,1,1.363-1.884,2.013,2.013,0,0,1,.62-.1h22.44a5.052,5.052,0,0,1,4.354,2.511l5.12,8.873a5.036,5.036,0,0,1,0,5.025l-5.12,8.87A5.05,5.05,0,0,1-10087.62,8208.8Zm-17.194-13.02a.481.481,0,0,0-.422.243.48.48,0,0,0,0,.485l5.19,9a1.964,1.964,0,0,0,1.694.978l10.391,0a.485.485,0,0,0,.423-.245.478.478,0,0,0,0-.483l-5.2-9a1.957,1.957,0,0,0-1.694-.978Zm19.318-11.1a.485.485,0,0,0-.423.244l-5.19,9a1.953,1.953,0,0,0,0,1.955l5.19,9a.486.486,0,0,0,.424.241.483.483,0,0,0,.419-.241l5.2-9a1.953,1.953,0,0,0,0-1.955l-5.2-9A.479.479,0,0,0-10085.5,8184.68Zm-12.854-1.544a1.967,1.967,0,0,0-1.693.978l-5.193,9a.478.478,0,0,0,0,.483.485.485,0,0,0,.423.245l10.389,0a1.956,1.956,0,0,0,1.693-.98l5.193-9a.481.481,0,0,0,0-.486.482.482,0,0,0-.422-.243Z" transform="translate(10118.303 -8181)" fill="#fff" stroke="rgba(0,0,0,0)" stroke-miterlimit="10" stroke-width="1"/>
    </g>
  </g>
</svg>
