<?xml version="1.0" encoding="utf-8"?>
<!-- Generator: Adobe Illustrator 26.5.0, SVG Export Plug-In . SVG Version: 6.00 Build 0)  -->
<svg version="1.1" id="Layer_1" xmlns="http://www.w3.org/2000/svg" xmlns:xlink="http://www.w3.org/1999/xlink" x="0px" y="0px"
	 viewBox="0 0 49 51.8" style="enable-background:new 0 0 49 51.8;" xml:space="preserve">
<style type="text/css">
	.st0{opacity:0.6;fill:#231F20;enable-background:new    ;}
	.st1{fill:#0D1435;}
</style>
<g id="mobile-payment" transform="translate(-1.5 -1)">
	<path id="Path_11136" class="st0" d="M36,33.2c-0.2,0.6,0,1.3,0.5,1.7c0.3,0.3,0.7,0.5,1.1,0.7v-4.1C36.7,31.7,36.1,32.4,36,33.2
		L36,33.2z"/>
	<path id="Path_11137" class="st0" d="M41.3,40.9c0.3-1.7-0.8-2.5-2.1-2.9v5.3C40.3,43,41.1,42.1,41.3,40.9z"/>
	<path id="Path_11138" class="st0" d="M48.1,22.3H28.8c-1.3,0-2.4,1.1-2.4,2.4v25.7c0,1.3,1.1,2.4,2.4,2.4h19.3
		c1.3,0,2.4-1.1,2.4-2.4V24.7C50.5,23.4,49.4,22.3,48.1,22.3z M38.5,23.9c0.7,0,1.2,0.5,1.2,1.2s-0.5,1.2-1.2,1.2
		c-0.7,0-1.2-0.5-1.2-1.2C37.3,24.4,37.8,23.9,38.5,23.9L38.5,23.9z M34.1,42.8c0.2-0.4,0.7-0.5,1.1-0.2c0,0,0,0,0,0
		c0.7,0.5,1.5,0.8,2.4,0.8v-6.1c-0.7-0.3-1.4-0.7-2.1-1.2c-0.9-0.8-1.4-2.1-1.1-3.3c0.3-1.6,1.5-2.8,3.1-3.1v-1.1
		c0-0.4,0.4-0.8,0.8-0.8c0.4,0,0.8,0.4,0.8,0.8v1.1c0.6,0.1,1.2,0.2,1.7,0.5c0.4,0.2,0.5,0.7,0.3,1.1c0,0.1-0.1,0.1-0.1,0.2
		c-0.2,0.3-0.6,0.3-0.9,0.2c-0.3-0.2-0.6-0.3-1-0.3v4.9c0.3,0.1,0.6,0.2,1,0.4c1.9,0.6,3.1,2.6,2.8,4.6c-0.3,1.9-1.8,3.4-3.7,3.8
		v1.3c0,0.4-0.4,0.8-0.8,0.8c-0.4,0-0.8-0.4-0.8-0.8V45c-1.2,0-2.3-0.4-3.2-1.1C34,43.7,33.8,43.2,34.1,42.8
		C34.1,42.8,34.1,42.8,34.1,42.8L34.1,42.8z M48.9,50.4c0,0.4-0.4,0.8-0.8,0.8H28.8c-0.4,0-0.8-0.4-0.8-0.8v-0.8h20.9L48.9,50.4z"/>
	<g id="Group_5989" transform="translate(1.5 1)">
		<path id="Path_11139" class="st1" d="M9.6,10.4H4c-0.4,0-0.8,0.4-0.8,0.8s0.4,0.8,0.8,0.8h5.6c0.4,0,0.8-0.4,0.8-0.8
			S10.1,10.4,9.6,10.4L9.6,10.4z"/>
		<path id="Path_11140" class="st1" d="M9.6,15.3H4c-0.4,0-0.8,0.4-0.8,0.8c0,0.4,0.4,0.8,0.8,0.8h5.6c0.4,0,0.8-0.4,0.8-0.8
			C10.4,15.6,10.1,15.3,9.6,15.3L9.6,15.3z"/>
		<path id="Path_11141" class="st1" d="M9.6,20.1H4c-0.4,0-0.8,0.4-0.8,0.8c0,0.4,0.4,0.8,0.8,0.8h5.6c0.4,0,0.8-0.4,0.8-0.8
			C10.4,20.4,10.1,20.1,9.6,20.1L9.6,20.1z"/>
		<path id="Path_11142" class="st1" d="M9.6,24.9H4c-0.4,0-0.8,0.4-0.8,0.8c0,0.4,0.4,0.8,0.8,0.8h5.6c0.4,0,0.8-0.4,0.8-0.8
			C10.4,25.3,10.1,24.9,9.6,24.9L9.6,24.9z"/>
		<path id="Path_11143" class="st1" d="M9.6,29.7H4c-0.4,0-0.8,0.4-0.8,0.8c0,0.4,0.4,0.8,0.8,0.8h5.6c0.4,0,0.8-0.4,0.8-0.8
			C10.4,30.1,10.1,29.7,9.6,29.7L9.6,29.7z"/>
		<path id="Path_11144" class="st1" d="M16.9,21.7c-0.4,0-0.8,0.4-0.8,0.8v4.8c0,0.4,0.4,0.8,0.8,0.8c0.4,0,0.8-0.4,0.8-0.8v-4.8
			C17.7,22,17.3,21.7,16.9,21.7L16.9,21.7z"/>
		<path id="Path_11145" class="st1" d="M20.9,21.7c-0.4,0-0.8,0.4-0.8,0.8v4.8c0,0.4,0.4,0.8,0.8,0.8c0.4,0,0.8-0.4,0.8-0.8v-4.8
			C21.7,22,21.3,21.7,20.9,21.7C20.9,21.7,20.9,21.7,20.9,21.7z"/>
		<path id="Path_11146" class="st1" d="M37.8,10.4h-8.8v-8c0-1.3-1.1-2.4-2.4-2.4H2.4C1.1,0,0,1.1,0,2.4v36.1C0,39.9,1.1,41,2.4,41
			h24.1c1.3,0,2.4-1.1,2.4-2.4v-7.2h8.8c1.3,0,2.4-1.1,2.4-2.4V12.9C40.2,11.5,39.1,10.4,37.8,10.4L37.8,10.4z M38.6,12.9v0.8H14.5
			v-0.8c0-0.4,0.4-0.8,0.8-0.8h22.5C38.2,12.1,38.6,12.4,38.6,12.9z M2.4,1.6h24.1c0.4,0,0.8,0.4,0.8,0.8v0.8H1.6V2.4
			C1.6,2,2,1.6,2.4,1.6C2.4,1.6,2.4,1.6,2.4,1.6z M26.5,39.4H2.4c-0.4,0-0.8-0.4-0.8-0.8v-0.8h25.7v0.8C27.3,39,27,39.4,26.5,39.4z
			 M27.3,36.1H1.6V4.8h25.7v5.6h-12c-1.3,0-2.4,1.1-2.4,2.4v16.1c0,1.3,1.1,2.4,2.4,2.4h12L27.3,36.1z M37.8,29.7H15.3
			c-0.4,0-0.8-0.4-0.8-0.8V15.3h24.1v13.7C38.6,29.4,38.2,29.7,37.8,29.7L37.8,29.7z"/>
		<path id="Path_11147" class="st1" d="M24.1,16.9h-7.2c-0.4,0-0.8,0.4-0.8,0.8c0,0.4,0.4,0.8,0.8,0.8h7.2c0.4,0,0.8-0.4,0.8-0.8
			C24.9,17.2,24.5,16.9,24.1,16.9L24.1,16.9z"/>
		<path id="Path_11148" class="st1" d="M36.1,21.7h-8c-0.4,0-0.8,0.4-0.8,0.8v4.8c0,0.4,0.4,0.8,0.8,0.8h8c0.4,0,0.8-0.4,0.8-0.8
			v-4.8C36.9,22,36.6,21.7,36.1,21.7L36.1,21.7z M35.3,26.5h-6.4v-3.2h6.4L35.3,26.5z"/>
	</g>
</g>
</svg>
