<?xml version="1.0" encoding="UTF-8"?><svg id="Layer_2" xmlns="http://www.w3.org/2000/svg" viewBox="0 0 547.18 84.34"><defs><style>.cls-1{fill:#fff;}</style></defs><g id="Layer_1-2"><g><path class="cls-1" d="M387.98,47.41v31.41h-16.28v-31.52L344.08,3.16h18.11l18.23,29.46,18.8-29.46h16.62l-27.85,44.25Z"/><path class="cls-1" d="M416.63,40.42c0-25.79,13.98-38.63,36.68-38.63s37.02,13.18,37.02,38.17-14.67,40.24-37.37,40.24-36.34-13.64-36.34-39.78Zm56.97-.23c0-16.96-7.45-24.99-20.17-24.99s-20.06,8.02-20.06,25.22,7.57,26.25,19.83,26.25,20.4-9.17,20.4-26.48Z"/><path class="cls-1" d="M547.18,65.64v13.18h-44.82V3.16h16.28v62.47h28.54Z"/></g><g><path class="cls-1" d="M195.9,47.72c0,8.66-7.02,15.68-15.68,15.68s-15.68-7.02-15.68-15.68V2.63h-16.86V47.72c0,17.97,14.57,32.53,32.53,32.53h0c17.97,0,32.53-14.57,32.53-32.53V2.63h-16.86V47.72Z"/><path class="cls-1" d="M130.84,19.46v30.77c0,15.89-10.3,29.35-24.58,34.11l-5.34-15.99c7.58-2.54,13.06-9.68,13.06-18.12V16.11h-15.37V2.64h32.23s0,16.82,0,16.82Z"/><path class="cls-1" d="M331.15,16.11V2.63h-15.38l-16.84-.02V50.23c0,15.89,10.3,29.35,24.58,34.12l5.34-16c-7.59-2.53-13.06-9.68-13.06-18.12V16.11h15.37Z"/><path class="cls-1" d="M244.21,22.23c0-4.94,4.82-7.24,10.45-7.24,7.35,0,12.52,3.33,13.89,11.14l14.93-3.9c-1.61-15.96-14.81-20.78-26.87-20.78-14.7,0-29.17,7.12-29.17,23.08,0,26.99,41.26,21.28,41.26,35.17,0,4.48-4.36,7.12-11.14,7.12-9.07,0-15.04-4.13-16.42-11.02l-15.85,4.13c2.18,13.32,13.32,20.32,29.97,20.32,18.26,0,30.2-9.3,30.2-23.31,0-25.84-41.26-20.48-41.26-34.71Z"/></g><path class="cls-1" d="M32.23,16.82v30.77c0,15.89-10.3,29.35-24.58,34.11l-5.34-15.99c7.58-2.54,13.06-9.68,13.06-18.12V13.47H0V0H32.23s0,16.82,0,16.82Z"/><path class="cls-1" d="M40.66,16.82v30.77c0,15.89,10.3,29.35,24.58,34.11l5.34-15.99c-7.58-2.54-13.06-9.68-13.06-18.12V13.47h15.37s0-13.47,0-13.47h-15.41s-16.82,0-16.82,0V16.82Z"/></g></svg>