<?xml version="1.0" encoding="utf-8"?>
<!-- Generator: Adobe Illustrator 26.5.0, SVG Export Plug-In . SVG Version: 6.00 Build 0)  -->
<svg version="1.1" id="Layer_1" xmlns="http://www.w3.org/2000/svg" xmlns:xlink="http://www.w3.org/1999/xlink" x="0px" y="0px"
	 viewBox="0 0 50 50" style="enable-background:new 0 0 50 50;" xml:space="preserve">
<style type="text/css">
	.st0{opacity:0.6;}
	.st1{fill:#231F20;}
	.st2{fill:#0D1435;}
</style>
<g id="sewing-machine" transform="translate(-1 -1)">
	<g id="Group_5987" transform="translate(15.516 15.516)" class="st0">
		<path id="Path_11112" class="st1" d="M10.6,10.5l5.5,1.8V8.6L10.6,10.5z"/>
		<path id="Path_11113" class="st1" d="M0,13.5v7.8l8.5-4.9L0,13.5z"/>
		<path id="Path_11114" class="st1" d="M7.8,11.2L0,8.6v3.1l16.1,5.4V14L7.8,11.2L7.8,11.2z"/>
		<path id="Path_11115" class="st1" d="M0,28.7c0.2,1.1,1.2,1.9,2.4,1.9h1.2v2.4c0,1.3,1.1,2.4,2.4,2.4h4c1.3,0,2.4-1.1,2.4-2.4
			v-2.4h1.2c1.3,0,2.4-1.1,2.4-2.4v-0.3l-10.4-2L0,28.7z M10.9,33.1c0,0.4-0.4,0.8-0.8,0.8H6c-0.4,0-0.8-0.4-0.8-0.8v-2.4h5.6V33.1z
			"/>
		<path id="Path_11116" class="st1" d="M16.1,7c-0.2-1.2-1.2-2.1-2.4-2.1h-1.2V2.4c0-1.3-1.1-2.4-2.4-2.4c0,0,0,0,0,0H6
			C4.7,0,3.6,1.1,3.6,2.4c0,0,0,0,0,0v2.4H2.4C1.2,4.8,0.2,5.7,0,7l8.1,2.7L16.1,7z M5.2,2.4C5.2,2,5.6,1.6,6,1.6h4
			c0.4,0,0.8,0.4,0.8,0.8v2.4H5.2V2.4z"/>
		<path id="Path_11117" class="st1" d="M10.6,17L0,23.1v3.8l16.1-8.1L10.6,17z"/>
		<path id="Path_11118" class="st1" d="M16.1,26.2v-5.6l-8,4L16.1,26.2z"/>
		<path id="Path_11119" class="st1" d="M24.9,25l-5.5-1.8v3.7L24.9,25z"/>
		<path id="Path_11120" class="st1" d="M35.5,22v-7.8L27,19.2L35.5,22z"/>
		<path id="Path_11121" class="st1" d="M27.7,24.2l7.8,2.6v-3.1l-16.1-5.4v3.1L27.7,24.2L27.7,24.2z"/>
		<path id="Path_11122" class="st1" d="M35.4,6.8c-0.2-1.1-1.2-1.9-2.4-1.9h-1.2V2.4c0-1.3-1.1-2.4-2.4-2.4h-4C24.1,0,23,1.1,23,2.4
			v2.4h-1.2c-1.3,0-2.4,1.1-2.4,2.4c0,0,0,0,0,0v0.3l10.4,2.1L35.4,6.8z M24.6,2.4c0-0.4,0.4-0.8,0.8-0.8h4c0.4,0,0.8,0.4,0.8,0.8
			v2.4h-5.6V2.4z"/>
		<path id="Path_11123" class="st1" d="M19.4,28.5c0.2,1.2,1.2,2.1,2.4,2.1H23v2.4c0,1.3,1.1,2.4,2.4,2.4h4c1.3,0,2.4-1.1,2.4-2.4
			v-2.4h1.2c1.2,0,2.3-0.9,2.4-2.1l-8.1-2.7L19.4,28.5z M30.2,33.1c0,0.4-0.4,0.8-0.8,0.8h-4c-0.4,0-0.8-0.4-0.8-0.8v-2.4h5.6V33.1z
			"/>
		<path id="Path_11124" class="st1" d="M24.9,18.5l10.6-6.1V8.6l-16.1,8.1L24.9,18.5z"/>
		<path id="Path_11125" class="st1" d="M19.4,9.2v5.6l8-4L19.4,9.2z"/>
	</g>
	<path id="Path_11126" class="st2" d="M38.1,30h-1.6V22h0.8c1.3,0,2.4-1.1,2.4-2.4v-8.1c0-1.3-1.1-2.4-2.4-2.4h-0.9
		c-0.4-2.8-2.8-4.8-5.6-4.8h-4V1.8C26.8,1.4,26.4,1,26,1c-0.4,0-0.8,0.4-0.8,0.8v2.4h-8.1V1.8c0-0.4-0.4-0.8-0.8-0.8
		c-0.4,0-0.8,0.4-0.8,0.8v2.4H9.1c-3.1,0-5.6,2.5-5.6,5.6c0,0,0,0,0,0v9.7c0,1.3,1.1,2.4,2.4,2.4h0H7v1.6c0,0.4,0.4,0.8,0.8,0.8
		s0.8-0.4,0.8-0.8V22h1.2c1.3,0,2.4-1.1,2.4-2.4l0,0v-2.4h10.5V30H4.2C2.4,30,1,31.5,1,33.3c0,0,0,0,0,0v3.2c0,1.3,1.1,2.4,2.4,2.4
		h35.5c1.3,0,2.4-1.1,2.4-2.4v-3.2C41.3,31.5,39.9,30,38.1,30z M38.1,11.5v8.1c0,0.4-0.4,0.8-0.8,0.8h-0.8v-9.7h0.8
		C37.7,10.7,38.1,11,38.1,11.5C38.1,11.5,38.1,11.5,38.1,11.5z M9.9,20.4h-4C5.4,20.4,5,20,5,19.5l0,0h5.6
		C10.7,20,10.3,20.4,9.9,20.4C9.9,20.4,9.9,20.4,9.9,20.4z M22.8,15.5H12.3c-0.9,0-1.6,0.7-1.6,1.6l0,0v0.8H5V9.9c0-2.2,1.8-4,4-4
		c0,0,0,0,0,0h21.8c2.2,0,4,1.8,4,4v0V30H24.4V17.1C24.4,16.2,23.7,15.5,22.8,15.5C22.8,15.5,22.8,15.5,22.8,15.5L22.8,15.5z
		 M4.2,31.6h33.9c0.6,0,1.1,0.3,1.4,0.8H2.8C3.1,32,3.7,31.6,4.2,31.6z M38.9,37.3H3.4c-0.4,0-0.8-0.4-0.8-0.8v-2.4h37.1v2.4
		C39.7,36.9,39.4,37.3,38.9,37.3C38.9,37.3,38.9,37.3,38.9,37.3z M16.3,7.5c-1.8,0-3.2,1.4-3.2,3.2s1.4,3.2,3.2,3.2s3.2-1.4,3.2-3.2
		l0,0C19.5,8.9,18.1,7.5,16.3,7.5z M16.3,12.3c-0.9,0-1.6-0.7-1.6-1.6c0-0.9,0.7-1.6,1.6-1.6c0.9,0,1.6,0.7,1.6,1.6
		C17.9,11.6,17.2,12.3,16.3,12.3L16.3,12.3z M29.2,10.7c0-1.8-1.4-3.2-3.2-3.2s-3.2,1.4-3.2,3.2s1.4,3.2,3.2,3.2c0,0,0,0,0,0
		C27.8,13.9,29.2,12.5,29.2,10.7L29.2,10.7z M24.4,10.7c0-0.9,0.7-1.6,1.6-1.6s1.6,0.7,1.6,1.6c0,0.9-0.7,1.6-1.6,1.6
		C25.1,12.3,24.4,11.6,24.4,10.7C24.4,10.7,24.4,10.7,24.4,10.7L24.4,10.7z"/>
</g>
</svg>
