<?xml version="1.0" encoding="utf-8"?>
<!-- Generator: Adobe Illustrator 26.5.0, SVG Export Plug-In . SVG Version: 6.00 Build 0)  -->
<svg version="1.1" id="Layer_1" xmlns="http://www.w3.org/2000/svg" xmlns:xlink="http://www.w3.org/1999/xlink" x="0px" y="0px"
	 viewBox="0 0 50.5 48.9" style="enable-background:new 0 0 50.5 48.9;" xml:space="preserve">
<style type="text/css">
	.st0{opacity:0.6;fill:#231F20;enable-background:new    ;}
	.st1{fill:#0D1435;}
</style>
<g id="shipping" transform="translate(-1 -2)">
	<path id="Path_11127" class="st0" d="M10.8,35.4v13c0,1.4,1.1,2.4,2.4,2.4h5.7V33h-5.7C11.9,33,10.8,34.1,10.8,35.4z"/>
	<path id="Path_11128" class="st0" d="M49.1,19.9H23c-1.4,0-2.4,1.1-2.4,2.4v28.5h28.5c1.4,0,2.4-1.1,2.4-2.4V22.4
		C51.5,21,50.4,19.9,49.1,19.9z M31.6,34.5c-0.4,0.3-0.9,0.1-1.1-0.2c-0.1-0.1-0.1-0.3-0.1-0.5V21.6h11.4v12.2
		c0,0.5-0.4,0.8-0.8,0.8c-0.2,0-0.3,0-0.5-0.1l-4.4-3L31.6,34.5z M47.5,47.7h-9.8c-0.5,0-0.8-0.4-0.8-0.8s0.4-0.8,0.8-0.8h9.8
		c0.5,0,0.8,0.4,0.8,0.8S47.9,47.7,47.5,47.7z M47.5,44.4h-9.8c-0.5,0-0.8-0.4-0.8-0.8s0.4-0.8,0.8-0.8h9.8c0.5,0,0.8,0.4,0.8,0.8
		S47.9,44.4,47.5,44.4z"/>
	<path id="Path_11129" class="st1" d="M19.7,2C9.4,2,1,10.4,1,20.8c0,10.4,8.4,18.7,18.8,18.7c10.4,0,18.7-8.4,18.7-18.7
		C38.5,10.4,30.1,2,19.7,2C19.8,2,19.7,2,19.7,2z M15,4.3c-2.9,3-4.8,8.8-5,15.6H2.7C3,12.6,8,6.4,15,4.3z M2.7,21.6H10
		c0.1,6.8,2.1,12.6,5,15.6C8,35.1,3,28.9,2.7,21.6z M18.9,37.8c-3.9-0.9-7.1-7.9-7.3-16.2h7.3V37.8z M18.9,19.9h-7.3
		c0.2-8.3,3.4-15.4,7.3-16.2V19.9z M36.8,19.9h-7.3c-0.1-6.8-2.1-12.6-5-15.6C31.5,6.4,36.5,12.6,36.8,19.9z M20.6,3.7
		c3.9,0.9,7.1,7.9,7.3,16.2h-7.3V3.7z M20.6,37.8V21.6h7.3C27.7,29.9,24.5,36.9,20.6,37.8z M24.5,37.2c2.9-3,4.8-8.8,5-15.6h7.3
		C36.5,28.9,31.5,35.1,24.5,37.2z"/>
</g>
</svg>
