<?xml version="1.0" encoding="utf-8"?>
<!-- Generator: Adobe Illustrator 26.5.0, SVG Export Plug-In . SVG Version: 6.00 Build 0)  -->
<svg version="1.1" id="Layer_1" xmlns="http://www.w3.org/2000/svg" xmlns:xlink="http://www.w3.org/1999/xlink" x="0px" y="0px"
	 viewBox="0 0 48.7 48.7" style="enable-background:new 0 0 48.7 48.7;" xml:space="preserve">
<style type="text/css">
	.st0{opacity:0.6;}
	.st1{fill:#231F20;}
	.st2{fill:#0D1435;}
</style>
<g id="sweaters" transform="translate(-1 -1)">
	<g id="Group_5991" transform="translate(16.706 16.706)" class="st0">
		<path id="Path_11159" class="st1" d="M16.5,7.9c3.9,0,7.1-3.2,7.1-7.1v0V0H22v0.8c0.1,3-2.3,5.6-5.3,5.7c-3,0.1-5.6-2.3-5.7-5.3
			c0-0.1,0-0.2,0-0.4V0H9.4v0.8C9.4,4.7,12.6,7.9,16.5,7.9L16.5,7.9z"/>
		<path id="Path_11160" class="st1" d="M16.5,4.7c2.2,0,3.9-1.8,3.9-3.9V0h-7.9v0.8C12.6,3,14.3,4.7,16.5,4.7L16.5,4.7z"/>
		<path id="Path_11161" class="st1" d="M30,15.7c-1.1,0-2.1-0.4-2.8-1.2c-0.9-0.9-2.4-1-3.3-0.1c0,0,0,0-0.1,0.1
			c-1.6,1.5-4.1,1.5-5.6,0c-0.9-0.9-2.4-1-3.3,0c0,0,0,0,0,0c-1.6,1.5-4.1,1.5-5.6,0c-0.9-0.9-2.4-1-3.3-0.1c0,0,0,0-0.1,0.1
			c-1.5,1.5-4,1.6-5.6,0c0,0,0,0,0,0L0,14.4v5.3L1.3,21c0.9,0.9,2.4,0.9,3.4,0c1.5-1.5,4.1-1.5,5.6,0c0.9,0.9,2.4,0.9,3.4,0
			c1.5-1.5,4.1-1.5,5.6,0c0.9,0.9,2.4,0.9,3.4,0c1.5-1.5,4-1.6,5.6,0c0,0,0,0,0,0c0.9,0.9,2.4,0.9,3.4,0l1.3-1.3v-5.3l-0.2,0.2
			C32,15.3,31,15.7,30,15.7L30,15.7z"/>
		<path id="Path_11162" class="st1" d="M30.6,0h-5.5v0.8c0,4.8-3.9,8.6-8.6,8.6c-4.8,0-8.6-3.9-8.6-8.6c0,0,0,0,0,0V0H2.4
			C1.1,0,0,1.1,0,2.4v9.8l1.3,1.3c0.9,0.9,2.4,1,3.3,0.1c0,0,0,0,0.1-0.1c1.6-1.5,4.1-1.5,5.6,0c0.9,0.9,2.4,1,3.3,0c0,0,0,0,0,0
			c1.6-1.5,4.1-1.5,5.6,0c0.9,0.9,2.4,1,3.3,0.1c0,0,0,0,0.1-0.1c1.5-1.5,4.1-1.5,5.6,0c0.9,0.9,2.4,1,3.3,0.1c0,0,0,0,0.1-0.1
			l1.3-1.3V2.4C33,1.1,31.9,0,30.6,0C30.6,0,30.6,0,30.6,0z"/>
		<path id="Path_11163" class="st1" d="M27.2,22.1c-0.9-0.9-2.4-0.9-3.4,0c-1.5,1.5-4,1.6-5.6,0.1c0,0,0,0-0.1-0.1
			c-0.9-0.9-2.4-1-3.3,0c0,0,0,0,0,0c-1.5,1.5-4.1,1.5-5.6,0c-0.9-0.9-2.4-0.9-3.4,0c-1.5,1.5-4,1.6-5.6,0c0,0,0,0,0,0L0,21.9v8.7
			C0,31.9,1.1,33,2.4,33h28.3c1.3,0,2.4-1.1,2.4-2.4v-8.7l-0.2,0.2C31.3,23.7,28.8,23.7,27.2,22.1C27.2,22.1,27.2,22.1,27.2,22.1
			L27.2,22.1z"/>
	</g>
	<path id="Path_11164" class="st2" d="M33.2,1H8.1C4.2,1,1,4.2,1,8.1v18.8c0,1,0.6,1.9,1.6,2.2v0.9c0,1.3,1.1,2.4,2.4,2.4h2.5
		c0.2,0.7,0.8,1.2,1.4,1.4v0.9c0,1.3,1.1,2.4,2.4,2.4h18.8c1.3,0,2.4-1.1,2.4-2.4v-0.9c0.7-0.2,1.2-0.8,1.4-1.4h2.5
		c1.3,0,2.4-1.1,2.4-2.4v-0.9c0.9-0.3,1.6-1.2,1.6-2.2V8.1C40.3,4.2,37.1,1,33.2,1z M8.9,14.7l0.2,0.2c1.2,1.2,3.1,1.2,4.3,0
		c0.6-0.6,1.5-0.6,2,0c0,0,0,0,0,0c1.2,1.2,3.1,1.2,4.3,0c0.6-0.6,1.5-0.6,2,0c0,0,0,0,0,0c1.2,1.2,3.1,1.2,4.3,0
		c0.6-0.6,1.5-0.6,2,0c0,0,0,0,0,0c1.2,1.2,3.1,1.2,4.3,0l0.2-0.2v2.5l-1.3,1.3c-0.6,0.6-1.5,0.6-2,0c0,0,0,0,0,0
		c-1.2-1.2-3.1-1.2-4.3,0c-0.6,0.6-1.5,0.6-2,0c0,0,0,0,0,0c-1.2-1.2-3.1-1.2-4.3,0c-0.6,0.6-1.5,0.6-2,0c0,0,0,0,0,0
		c-1.2-1.2-3.1-1.2-4.3,0c-0.6,0.6-1.5,0.6-2,0c0,0,0,0,0,0l-1.3-1.3V14.7z M32.4,12.5l-1.3,1.3c-0.6,0.6-1.5,0.6-2,0c0,0,0,0,0,0
		c-1.2-1.2-3.1-1.2-4.3,0c-0.6,0.6-1.5,0.6-2,0c0,0,0,0,0,0c-1.2-1.2-3.1-1.2-4.3,0c-0.6,0.6-1.5,0.6-2,0c0,0,0,0,0,0
		c-1.2-1.2-3.1-1.2-4.3,0c-0.6,0.6-1.5,0.6-2,0c0,0,0,0,0,0l-1.3-1.3V2.6h4c0.3,4.3,4.1,7.6,8.4,7.3c3.9-0.3,7-3.4,7.3-7.3h3.9V12.5
		z M23.7,2.6c-0.4,1.7-2.2,2.7-3.8,2.2c-1.1-0.3-2-1.1-2.2-2.2H23.7z M16,2.6c0.5,2.6,2.9,4.3,5.5,3.8c2-0.3,3.5-1.9,3.8-3.8h1.6
		c-0.5,3.4-3.6,5.8-7.1,5.4c-2.8-0.4-5-2.6-5.4-5.4H16z M2.6,8.1c0-2.7,2-5.1,4.7-5.4v25.1H3.4c-0.4,0-0.8-0.4-0.8-0.8L2.6,8.1z
		 M4.1,30.1v-0.8h3.1v1.6H4.9C4.5,30.8,4.1,30.5,4.1,30.1C4.1,30.1,4.1,30.1,4.1,30.1z M30.8,34.8c0,0.4-0.4,0.8-0.8,0.8H11.2
		c-0.4,0-0.8-0.4-0.8-0.8V34h20.4V34.8z M31.6,32.4h-22c-0.4,0-0.8-0.4-0.8-0.8V19.4l0.2,0.2c1.2,1.2,3.1,1.2,4.3,0
		c0.6-0.6,1.5-0.6,2,0c0,0,0,0,0,0c1.2,1.2,3.1,1.2,4.3,0c0.6-0.6,1.5-0.6,2,0c0,0,0,0,0,0c1.2,1.2,3.1,1.2,4.3,0
		c0.6-0.6,1.5-0.6,2,0c0,0,0,0,0,0c1.2,1.2,3.1,1.2,4.3,0l0.2-0.2v12.2C32.4,32.1,32.1,32.4,31.6,32.4
		C31.6,32.4,31.6,32.4,31.6,32.4z M37.1,30.1c0,0.4-0.4,0.8-0.8,0.8H34v-1.6h3.1L37.1,30.1z M38.7,26.9c0,0.4-0.4,0.8-0.8,0.8H34
		V2.6c2.7,0.4,4.7,2.7,4.7,5.4L38.7,26.9z"/>
</g>
</svg>
