<?xml version="1.0" encoding="utf-8"?>
<!-- Generator: Adobe Illustrator 26.5.0, SVG Export Plug-In . SVG Version: 6.00 Build 0)  -->
<svg version="1.1" id="Layer_1" xmlns="http://www.w3.org/2000/svg" xmlns:xlink="http://www.w3.org/1999/xlink" x="0px" y="0px"
	 viewBox="0 0 185.5 187.3" style="enable-background:new 0 0 185.5 187.3;" xml:space="preserve">
<style type="text/css">
	.st0{opacity:0.7;fill:#FFFFFF;stroke:#0D1435;stroke-width:0.5;enable-background:new    ;}
	.st1{fill:none;stroke:#231F20;stroke-linecap:round;stroke-linejoin:round;}
	.st2{fill:none;stroke:#0D1435;stroke-width:2;stroke-linecap:round;stroke-linejoin:round;}
	.st3{fill:#FFFFFF;stroke:#0D1435;stroke-linecap:round;stroke-linejoin:round;}
	.st4{fill:#231F20;}
	.st5{clip-path:url(#SVGID_00000159434845522667773460000001136677168714300333_);}
	.st6{opacity:0.3;enable-background:new    ;}
	.st7{clip-path:url(#SVGID_00000021095225913781410580000002957046766147401662_);}
	.st8{fill:#231F20;stroke:#0D1435;stroke-linecap:round;stroke-linejoin:round;}
	.st9{clip-path:url(#SVGID_00000142868160370256134550000012537434857988098462_);}
	.st10{fill:#0D1435;}
	.st11{opacity:0.2;}
	.st12{fill:none;stroke:#FFFFFF;stroke-linecap:round;stroke-linejoin:round;}
	.st13{fill:#757575;stroke:#0D1435;stroke-linecap:round;stroke-linejoin:round;}
	.st14{clip-path:url(#SVGID_00000010282063164553776840000000502799075222027429_);}
	.st15{opacity:0.5;enable-background:new    ;}
	.st16{clip-path:url(#SVGID_00000155852049549651716240000018289788346851898278_);}
	.st17{fill:#999999;stroke:#0D1435;stroke-linecap:round;stroke-linejoin:round;}
	.st18{fill:#C0C0C0;stroke:#0D1435;stroke-linecap:round;stroke-linejoin:round;}
	.st19{clip-path:url(#SVGID_00000016053175533829879870000003189245645408177824_);}
	.st20{fill:#FFFFFF;}
	.st21{opacity:0.4;fill:#231F20;enable-background:new    ;}
	.st22{fill:#231F20;stroke:#0D1435;stroke-width:1.0003;stroke-linecap:round;stroke-linejoin:round;stroke-miterlimit:4.0013;}
</style>
<g id="Group_5982" transform="translate(-42.493 -40.305)">
	<g id="Background_Simple" transform="translate(42.774 47.914)">
		<g id="Group_5934">
			<path id="Path_10956" class="st0" d="M24.3,16.1l0.3-0.2c23.1-20.8,53.8-21.7,76.1,0.7c11.6,11.7,32.3,9.4,47.1,13.7
				c51,14.6,42.2,83.8,17,117.2c-22.7,30.2-72,37-105.1,22.2c-29.1-13.1-49.6-42.2-56.9-72.7C2,93.8,1.4,90.7,1,87.6
				C-2.9,61.6,4.5,34.1,24.3,16.1z"/>
		</g>
	</g>
	<g id="Bubble" transform="translate(107.937 177.341)">
		<g id="Group_5936">
			<path id="Path_10957" class="st1" d="M40.5,24.5c-2.2,11.1-13,18.3-24.1,16.1C8.8,39,2.7,33.2,0.7,25.7"/>
			<path id="Path_10958" class="st1" d="M40.3,15.2c0.6,2.3,0.8,4.6,0.6,7"/>
			<path id="Path_10959" class="st1" d="M7.3,4.8C16-2.5,28.9-1.4,36.1,7.3c1.2,1.4,2.2,3,3,4.7"/>
			<path id="Path_10960" class="st1" d="M1.6,1.6L1.1,0.1l5.4,4.1"/>
			<path id="Path_10961" class="st1" d="M0.4,16.5c0.6-3,1.9-5.8,3.7-8.3L2.3,3.4"/>
			<path id="Path_10962" class="st1" d="M0,21.3c0-0.8,0-1.7,0-2.5"/>
			<g id="Group_5935" transform="translate(8.829 9.09)">
				<path id="Path_10963" class="st1" d="M12.6,1.2c5.6,0.7,9.7,5.8,9,11.4c-0.7,5.6-5.8,9.7-11.4,9c-5.6-0.7-9.7-5.8-9-11.4
					C1.7,5.9,4.8,2.4,9,1.4"/>
				<path id="Path_10964" class="st1" d="M10.1,22.7C3.8,22-0.6,16.3,0.1,10.1"/>
				<path id="Path_10965" class="st1" d="M22.3,14.7c-1.2,4-4.6,7.1-8.7,7.9"/>
				<path id="Path_10966" class="st1" d="M0.8,7.2c2.3-5.9,9-8.7,14.8-6.4c4.8,1.9,7.7,6.8,7.1,11.9"/>
				<line id="Line_152" class="st2" x1="18" y1="6.9" x2="18.2" y2="6.8"/>
				<line id="Line_153" class="st2" x1="16.3" y1="9" x2="17.2" y2="8"/>
				<path id="Path_10967" class="st2" d="M5.2,11l4.7,5.6l5.6-6.7"/>
			</g>
		</g>
	</g>
	<g id="Character" transform="translate(136.281 40.805)">
		<path id="Rectangle_3627" class="st3" d="M45.3,47.6L45.3,47.6c25,0,45.3,20.3,45.3,45.3v0c0,25-20.3,45.3-45.3,45.3h0
			c-25,0-45.3-20.3-45.3-45.3v0C0,67.9,20.3,47.6,45.3,47.6z"/>
		<g id="Group_5962" transform="translate(12.329)">
			<g id="Group_5941" transform="translate(6.852 79.436)">
				<g id="Group_5938" transform="translate(0 6.187)">
					<path id="Path_10968" class="st4" d="M8.6,1.9C7.2-0.4,0.6-0.3,0,0.7c0,0,3.3,10.6,6.9,9.5S8.6,1.9,8.6,1.9z"/>
					<g>
						<defs>
							<path id="SVGID_1_" d="M8.6,1.9C7.2-0.4,0.6-0.3,0,0.7c0,0,3.3,10.6,6.9,9.5S8.6,1.9,8.6,1.9z"/>
						</defs>
						<clipPath id="SVGID_00000157267193939212565520000002215752138579287218_">
							<use xlink:href="#SVGID_1_"  style="overflow:visible;"/>
						</clipPath>
						<g id="Group_5937" style="clip-path:url(#SVGID_00000157267193939212565520000002215752138579287218_);">
							<path id="Path_10969" class="st6" d="M8.6,1.9C7.2-0.4,0.6-0.3,0,0.7c0,0,3.3,10.6,6.9,9.5S8.6,1.9,8.6,1.9z"/>
						</g>
					</g>
					<path id="Path_10971" class="st1" d="M8.6,1.9C7.2-0.4,0.6-0.3,0,0.7c0,0,3.3,10.6,6.9,9.5S8.6,1.9,8.6,1.9z"/>
				</g>
				<g id="Group_5940">
					<path id="Path_10972" class="st4" d="M0.7,13.4C0.2,14,0,14.7,0,15.4c0,1,1.9,20.7,7.7,27.5c1,1.4,2.5,2.2,4.2,2.3
						c4.9,0.1,7.3-3.8,10.4-12.9c0.4-1.1,0.8-2.3,1.2-3.6c3-9.3,6.8-28.8,6.8-28.8s-6.6,1.5-10.6,5.4C18,7.1,16.2,12,15.1,15.5
						c-0.6,1.7-1,3.2-1.1,3.8c-0.1,0.2-0.1,0.3-0.1,0.3c-0.2-0.6-0.4-1.2-0.7-1.8c0,0,0,0,0,0c0,0,0,0,0,0c-0.9-1.6-1.9-3-3.1-4.3
						L8.6,8.1c0,0-0.5,1-2.8,1.3S0,6.8,0,6.8L0.7,13.4z"/>
					<g>
						<defs>
							<path id="SVGID_00000167366496681020941570000006153146766381989803_" d="M0.7,13.4C0.2,14,0,14.7,0,15.4
								c0,1,1.9,20.7,7.7,27.5c1,1.4,2.5,2.2,4.2,2.3c4.9,0.1,7.3-3.8,10.4-12.9c0.4-1.1,0.8-2.3,1.2-3.6c3-9.3,6.8-28.8,6.8-28.8
								s-6.6,1.5-10.6,5.4C18,7.1,16.2,12,15.1,15.5c-0.6,1.7-1,3.2-1.1,3.8c-0.1,0.2-0.1,0.3-0.1,0.3c-0.2-0.6-0.4-1.2-0.7-1.8
								c0,0,0,0,0,0c0,0,0,0,0,0c-0.9-1.6-1.9-3-3.1-4.3L8.6,8.1c0,0-0.5,1-2.8,1.3S0,6.8,0,6.8L0.7,13.4z"/>
						</defs>
						<clipPath id="SVGID_00000087403574917157260190000009267956819373694639_">
							<use xlink:href="#SVGID_00000167366496681020941570000006153146766381989803_"  style="overflow:visible;"/>
						</clipPath>
						<g id="Group_5939" style="clip-path:url(#SVGID_00000087403574917157260190000009267956819373694639_);">
							<path id="Path_10973" class="st6" d="M7.7,42.9c1,1.4,2.5,2.2,4.2,2.3c4.9,0.1,7.3-3.8,10.4-12.9l-0.1-21
								c-2.7,0.7-5.2,2.1-7.2,4.1c-0.6,1.7-1,3.2-1.1,3.8c1.4,2.9,3.8,9.5,1,16.5C13.2,40.4,10.2,42.2,7.7,42.9z"/>
						</g>
					</g>
					<path id="Path_10975" class="st1" d="M0.7,13.4C0.2,14,0,14.7,0,15.4c0,1,1.9,20.7,7.7,27.5c1,1.4,2.5,2.2,4.2,2.3
						c4.9,0.1,7.3-3.8,10.4-12.9c0.4-1.1,0.8-2.3,1.2-3.6c3-9.3,6.8-28.8,6.8-28.8s-6.6,1.5-10.6,5.4C18,7.1,16.2,12,15.1,15.5
						c-0.6,1.7-1,3.2-1.1,3.8c-0.1,0.2-0.1,0.3-0.1,0.3c-0.2-0.6-0.4-1.2-0.7-1.8c0,0,0,0,0,0c0,0,0,0,0,0c-0.9-1.6-1.9-3-3.1-4.3
						L8.6,8.1c0,0-0.5,1-2.8,1.3S0,6.8,0,6.8L0.7,13.4z"/>
				</g>
				<path id="Path_10976" class="st1" d="M16.3,26c0.4,1.9,0.3,3.8-0.5,5.6"/>
				<path id="Path_10977" class="st1" d="M13.8,19.6c1,1.6,1.7,3.4,2.2,5.3"/>
				<path id="Path_10978" class="st1" d="M17,21.9c-0.4-1.1-1.4-2-2.6-2.3"/>
				<path id="Path_10979" class="st1" d="M7.4,15c0.4-0.2,0.9-0.5,1.3-0.9"/>
				<path id="Path_10980" class="st1" d="M0.7,13.4c1.4,1.7,3.7,2.4,5.9,1.9"/>
				<path id="Path_10981" class="st8" d="M13.1,17.8C13.1,17.8,13.1,17.8,13.1,17.8C13.1,17.8,13.1,17.8,13.1,17.8L13.1,17.8z"/>
			</g>
			<g id="Group_5943" transform="translate(24.138 76.278)">
				<path id="Path_10982" class="st4" d="M39.1,61c0,0,0.8-6.6,1.3-8.7c2.3-9.7,10.4-32.1,9.1-38.8C48.1,6.7,40,0.7,26.7,0.1
					C14.5-0.6,4.4,3.8,2,8.8c-2.3,4.8-2.2,38.1-1.6,53.1H34C35.7,61.9,37.4,61.6,39.1,61z"/>
				<g>
					<defs>
						<path id="SVGID_00000040552077664307397060000004800808075186586253_" d="M39.1,61c0,0,0.8-6.6,1.3-8.7
							c2.3-9.7,10.4-32.1,9.1-38.8C48.1,6.7,40,0.7,26.7,0.1C14.5-0.6,4.4,3.8,2,8.8c-2.3,4.8-2.2,38.1-1.6,53.1H34
							C35.7,61.9,37.4,61.6,39.1,61z"/>
					</defs>
					<clipPath id="SVGID_00000121279177269713182350000007129369019635760820_">
						<use xlink:href="#SVGID_00000040552077664307397060000004800808075186586253_"  style="overflow:visible;"/>
					</clipPath>
					<g id="Group_5942" style="clip-path:url(#SVGID_00000121279177269713182350000007129369019635760820_);">
						<path id="Path_10983" class="st6" d="M36.4,21c-6.3,8.7-13.3,21.7-13.3,21.7L4.3,19.1c0,0,4.3,29.9,6.7,33.2s2.3,4.7,2.3,4.7
							s6,6.5,10.5,5.6c3.8-0.7,17.5-16,21.8-33.8L36.4,21z"/>
					</g>
				</g>
				<path id="Path_10985" class="st1" d="M39.1,61c0,0,0.8-6.6,1.3-8.7c2.3-9.7,10.4-32.1,9.1-38.8C48.1,6.7,40,0.7,26.7,0.1
					C14.5-0.6,4.4,3.8,2,8.8c-2.3,4.8-2.2,38.1-1.6,53.1H34C35.7,61.9,37.4,61.6,39.1,61z"/>
			</g>
			<g id="Group_5945" transform="translate(33.415 38.473)">
				<path id="Path_10986" class="st3" d="M22.8,39.2c-4.4,1.7-9.2,1.8-13.7,0.5c0.5-1.3,0.8-2.7,0.9-4.1c0.1-0.8-0.2-1.7-0.9-2.1
					c0,0,0.3-0.4,0.9-0.9l0,0c2.7-2.8,10.9-10.5,13.6-5.9C23.5,26.7,20.7,26.9,22.8,39.2z"/>
				<path id="Path_10987" class="st10" d="M15.4,30.7c-0.8,2.5-2.8,4.3-5.3,4.9c0.1-0.8-0.2-1.7-0.9-2.1c0,0,0.3-0.4,0.9-0.9l0,0
					C12.6,31.5,15.4,30.7,15.4,30.7z"/>
				<path id="Path_10988" class="st3" d="M25.4,20.2c2.8-11.3-3.3-15.1-7.1-16.6C12.1,1.2,4.4,3.9,2.5,10.2s-0.2,7.7-0.3,10.3
					c-0.1,1.8-1.3,2.7,0.1,7.2c0.9,3,2.5,6.4,4.4,6.5c5.1,0.3,9.9-2.6,9.6-4"/>
				<path id="Path_10989" class="st1" d="M9.4,14.7c1.4-0.4,2.9,0.3,3.5,1.7"/>
				<path id="Path_10990" class="st1" d="M1.7,14.3c1-0.8,2.5-0.6,3.2,0.4C5,14.8,5,14.8,5.1,14.9"/>
				<ellipse id="Ellipse_567" class="st10" cx="10.4" cy="19.4" rx="0.6" ry="0.9"/>
				<path id="Path_10991" class="st10" d="M3.4,18.9c0,0.5,0.3,0.9,0.6,0.9s0.6-0.4,0.6-0.9S4.3,18,3.9,18S3.4,18.4,3.4,18.9z"/>
				<path id="Path_10992" class="st3" d="M5.1,16.7c0.2,1,0.2,2.1,0.2,3.1c-0.2,0.5-1.9,2.1-2,2.8s1.5,1.4,1.5,1.4"/>
				<path id="Path_10993" class="st10" d="M3.9,25.6c2.1,0.5,4.4,0.5,6.5,0c0,0-1.4,4.4-4.2,3.9c-1.8-0.3-1.4-3.2-1.4-3.2L3.9,25.6z
					"/>
				<path id="Path_10994" class="st10" d="M13.7,8.3c-1-0.6-2.3-0.8-3.5-0.5c-2,0.5-2.3,4.7-2.3,4.7c-0.6-0.6-1.1-1.3-1.3-2.1
					l-0.6,1.8l-1.7-1.6l-0.6,1.9L3,11.2l-1.3,2.5c0,0-2-2.5-1.7-4.5c0.8-5.3,5-9.7,13.9-9.2c2.5,0,4.7,1.2,6.1,3.3
					c0,0,4.3-0.6,6.3,1.7c6.6,7.7,2.4,16-3.8,23.9l-2.1-7.5l-2.1-0.2c0-0.8,0.1-1.5,0-2.3c-0.1-1-0.4-2-0.8-2.9l-0.8,0.3l0.3-1.4
					l-1.7,0.9c0,0,0.7-5.9,0-6.9C15,8.2,14.2,8,13.7,8.3C13.7,8.3,13.7,8.3,13.7,8.3z"/>
				<path id="Path_10995" class="st3" d="M19,22.2c0,0,2.1-3.9,4.2-2.9s0.7,5.5-1.2,7s-3,0-3,0"/>
				<g id="Group_5944" transform="translate(1.92 1.784)" class="st11">
					<path id="Path_10996" class="st12" d="M13.6,5c-0.6-1.3-1.8-2.3-3.3-2.3C7.8,2.5,6,5.2,5.9,7.1"/>
					<path id="Path_10997" class="st12" d="M15.3,4.9c0,0,1.7-1.3,2.7,0c1.7,2.2,0.3,7.7,0.3,7.7"/>
					<path id="Path_10998" class="st12" d="M17.7,3.3c0,0,1.8-1.1,3.3,1s1.4,7.3,1.4,7.3"/>
					<path id="Path_10999" class="st12" d="M22.8,3c0,0,3.1,1.3,3.3,7.6"/>
					<path id="Path_11000" class="st12" d="M15.5,3.3c0,0-1.8-3-7-2s-6,6.3-6,6.3"/>
					<path id="Path_11001" class="st12" d="M16.8,2.4c0,0-2.1-2.9-8.5-2.3s-8.9,6.1-8.3,8.8"/>
				</g>
			</g>
			<g id="Group_5957" transform="translate(0 10.3)">
				<g id="Group_5953">
					<path id="Path_11002" class="st13" d="M0,69.6c0,0,7.6-5.8,10.9-6.4s14.7,1.9,14.7,1.9v13.5c0,0-7.1,0.8-10.3,3.1
						S1.1,84.4,1.1,84.4L0,69.6z"/>
					<path id="Path_11003" class="st3" d="M7.1,65.5c0.1-0.9,0.2-1.8,0.4-2.7c0.3-0.9,2.1-0.8,2.5-0.5c0.3,0.3,0.6,0.6,0.8,0.9
						c0,0-0.6,0.2-0.8,0.2S9.7,66.9,7.1,65.5z"/>
					<g id="Group_5947" transform="translate(9.232 44.936)">
						
							<rect id="Rectangle_3628" x="-2.4" y="7.1" transform="matrix(0.3261 -0.9453 0.9453 0.3261 -5.9129 17.3158)" class="st4" width="23.1" height="11.5"/>
						<g>
							<defs>
								
									<rect id="SVGID_00000054953437955662490110000006259705962417663370_" x="-2.4" y="7.1" transform="matrix(0.3261 -0.9453 0.9453 0.3261 -5.9129 17.3158)" width="23.1" height="11.5"/>
							</defs>
							<clipPath id="SVGID_00000161603652334023834230000002332965694060798374_">
								<use xlink:href="#SVGID_00000054953437955662490110000006259705962417663370_"  style="overflow:visible;"/>
							</clipPath>
							
								<g id="Group_5946" transform="translate(0 0)" style="clip-path:url(#SVGID_00000161603652334023834230000002332965694060798374_);">
								<path id="Path_11004" class="st15" d="M0,21.9l10.8,3.7l7.5-21.9L7.5,0L0,21.9z M17.2,4.3l-7,20.2l-9.1-3.2l7-20.2L17.2,4.3
									z"/>
								<path id="Path_11005" class="st15" d="M9.2,2.8L8.2,5.5C8.1,5.9,7.8,6,7.5,5.9c0,0,0,0,0,0l0,0C7.2,5.8,7,5.5,7.1,5.2
									l0.9-2.7C8.2,2.2,8.5,2,8.8,2.1c0,0,0,0,0,0l0,0C9.1,2.2,9.3,2.5,9.2,2.8z"/>
								<path id="Path_11006" class="st15" d="M11.3,20.4l-0.9,2.7c-0.1,0.3-0.4,0.5-0.7,0.4l0,0c-0.3-0.1-0.5-0.4-0.4-0.7
									c0,0,0,0,0,0l0.9-2.7c0.1-0.3,0.4-0.5,0.7-0.4l0,0C11.2,19.8,11.4,20.1,11.3,20.4C11.3,20.4,11.3,20.4,11.3,20.4z"/>
								<path id="Path_11007" class="st15" d="M5.8,11.6c-0.6,1.9,0.3,3.9,2.2,4.6c1.9,0.6,3.9-0.3,4.6-2.2s-0.3-3.9-2.2-4.6
									c0,0,0,0,0,0C8.5,8.8,6.4,9.8,5.8,11.6z M11.1,13.2l0.3,0.1l-0.2,0.5l-0.3-0.1c-0.2,0.4-0.7,0.5-1.1,0.3l-0.3-0.1l0.2-0.5
									l0.3,0.1c0.3,0.1,0.4,0,0.5-0.2s0-0.3-0.3-0.4s-0.5-0.1-0.9,0.2c-0.4,0.3-0.9,0.4-1.3,0.3c-0.5-0.2-0.7-0.5-0.7-0.9L7,12.3
									l0.2-0.5l0.3,0.1c0.2-0.4,0.7-0.5,1.1-0.3l0.1,0l-0.2,0.5l-0.2-0.1c-0.3-0.1-0.4,0-0.5,0.2s0,0.3,0.3,0.4
									c0.3,0.1,0.5,0,0.9-0.2c0.4-0.3,0.9-0.4,1.3-0.3C10.8,12.3,11.1,12.7,11.1,13.2z"/>
							</g>
						</g>
						
							<rect id="Rectangle_3630" x="-2.4" y="7.1" transform="matrix(0.3261 -0.9453 0.9453 0.3261 -5.9129 17.3158)" class="st1" width="23.1" height="11.5"/>
					</g>
					<g id="Group_5949" transform="translate(0.482 10.104)">
						
							<rect id="Rectangle_3631" x="2.8" y="1.1" transform="matrix(0.9664 -0.2569 0.2569 0.9664 -2.9646 2.6102)" class="st4" width="11.5" height="23.1"/>
						<g>
							<defs>
								
									<rect id="SVGID_00000140695461181796037420000002788723366369922998_" x="2.8" y="1.1" transform="matrix(0.9664 -0.2569 0.2569 0.9664 -2.9646 2.6102)" width="11.5" height="23.1"/>
							</defs>
							<clipPath id="SVGID_00000022540738160848067320000009883790103362990474_">
								<use xlink:href="#SVGID_00000140695461181796037420000002788723366369922998_"  style="overflow:visible;"/>
							</clipPath>
							
								<g id="Group_5948" transform="translate(0)" style="clip-path:url(#SVGID_00000022540738160848067320000009883790103362990474_);">
								<path id="Path_11008" class="st15" d="M11.1,0L0,2.9l5.9,22.4L17,22.4L11.1,0z M6.6,24.2L1.1,3.6l9.3-2.5l5.5,20.6L6.6,24.2
									z"/>
								<path id="Path_11009" class="st15" d="M14.1,20.9l-0.7-2.8c-0.1-0.3,0.1-0.6,0.4-0.7l0,0c0.3-0.1,0.6,0.1,0.7,0.4l0.7,2.8
									c0.1,0.3-0.1,0.6-0.4,0.7l0,0C14.5,21.4,14.2,21.2,14.1,20.9z"/>
								<path id="Path_11010" class="st15" d="M2.5,7.5L1.8,4.7C1.7,4.4,1.9,4.1,2.2,4l0,0c0.3-0.1,0.6,0.1,0.7,0.4c0,0,0,0,0,0
									l0.7,2.8c0.1,0.3-0.1,0.6-0.4,0.7l0,0C2.9,8,2.6,7.8,2.5,7.5C2.5,7.5,2.5,7.5,2.5,7.5z"/>
								<path id="Path_11011" class="st15" d="M12,11.7c-0.5-1.9-2.5-3.1-4.4-2.5S4.5,11.7,5,13.6c0.5,1.9,2.5,3.1,4.4,2.5
									C11.3,15.6,12.5,13.6,12,11.7C12,11.7,12,11.7,12,11.7z M6.7,13.4l-0.3,0.1L6.3,13l0.3-0.1c0-0.4,0.2-0.7,0.8-0.9l0.3-0.1
									l0.1,0.6l-0.3,0.1c-0.3,0.1-0.3,0.2-0.3,0.4s0.2,0.3,0.4,0.2s0.4-0.2,0.6-0.7c0.3-0.6,0.5-0.8,0.9-0.9
									c0.4-0.2,0.9,0,1.1,0.4l0.3-0.1l0.1,0.5l-0.3,0.1c0,0.4-0.2,0.7-0.7,0.9l-0.1,0l-0.1-0.6l0.2,0c0.3-0.1,0.3-0.2,0.3-0.4
									S9.7,12,9.4,12.1S9,12.3,8.8,12.8c-0.3,0.6-0.5,0.8-0.9,0.9C7.4,13.9,6.9,13.8,6.7,13.4L6.7,13.4z"/>
							</g>
						</g>
						
							<rect id="Rectangle_3633" x="2.8" y="1.1" transform="matrix(0.9664 -0.2569 0.2569 0.9664 -2.9646 2.6102)" class="st1" width="11.5" height="23.1"/>
					</g>
					<path id="Path_11012" class="st17" d="M0,69.6c0,0,11-3.7,13.9-4.2s11.6-0.3,11.6-0.3v13.4c0,0-9,2.7-10.4,3.8s-14.1,2-14.1,2
						L0,69.6z"/>
					<path id="Path_11013" class="st1" d="M15,71.2c-0.6,3.1-0.2,7.3-2.2,9.8"/>
					<path id="Path_11014" class="st1" d="M15.9,66.5c-0.2,1-0.4,2-0.6,3.1"/>
					<g id="Group_5950" transform="translate(21.958 19.442)">
						<path id="Path_11015" class="st18" d="M4.9,2.5c0,1.4-1.1,2.5-2.5,2.5S0,3.8,0,2.5C0,1.1,1.1,0,2.5,0l0,0
							C3.8,0,4.9,1.1,4.9,2.5z"/>
						<path id="Path_11016" class="st15" d="M3.8,4C4.7,3.2,4.8,1.9,4,1.1C3.2,0.2,1.9,0.2,1.1,0.9C0.2,1.7,0.2,3,0.9,3.8
							C1.7,4.7,3,4.8,3.8,4z M1.6,1.7L1.5,1.6l0.2-0.2l0.1,0.1c0.2-0.1,0.5-0.1,0.6,0.2l0.1,0.1L2.3,2L2.2,1.9
							C2.1,1.8,2,1.8,1.9,1.9S1.8,2,2,2.2s0.2,0.2,0.5,0.1c0.3-0.1,0.5,0,0.7,0.2C3.4,2.7,3.4,3,3.3,3.2l0.1,0.1L3.2,3.5L3.1,3.4
							C2.9,3.5,2.6,3.4,2.4,3.2l0-0.1l0.2-0.2L2.7,3c0.1,0.1,0.2,0.1,0.3,0s0.1-0.2,0-0.3S2.7,2.6,2.4,2.6c-0.3,0.1-0.5,0-0.7-0.2
							C1.5,2.2,1.5,1.9,1.6,1.7L1.6,1.7z"/>
					</g>
					<g id="Group_5951" transform="translate(10.305)">
						<path id="Path_11017" class="st18" d="M4.9,2.5c0,1.4-1.1,2.5-2.5,2.5C1.1,4.9,0,3.8,0,2.5S1.1,0,2.5,0l0,0
							C3.8,0,4.9,1.1,4.9,2.5z"/>
						<path id="Path_11018" class="st15" d="M3.8,4C4.7,3.2,4.8,1.9,4,1.1S1.9,0.2,1.1,0.9C0.2,1.7,0.2,3,0.9,3.8
							C1.7,4.7,3,4.8,3.8,4z M1.6,1.7L1.5,1.6l0.2-0.2l0.1,0.1c0.2-0.1,0.5-0.1,0.6,0.2l0.1,0.1L2.3,2L2.2,1.9
							C2.1,1.8,2,1.8,1.9,1.9C1.9,1.9,1.8,2,2,2.2c0.1,0.1,0.2,0.2,0.5,0.1c0.3-0.1,0.5,0,0.7,0.2C3.4,2.7,3.4,3,3.3,3.2l0.1,0.1
							L3.2,3.5L3.1,3.4C2.9,3.5,2.6,3.4,2.4,3.2l0-0.1l0.2-0.2L2.7,3c0.1,0.1,0.2,0.1,0.3,0s0.1-0.2,0-0.3S2.7,2.6,2.4,2.6
							c-0.3,0.1-0.5,0-0.7-0.2C1.5,2.2,1.5,2,1.6,1.7L1.6,1.7z"/>
					</g>
					<g id="Group_5952" transform="translate(1.929 45.152)">
						<path id="Path_11019" class="st18" d="M1.9,4.9c-1.3-0.3-2.1-1.7-1.8-3c0.3-1.3,1.7-2.1,3-1.8s2.1,1.7,1.8,3c0,0,0,0,0,0
							C4.5,4.4,3.2,5.2,1.9,4.9z"/>
						<path id="Path_11020" class="st15" d="M0.6,3.4c0.5,1,1.8,1.4,2.8,0.8s1.4-1.8,0.8-2.8c-0.5-1-1.8-1.4-2.8-0.8c0,0,0,0,0,0
							C0.5,1.2,0.1,2.4,0.6,3.4C0.6,3.4,0.6,3.4,0.6,3.4z M3.4,1.8l0.1-0.1L3.6,2L3.5,2.1c0.1,0.2-0.1,0.5-0.3,0.6L3.1,2.7L2.9,2.4
							l0.2-0.1c0.1-0.1,0.2-0.2,0.1-0.3S3,2,2.9,2C2.7,2.1,2.7,2.2,2.6,2.5c0,0.3-0.2,0.5-0.4,0.7C2,3.3,1.7,3.3,1.6,3.1L1.4,3.2
							L1.3,2.9l0.1-0.1C1.4,2.6,1.5,2.3,1.7,2.3l0.1,0L2,2.5l-0.1,0C1.7,2.6,1.7,2.7,1.8,2.8S1.9,2.9,2,2.9s0.2-0.2,0.3-0.5
							c0-0.3,0.2-0.5,0.4-0.6C2.9,1.6,3.2,1.6,3.4,1.8L3.4,1.8z"/>
					</g>
				</g>
				<g id="Group_5955" transform="translate(26.216 71.331)">
					<path id="Path_11021" class="st4" d="M7.1,0.5C6.5-0.6,4.7,0,2.6,3.2s-2.9,7.1-2.4,8.5s7.3,3.1,7.3,3.1l1.4-3.5L7.1,0.5z"/>
					<g>
						<defs>
							<path id="SVGID_00000049910368190276508590000002655603068713893054_" d="M7.1,0.5C6.5-0.6,4.7,0,2.6,3.2s-2.9,7.1-2.4,8.5
								s7.3,3.1,7.3,3.1l1.4-3.5L7.1,0.5z"/>
						</defs>
						<clipPath id="SVGID_00000095325372905276346010000005126669499354363806_">
							<use xlink:href="#SVGID_00000049910368190276508590000002655603068713893054_"  style="overflow:visible;"/>
						</clipPath>
						<g id="Group_5954" style="clip-path:url(#SVGID_00000095325372905276346010000005126669499354363806_);">
							<path id="Path_11022" class="st15" d="M7.1,0.5C6.5-0.6,4.7,0,2.6,3.2s-2.9,7.1-2.4,8.5s7.3,3.1,7.3,3.1l1.4-3.5L7.1,0.5z"/>
						</g>
					</g>
					<path id="Path_11024" class="st1" d="M7.1,0.5C6.5-0.6,4.7,0,2.6,3.2s-2.9,7.1-2.4,8.5s7.3,3.1,7.3,3.1l1.4-3.5L7.1,0.5z"/>
				</g>
				<g id="Group_5956" transform="translate(10.325 62.815)">
					<path id="Path_11025" class="st3" d="M25.8,15.9L22,7.4c-1.1-1.6-2.1-3.3-3-5C18.4,1.1,12.9,0,11.6,0S9,2.2,9,2.2h2.6
						c0.5,0.5,0.8,1,1.1,1.6c0.1,0.6-3.5,3.7-4,3.9C7.6,8.3,6.5,8.9,5.5,9.6c-1.4,1.1-4.6,1.9-5.2,2.8s-0.2,1.1,0.3,1.3
						C0.9,13.9,1.3,14,1.7,14c-0.1,0.5-0.1,1.1,0,1.6c0.3,0.6,1.7,0.5,1.7,0.5c0,0.4,0.4,0.8,0.8,0.9c0.4,0.1,0.9,0.2,1.3,0.3
						c1.5,0.3,3,0.3,4.5,0.2c1.4-0.3,5.6-2.5,6.6-2.4s3.9,6.7,3.9,6.7C23.3,21.3,25.5,18.9,25.8,15.9z"/>
					<path id="Path_11026" class="st1" d="M1.7,14c1.5-0.3,2.9-0.7,4.3-1.2C7,12.4,8,12,9,11.7"/>
					<path id="Path_11027" class="st1" d="M3.4,16.2c0,0,2.3-0.5,3-0.6c1.4-0.4,2.7-1,4-1.6"/>
					<path id="Path_11028" class="st1" d="M5.5,17.4c1.3-0.1,2.6-0.3,3.8-0.6c0.7-0.3,2.6-0.9,2.6-0.9"/>
				</g>
				<path id="Path_11029" class="st8" d="M62.8,75c-4.7,3.1-7.6,10.6-7.6,10.6l-7.4,13.7c0,0-6.2-15.2-7.9-15.4l-6.6-12
					c0,0,0.8,7-2,10s-5,1.2-5,1.2l2.1,5.7l0.5,2.7c0,0,8.7,26,11.5,27.6s9.3,2.3,14.8-1.7S70,98.3,70.9,93.3"/>
				<path id="Path_11030" class="st1" d="M37.2,85.7c0.2-0.4,0.5-0.7,0.7-1.1"/>
				<path id="Path_11031" class="st1" d="M31.7,89.2c1.9-0.2,3.6-1.2,4.9-2.6"/>
				<path id="Path_11032" class="st1" d="M28.4,88.7c0.7,0.3,1.5,0.5,2.3,0.5"/>
				<path id="Path_11033" class="st1" d="M49.8,105.3c0,0.6,0,1.3-0.1,1.9"/>
				<path id="Path_11034" class="st1" d="M47.8,99.3c0.9,1.5,1.5,3.2,1.8,4.9"/>
				<path id="Path_11035" class="st1" d="M51.9,101.7c-0.8-1-1.8-1.8-2.9-2.5"/>
				<path id="Path_11036" class="st1" d="M63.5,81.9c-2.8-0.2-5.6,1-7.4,3.2"/>
				<path id="Path_11037" class="st1" d="M67.9,93.5c-0.8,0.1-1.6,0-2.3-0.4"/>
				<path id="Path_11038" class="st1" d="M72.9,87.9c-0.7,3.1-2.4,4.7-3.9,5.3"/>
			</g>
			<path id="Path_11039" class="st1" d="M53.4,80.4c0,0-6.9,1.6-10.7-1"/>
			<path id="Path_11040" class="st1" d="M28.7,122.4c0,0,3.7,10.6,12.4,12.4"/>
			<path id="Path_11041" class="st1" d="M53.8,137c-0.4,0.3-0.9,0.6-1.4,0.9"/>
			<g id="Group_5961" transform="translate(4.232)">
				<g id="Group_5958">
					<line id="Line_154" class="st1" x1="1.8" y1="9" x2="1.8" y2="18.3"/>
					<line id="Line_155" class="st1" x1="1.8" y1="3.5" x2="1.8" y2="7.2"/>
					<line id="Line_156" class="st1" x1="1.8" y1="0" x2="1.8" y2="2"/>
					<path id="Path_11042" class="st1" d="M0,17.3l1.8,2.2l1.8-2.2"/>
				</g>
				<g id="Group_5959" transform="translate(4.645 46.527)">
					<line id="Line_157" class="st1" x1="1.8" y1="9" x2="1.8" y2="18.3"/>
					<line id="Line_158" class="st1" x1="1.8" y1="3.5" x2="1.8" y2="7.2"/>
					<line id="Line_159" class="st1" x1="1.8" y1="0" x2="1.8" y2="2"/>
					<path id="Path_11043" class="st1" d="M0,17.3l1.8,2.2l1.8-2.2"/>
				</g>
				<g id="Group_5960" transform="translate(13.823 18.563)">
					<line id="Line_160" class="st1" x1="1.8" y1="9" x2="1.8" y2="18.3"/>
					<line id="Line_161" class="st1" x1="1.8" y1="3.5" x2="1.8" y2="7.2"/>
					<line id="Line_162" class="st1" x1="1.8" y1="0" x2="1.8" y2="2"/>
					<path id="Path_11044" class="st1" d="M0,17.3l1.8,2.2l1.8-2.2"/>
				</g>
			</g>
		</g>
	</g>
	<g id="Hand" transform="translate(49.032 79.267)">
		<g id="Group_5981" transform="translate(0 0)">
			<g id="Group_5964" transform="translate(32.312 59.109)">
				<path id="Path_11045" class="st20" d="M6.2,32.4C6.1,38.2,9,37.8,9,37.8c0.3-0.7,0.7-1.3,1.1-1.9c1.5-2.3,3.8-5.6,3-7.5
					c-0.6-1.2-1.2-2.3-1.9-3.3c-1.5-2.4-3.3-4.8-3.3-4.8l7.7-1.3c3.1,1.3,6.4,2.1,9.8,2.5c0.1,0,0.2,0,0.3,0c4,0.1,3.3-3,3.3-4
					c0-0.4-1.1-1.2-2.3-2c-1.8-1.1-3.9-2.2-3.9-2.2l1.2-2.4c0.7,0.1,1.4,0.2,2,0.1c3-0.3,2.6-3.3,2.1-4.6c-0.5-0.7-1.1-1.2-1.8-1.6
					c-2.9-1.8-5.9-3.4-9-4.9H8.5L0,23.3C0,23.3,6.4,26.6,6.2,32.4z"/>
				<path id="Path_11046" class="st21" d="M6.2,32.4C6.1,38.2,9,37.8,9,37.8c0.3-0.7,0.7-1.3,1.1-1.9c1.5-2.3,3.8-5.6,3-7.5
					c-0.6-1.2-1.2-2.3-1.9-3.3c-1.5-2.4-3.3-4.8-3.3-4.8l7.7-1.3c3.1,1.3,6.4,2.1,9.8,2.5c0.1,0,0.2,0,0.3,0c4,0.1,3.3-3,3.3-4
					c0-0.4-1.1-1.2-2.3-2c-1.8-1.1-3.9-2.2-3.9-2.2l1.2-2.4c0.7,0.1,1.4,0.2,2,0.1c3-0.3,2.6-3.3,2.1-4.6c-0.5-0.7-1.1-1.2-1.8-1.6
					c-2.9-1.8-5.9-3.4-9-4.9H8.5L0,23.3C0,23.3,6.4,26.6,6.2,32.4z"/>
				<path id="Path_11047" class="st21" d="M6.2,32.4C6.1,38.2,9,37.8,9,37.8c0.3-0.7,0.7-1.3,1.1-1.9c-0.1-0.6-0.2-1.1-0.2-1.7
					c0-2,1.7-5.8,1.7-5.8l-1.7-2.6c0.3-0.3,0.7-0.5,1.2-0.7c-1.5-2.4-3.3-4.8-3.3-4.8l7.7-1.3c3.1,1.3,6.4,2.1,9.8,2.5
					c0.1,0,0.2,0,0.3,0c-0.1-2,0.3-4.1,1-6c-1.8-1.1-3.9-2.2-3.9-2.2l1.2-2.4c0.7,0.1,1.4,0.2,2,0.1c-0.3-2-0.2-4.1,0.3-6.1
					c-2.9-1.8-5.9-3.4-9-4.9H8.5L0,23.3C0,23.3,6.4,26.6,6.2,32.4z"/>
				<g id="Group_5963" transform="translate(0.002)">
					<path id="Path_11048" class="st1" d="M8.5,0h8.7c0,0,10.2,4.9,10.8,6.4s1,5.4-4.1,4.5l-1.2,2.4c0,0,6.3,3.1,6.3,4.1
						s0.7,4.3-3.7,4c-3.4-0.4-6.7-1.2-9.8-2.5l-7.7,1.3c0,0,4.1,5.5,5.3,8.1s-3.3,7.5-4,9.4c0,0-2.9,0.5-2.7-5.4S0,23.3,0,23.3"/>
					<path id="Path_11049" class="st1" d="M10.6,27.3C9.4,26.6,8,27,7.3,28.1c0,0.1-0.1,0.1-0.1,0.2"/>
				</g>
			</g>
			<g id="Group_5976" transform="translate(22.351)">
				<path id="Rectangle_3634" class="st8" d="M3,0h45.2c1.7,0,3,1.3,3,3v82.8c0,1.7-1.3,3-3,3H3c-1.7,0-3-1.3-3-3V3C0,1.3,1.3,0,3,0
					z"/>
				<path id="Path_11050" class="st10" d="M49.6,3.6v81.8c0,1-0.8,1.9-1.9,1.9H3.4c-1,0-1.9-0.8-1.9-1.9V3.6c0-1,0.8-1.9,1.9-1.9
					h9.8c0.6,0,1.2,0.4,1.5,1l0.4,1.1c0.2,0.6,0.8,1,1.5,1h18c0.6,0,1.2-0.4,1.5-1l0.4-1.1c0.2-0.6,0.8-1,1.5-1h9.9
					C48.8,1.8,49.6,2.6,49.6,3.6z"/>
				<path id="Path_11051" class="st8" d="M32.1,67h-13c-2.4,0-4.4-2-4.4-4.4l0,0c0-2.4,2-4.4,4.4-4.4h13c2.4,0,4.4,2,4.4,4.4l0,0
					C36.5,65.1,34.5,67,32.1,67z"/>
				<g id="Group_5965" transform="translate(19.838 1.907)">
					<path id="Path_11052" class="st3" d="M1.5,0.8c0,0.4-0.3,0.8-0.8,0.8S0,1.2,0,0.8S0.3,0,0.8,0c0,0,0,0,0,0
						C1.2,0,1.5,0.3,1.5,0.8z"/>
					<path id="Path_11053" class="st3" d="M11.5,0.8c0,0.3-0.2,0.5-0.5,0.5c-0.3,0-0.5-0.2-0.5-0.5c0-0.3,0.2-0.5,0.5-0.5
						c0,0,0,0,0,0C11.3,0.3,11.5,0.5,11.5,0.8z"/>
					<path id="Path_11054" class="st3" d="M8.8,1H3.1C2.9,1,2.8,0.9,2.8,0.8l0,0c0-0.1,0.1-0.3,0.3-0.3h5.7c0.1,0,0.3,0.1,0.3,0.3
						l0,0C9.1,0.9,9,1,8.8,1C8.8,1,8.8,1,8.8,1z"/>
				</g>
				<path id="Rectangle_3635" class="st3" d="M16.4,9.5h18.3c6.9,0,12.5,5.6,12.5,12.5v19.2c0,6.9-5.6,12.5-12.5,12.5H16.4
					C9.5,53.7,4,48.1,4,41.3V22C4,15.1,9.5,9.5,16.4,9.5z"/>
				<g id="Group_5971" transform="translate(17.26 13.898)">
					<g id="Group_5969" transform="translate(2.726)">
						<g id="Group_5966" transform="translate(0 6.924)">
							<line id="Line_163" class="st1" x1="1.3" y1="7.4" x2="1.3" y2="0.8"/>
							<line id="Line_164" class="st1" x1="1.3" y1="11.4" x2="1.3" y2="8.7"/>
							<line id="Line_165" class="st1" x1="1.3" y1="13.9" x2="1.3" y2="12.5"/>
							<path id="Path_11055" class="st1" d="M2.5,1.6L1.3,0L0,1.6"/>
						</g>
						<g id="Group_5967" transform="translate(8.739 4.461)">
							<line id="Line_166" class="st1" x1="1.3" y1="7.4" x2="1.3" y2="0.8"/>
							<line id="Line_167" class="st1" x1="1.3" y1="11.4" x2="1.3" y2="8.7"/>
							<line id="Line_168" class="st1" x1="1.3" y1="13.9" x2="1.3" y2="12.5"/>
							<path id="Path_11056" class="st1" d="M2.5,1.6L1.3,0L0,1.6"/>
						</g>
						<g id="Group_5968" transform="translate(4.17)">
							<line id="Line_169" class="st1" x1="1.3" y1="7.4" x2="1.3" y2="0.8"/>
							<line id="Line_170" class="st1" x1="1.3" y1="11.4" x2="1.3" y2="8.7"/>
							<line id="Line_171" class="st1" x1="1.3" y1="13.9" x2="1.3" y2="12.5"/>
							<path id="Path_11057" class="st1" d="M2.5,1.6L1.3,0L0,1.6"/>
						</g>
					</g>
					<circle id="Ellipse_568" class="st22" cx="8.4" cy="16.7" r="7"/>
					<g id="Group_5970" transform="translate(6.587 12.496)">
						<path id="Path_11058" class="st10" d="M1.3,0.6V0h1v0.6c0.8,0.2,1.4,1,1.3,1.8v0.2H2.4V2.3c0-0.5-0.2-0.7-0.6-0.7
							S1.2,1.8,1.2,2.3s0.2,0.9,1,1.5C3,4.3,3.5,5.2,3.5,6.1C3.7,7,3.1,7.8,2.2,7.9v0.5h-1V7.9C0.4,7.8-0.1,7,0,6.1V5.6h1.1v0.6
							c0,0.5,0.2,0.7,0.6,0.7s0.6-0.2,0.6-0.7s-0.2-0.9-1-1.5C0.5,4.2,0.1,3.3,0,2.4C-0.1,1.6,0.5,0.8,1.3,0.6z"/>
					</g>
				</g>
				<g id="Group_5972" transform="translate(19.71 41.65)">
					<path id="Path_11059" class="st10" d="M0.5,0.2V0h0.4v0.2c0.3,0.1,0.5,0.4,0.5,0.7V1H0.9V0.9c0-0.2-0.1-0.3-0.2-0.3
						S0.5,0.7,0.5,0.9s0.1,0.3,0.4,0.6C1.1,1.7,1.3,2,1.3,2.3c0,0.3-0.2,0.6-0.5,0.7v0.2H0.5V3C0.2,2.9,0,2.6,0,2.3V2.1h0.4v0.2
						c0,0.2,0.1,0.3,0.2,0.3s0.2-0.1,0.2-0.3S0.8,2,0.5,1.7C0.2,1.6,0,1.3,0,0.9C0,0.6,0.2,0.3,0.5,0.2z"/>
					<path id="Path_11060" class="st10" d="M1.9,0.5c0.2,0,0.5-0.1,0.5-0.4h0.3V3H2.3V0.9H1.9L1.9,0.5z"/>
					<path id="Path_11061" class="st10" d="M3.2,0.9c0-0.4,0.3-0.7,0.7-0.7c0.4,0,0.7,0.3,0.7,0.7c0,0,0,0,0,0.1v1.5
						c0,0.4-0.3,0.7-0.7,0.7c-0.4,0-0.7-0.3-0.7-0.7c0,0,0,0,0-0.1V0.9z M3.7,2.4c0,0.2,0.1,0.3,0.2,0.3s0.2-0.1,0.2-0.3V0.8
						c0-0.2-0.1-0.3-0.2-0.3S3.7,0.6,3.7,0.8V2.4z"/>
					<path id="Path_11062" class="st10" d="M4.8,0.9c0-0.4,0.3-0.7,0.7-0.7c0.4,0,0.7,0.3,0.7,0.7c0,0,0,0,0,0.1v1.5
						c0,0.4-0.3,0.7-0.7,0.7c-0.4,0-0.7-0.3-0.7-0.7c0,0,0,0,0-0.1V0.9z M5.3,2.4c0,0.2,0.1,0.3,0.2,0.3s0.2-0.1,0.2-0.3V0.8
						c0-0.2-0.1-0.3-0.2-0.3S5.3,0.6,5.3,0.8V2.4z"/>
					<path id="Path_11063" class="st10" d="M6.5,0.9c0-0.4,0.3-0.7,0.7-0.7c0.4,0,0.7,0.3,0.7,0.7c0,0,0,0,0,0.1v1.5
						c0,0.4-0.3,0.7-0.7,0.7c-0.4,0-0.7-0.3-0.7-0.7c0,0,0,0,0-0.1V0.9z M6.9,2.4c0,0.2,0.1,0.3,0.2,0.3s0.2-0.1,0.2-0.3V0.8
						c0-0.2-0.1-0.3-0.2-0.3S6.9,0.6,6.9,0.8V2.4z"/>
					<path id="Path_11064" class="st10" d="M8.5,2.6V3H8.1V2.6H8.5z"/>
					<path id="Path_11065" class="st10" d="M8.8,0.9c0-0.4,0.3-0.7,0.7-0.7c0.4,0,0.7,0.3,0.7,0.7c0,0,0,0,0,0.1v1.5
						c0,0.4-0.3,0.7-0.7,0.7c-0.4,0-0.7-0.3-0.7-0.7c0,0,0,0,0-0.1V0.9z M9.3,2.4c0,0.2,0.1,0.3,0.2,0.3s0.2-0.1,0.2-0.3V0.8
						c0-0.2-0.1-0.3-0.2-0.3S9.3,0.6,9.3,0.8V2.4z"/>
					<path id="Path_11066" class="st10" d="M10.4,0.9c0-0.4,0.3-0.7,0.7-0.7c0.4,0,0.7,0.3,0.7,0.7c0,0,0,0,0,0.1v1.5
						c0,0.4-0.3,0.7-0.7,0.7c-0.4,0-0.7-0.3-0.7-0.7c0,0,0,0,0-0.1V0.9z M10.9,2.4c0,0.2,0.1,0.3,0.2,0.3s0.2-0.1,0.2-0.3V0.8
						c0-0.2-0.1-0.3-0.2-0.3s-0.2,0.1-0.2,0.3V2.4z"/>
				</g>
				<g id="Group_5973" transform="translate(17.726 47.299)">
					<path id="Path_11067" class="st10" d="M0,0h0.4v2.9H0V0z"/>
					<path id="Path_11068" class="st10" d="M0.8,0h0.7c0.4,0,0.7,0.2,0.7,0.7v1.4c0,0.5-0.2,0.7-0.7,0.7H0.8V0z M1.2,0.4v2h0.3
						c0.1,0,0.2-0.1,0.2-0.3V0.7c0-0.2-0.1-0.3-0.2-0.3H1.2z"/>
					<path id="Path_11069" class="st10" d="M2.8,2.5v0.4H2.4V2.5H2.8z"/>
					<path id="Path_11070" class="st10" d="M3.8,0.4c-0.1,0-0.2,0.1-0.2,0.3V1H3.2V0.7C3.2,0.3,3.4,0,3.8,0s0.7,0.3,0.7,0.7
						c0,0.4-0.2,0.8-0.6,1.1C3.7,2.1,3.6,2.3,3.6,2.4c0,0,0,0,0,0.1h0.8v0.4H3.2V2.5c0-0.4,0.2-0.7,0.4-0.9C3.9,1.4,4,1.1,4,0.7
						C4,0.5,4,0.4,3.8,0.4z"/>
					<path id="Path_11071" class="st10" d="M5.1,0.4c0.2,0,0.5-0.1,0.5-0.4h0.3v2.9H5.4V0.7H5.1L5.1,0.4z"/>
					<path id="Path_11072" class="st10" d="M7,2.9C6.7,3,6.4,2.7,6.3,2.3c0,0,0-0.1,0-0.1V2c0-0.2,0.1-0.5,0.3-0.6v0
						C6.4,1.3,6.3,1,6.3,0.8V0.7C6.3,0.3,6.6,0,7,0c0.4,0,0.7,0.3,0.7,0.7c0,0,0,0,0,0v0.1c0,0.2-0.1,0.5-0.3,0.6v0
						C7.7,1.5,7.8,1.7,7.7,2v0.2c0,0.4-0.2,0.7-0.6,0.7C7.1,2.9,7.1,2.9,7,2.9z M6.8,0.9c0,0.2,0.1,0.3,0.3,0.3s0.3-0.1,0.3-0.3V0.7
						c0-0.3-0.1-0.3-0.3-0.3S6.8,0.5,6.8,0.7V0.9z M7,2.5c0.1,0,0.2-0.1,0.3-0.3V1.9c0-0.2-0.1-0.3-0.3-0.3S6.8,1.7,6.8,1.9v0.3
						C6.8,2.4,6.9,2.5,7,2.5L7,2.5z"/>
					<path id="Path_11073" class="st10" d="M8.3,0.4c0.2,0,0.5-0.1,0.5-0.4h0.3v2.9H8.6V0.7H8.3L8.3,0.4z"/>
					<path id="Path_11074" class="st10" d="M10.9,2.2c0,0.5-0.2,0.7-0.7,0.7c-0.4,0-0.7-0.3-0.7-0.7V2.1H10v0.1
						c0,0.2,0.1,0.3,0.2,0.3c0.2,0,0.2-0.1,0.2-0.4V1.6h0c-0.1,0.2-0.2,0.3-0.4,0.2c-0.3,0-0.5-0.2-0.5-0.7V0.7
						C9.6,0.3,9.8,0,10.2,0c0.4,0,0.7,0.3,0.7,0.6c0,0,0,0,0,0.1L10.9,2.2z M10.5,1.2V0.7c0-0.2-0.1-0.3-0.2-0.3S10,0.5,10,0.7v0.5
						c0,0.2,0.1,0.3,0.2,0.3S10.5,1.4,10.5,1.2L10.5,1.2z"/>
					<path id="Path_11075" class="st10" d="M11.6,2v0.3c0,0.2,0.1,0.3,0.2,0.3s0.2-0.1,0.2-0.3V1.6c0-0.2-0.1-0.3-0.2-0.3
						s-0.2,0.1-0.2,0.3v0.1h-0.4L11.3,0h1.2v0.4h-0.8l0,0.7h0c0.1-0.1,0.2-0.2,0.4-0.2c0.3,0,0.5,0.2,0.5,0.7v0.6
						c0,0.5-0.2,0.7-0.7,0.7s-0.7-0.3-0.7-0.7V2L11.6,2z"/>
					<path id="Path_11076" class="st10" d="M12.8,0.7c0-0.5,0.2-0.7,0.7-0.7c0.4,0,0.7,0.3,0.7,0.7v0.1h-0.4V0.7
						c0-0.2-0.1-0.3-0.2-0.3c-0.2,0-0.2,0.1-0.2,0.4v0.5h0C13.4,1.1,13.5,1,13.7,1c0.3,0,0.5,0.2,0.5,0.7v0.5c0,0.4-0.3,0.7-0.6,0.7
						c-0.4,0-0.7-0.3-0.7-0.6c0,0,0,0,0-0.1L12.8,0.7z M13.3,1.7v0.5c0,0.2,0.1,0.3,0.2,0.3s0.2-0.1,0.2-0.3V1.7
						c0-0.2-0.1-0.3-0.2-0.3S13.3,1.5,13.3,1.7z"/>
					<path id="Path_11077" class="st10" d="M15.8,0v0.4l-0.7,2.5h-0.4l0.7-2.4h-0.9V0H15.8z"/>
				</g>
				<g id="Group_5974" transform="translate(25.041 45.393)">
					<path id="Path_11078" class="st10" d="M0,0h0.5v0.2H0.3v0.9H0.2V0.2H0V0z"/>
					<path id="Path_11079" class="st10" d="M0.6,0.3C0.6,0.1,0.7,0,0.8,0C1,0,1.1,0.1,1.1,0.3v0.6C1.1,1,1,1.1,0.8,1.1
						C0.7,1.1,0.6,1,0.6,0.8V0.3z M0.8,0.8c0,0.1,0,0.1,0.1,0.1s0.1,0,0.1-0.1V0.3c0-0.1,0-0.1-0.1-0.1s-0.1,0-0.1,0.1V0.8z"/>
				</g>
			</g>
			<path id="Path_11084" class="st1" d="M18.5,51.9c1.7,0.6,3.1,1.8,3.9,3.4"/>
			<g id="Group_5979" transform="translate(5.366 48.616)">
				<path id="Path_11085" class="st20" d="M0,82.8C0.3,77.3,0.5,71.6,0.8,67c0.6-9.5,1-15.9,1.9-22.4s0.7-16.3,1.2-19.7
					s1.7-4.2,2.7-8.2S8.5,4.4,10.2,3.3C12.4,2,14.7,0.9,17,0v23c3,4.7,6.6,5.8,6.6,5.8c2.3-6.7,2-9.3,4.3-11.8s4-5.7,7.6-4.3
					c1.7,0.6,2.7,1.3,1.8,7.1s-2.6,7.7-2.6,7.7c-0.2,3.6,0.1,7.3,0.9,10.8c0.7,3-2,10.9-3.3,15.9s-8.2,15.3-8.2,15.3
					c-0.2,3.9-0.1,7.7,0.3,11.6c0.1,0.5,0.1,1.1,0.2,1.7L25,98.6L0,98.1L0,82.8z"/>
				<g id="Group_5977" transform="translate(0.177)">
					<path id="Path_11086" class="st21" d="M36.7,14.4c-0.1-0.3-0.1-0.7,0-1c-0.4-0.3-0.8-0.5-1.3-0.7c-3.6-1.3-5.3,1.9-7.6,4.3
						c-0.2,0.2-0.4,0.5-0.6,0.7c2.1-0.8,4.8-0.8,5.9,0.8C34.5,20.4,37.3,16.9,36.7,14.4z"/>
					<path id="Path_11087" class="st21" d="M21,77.2l-1.1,4.3c1.5-1.7,2.9-3.5,4-5.4c-0.1-3.7,0-6.5,0-6.5s6.9-10.2,8.2-15.3
						s4-13,3.3-15.9c-0.8-3.5-1-7.2-0.9-10.8c0.3-0.4,0.6-0.9,0.8-1.4c-0.3-0.3-0.7-0.5-1.1-0.6c-1.2,3.2-1.7,6.7-1.4,10.2
						c0.4,5.8-0.5,6.3-2.5,13.8s-5.1,16-6.6,17.5S21.7,75.4,21,77.2z"/>
					<path id="Path_11088" class="st21" d="M18.2,26.6c-1.1,0.2-2.2,0.5-3.2,0.9c0,0,4.4,1.2,4.7,2.4s1.2,2.5,2.9,1
						c0,0,0.1-0.9,0.3-2.3c-2.6-1.3-4.7-3.2-6.2-5.6V0c0,0-2.5,1.1-4.6,2.1c1.5,0.2,3.1,0.7,3.7,1.7c-0.4,1.3-1.4,2.3-2.6,2.9
						c-1.6,0.7,0,13.1,0,13.1c-1.6,0.4-2.9,1.6-3.6,3.2c0,0,4.4,0.5,6.3,1.9S18.2,26.6,18.2,26.6z"/>
					<path id="Path_11089" class="st21" d="M0.6,67C0.4,70.7,0.2,75.1,0,79.6C0.6,71,2.3,56.3,2.3,56.3s1.5,5.5,1.7,4.9
						c0.3-1.7-0.7-11.4-0.6-14.8c0-1.6-0.1-5.6-0.2-9.5c-0.1,2.7-0.3,5.4-0.6,7.6C1.6,51.1,1.2,57.5,0.6,67z"/>
				</g>
				<g id="Group_5978" transform="translate(0 0)">
					<path id="Path_11090" class="st1" d="M0,99.2V82.8C0.3,77.3,0.5,71.6,0.8,67c0.6-9.5,1-15.9,1.9-22.4s0.7-16.3,1.2-19.7
						s1.7-4.2,2.7-8.2S8.5,4.4,10.2,3.3C12.4,2,14.7,0.9,17,0v23c3,4.7,6.6,5.8,6.6,5.8c2.3-6.7,2-9.3,4.3-11.8s4-5.7,7.6-4.3
						c1.7,0.6,2.7,1.3,1.8,7.1s-2.6,7.7-2.6,7.7c-0.2,3.6,0.1,7.3,0.9,10.8c0.7,3-2,10.9-3.3,15.9s-8.2,15.3-8.2,15.3
						c-0.2,3.9-0.1,7.7,0.3,11.6c0.1,0.5,0.1,1.1,0.2,1.7c0.1,5.5,0.6,10.9,1.3,16.3"/>
					<path id="Path_11091" class="st1" d="M23.6,28.8c0,0-0.7,3.2-2.2,3.9c-1.1,0.4-2.4,0.4-3.5,0"/>
					<path id="Path_11092" class="st1" d="M17,23c0,0-1.4-3.2-6.1-0.4"/>
					<path id="Path_11093" class="st1" d="M17,10c-0.4-1.2-1.4-2.1-2.7-2.1"/>
					<path id="Path_11094" class="st1" d="M24.1,69.5c-2.7,3.5-2.2,6.8-3.3,8.5S19.9,86,19.9,86"/>
					<path id="Path_11095" class="st1" d="M4.1,36.2v12.1c0,3.5,0.4,6.9,1,10.3"/>
					<path id="Path_11096" class="st1" d="M34.7,27.5c0,0,0-2.1-0.6-2.7"/>
					<path id="Path_11097" class="st1" d="M33.2,21c0,0-1.3-4.3-5-2.4"/>
					<path id="Path_11098" class="st1" d="M21.6,27.7c-2.8,0.1-5.6-1.2-7.3,0.3"/>
				</g>
			</g>
			<g id="Group_5980" transform="translate(0 125.061)">
				<path id="Rectangle_3636" class="st10" d="M4.2,0.9L4.2,0.9c0.9,0,1.6,0.7,1.6,1.6v13.8c0,0.9-0.7,1.6-1.6,1.6l0,0l0,0V0.9
					L4.2,0.9z"/>
				<path id="Path_11099" class="st10" d="M4.2,3.1c0,0,13.2-3.5,25.9,0.5c0.4,0.1,0.7,0.5,0.7,0.9v8.1c0,0.3-0.2,0.5-0.5,0.5
					c0,0-0.1,0-0.1,0c-2.7-0.5-14.7-2.4-25.4,0.1L4.2,3.1z"/>
				<path id="Path_11100" class="st8" d="M4.8,2.9V1.1C4.8,0.5,4.3,0,3.7,0H2.2C1.8,0,1.5,0.2,1.3,0.5L0,2.9v14l1.3,1.6
					c0.2,0.2,0.5,0.4,0.8,0.4h1.6c0.6,0,1.1-0.5,1.1-1.1L4.8,2.9z"/>
				<path id="Path_11101" class="st8" d="M3.8,2l3-0.6c0.3-0.1,0.6,0.1,0.7,0.5c0,0,0,0.1,0,0.1v1.7l-1,0.7v5.7h1v3
					c0,0.3-0.2,0.6-0.6,0.7l-2.9,0.6c-0.4,0.1-0.7-0.2-0.8-0.5c0,0,0-0.1,0-0.1V2.7C3.3,2.4,3.5,2.1,3.8,2z"/>
				<path id="Path_11102" class="st1" d="M4,13.7l2.5-0.6c0.2,0,0.3-0.2,0.3-0.4v-1.8"/>
				<path id="Path_11103" class="st1" d="M5.7,10.1V4l1-0.8V2.1"/>
				<line id="Line_172" class="st1" x1="1.7" y1="1.1" x2="1.7" y2="17.3"/>
				<path id="Path_11104" class="st20" d="M13.7,7.4L13.7,7.4c-0.2,0-0.4-0.2-0.4-0.4V6c0-0.2,0.2-0.4,0.4-0.4c0,0,0,0,0,0l0,0
					c0.2,0,0.4,0.2,0.4,0.4v1C14.1,7.2,13.9,7.4,13.7,7.4z"/>
				<path id="Path_11105" class="st20" d="M20.5,7.6L20.5,7.6c-0.2,0-0.4-0.2-0.4-0.4v-1c0-0.2,0.2-0.4,0.4-0.4l0,0
					c0.2,0,0.4,0.2,0.4,0.4v1C21,7.4,20.8,7.6,20.5,7.6C20.5,7.6,20.5,7.6,20.5,7.6z"/>
				<path id="Path_11106" class="st20" d="M26.6,8.4L26.6,8.4c-0.2,0-0.4-0.2-0.4-0.4V7c0-0.2,0.2-0.4,0.4-0.4l0,0
					C26.8,6.5,27,6.7,27,7v1C27,8.2,26.8,8.4,26.6,8.4z"/>
			</g>
		</g>
	</g>
</g>
</svg>
