<?xml version="1.0" encoding="utf-8"?>
<!-- Generator: Adobe Illustrator 26.5.0, SVG Export Plug-In . SVG Version: 6.00 Build 0)  -->
<svg version="1.1" id="Layer_1" xmlns="http://www.w3.org/2000/svg" xmlns:xlink="http://www.w3.org/1999/xlink" x="0px" y="0px"
	 viewBox="0 0 181.2 186.8" style="enable-background:new 0 0 181.2 186.8;" xml:space="preserve">
<style type="text/css">
	.st0{fill:#FFFFFF;stroke:#151C3A;stroke-width:0.5;}
	.st1{fill:none;stroke:#0D1435;stroke-linecap:round;stroke-linejoin:round;}
	.st2{fill:#231F20;}
	.st3{fill-rule:evenodd;clip-rule:evenodd;fill:#FFFFFF;}
	.st4{fill:#FFFFFF;}
	.st5{fill:#231F20;stroke:#0D1435;stroke-linecap:round;stroke-linejoin:round;}
	.st6{fill:#808080;}
	.st7{clip-path:url(#SVGID_00000167376314487171759530000016989176218079384503_);}
	.st8{opacity:0.2;fill:#FFFFFF;enable-background:new    ;}
	.st9{fill:none;stroke:#FFFFFF;stroke-linecap:round;stroke-linejoin:round;}
	.st10{fill:none;stroke:#0D1435;stroke-width:0.821;stroke-linecap:round;stroke-linejoin:round;}
	.st11{fill:#231F20;stroke:#0D1435;stroke-width:0.725;stroke-linecap:round;stroke-linejoin:round;}
	.st12{fill:#231F20;stroke:#0D1435;stroke-width:0.883;stroke-linecap:round;stroke-linejoin:round;}
	.st13{clip-path:url(#SVGID_00000048465972085196250480000006850422412219154071_);}
	.st14{clip-path:url(#SVGID_00000034776031228487803320000003910891113241174456_);}
	.st15{opacity:0.2;enable-background:new    ;}
	.st16{fill:#FFFFFF;stroke:#0D1435;stroke-linecap:round;stroke-linejoin:round;}
	.st17{clip-path:url(#SVGID_00000124154536519836814830000010120778694525007244_);}
	.st18{clip-path:url(#SVGID_00000168818889280208530910000010290727664721929357_);}
	.st19{clip-path:url(#SVGID_00000105426207805829862010000006971525615899765438_);}
	.st20{fill:none;stroke:#808080;stroke-linecap:round;stroke-linejoin:round;}
	.st21{fill:#FABB27;stroke:#0D1435;stroke-linecap:round;stroke-linejoin:round;}
	.st22{clip-path:url(#SVGID_00000114769055165389405920000005247646989096836255_);}
	.st23{clip-path:url(#SVGID_00000038406338022345140140000017953179542579203006_);}
	.st24{fill:#D6D6D6;stroke:#0D1435;stroke-linecap:round;stroke-linejoin:round;}
</style>
<g id="Group_5933" transform="translate(-31.905 -27.536)">
	<g id="Background_Simple" transform="translate(33.238 27.808)">
		<g id="Group_5868" transform="translate(0 0)">
			<path id="Path_10878" class="st0" d="M0.2,77.9c0,0-3.4,33.2,21.1,60.8s62.5,36.8,93.1,45.1s56.7-4.4,63.9-30.2
				s-15.4-38.2-24.1-70.9s-6.2-42.4-30.8-66.3s-68.5-21.2-95,6S0.2,77.9,0.2,77.9z"/>
		</g>
	</g>
	<g id="Icons" transform="translate(31.905 28.945)">
		<g id="Group_5869" transform="translate(11.908 8.318)">
			<path id="Path_10879" class="st1" d="M27.5,10.1l52.2,85.3l63.5-60.1"/>
			<path id="Path_10880" class="st1" d="M0,99.3l79.7-3.9l-58-24.6"/>
			<path id="Path_10881" class="st1" d="M92.5,0L80.6,97.5l72.7,14.4"/>
			<path id="Path_10882" class="st1" d="M22.9,156.2l56.8-60.7l58.9,44.6"/>
		</g>
		<g id="Group_5873" transform="translate(0 96.852)">
			<g id="Group_5871" transform="translate(0 0)">
				<g id="Group_5870">
					<path id="Path_10883" class="st2" d="M10.1,0C4.5,0,0,4.5,0,10.1s4.5,10.1,10.1,10.1s10.1-4.5,10.1-10.1l0,0
						C20.3,4.5,15.7,0,10.1,0z"/>
				</g>
			</g>
			<g id="Group_5872" transform="translate(4.529 4.264)">
				<path id="Path_10884" class="st3" d="M11.8,5.6C11.7,2.4,9-0.1,5.8,0c-3,0.1-5.4,2.5-5.6,5.5c0,0.1,0,0.2,0,0.3
					c0,1,0.3,2.1,0.8,3l-1,3.1l3.2-1c2.8,1.5,6.3,0.5,7.9-2.3c0.5-0.8,0.7-1.8,0.7-2.7C11.8,5.7,11.8,5.7,11.8,5.6z M6,10.6
					c-1,0-1.9-0.3-2.7-0.8l-1.9,0.6L2,8.6C1.5,7.8,1.1,6.8,1.1,5.8c0-0.2,0-0.3,0-0.5C1.4,2.6,3.8,0.7,6.5,1
					c2.3,0.2,4.1,2.1,4.3,4.4c0,0.1,0,0.2,0,0.4C10.9,8.4,8.7,10.6,6,10.6L6,10.6z"/>
				<path id="Path_10885" class="st3" d="M8.7,6.9c-0.1-0.1-0.8-0.4-1-0.5s-0.2,0-0.3,0.1S7,7,6.9,7.1s-0.2,0.1-0.3,0
					C6.2,7,5.8,6.7,5.5,6.4c-0.3-0.3-0.6-0.6-0.8-1c-0.1-0.1,0-0.2,0.1-0.3S4.9,5,5,4.9V4.8c0-0.1,0.1-0.1,0.1-0.2s0-0.2,0-0.2
					c0-0.1-0.3-0.8-0.4-1S4.4,3.1,4.3,3.1s-0.2,0-0.3,0c-0.1,0-0.3,0.1-0.4,0.2C3.4,3.6,3.2,4,3.2,4.5c0,0.2,0,0.3,0.1,0.5
					c0.1,0.4,0.3,0.7,0.5,1c0.6,0.9,1.4,1.7,2.4,2.1c1.4,0.6,1.4,0.4,1.7,0.4c0.4-0.1,0.8-0.3,1-0.7c0-0.3,0.1-0.5,0-0.7
					C8.9,7,8.8,7,8.7,6.9z"/>
			</g>
		</g>
		<g id="Group_5877" transform="translate(26.859 6.684)">
			<g id="Group_5875">
				<g id="Group_5874">
					<path id="Path_10886" class="st2" d="M10.1,0C4.5,0,0,4.5,0,10.1s4.5,10.1,10.1,10.1l0,0c5.6,0,10.1-4.5,10.1-10.1
						S15.7,0,10.1,0z"/>
				</g>
			</g>
			<g id="Group_5876" transform="translate(3.421 5.404)">
				<path id="Path_10887" class="st4" d="M13.1,1.5c-0.2-0.6-0.6-1-1.2-1.2c-3.5-0.4-7-0.4-10.5,0c-0.6,0.2-1,0.6-1.2,1.2
					c-0.4,2.2-0.4,4.3,0,6.5c0.2,0.6,0.6,1,1.2,1.2c3.5,0.4,7,0.4,10.5,0C12.5,9,13,8.6,13.1,8C13.5,5.8,13.5,3.6,13.1,1.5z"/>
				<path id="Path_10888" class="st2" d="M5.3,6.7v-4l3.5,2L5.3,6.7z"/>
			</g>
		</g>
		<g id="Group_5880" transform="translate(22.264 151.734)">
			<g id="Group_5879">
				<g id="Group_5878">
					<path id="Path_10889" class="st2" d="M13.3,0C5.9,0,0,5.9,0,13.3c0,7.3,5.9,13.3,13.3,13.3s13.3-5.9,13.3-13.3l0,0
						C26.6,6,20.6,0,13.3,0z"/>
				</g>
			</g>
			<path id="Path_10890" class="st4" d="M11.1,21.8h3.4v-8.6h2.4l0.3-2.9h-2.7V8.7c0-0.7,0.1-0.9,0.8-0.9h1.9v-3h-2.4
				c-2.6,0-3.7,1.1-3.7,3.3v2.3H9.3v2.9h1.8V21.8z"/>
		</g>
		<g id="Group_5884" transform="translate(140.742 138.506)">
			<g id="Group_5882">
				<g id="Group_5881">
					<path id="Path_10891" class="st2" d="M10.1,0C4.5,0,0,4.5,0,10.1s4.5,10.1,10.1,10.1s10.1-4.5,10.1-10.1l0,0
						C20.3,4.5,15.7,0,10.1,0z"/>
				</g>
			</g>
			<g id="Group_5883" transform="translate(4.23 4.23)">
				<path id="Path_10892" class="st4" d="M5.9,1.1c1.6,0,1.8,0,2.4,0c0.4,0,0.7,0.1,1.1,0.2c0.5,0.2,0.9,0.6,1.1,1.1
					c0.1,0.4,0.2,0.7,0.2,1.1c0,0.6,0,0.8,0,2.4s0,1.8,0,2.4c0,0.4-0.1,0.7-0.2,1.1c-0.2,0.5-0.6,0.9-1.1,1.1
					c-0.4,0.1-0.7,0.2-1.1,0.2c-0.6,0-0.8,0-2.4,0s-1.8,0-2.4,0c-0.4,0-0.7-0.1-1.1-0.2c-0.5-0.2-0.9-0.6-1.1-1.1
					C1.2,9,1.1,8.7,1.1,8.3c0-0.6,0-0.8,0-2.4s0-1.8,0-2.4c0-0.4,0.1-0.7,0.2-1.1c0.2-0.5,0.6-0.9,1.1-1.1c0.4-0.1,0.7-0.2,1.1-0.2
					C4.1,1.1,4.3,1.1,5.9,1.1 M5.9,0C4.3,0,4.1,0,3.5,0C3,0,2.5,0.1,2,0.3C1.2,0.6,0.6,1.2,0.3,2C0.1,2.5,0,3,0,3.5
					c0,0.6,0,0.8,0,2.4s0,1.8,0,2.4c0,0.5,0.1,1,0.3,1.4c0.3,0.8,0.9,1.4,1.7,1.7c0.5,0.2,0.9,0.3,1.4,0.3c0.6,0,0.8,0,2.4,0
					s1.8,0,2.4,0c0.5,0,1-0.1,1.4-0.3c0.8-0.3,1.4-0.9,1.7-1.7c0.2-0.5,0.3-0.9,0.3-1.4c0-0.6,0-0.8,0-2.4s0-1.8,0-2.4
					c0-0.5-0.1-1-0.3-1.4C11,1.3,10.4,0.7,9.6,0.4C9.3,0.1,8.8,0,8.3,0C7.7,0,7.5,0,5.9,0"/>
				<path id="Path_10893" class="st4" d="M5.9,2.9c-1.7,0-3,1.4-3,3s1.4,3,3,3c1.7,0,3-1.4,3-3S7.6,2.9,5.9,2.9L5.9,2.9 M5.9,7.9
					c-1.1,0-2-0.9-2-2s0.9-2,2-2s2,0.9,2,2l0,0C7.9,7,7,7.9,5.9,7.9"/>
				<path id="Path_10894" class="st4" d="M9.8,2.8c0,0.4-0.3,0.7-0.7,0.7S8.3,3.1,8.3,2.8S8.7,2,9.1,2l0,0C9.4,2,9.8,2.4,9.8,2.8"/>
			</g>
		</g>
		<g id="Group_5887" transform="translate(139.226 27.051)">
			<g id="Group_5886">
				<g id="Group_5885">
					<path id="Path_10895" class="st5" d="M15.4,30.7L15.4,30.7C6.9,30.7,0,23.8,0,15.4l0,0l0,0C0,6.9,6.9,0,15.3,0l0,0
						c8.5,0,15.4,6.9,15.4,15.4l0,0C30.7,23.8,23.8,30.7,15.4,30.7z"/>
				</g>
			</g>
			<path id="Path_10896" class="st4" d="M7.2,20.5c4.4,2.8,10.3,1.6,13.2-2.9c1.1-1.7,1.6-3.6,1.5-5.6c0.7-0.5,1.2-1.1,1.7-1.7
				c-0.6,0.3-1.3,0.4-1.9,0.5c0.7-0.4,1.2-1.1,1.5-1.9c-0.7,0.4-1.4,0.7-2.1,0.8c-1.3-1.4-3.4-1.4-4.7-0.1c-0.9,0.8-1.2,2-1,3.2
				c-2.7-0.1-5.2-1.4-6.9-3.5c-0.9,1.5-0.4,3.5,1,4.5c-0.5,0-1.1-0.2-1.5-0.4c0,1.6,1.1,3,2.7,3.3c-0.5,0.1-1,0.2-1.5,0.1
				c0.4,1.4,1.7,2.3,3.1,2.3C10.7,20.2,8.9,20.7,7.2,20.5z"/>
		</g>
		<g id="Group_5893" transform="translate(26.148 70.665)">
			<g id="Group_5890">
				<g id="Group_5889">
					<g id="Group_5888">
						<path id="Path_10897" class="st6" d="M8,0C3.6,0,0,3.6,0,8s3.6,8,8,8s8-3.6,8-8S12.4,0,8,0z"/>
					</g>
				</g>
			</g>
			<g id="Group_5892" transform="translate(3.74 3.064)">
				<g id="Group_5891">
					<rect id="Rectangle_3610" x="0.2" y="2.8" class="st4" width="1.8" height="5.7"/>
					<path id="Path_10898" class="st4" d="M1,2.1c0.6,0,1.1-0.5,1.1-1S1.6,0,1.1,0C0.5,0,0,0.5,0,1l0,0C0,1.6,0.5,2.1,1,2.1L1,2.1z"
						/>
				</g>
				<path id="Path_10899" class="st4" d="M4.7,5.5c0-0.8,0.4-1.3,1.1-1.3c0.6,0,1,0.5,1,1.3v3h1.8V4.9c0.1-1.1-0.7-2.1-1.9-2.2
					C5.9,2.6,5.2,3,4.7,3.6V2.8H3.1v5.7h1.7v-3H4.7z"/>
			</g>
		</g>
		<g id="Group_5897" transform="translate(156.544 110.752)">
			<g id="Group_5894" transform="translate(0 0)">
				<path id="Path_10900" class="st6" d="M8.3,16.6L8.3,16.6C3.7,16.6,0,12.9,0,8.3l0,0C0,3.7,3.7,0,8.3,0l0,0
					c4.6,0,8.3,3.7,8.3,8.3l0,0C16.6,12.9,12.9,16.6,8.3,16.6z"/>
			</g>
			<g id="Group_5896" transform="translate(3.629 5.736)">
				<path id="Path_10901" class="st4" d="M3.5,5.7c0.2,0,0.5-0.1,0.7-0.3C4.3,5.3,4.4,5.2,4.5,5c0.2-0.3,0.3-0.6,0.3-0.9
					S4.7,3.5,4.6,3.2C4.4,3,4.2,2.8,3.9,2.7C4,2.6,4.2,2.5,4.3,2.4c0.2-0.2,0.3-0.5,0.3-0.9c0-0.3-0.1-0.6-0.3-0.9
					C4,0.2,3.4,0,2.8,0H0v5.8h2.6C2.9,5.8,3.2,5.8,3.5,5.7z M1.2,1h1.3C2.7,1,3,1,3.2,1.1s0.3,0.3,0.3,0.5S3.4,2,3.3,2.1
					C3,2.3,2.8,2.3,2.6,2.3H1.2V1z M1.2,4.8V3.3h1.4c0.2,0,0.4,0,0.6,0.1C3.4,3.5,3.6,3.7,3.6,4c0,0.3-0.1,0.6-0.4,0.7
					C3,4.8,2.8,4.8,2.6,4.8H1.2z"/>
				<g id="Group_5895" transform="translate(5.107 0.335)">
					<path id="Path_10902" class="st4" d="M0.7,5.1c0.4,0.3,1,0.5,1.5,0.5c0.6,0,1.2-0.2,1.6-0.6C4,4.8,4.2,4.5,4.2,4.2H3.1
						C3,4.3,2.9,4.4,2.8,4.5C2.7,4.7,2.4,4.7,2.2,4.7s-0.4,0-0.6-0.2C1.3,4.4,1.1,4,1.1,3.7h3.1c0-0.3,0-0.6,0-0.9S4,2.2,3.9,1.9
						C3.7,1.6,3.4,1.4,3.1,1.3s-0.7-0.2-1-0.2C1.6,1.1,1,1.3,0.6,1.7S0,2.8,0,3.4C-0.1,4,0.2,4.7,0.7,5.1z M1.5,2.2
						C1.6,2.1,1.9,2,2.1,2s0.5,0.1,0.7,0.2C3,2.4,3.1,2.6,3.1,2.9H1.2C1.2,2.7,1.3,2.4,1.5,2.2L1.5,2.2z"/>
					<rect id="Rectangle_3611" x="0.8" y="0" class="st4" width="2.5" height="0.6"/>
				</g>
			</g>
		</g>
		<g id="Group_5899" transform="translate(96.08)">
			<g id="Group_5898">
				<path id="Path_10903" class="st6" d="M8.3,16.6L8.3,16.6C3.7,16.6,0,12.9,0,8.3l0,0C0,3.7,3.7,0,8.3,0l0,0
					c4.6,0,8.3,3.7,8.3,8.3l0,0C16.6,12.9,12.9,16.6,8.3,16.6z"/>
			</g>
			<path id="Path_10904" class="st3" d="M13.1,10.8L13.1,10.8L13.1,10.8L13.1,10.8c-0.1-0.1-0.2-0.1-0.3-0.1l0,0
				c-0.5-0.2-1-0.5-1.3-0.9c-0.2-0.2-0.3-0.5-0.4-0.8l0,0c0-0.1,0-0.2,0-0.3l0,0c0.1-0.1,0.3-0.2,0.4-0.3l0,0
				C11.8,8.3,12,8.2,12.2,8l0,0l0.1-0.1l0,0c0-0.1,0-0.1,0-0.2l0,0c0-0.1-0.1-0.2-0.2-0.2l0,0c-0.1-0.1-0.2-0.1-0.4,0l0,0
				c-0.1,0-0.2,0.1-0.3,0.1l0,0c-0.1,0-0.2,0-0.4,0c0,0,0,0,0-0.1l0,0c0-0.2,0-0.4,0-0.7l0,0c0-0.4,0-0.7,0-1.1l0,0
				c-0.1-0.6-0.5-1.1-1-1.5C9.6,4,9.2,3.8,8.7,3.8l0,0c-0.2,0-0.3,0-0.4,0C7.7,3.8,7.1,4,6.6,4.3C6.2,4.6,5.9,5,5.8,5.4l0,0
				C5.6,5.8,5.6,6.3,5.6,6.7l0,0c0,0.3,0,0.6,0,0.9l0,0c-0.1,0-0.3,0-0.4,0l0,0C5.1,7.6,5,7.5,4.9,7.5l0,0c-0.1,0-0.2,0-0.3,0.1l0,0
				l0,0c-0.1,0-0.2,0.1-0.2,0.2l0,0l0,0C4.4,7.9,4.5,8,4.5,8l0.1,0.1l0,0C4.8,8.2,5,8.3,5.3,8.4l0,0c0.1,0,0.2,0.1,0.3,0.3
				c0,0.2,0,0.4-0.1,0.5l0,0c-0.2,0.5-0.6,0.9-1,1.2c-0.2,0.2-0.5,0.3-0.7,0.3l0,0c-0.1,0-0.2,0.1-0.3,0.2l0,0c0,0.1,0,0.2,0,0.2
				l0.1,0.1l0,0c0.2,0.1,0.4,0.2,0.7,0.2l0,0c0.1,0,0.3,0.1,0.4,0.1c0,0,0,0,0,0.1s0.1,0.3,0.1,0.4c0,0,0,0.1,0.1,0.1s0.1,0,0.2,0
				l0,0c0.4-0.1,0.7-0.1,1.1,0l0,0c0.4,0.1,0.7,0.3,1,0.6l0,0l0,0C7.4,12.9,7.7,13,8,13l0,0c0.2,0,0.5,0,0.7,0l0,0
				c0.2,0,0.4-0.1,0.5-0.2l0,0c0.4-0.2,0.7-0.5,1.1-0.6l0,0c0.1,0,0.3-0.1,0.4,0l0,0c0.3,0,0.6,0,0.9,0l0,0c0,0,0.1,0,0.1-0.1
				c0,0,0,0,0-0.1l0,0l0,0c0-0.2,0.1-0.3,0.2-0.4c0.1,0,0.1-0.1,0.2-0.1l0,0c0.2,0,0.5-0.1,0.7-0.2l0,0c0.1,0,0.2-0.1,0.3-0.2l0,0
				l0,0C13.3,11,13.2,10.8,13.1,10.8L13.1,10.8L13.1,10.8z"/>
		</g>
	</g>
	<g id="Device" transform="translate(83.074 51.799)">
		<g id="Group_5906" transform="translate(0)">
			<g id="Group_5901">
				<path id="Rectangle_3612" class="st2" d="M14.5,0H64c8,0,14.5,6.5,14.5,14.5v124.2c0,8-6.5,14.5-14.5,14.5H14.5
					c-8,0-14.5-6.5-14.5-14.5V14.5C0,6.5,6.5,0,14.5,0z"/>
				<g>
					<g>
						<defs>
							<path id="SVGID_1_" d="M14.5,0H64c8,0,14.5,6.5,14.5,14.5v124.2c0,8-6.5,14.5-14.5,14.5H14.5c-8,0-14.5-6.5-14.5-14.5V14.5
								C0,6.5,6.5,0,14.5,0z"/>
						</defs>
						<clipPath id="SVGID_00000006710316983604891780000002669878215523946660_">
							<use xlink:href="#SVGID_1_"  style="overflow:visible;"/>
						</clipPath>
						<g id="Group_5900" style="clip-path:url(#SVGID_00000006710316983604891780000002669878215523946660_);">
							<path id="Path_10905" class="st8" d="M6.8,0C3,0,0,3,0,6.8l0,0v139.7c0,2,0.9,3.9,2.4,5.2L48.2,0H6.8z"/>
							<path id="Path_10906" class="st9" d="M41.9,148.8c0-1.5-1.2-2.7-2.7-2.7s-2.7,1.2-2.7,2.7s1.2,2.7,2.7,2.7l0,0
								C40.7,151.5,41.9,150.3,41.9,148.8z"/>
						</g>
					</g>
				</g>
				<path id="Rectangle_3614" class="st1" d="M14.5,0H64c8,0,14.5,6.5,14.5,14.5v124.2c0,8-6.5,14.5-14.5,14.5H14.5
					c-8,0-14.5-6.5-14.5-14.5V14.5C0,6.5,6.5,0,14.5,0z"/>
			</g>
			<rect id="Rectangle_3615" x="3.5" y="10.4" class="st5" width="71.5" height="133.7"/>
			<circle id="Ellipse_564" class="st4" cx="38.1" cy="84.3" r="32.8"/>
			<rect id="Rectangle_3616" x="6" y="26.5" class="st4" width="66.9" height="15.2"/>
			<rect id="Rectangle_3617" x="6" y="126.4" class="st4" width="66.9" height="15.2"/>
			<rect id="Rectangle_3618" x="6" y="121.1" class="st4" width="66.9" height="0.7"/>
			<rect id="Rectangle_3619" x="6" y="124.1" class="st4" width="66.9" height="0.7"/>
			<g id="Group_5904" transform="translate(5.102 11.373)">
				<g id="Group_5902" transform="translate(61.556 0.419)">
					<rect id="Rectangle_3620" x="0" y="0" class="st10" width="5.9" height="3.3"/>
					<rect id="Rectangle_3621" x="0" y="0" class="st11" width="4.6" height="3.3"/>
					<rect id="Rectangle_3622" x="5.9" y="0.9" class="st11" width="0.8" height="1.4"/>
				</g>
				<g id="Group_5903">
					<rect id="Rectangle_3623" x="0" y="1.4" class="st12" width="1.1" height="1.9"/>
					<rect id="Rectangle_3624" x="1.7" y="0.8" class="st12" width="1.1" height="2.5"/>
					<rect id="Rectangle_3625" x="3.4" y="0" class="st12" width="1.1" height="3.3"/>
				</g>
			</g>
			<g id="Group_5905" transform="translate(4.645 16.854)">
				<rect id="Rectangle_3626" x="0" y="0" class="st2" width="68.7" height="5.2"/>
			</g>
		</g>
	</g>
	<g id="Character" transform="translate(89.584 79.902)">
		<g id="Group_5932" transform="translate(0 0)">
			<g>
				<g>
					<defs>
						<path id="SVGID_00000100383379647233610890000001756276460747780997_" d="M111.2,0H27.6v24.8C10.3,27-2,42.9,0.3,60.2
							s18.1,29.6,35.4,27.3C44.2,86.4,51.9,81.9,57,75h54.2V0z"/>
					</defs>
					<clipPath id="SVGID_00000139257046505021833710000001570919677138686371_">
						<use xlink:href="#SVGID_00000100383379647233610890000001756276460747780997_"  style="overflow:visible;"/>
					</clipPath>
					<g id="Group_5931" style="clip-path:url(#SVGID_00000139257046505021833710000001570919677138686371_);">
						<g id="Group_5929" transform="translate(-2.842 2.702)">
							<g id="Group_5909" transform="translate(0 31.328)">
								<g id="Group_5908">
									<path id="Path_10907" class="st4" d="M0,53c0,0,8.8-30.5,10.4-37s4.1-10.8,9.3-11.8s14.7-2,14.7-2
										c4.7-0.5,9.5-0.6,14.3-0.4c6,0.4,11.5,3.6,14.4,5.8c2.9,2.2,11.3,9.7,11.3,9.7L73.3,0l7.5,0.6c0,0,5.5,24.2,6.2,28.6
										s0.7,6.4,0,6.9s0.5,0.8-6.1-1.3s-14.4-5.2-18.6-6.4S57.6,27,57.6,27S47.2,42.6,43.9,47.3c-2.3,3.3-4.3,6.8-6,10.4"/>
									<g>
										<g>
											<defs>
												<path id="SVGID_00000013874351086027398360000009816663920703533995_" d="M0,53c0,0,8.8-30.5,10.4-37s4.1-10.8,9.3-11.8
													s14.7-2,14.7-2c4.7-0.5,9.5-0.6,14.3-0.4c6,0.4,11.5,3.6,14.4,5.8c2.9,2.2,11.3,9.7,11.3,9.7L73.3,0l7.5,0.6
													c0,0,5.5,24.2,6.2,28.6s0.7,6.4,0,6.9s0.5,0.8-6.1-1.3s-14.4-5.2-18.6-6.4S57.6,27,57.6,27S47.2,42.6,43.9,47.3
													c-2.3,3.3-4.3,6.8-6,10.4"/>
											</defs>
											<clipPath id="SVGID_00000161622272959979533920000003088755307542276255_">
												<use xlink:href="#SVGID_00000013874351086027398360000009816663920703533995_"  style="overflow:visible;"/>
											</clipPath>
											<g id="Group_5907" style="clip-path:url(#SVGID_00000161622272959979533920000003088755307542276255_);">
												<path id="Path_10908" class="st15" d="M87,36.2c0.7-0.5,0.7-2.5,0-6.9c-0.4-2.7-2.6-12.3-4.2-19.7
													c0.7,8.7,0.9,17.2-0.4,18.8c-2.9,3.4-7.2-1.1-7.2-1.1l-0.8-6.7c0,0-14.5-10.7-19.9-12.5C49.1,6.2,43.2,6,37.7,7.7
													c-5.6,1.8-10.3,3.6-13.8,7.1s-15.3,31-15.3,31L7.3,54l30.6,3.7c1.7-3.6,3.8-7.1,6-10.4C47.2,42.6,57.6,27,57.6,27
													s0.5,0.2,4.8,1.4s12,4.2,18.6,6.4S86.3,36.7,87,36.2z"/>
											</g>
										</g>
									</g>
									<path id="Path_10910" class="st1" d="M0,53c0,0,8.8-30.5,10.4-37s4.1-10.8,9.3-11.8s14.7-2,14.7-2
										c4.7-0.5,9.5-0.6,14.3-0.4c6,0.4,11.5,3.6,14.4,5.8c2.9,2.2,11.3,9.7,11.3,9.7L73.3,0l7.5,0.6c0,0,5.5,24.2,6.2,28.6
										s0.7,6.4,0,6.9s0.5,0.8-6.1-1.3s-14.4-5.2-18.6-6.4S57.6,27,57.6,27S47.2,42.6,43.9,47.3c-2.3,3.3-4.3,6.8-6,10.4"/>
								</g>
								<path id="Path_10911" class="st1" d="M60.5,22.2l-3,4.8l8.7-4.8"/>
								<path id="Path_10912" class="st16" d="M74.3,17.4c0,0,0.4,8.6,0.9,9.9s2.8,2,2.8,2"/>
							</g>
							<g id="Group_5910" transform="translate(27.485 30.19)">
								<path id="Path_10913" class="st2" d="M1.3,18.2c0,0-1.1,2.7-0.6,2.7s4.2-1.4,5.9-1.4s3.5,3,3.5,3s4.9-3.7,6.5-3.2
									c0.8,0.3,1.5,0.7,2.1,1.2c0.3,0.2,0.7,0.2,1-0.1c0.1-0.1,0.2-0.3,0.2-0.4c0-0.8,0.1-1.8,0.1-3.1c0-3.1-2.7-11.6-7.6-12
									S6.6,8,4.5,12.2S1.3,18.2,1.3,18.2z"/>
								<path id="Path_10914" class="st16" d="M11.9,0c0,0-4.8,0.6-6.9,2.7s-1.4,5.4-2.6,8.4s-3.1,9.1-2.1,9s4.7-3,5.7-2.3
									s3.4,3.7,3.8,3.9s5.7-3.6,6.4-4c0.7-0.4,4.2,4.1,4.3,2.9c0.2-4.3,0.1-8.7-0.4-13C19.4,3.1,14.3,0.1,11.9,0z"/>
							</g>
							<g id="Group_5918" transform="translate(35.146)">
								<g id="Group_5912" transform="translate(0 24.399)">
									<path id="Path_10915" class="st4" d="M5.9,0c0,0-1.8,5.4-3.2,7.2s-2.1,2.2-2.6,6.5s1.8,14.2,2.5,14s7.9-11.6,10.2-13.4
										s4.9-3.8,4.9-3.8s-5.8-1.8-7.8-4.2C8.4,4.2,7.1,2.2,5.9,0z"/>
									<g>
										<g>
											<defs>
												<path id="SVGID_00000164486165565759242780000012225147326674789815_" d="M5.9,0c0,0-1.8,5.4-3.2,7.2s-2.1,2.2-2.6,6.5
													s1.8,14.2,2.5,14s7.9-11.6,10.2-13.4s4.9-3.8,4.9-3.8s-5.8-1.8-7.8-4.2C8.4,4.2,7.1,2.2,5.9,0z"/>
											</defs>
											<clipPath id="SVGID_00000149359970995179642410000009467143079380460161_">
												<use xlink:href="#SVGID_00000164486165565759242780000012225147326674789815_"  style="overflow:visible;"/>
											</clipPath>
											<g id="Group_5911" style="clip-path:url(#SVGID_00000149359970995179642410000009467143079380460161_);">
												<path id="Path_10916" class="st15" d="M13.8,13.5c2-1.6,3.8-3,3.8-3s-5.8-1.8-7.8-4.2c-1.5-2-2.8-4-4-6.2
													c-0.5,1.7-1.2,3.5-2,5.2C4.6,7.8,7.1,11.8,13.8,13.5z"/>
												<path id="Path_10917" class="st2" d="M9.9,6.2c-1.5-2-2.8-4-4-6.2c0,0-0.6,1.8-1.4,3.7C5.3,6.2,6.7,8.3,8.7,10
													c1.9,1.2,3.9,2.1,6.1,2.7c1.6-1.2,2.8-2.2,2.8-2.2S11.9,8.7,9.9,6.2z"/>
											</g>
										</g>
									</g>
									<path id="Path_10919" class="st1" d="M5.9,0c0,0-1.8,5.4-3.2,7.2s-2.1,2.2-2.6,6.5s1.8,14.2,2.5,14s7.9-11.6,10.2-13.4
										s4.9-3.8,4.9-3.8s-5.8-1.8-7.8-4.2C8.4,4.2,7.1,2.2,5.9,0z"/>
								</g>
								<g id="Group_5915" transform="translate(3.465 5.411)">
									<g id="Group_5914">
										<path id="Path_10920" class="st4" d="M24.4,5.2c0,0-0.3,6.9-0.1,9.2s1,6.2-0.8,9.9s-3.4,6.1-5.2,6.7s-7.4-0.6-12-4
											S1,16.6,0.2,14.3S0.3,4.3,5,1.8c3.8-1.9,8.1-2.3,12.2-1.1C19.7,1.5,24.4,5.2,24.4,5.2z"/>
										<g>
											<g>
												<defs>
													<path id="SVGID_00000016067047464413092650000013175472172884674179_" d="M24.4,5.2c0,0-0.3,6.9-0.1,9.2s1,6.2-0.8,9.9
														s-3.4,6.1-5.2,6.7s-7.4-0.6-12-4S1,16.6,0.2,14.3S0.3,4.3,5,1.8c3.8-1.9,8.1-2.3,12.2-1.1C19.7,1.5,24.4,5.2,24.4,5.2z
														"/>
												</defs>
												<clipPath id="SVGID_00000086652213787369309020000013790407364371693479_">
													<use xlink:href="#SVGID_00000016067047464413092650000013175472172884674179_"  style="overflow:visible;"/>
												</clipPath>
												<g id="Group_5913" style="clip-path:url(#SVGID_00000086652213787369309020000013790407364371693479_);">
													<path id="Path_10921" class="st15" d="M5,1.8C4.3,2.2,3.7,2.6,3.2,3.2l2.4,1.7c0,0,3.1-3.1,10,1.3
														c2.6,1.8,5.6,2.6,8.8,2.4c0.1-1.8,0.1-3.4,0.1-3.4s-4.8-3.7-7.2-4.6C13.1-0.5,8.8-0.1,5,1.8z"/>
												</g>
											</g>
										</g>
										<path id="Path_10923" class="st1" d="M24.4,5.2c0,0-0.3,6.9-0.1,9.2s1,6.2-0.8,9.9s-3.4,6.1-5.2,6.7s-7.4-0.6-12-4
											S1,16.6,0.2,14.3S0.3,4.3,5,1.8c3.8-1.9,8.1-2.3,12.2-1.1C19.7,1.5,24.4,5.2,24.4,5.2z"/>
									</g>
									<path id="Path_10924" class="st2" d="M14.7,14.6c0,0.7-0.3,1.3-0.6,1.3s-0.6-0.6-0.6-1.3s0.3-1.3,0.6-1.3
										S14.7,13.8,14.7,14.6z"/>
									<path id="Path_10925" class="st2" d="M22.2,15.3c0,0.7-0.3,1.3-0.6,1.3S21,16,21,15.3s0.3-1.3,0.6-1.3S22.2,14.5,22.2,15.3
										z"/>
									<path id="Path_10926" class="st1" d="M20.2,13.3c0,0-2,2-1.4,2.8c0.6,0.8,1.7,1.3,1.3,2.5c-0.4,1.2-3.1,1.7-4,0"/>
									<path id="Path_10927" class="st5" d="M10.2,19.7c1.6,1.9,3.9,3,6.3,3.1c0,0-4.2,2.8-6.1,2.5S10.2,19.7,10.2,19.7z"/>
									<path id="Path_10928" class="st1" d="M11.1,10.6c0,0,1.8-2.5,5.4-0.9"/>
									<path id="Path_10929" class="st1" d="M20.9,10.7c1.3-0.3,2.6,0.4,3.1,1.6"/>
								</g>
								<g id="Group_5917" transform="translate(1.665)">
									<path id="Path_10930" class="st2" d="M2.8,22.5c0,0,0.9-4,3.2-5.5s4.4-1.1,3.1-3.1S7,10,9.9,9.1s8.6,0.6,11.9,1.9
										s9.7,1.7,11.4-3c1-2.9-2-5.2-4.2-6.3c-2.4-1.4-5.2-1.9-7.9-1.5c-1.6,0.3-3.2,0.9-4.9,1.1c-2.8,0.3-5.3-1-8.1-0.3
										c-2.4,0.6-4.5,1.9-6,3.7C-0.5,7.9-1.2,13.6,2.8,22.5z"/>
									<g>
										<g>
											<defs>
												<path id="SVGID_00000026122554858596171650000002268473847498152088_" d="M2.8,22.5c0,0,0.9-4,3.2-5.5s4.4-1.1,3.1-3.1
													S7,10,9.9,9.1s8.6,0.6,11.9,1.9s9.7,1.7,11.4-3c1-2.9-2-5.2-4.2-6.3c-2.4-1.4-5.2-1.9-7.9-1.5c-1.6,0.3-3.2,0.9-4.9,1.1
													c-2.8,0.3-5.3-1-8.1-0.3c-2.4,0.6-4.5,1.9-6,3.7C-0.5,7.9-1.2,13.6,2.8,22.5z"/>
											</defs>
											<clipPath id="SVGID_00000015315771562461989820000012234726106904411268_">
												<use xlink:href="#SVGID_00000026122554858596171650000002268473847498152088_"  style="overflow:visible;"/>
											</clipPath>
											<g id="Group_5916" style="clip-path:url(#SVGID_00000015315771562461989820000012234726106904411268_);">
												<path id="Path_10931" class="st20" d="M26.7,0c0,0,5.4,2.9,1.6,7.7S21,9.2,12.1,7.5s-14.2,2.7-14.2,2.7"/>
												<path id="Path_10932" class="st20" d="M-1.3,15.4c0,0,1.7-3.3,7.3-4.3s5.9-0.1,5.9-0.1"/>
											</g>
										</g>
									</g>
									<path id="Path_10934" class="st1" d="M2.8,22.5c0,0,0.9-4,3.2-5.5s4.4-1.1,3.1-3.1S7,10,9.9,9.1s8.6,0.6,11.9,1.9
										s9.7,1.7,11.4-3c1-2.9-2-5.2-4.2-6.3c-2.4-1.4-5.2-1.9-7.9-1.5c-1.6,0.3-3.2,0.9-4.9,1.1c-2.8,0.3-5.3-1-8.1-0.3
										c-2.4,0.6-4.5,1.9-6,3.7C-0.5,7.9-1.2,13.6,2.8,22.5z"/>
								</g>
								<path id="Path_10935" class="st16" d="M6.8,21.1c0,0-2.7-6.1-5-2.9s1.9,7.2,5.1,6.5"/>
							</g>
							<g id="Group_5919" transform="translate(68.681 16.635)">
								<path id="Path_10936" class="st16" d="M2.4,3.7c0,0-1.8-0.2-2.1,1.2s-0.6,3.7,0,3.7c0.9,0,1.7-0.5,2.2-1.2
									c0.4-1.3,0.7-2.5,0.8-3.8L2.4,3.7z"/>
								<path id="Path_10937" class="st16" d="M5.2,3.2c0,0-2.5-0.4-2.8,0.5S1.7,7.9,2,8c0.8-0.1,1.5-0.4,2.2-0.7L5.2,3.2z"/>
								<path id="Path_10938" class="st16" d="M8.5,3.4c0,0-2.9-1.9-3.6-0.9S4.2,7.3,4.2,7.3c0.5,0.1,1.1,0,1.4-0.4
									c0.5-0.6,1.1-1.4,1.1-1.4c0.8,0.2,1.6,0.4,2.4,0.4c0.3-0.1,1,0,0.8-1S8.5,3.4,8.5,3.4z"/>
								<path id="Path_10939" class="st16" d="M12.5,5.3c-1.3-0.9-2.4-2.1-3.1-3.5c-1-2.2-1.6-2.1-2.1-1.1s0.1,1.9,0.5,2.7
									c0.6,1,1.4,1.9,2.2,2.8L12.5,5.3z"/>
							</g>
							<path id="Path_10940" class="st21" d="M62.5,36.4c0,0-1.5,12.8-1.3,13.5s2.8,1.5,3.3,1s0.2-1.4,0-2s2-11.3,2-11.3L62.5,36.4z
								"/>
							<g id="Group_5925" transform="translate(12.054 37.106)">
								<g id="Group_5922">
									<g id="Group_5921">
										<path id="Path_10941" class="st4" d="M12.7,3.7l7.6,23.7c0,0,17.4-10.2,21.5-15.5s6.4-11.3,7.9-11.8S56.3,1,57,1.8
											s0.6,1.7-0.3,2.6c-0.4,0.4-0.9,0.8-1.4,1c0,0,0,1.9-0.5,2.2s-0.3-0.1-0.4,0.3c-0.1,0.4-0.2,0.9-0.5,1.3
											c-0.3,0.4-0.4,0.6-0.7,0.7c-0.6,0.3-1.2,0.4-1.8,0.6c-1.1,0.3-2.3,0.5-3.4,0.6c-0.7,0.1-5.4,9.4-9.8,14.9
											S19.9,44.1,17.7,44.1S2.7,23.1,0,17.9"/>
										<g>
											<g>
												<defs>
													<path id="SVGID_00000121991831680047535020000005004587126789862312_" d="M12.7,3.7l7.6,23.7c0,0,17.4-10.2,21.5-15.5
														s6.4-11.3,7.9-11.8S56.3,1,57,1.8s0.6,1.7-0.3,2.6c-0.4,0.4-0.9,0.8-1.4,1c0,0,0,1.9-0.5,2.2s-0.3-0.1-0.4,0.3
														c-0.1,0.4-0.2,0.9-0.5,1.3c-0.3,0.4-0.4,0.6-0.7,0.7c-0.6,0.3-1.2,0.4-1.8,0.6c-1.1,0.3-2.3,0.5-3.4,0.6
														c-0.7,0.1-5.4,9.4-9.8,14.9S19.9,44.1,17.7,44.1S2.7,23.1,0,17.9"/>
												</defs>
												<clipPath id="SVGID_00000146464977911835760140000005332364770376256898_">
													<use xlink:href="#SVGID_00000121991831680047535020000005004587126789862312_"  style="overflow:visible;"/>
												</clipPath>
												<g id="Group_5920" style="clip-path:url(#SVGID_00000146464977911835760140000005332364770376256898_);">
													<path id="Path_10942" class="st15" d="M53.9,9.1c0.2-0.4,0.4-0.8,0.5-1.3c0.1-0.4,0,0,0.4-0.3s0.5-2.2,0.5-2.2
														c0.5-0.2,1-0.5,1.4-1c0.9-0.9,1.1-1.8,0.3-2.6s-5.9-2.2-7.3-1.6c-0.6,0.4-1,0.9-1.3,1.4c0.8,1.3,1.6,2,0.8,4.2
														C48,9,45,13.2,42.6,16.7s-23.3,23-25.7,22.6c-2-0.3-7.9-7.5-10-10.1c4.5,7.2,9.6,14.8,11,14.8
														c2.2-0.1,16.1-12.7,20.5-18.2S47.2,11.2,48,11c1.1-0.1,2.3-0.3,3.4-0.6c0.6-0.1,1.3-0.3,1.8-0.6
														C53.5,9.7,53.6,9.5,53.9,9.1z"/>
												</g>
											</g>
										</g>
										<path id="Path_10944" class="st1" d="M12.7,3.7l7.6,23.7c0,0,17.4-10.2,21.5-15.5s6.4-11.3,7.9-11.8S56.3,1,57,1.8
											s0.6,1.7-0.3,2.6c-0.4,0.4-0.9,0.8-1.4,1c0,0,0,1.9-0.5,2.2s-0.3-0.1-0.4,0.3c-0.1,0.4-0.2,0.9-0.5,1.3
											c-0.3,0.4-0.4,0.6-0.7,0.7c-0.6,0.3-1.2,0.4-1.8,0.6c-1.1,0.3-2.3,0.5-3.4,0.6c-0.7,0.1-5.4,9.4-9.8,14.9
											S19.9,44.1,17.7,44.1S2.7,23.1,0,17.9"/>
									</g>
									<path id="Path_10945" class="st1" d="M20.3,27.4c0,0-2,0.1-3.7,5.4"/>
								</g>
								<g id="Group_5924" transform="translate(42.341)">
									<path id="Path_10946" class="st4" d="M9,10.4c0.6-0.1,1.3-0.3,1.8-0.6c0.3-0.1,0.4-0.3,0.7-0.7c0.2-0.4,0.4-0.8,0.5-1.3
										c0.1-0.4,0.4-0.6,0.8-0.9s0.1-1.6,0.1-1.6c0.5-0.2,1-0.5,1.4-1c0.9-0.9,1.1-1.8,0.3-2.6S8.8-0.4,7.4,0.1
										C6,0.7,3.8,6.2,0,11.3l3.5,2.9c1.1-1.8,1.9-3.1,2.1-3.1C6.8,10.9,7.9,10.7,9,10.4z"/>
									<g>
										<g>
											<defs>
												<path id="SVGID_00000017489080990641337040000000851589770860973457_" d="M9,10.4c0.6-0.1,1.3-0.3,1.8-0.6
													c0.3-0.1,0.4-0.3,0.7-0.7c0.2-0.4,0.4-0.8,0.5-1.3c0.1-0.4,0.4-0.6,0.8-0.9s0.1-1.6,0.1-1.6c0.5-0.2,1-0.5,1.4-1
													c0.9-0.9,1.1-1.8,0.3-2.6S8.8-0.4,7.4,0.1C6,0.7,3.8,6.2,0,11.3l3.5,2.9c1.1-1.8,1.9-3.1,2.1-3.1
													C6.8,10.9,7.9,10.7,9,10.4z"/>
											</defs>
											<clipPath id="SVGID_00000034051913421444681550000014871370912777548199_">
												<use xlink:href="#SVGID_00000017489080990641337040000000851589770860973457_"  style="overflow:visible;"/>
											</clipPath>
											<g id="Group_5923" style="clip-path:url(#SVGID_00000034051913421444681550000014871370912777548199_);">
												<path id="Path_10947" class="st15" d="M11.6,9.1c0.2-0.4,0.4-0.8,0.5-1.3c0.1-0.4,0,0,0.4-0.3S13,5.3,13,5.3
													c0.5-0.2,1-0.5,1.4-1c0.9-0.9,1.1-1.8,0.3-2.6S8.8-0.4,7.4,0.1C6.8,0.5,6.3,1,6,1.6c0.8,1.3,1.6,2,0.8,4.2
													c-1.2,3.3-4.2,7.5-6.6,11s-23.3,23-25.7,22.6c-2-0.3-7.9-7.5-10-10.1c4.5,7.2,9.6,14.8,11,14.8
													C-22.3,44-8.4,31.4-4,25.9S4.9,11.2,5.6,11c1.1-0.1,2.3-0.3,3.4-0.6c0.6-0.1,1.3-0.3,1.8-0.6
													C11.2,9.7,11.3,9.5,11.6,9.1z"/>
											</g>
										</g>
									</g>
									<path id="Path_10949" class="st1" d="M9,10.4c0.6-0.1,1.3-0.3,1.8-0.6c0.3-0.1,0.4-0.3,0.7-0.7c0.2-0.4,0.4-0.8,0.5-1.3
										c0.1-0.4,0.4-0.6,0.8-0.9s0.1-1.6,0.1-1.6c0.5-0.2,1-0.5,1.4-1c0.9-0.9,1.1-1.8,0.3-2.6S8.8-0.4,7.4,0.1
										C6,0.7,3.8,6.2,0,11.3l3.5,2.9c1.1-1.8,1.9-3.1,2.1-3.1C6.8,10.9,7.9,10.7,9,10.4z"/>
								</g>
							</g>
							<g id="Group_5928" transform="translate(56.836 14.885)">
								<g id="Group_5927" transform="translate(0 5.171)">
									<path id="Path_10950" class="st5" d="M2.1,8C0.9,8,0,9.6,0,11.6s0.9,3.7,2.1,3.7L27.4,23V0L2.1,8z"/>
									<g id="Group_5926" transform="translate(6.437 3.958)">
										<line id="Line_143" class="st1" x1="9.9" y1="1" x2="0" y2="3.8"/>
										<line id="Line_144" class="st1" x1="13.2" y1="0" x2="11.1" y2="0.6"/>
									</g>
									<path id="Path_10951" class="st5" d="M5.3,6.9L2.1,8C0.9,8,0,9.6,0,11.6s0.9,3.7,2.1,3.7L5,16.2C3.6,13.2,3.7,9.8,5.3,6.9z
										"/>
								</g>
								<ellipse id="Ellipse_565" class="st24" cx="29.6" cy="16.8" rx="8.7" ry="15.4"/>
								<path id="Path_10952" class="st24" d="M29.6,13.4l-8.3-2.2l-0.7,5.9l0.9,6l8.1-2.8l0.3-6.7"/>
								<path id="Path_10953" class="st5" d="M29.6,0c-5.2,0-9.5,7.5-9.5,16.8s4.2,16.8,9.5,16.8S39,26.1,39,16.8S34.8,0,29.6,0z
									 M29.8,31.2c-4.4,0-7.9-6.5-7.9-14.4s3.5-14.4,7.9-14.4s7.9,6.5,7.9,14.4S34.2,31.2,29.8,31.2L29.8,31.2z"/>
								<ellipse id="Ellipse_566" class="st5" cx="29.6" cy="16.8" rx="1.9" ry="3.4"/>
							</g>
						</g>
						<g id="Group_5930" transform="translate(92.728 16.364)">
							<line id="Line_145" class="st1" x1="15.3" y1="0.6" x2="17.2" y2="0"/>
							<line id="Line_146" class="st1" x1="1.5" y1="4.9" x2="12.9" y2="1.3"/>
							<line id="Line_147" class="st1" x1="3" y1="17.2" x2="13.4" y2="17.6"/>
							<line id="Line_148" class="st1" x1="11.7" y1="32.5" x2="13.8" y2="33.2"/>
							<line id="Line_149" class="st1" x1="2.2" y1="29.5" x2="9.9" y2="32"/>
							<line id="Line_150" class="st1" x1="2.6" y1="10.5" x2="8.2" y2="9.7"/>
							<line id="Line_151" class="st1" x1="0" y1="33.6" x2="4.1" y2="37"/>
						</g>
					</g>
				</g>
			</g>
		</g>
	</g>
</g>
</svg>
