<?xml version="1.0" encoding="utf-8"?>
<!-- Generator: Adobe Illustrator 26.5.0, SVG Export Plug-In . SVG Version: 6.00 Build 0)  -->
<svg version="1.1" id="Layer_1" xmlns="http://www.w3.org/2000/svg" xmlns:xlink="http://www.w3.org/1999/xlink" x="0px" y="0px"
	 viewBox="0 0 235.1 182.9" style="enable-background:new 0 0 235.1 182.9;" xml:space="preserve">
<style type="text/css">
	.st0{fill:#FFFFFF;stroke:#151C3A;stroke-width:0.5;}
	.st1{fill:#FABB27;}
	.st2{opacity:0.5;}
	.st3{fill:#FFFFFF;}
	.st4{fill:#231F20;}
	.st5{opacity:0.4;fill:#FFFFFF;enable-background:new    ;}
	.st6{fill:none;stroke:#0D1435;stroke-linecap:round;stroke-linejoin:round;}
	.st7{fill:#FFFFFF;stroke:#0D1435;stroke-linecap:round;stroke-linejoin:round;}
	.st8{fill:#0D1435;}
	.st9{fill:none;stroke:#FFFFFF;stroke-width:3;stroke-linecap:round;stroke-linejoin:round;}
	.st10{fill:#231F20;stroke:#0D1435;stroke-linecap:round;stroke-linejoin:round;}
	.st11{fill:#0D1435;stroke:#0D1435;stroke-linecap:round;stroke-linejoin:round;}
	.st12{fill:none;stroke:#FFFFFF;stroke-width:0.5;stroke-linecap:round;stroke-linejoin:round;}
</style>
<g id="Group_5867" transform="translate(-44.477 -88.556)">
	<g id="Background_Simple" transform="translate(44.807 88.808)">
		<g id="Group_5842">
			<path id="Path_10826" class="st0" d="M183.6,24.8c0,0-23.7-26-61.3-24.7S52.7,26.5,26.2,46.2S-7.4,96.5,8,120.3
				s39.9,13.8,71.2,29.3s37.2,24.3,72,20.5s61.3-42.3,57.3-83.4S183.6,24.8,183.6,24.8z"/>
		</g>
	</g>
	<g id="Plants" transform="translate(195.512 156.6)">
		<g id="Group_5850">
			<g id="Group_5846" transform="translate(29.929)">
				<g id="Group_5844">
					<path id="Path_10827" class="st1" d="M13.9,14.9c0,0,0.4-2.2,0.5-2.3c0.5-1.6,2.4-4.3,4.3-4.3c1.2,0,2.2,1,2.1,2.3
						c0,0.1,0,0.2,0,0.2c-0.3,1.3-1.2,2.4-2.4,3C16.9,14.4,15.4,14.8,13.9,14.9z"/>
					<path id="Path_10828" class="st1" d="M10.3,0.1C12,0.7,12.9,4,12.8,5.6c0,0.1-0.3,2.4-0.4,2.3l0,0c0.1,0.5,0.3,1.1,0.4,1.7
						c0.3,1.1,0.5,2.4,0.8,3.7c0.3,1.5,0.4,3,0.5,4.5c0.1,1.7,0,3.4-0.2,5.1c0,0,0,0,0,0.1c0.2-0.5,0.9-1.8,1-1.9
						c0.9-1.4,3.5-3.5,5.2-3c1.2,0.4,1.8,1.6,1.5,2.7c0,0.1,0,0.1-0.1,0.2c-0.6,1.2-1.8,2-3.1,2.3c-1.5,0.2-3,0.2-4.6-0.1
						c-0.3,1.7-0.6,3.4-1.1,5c-0.3,1-0.6,1.9-0.9,2.9c0.2-0.4,0.4-0.8,0.4-0.8c0.9-1.4,3.5-3.5,5.2-3c1.2,0.4,1.8,1.6,1.5,2.7
						c0,0.1,0,0.1-0.1,0.2c-0.6,1.2-1.8,2-3.1,2.3c-1.5,0.2-3,0.2-4.4-0.1c-0.1,0.4-0.2,0.7-0.4,1.1c-0.6,1.8-1.2,3.5-1.8,5.3
						c-0.2,0.6-0.4,1.2-0.5,1.8c0.2-0.4,0.3-0.7,0.4-0.7c0.9-1.4,3.5-3.5,5.2-3c1.2,0.4,1.8,1.6,1.5,2.7c0,0.1,0,0.1-0.1,0.2
						c-0.6,1.2-1.8,2-3.1,2.3c-1.4,0.2-2.9,0.2-4.3-0.1c-0.2,0.6-0.3,1.3-0.4,1.9c-0.1,0.4-0.2,0.8-0.2,1.3s-0.1,0.8-0.2,1.3
						c-0.1,0.8-0.2,1.6-0.2,2.4c0,0.5-0.1,1.1-0.1,1.6c0.2-0.6,0.6-1.8,0.6-1.9c0.7-1.3,1.6-2.4,2.8-3.2c0.1-0.1,0.1-0.3,0.2-0.4
						c0.7-1,2-1.3,3-0.6c0.1,0,0.1,0.1,0.2,0.1c1.4,1.2,1,4.5,0.4,6c0,0.1-0.6,1-0.9,1.6c0.2-0.3,0.5-0.6,0.8-0.9
						c0.5-0.6,1-1.2,1.6-1.9l0.9-0.9c0.3-0.3,0.6-0.6,0.9-0.9c0.7-0.7,1.5-1.4,2.3-2.1c-1.2-0.9-2.2-2-3-3.2
						c-0.7-1.2-0.8-2.6-0.4-3.8c0.5-1.1,1.8-1.6,2.9-1.1c0.1,0,0.1,0.1,0.2,0.1c1.6,1,1.7,4.3,1.3,5.9c0,0.1-0.4,1.2-0.7,1.8
						c0.5-0.4,1-0.8,1.5-1.2c1.5-1.1,3-2.2,4.5-3.3c0.5-0.3,0.9-0.7,1.4-1c-1.2-0.9-2.3-2-3.2-3.3c-0.7-1.2-0.8-2.6-0.4-3.8
						c0.5-1.1,1.8-1.6,2.9-1.1c0.1,0,0.1,0.1,0.2,0.1c1.6,1,1.7,4.3,1.3,5.9c0,0.1-0.6,1.7-0.8,2.1c1-0.7,2-1.5,3-2.3
						c1.3-1.1,2.5-2.2,3.7-3.4c-1.2-0.9-2.3-2-3.2-3.3c-0.7-1.2-0.8-2.6-0.4-3.8c0.5-1.1,1.8-1.6,2.9-1.1c0.1,0,0.1,0.1,0.2,0.1
						c1.6,1,1.7,4.3,1.3,5.9c0,0.1-0.5,1.3-0.7,1.9l0.1,0.1c1.1-1.3,2.1-2.6,3-4c0.5-0.8,0.9-1.6,1.3-2.3c-1.3-0.8-2.4-1.7-3.4-2.9
						c-0.8-1.1-1.1-2.5-0.8-3.8c0.4-1.1,1.6-1.8,2.8-1.4c0.1,0,0.1,0.1,0.2,0.1c1.7,0.8,2.2,4.1,2,5.7c0,0.1-0.2,1-0.4,1.6
						c0.2-0.3,0.4-0.7,0.5-1c0.6-1.3,1.1-2.4,1.5-3.5c0.2-0.6,0.4-1.2,0.6-1.7c-0.8-1.3-1.3-2.7-1.7-4.1c-0.2-1.3,0.2-2.7,1-3.7
						c0.9-0.8,2.2-0.8,3.1,0c0.1,0.1,0.1,0.1,0.2,0.2c1.1,1.5,0.1,4.6-0.9,6c-0.1,0.1-1.6,1.8-1.6,1.8l0,0c-0.2,0.5-0.3,1-0.6,1.6
						c-0.4,1.1-0.8,2.3-1.4,3.5c-0.6,1.4-1.3,2.7-2.1,4c-0.9,1.5-1.8,2.8-2.9,4.1c0,0,0,0,0,0c0.5-0.3,1.8-1,1.9-1.1
						c1.5-0.7,4.8-1,6,0.4c0.8,0.9,0.6,2.3-0.3,3.1c-0.1,0.1-0.1,0.1-0.2,0.1c-1.2,0.6-2.6,0.7-3.8,0.2c-1.4-0.7-2.6-1.6-3.7-2.6
						c-1.2,1.3-2.4,2.5-3.7,3.6c-0.8,0.7-1.5,1.3-2.3,1.9c0.4-0.2,0.8-0.4,0.8-0.5c1.5-0.7,4.8-1,6,0.4c0.8,0.9,0.6,2.3-0.3,3.1
						c-0.1,0-0.1,0.1-0.2,0.1c-1.2,0.6-2.6,0.7-3.8,0.2c-1.3-0.6-2.6-1.5-3.6-2.5c-0.3,0.2-0.6,0.5-0.9,0.7c-1.5,1.1-3,2.3-4.4,3.4
						c-0.5,0.4-1,0.8-1.5,1.2c0.4-0.2,0.7-0.4,0.7-0.4c1.5-0.7,4.8-1,6,0.4c0.8,0.9,0.6,2.3-0.3,3.1c-0.1,0-0.1,0.1-0.2,0.1
						c-1.2,0.6-2.6,0.7-3.8,0.2c-1.3-0.6-2.5-1.4-3.5-2.4c-0.5,0.4-1,0.9-1.4,1.3c-0.3,0.3-0.6,0.6-0.9,0.9l-0.8,1
						c-0.5,0.6-1,1.3-1.5,1.9c-0.3,0.4-0.7,0.9-1,1.3c0.5-0.4,1.5-1.2,1.6-1.2c1.4-0.9,4.6-1.7,6-0.5c0.9,0.8,1,2.2,0.2,3.1
						c-0.1,0.1-0.1,0.1-0.2,0.2c-1.1,0.8-2.4,1.1-3.8,0.8c-1.4-0.5-2.8-1.1-4.1-2c-0.5,0.7-1,1.4-1.5,2c-1.6,2.3-2.9,4.2-3.8,5.6
						l-0.1,0.1l-1.1-0.5l0.2-0.3c0.9-1.4,2.2-3.3,3.9-5.5c0.5-0.7,1.1-1.5,1.7-2.2c-0.6-0.7-1.2-1.4-1.8-2.2
						c-1.4,0.4-2.9,0.6-4.3,0.5c-0.1,0.9-0.1,1.7-0.1,2.5c-0.1,2.8-0.1,5.1-0.1,6.7c0,0.1,0,0.1,0,0.2l-1.2-0.6
						c0-1.6,0.1-3.8,0.2-6.4c0.1-0.9,0.1-1.8,0.2-2.8c-1.5-0.3-2.9-0.9-4.2-1.7c-1.1-0.8-1.8-2-1.9-3.3c0-1.2,1-2.2,2.2-2.2
						c0.1,0,0.2,0,0.2,0c1.8,0.2,3.4,3.2,3.7,4.8c0,0.1,0.1,1.2,0.1,1.8c0-0.4,0.1-0.8,0.1-1.2c0.1-0.8,0.2-1.6,0.3-2.5l0.2-1.3
						c0.1-0.4,0.2-0.9,0.3-1.3c0.2-1,0.5-2,0.8-3c-1.5-0.1-2.9-0.4-4.3-1c-1.2-0.6-2.1-1.7-2.4-3C1,35.6,1.8,34.5,3,34.3
						c0.1,0,0.2,0,0.2,0c1.8,0,3.8,2.6,4.4,4.2c0,0.1,0.3,1.3,0.4,1.9c0.2-0.6,0.4-1.2,0.6-1.8c0.6-1.7,1.3-3.5,1.9-5.2
						c0.2-0.5,0.4-1.1,0.6-1.6c-1.5-0.1-3-0.4-4.4-1c-1.2-0.6-2.1-1.7-2.4-3C4,26.5,4.8,25.4,6,25.2c0.1,0,0.2,0,0.2,0
						c1.8,0,3.8,2.6,4.4,4.2c0,0.1,0.4,1.8,0.5,2.2c0.4-1.2,0.8-2.4,1.2-3.5c0.5-1.6,0.9-3.2,1.2-4.9c-1.5-0.1-3-0.4-4.5-1
						c-1.2-0.6-2.1-1.7-2.4-3c-0.2-1.2,0.6-2.3,1.8-2.5c0.1,0,0.2,0,0.2,0c1.8,0,3.8,2.6,4.4,4.2c0,0.1,0.3,1.4,0.4,2h0.1
						c0.2-1.7,0.3-3.3,0.3-5c0-0.9-0.1-1.8-0.2-2.7c-1.5,0.1-3-0.1-4.4-0.5c-1.3-0.5-2.3-1.4-2.7-2.7C6.1,10.8,6.8,9.6,8,9.3
						c0.1,0,0.2,0,0.2-0.1C10.1,9,12.3,11.5,13,13c0,0.1,0.3,0.9,0.6,1.6c0-0.4-0.1-0.8-0.1-1.2c-0.2-1.4-0.4-2.6-0.7-3.8
						c-0.1-0.6-0.3-1.2-0.4-1.7C11,7.3,9.7,6.4,8.6,5.4c-0.9-1-1.3-2.3-1.2-3.7c0.2-1.2,1.4-1.9,2.6-1.7C10.1,0.1,10.2,0.1,10.3,0.1
						z"/>
					<path id="Path_10829" class="st1" d="M43.7,28.6c-1.5-0.3-3-0.8-4.3-1.5c0,0,1.6-1.6,1.7-1.7c1.3-1,4.4-2.3,5.9-1.2
						c1,0.7,1.2,2.1,0.5,3c0,0.1-0.1,0.1-0.1,0.2C46.3,28.3,45,28.7,43.7,28.6z"/>
				</g>
				<g id="Group_5845" class="st2">
					<path id="Path_10830" class="st3" d="M13.9,14.9c0,0,0.4-2.2,0.5-2.3c0.5-1.6,2.4-4.3,4.3-4.3c1.2,0,2.2,1,2.1,2.3
						c0,0.1,0,0.2,0,0.2c-0.3,1.3-1.2,2.4-2.4,3C16.9,14.4,15.4,14.8,13.9,14.9z"/>
					<path id="Path_10831" class="st3" d="M10.3,0.1C12,0.7,12.9,4,12.8,5.6c0,0.1-0.3,2.4-0.4,2.3l0,0c0.1,0.5,0.3,1.1,0.4,1.7
						c0.3,1.1,0.5,2.4,0.8,3.7c0.3,1.5,0.4,3,0.5,4.5c0.1,1.7,0,3.4-0.2,5.1c0,0,0,0,0,0.1c0.2-0.5,0.9-1.8,1-1.9
						c0.9-1.4,3.5-3.5,5.2-3c1.2,0.4,1.8,1.6,1.5,2.7c0,0.1,0,0.1-0.1,0.2c-0.6,1.2-1.8,2-3.1,2.3c-1.5,0.2-3,0.2-4.6-0.1
						c-0.3,1.7-0.6,3.4-1.1,5c-0.3,1-0.6,1.9-0.9,2.9c0.2-0.4,0.4-0.8,0.4-0.8c0.9-1.4,3.5-3.5,5.2-3c1.2,0.4,1.8,1.6,1.5,2.7
						c0,0.1,0,0.1-0.1,0.2c-0.6,1.2-1.8,2-3.1,2.3c-1.5,0.2-3,0.2-4.4-0.1c-0.1,0.4-0.2,0.7-0.4,1.1c-0.6,1.8-1.2,3.5-1.8,5.3
						c-0.2,0.6-0.4,1.2-0.5,1.8c0.2-0.4,0.3-0.7,0.4-0.7c0.9-1.4,3.5-3.5,5.2-3c1.2,0.4,1.8,1.6,1.5,2.7c0,0.1,0,0.1-0.1,0.2
						c-0.6,1.2-1.8,2-3.1,2.3c-1.4,0.2-2.9,0.2-4.3-0.1c-0.2,0.6-0.3,1.3-0.4,1.9c-0.1,0.4-0.2,0.8-0.2,1.3s-0.1,0.8-0.2,1.3
						c-0.1,0.8-0.2,1.6-0.2,2.4c0,0.5-0.1,1.1-0.1,1.6c0.2-0.6,0.6-1.8,0.6-1.9c0.7-1.3,1.6-2.4,2.8-3.2c0.1-0.1,0.1-0.3,0.2-0.4
						c0.7-1,2-1.3,3-0.6c0.1,0,0.1,0.1,0.2,0.1c1.4,1.2,1,4.5,0.4,6c0,0.1-0.6,1-0.9,1.6c0.2-0.3,0.5-0.6,0.8-0.9
						c0.5-0.6,1-1.2,1.6-1.9l0.9-0.9c0.3-0.3,0.6-0.6,0.9-0.9c0.7-0.7,1.5-1.4,2.3-2.1c-1.2-0.9-2.2-2-3-3.2
						c-0.7-1.2-0.8-2.6-0.4-3.8c0.5-1.1,1.8-1.6,2.9-1.1c0.1,0,0.1,0.1,0.2,0.1c1.6,1,1.7,4.3,1.3,5.9c0,0.1-0.4,1.2-0.7,1.8
						c0.5-0.4,1-0.8,1.5-1.2c1.5-1.1,3-2.2,4.5-3.3c0.5-0.3,0.9-0.7,1.4-1c-1.2-0.9-2.3-2-3.2-3.3c-0.7-1.2-0.8-2.6-0.4-3.8
						c0.5-1.1,1.8-1.6,2.9-1.1c0.1,0,0.1,0.1,0.2,0.1c1.6,1,1.7,4.3,1.3,5.9c0,0.1-0.6,1.7-0.8,2.1c1-0.7,2-1.5,3-2.3
						c1.3-1.1,2.5-2.2,3.7-3.4c-1.2-0.9-2.3-2-3.2-3.3c-0.7-1.2-0.8-2.6-0.4-3.8c0.5-1.1,1.8-1.6,2.9-1.1c0.1,0,0.1,0.1,0.2,0.1
						c1.6,1,1.7,4.3,1.3,5.9c0,0.1-0.5,1.3-0.7,1.9l0.1,0.1c1.1-1.3,2.1-2.6,3-4c0.5-0.8,0.9-1.6,1.3-2.3c-1.3-0.8-2.4-1.7-3.4-2.9
						c-0.8-1.1-1.1-2.5-0.8-3.8c0.4-1.1,1.6-1.8,2.8-1.4c0.1,0,0.1,0.1,0.2,0.1c1.7,0.8,2.2,4.1,2,5.7c0,0.1-0.2,1-0.4,1.6
						c0.2-0.3,0.4-0.7,0.5-1c0.6-1.3,1.1-2.4,1.5-3.5c0.2-0.6,0.4-1.2,0.6-1.7c-0.8-1.3-1.3-2.7-1.7-4.1c-0.2-1.3,0.2-2.7,1-3.7
						c0.9-0.8,2.2-0.8,3.1,0c0.1,0.1,0.1,0.1,0.2,0.2c1.1,1.5,0.1,4.6-0.9,6c-0.1,0.1-1.6,1.8-1.6,1.8l0,0c-0.2,0.5-0.3,1-0.6,1.6
						c-0.4,1.1-0.8,2.3-1.4,3.5c-0.6,1.4-1.3,2.7-2.1,4c-0.9,1.5-1.8,2.8-2.9,4.1c0,0,0,0,0,0c0.5-0.3,1.8-1,1.9-1.1
						c1.5-0.7,4.8-1,6,0.4c0.8,0.9,0.6,2.3-0.3,3.1c-0.1,0.1-0.1,0.1-0.2,0.1c-1.2,0.6-2.6,0.7-3.8,0.2c-1.4-0.7-2.6-1.6-3.7-2.6
						c-1.2,1.3-2.4,2.5-3.7,3.6c-0.8,0.7-1.5,1.3-2.3,1.9c0.4-0.2,0.8-0.4,0.8-0.5c1.5-0.7,4.8-1,6,0.4c0.8,0.9,0.6,2.3-0.3,3.1
						c-0.1,0-0.1,0.1-0.2,0.1c-1.2,0.6-2.6,0.7-3.8,0.2c-1.3-0.6-2.6-1.5-3.6-2.5c-0.3,0.2-0.6,0.5-0.9,0.7c-1.5,1.1-3,2.3-4.4,3.4
						c-0.5,0.4-1,0.8-1.5,1.2c0.4-0.2,0.7-0.4,0.7-0.4c1.5-0.7,4.8-1,6,0.4c0.8,0.9,0.6,2.3-0.3,3.1c-0.1,0-0.1,0.1-0.2,0.1
						c-1.2,0.6-2.6,0.7-3.8,0.2c-1.3-0.6-2.5-1.4-3.5-2.4c-0.5,0.4-1,0.9-1.4,1.3c-0.3,0.3-0.6,0.6-0.9,0.9l-0.8,1
						c-0.5,0.6-1,1.3-1.5,1.9c-0.3,0.4-0.7,0.9-1,1.3c0.5-0.4,1.5-1.2,1.6-1.2c1.4-0.9,4.6-1.7,6-0.5c0.9,0.8,1,2.2,0.2,3.1
						c-0.1,0.1-0.1,0.1-0.2,0.2c-1.1,0.8-2.4,1.1-3.8,0.8c-1.4-0.5-2.8-1.1-4.1-2c-0.5,0.7-1,1.4-1.5,2c-1.6,2.3-2.9,4.2-3.8,5.6
						l-0.1,0.1l-1.1-0.5l0.2-0.3c0.9-1.4,2.2-3.3,3.9-5.5c0.5-0.7,1.1-1.5,1.7-2.2c-0.6-0.7-1.2-1.4-1.8-2.2
						c-1.4,0.4-2.9,0.6-4.3,0.5c-0.1,0.9-0.1,1.7-0.1,2.5c-0.1,2.8-0.1,5.1-0.1,6.7c0,0.1,0,0.1,0,0.2l-1.2-0.6
						c0-1.6,0.1-3.8,0.2-6.4c0.1-0.9,0.1-1.8,0.2-2.8c-1.5-0.3-2.9-0.9-4.2-1.7c-1.1-0.8-1.8-2-1.9-3.3c0-1.2,1-2.2,2.2-2.2
						c0.1,0,0.2,0,0.2,0c1.8,0.2,3.4,3.2,3.7,4.8c0,0.1,0.1,1.2,0.1,1.8c0-0.4,0.1-0.8,0.1-1.2c0.1-0.8,0.2-1.6,0.3-2.5l0.2-1.3
						c0.1-0.4,0.2-0.9,0.3-1.3c0.2-1,0.5-2,0.8-3c-1.5-0.1-2.9-0.4-4.3-1c-1.2-0.6-2.1-1.7-2.4-3C1,35.6,1.8,34.5,3,34.3
						c0.1,0,0.2,0,0.2,0c1.8,0,3.8,2.6,4.4,4.2c0,0.1,0.3,1.3,0.4,1.9c0.2-0.6,0.4-1.2,0.6-1.8c0.6-1.7,1.3-3.5,1.9-5.2
						c0.2-0.5,0.4-1.1,0.6-1.6c-1.5-0.1-3-0.4-4.4-1c-1.2-0.6-2.1-1.7-2.4-3C4,26.5,4.8,25.4,6,25.2c0.1,0,0.2,0,0.2,0
						c1.8,0,3.8,2.6,4.4,4.2c0,0.1,0.4,1.8,0.5,2.2c0.4-1.2,0.8-2.4,1.2-3.5c0.5-1.6,0.9-3.2,1.2-4.9c-1.5-0.1-3-0.4-4.5-1
						c-1.2-0.6-2.1-1.7-2.4-3c-0.2-1.2,0.6-2.3,1.8-2.5c0.1,0,0.2,0,0.2,0c1.8,0,3.8,2.6,4.4,4.2c0,0.1,0.3,1.4,0.4,2h0.1
						c0.2-1.7,0.3-3.3,0.3-5c0-0.9-0.1-1.8-0.2-2.7c-1.5,0.1-3-0.1-4.4-0.5c-1.3-0.5-2.3-1.4-2.7-2.7C6.1,10.8,6.8,9.6,8,9.3
						c0.1,0,0.2,0,0.2-0.1C10.1,9,12.3,11.5,13,13c0,0.1,0.3,0.9,0.6,1.6c0-0.4-0.1-0.8-0.1-1.2c-0.2-1.4-0.4-2.6-0.7-3.8
						c-0.1-0.6-0.3-1.2-0.4-1.7C11,7.3,9.7,6.4,8.6,5.4c-0.9-1-1.3-2.3-1.2-3.7c0.2-1.2,1.4-1.9,2.6-1.7C10.1,0.1,10.2,0.1,10.3,0.1
						z"/>
					<path id="Path_10832" class="st3" d="M43.7,28.6c-1.5-0.3-3-0.8-4.3-1.5c0,0,1.6-1.6,1.7-1.7c1.3-1,4.4-2.3,5.9-1.2
						c1,0.7,1.2,2.1,0.5,3c0,0.1-0.1,0.1-0.1,0.2C46.3,28.3,45,28.7,43.7,28.6z"/>
				</g>
			</g>
			<g id="Group_5849" transform="translate(0 44.519)">
				<g id="Group_5847">
					<path id="Path_10833" class="st4" d="M56.8,20.2c0,0-8.8-21.1-13.7-20.2s8.4,33.7,8.4,33.7S36.1,4.6,25.6,4.6
						s3.9,32.1,17.2,42.8c0,0-21-22.6-33.3-17.8S34,57.6,34,57.6S12.6,50.8,15.1,56s9.1,6.1,9.1,6.1L0,63.4h84.1l-18.9-1.8
						c0,0,19.6-9.8,14.4-13.8s-16.8,4.6-16.8,4.6s20-22,16.1-30.3s-21,15-21,15S71.8,7.4,69,2.2S56.8,20.2,56.8,20.2z"/>
					<path id="Path_10834" class="st5" d="M56.8,20.2c0,0-8.8-21.1-13.7-20.2s8.4,33.7,8.4,33.7S36.1,4.6,25.6,4.6
						s3.9,32.1,17.2,42.8c0,0-21-22.6-33.3-17.8S34,57.6,34,57.6S12.6,50.8,15.1,56s9.1,6.1,9.1,6.1L0,63.4h84.1l-18.9-1.8
						c0,0,19.6-9.8,14.4-13.8s-16.8,4.6-16.8,4.6s20-22,16.1-30.3s-21,15-21,15S71.8,7.4,69,2.2S56.8,20.2,56.8,20.2z"/>
				</g>
				<g id="Group_5848" transform="translate(23.12 13.633)">
					<path id="Path_10835" class="st6" d="M36.4,7.7c-7.7,22.8-7.7,38.9-7.7,38.9s9.1,0.4,18.6-6.7"/>
					<path id="Path_10836" class="st6" d="M32.6,20C31,13.2,28.9,6.5,26.3,0"/>
					<path id="Path_10837" class="st6" d="M9.8,6.7l19.6,29.1c0,0,13.3-11.2,17.9-17.5"/>
					<path id="Path_10838" class="st6" d="M29.1,42.7c0,0-20.7-9.8-29.1-15.4"/>
				</g>
			</g>
		</g>
	</g>
	<g id="Device" transform="translate(156.097 100.704)">
		<g id="Group_5857">
			<path id="Rectangle_3604" class="st7" d="M13.4,0h56.4c4.4,0,7.9,3.5,7.9,7.9v148c0,4.4-3.5,7.9-7.9,7.9H13.4
				c-4.4,0-7.9-3.5-7.9-7.9V7.9C5.5,3.5,9,0,13.4,0z"/>
			<g id="Group_5851" transform="translate(74.351 13.878)">
				<path id="Path_10839" class="st8" d="M1,14.8c-0.5,0-1-0.4-1-1c0,0,0,0,0,0V1c0-0.5,0.4-1,1-1s1,0.4,1,1v12.9
					C1.9,14.4,1.5,14.8,1,14.8C1,14.8,1,14.8,1,14.8z"/>
			</g>
			<g id="Group_5852" transform="translate(74.351 31.481)">
				<path id="Path_10840" class="st8" d="M1,9.1c-0.5,0-1-0.4-1-1c0,0,0,0,0,0V1c0-0.5,0.4-1,1-1s1,0.4,1,1l0,0v7.2
					C1.9,8.7,1.5,9.1,1,9.1z"/>
			</g>
			<path id="Rectangle_3605" class="st7" d="M7.9,0h56.4c4.4,0,7.9,3.5,7.9,7.9v148c0,4.4-3.5,7.9-7.9,7.9H7.9
				c-4.4,0-7.9-3.5-7.9-7.9V7.9C0,3.5,3.5,0,7.9,0z"/>
			<rect id="Rectangle_3606" x="4.8" y="10.9" class="st4" width="62.7" height="140.5"/>
			<line id="Line_142" class="st9" x1="26.8" y1="6.4" x2="43.5" y2="6.4"/>
			<path id="Path_10841" class="st3" d="M33.9,156.4c-0.2,0.9-1.1,1.4-2,1.2c-0.9-0.2-1.4-1.1-1.2-2c0.2-0.7,0.9-1.2,1.6-1.2
				C33.3,154.4,34,155.3,33.9,156.4z"/>
			<g id="Group_5853" transform="translate(25.272 20.528)">
				<ellipse id="Ellipse_561" class="st3" cx="10.9" cy="12.7" rx="10.9" ry="12.7"/>
				<ellipse id="Ellipse_562" class="st10" cx="10.9" cy="7.7" rx="4.1" ry="4.8"/>
				<path id="Path_10842" class="st10" d="M10.9,13.8c-4-0.1-7.4,3-7.5,7.1c0,0.4,0,0.7,0.1,1.1C7,26,13.1,26.5,17.2,23
					c0.4-0.3,0.7-0.7,1.1-1.1c0.1-0.4,0.1-0.7,0.1-1.1C18.2,16.8,14.9,13.7,10.9,13.8z"/>
			</g>
			<g id="Group_5855" transform="translate(17.798 52.281)">
				<g id="Group_5854" transform="translate(2.6)">
					<path id="Path_10843" class="st3" d="M28.9,36.1H2.5C1.1,36-0.1,34.8,0,33.3V17C0,7.6,7.1,0,15.7,0s15.7,7.6,15.7,17v16.3
						C31.5,34.8,30.4,36,28.9,36.1z M5.1,30.6h21.4V17c0-6.4-4.8-11.6-10.7-11.6S5.1,10.7,5.1,17V30.6z"/>
				</g>
				<rect id="Rectangle_3607" x="0" y="25" class="st3" width="36.7" height="34.7"/>
				<path id="Path_10844" class="st11" d="M23.7,48.9L21,42.3c1.2-0.9,1.9-2.4,1.9-3.9c0.2-2.4-1.6-4.5-4-4.7
					c-2.4-0.2-4.5,1.6-4.7,4c0,0.2,0,0.5,0,0.7c0,1.5,0.7,3,1.9,3.9l-2.7,6.5H23.7z"/>
			</g>
			<g id="Group_5856" transform="translate(4.812 20.005)">
				<path id="Path_10845" class="st3" d="M20.2,123.1c0.1,0,0.1,0.1,0.2,0.1c0.1,0,0.2,0,0.3-0.1l42-57.2v-1.1l-42.6,57.9
					C20,122.8,20,123,20.2,123.1z"/>
				<path id="Path_10846" class="st3" d="M54.2,11.5c-0.1,0.1-0.1,0.3,0.1,0.4s0.3,0.1,0.4-0.1l7.9-10.8V0L54.2,11.5z"/>
				<path id="Path_10847" class="st3" d="M0,86.3l51.9-70.6c0.1-0.1,0.1-0.3-0.1-0.5c-0.1-0.1-0.3-0.1-0.5,0.1c0,0,0,0,0,0L0,85.2
					L0,86.3z"/>
				<path id="Path_10848" class="st3" d="M15.3,130.1c0.1,0,0.2,0,0.3-0.1l2.9-4c0.1-0.1,0.1-0.3-0.1-0.4s-0.3-0.1-0.4,0.1l-2.9,4
					c-0.1,0.1-0.1,0.3,0.1,0.4C15.1,130.1,15.2,130.1,15.3,130.1L15.3,130.1z"/>
				<path id="Path_10849" class="st3" d="M62.6,77.3l-34.5,47c-0.1,0.1-0.1,0.3,0.1,0.4c0.1,0.1,0.3,0.1,0.4-0.1l34-46.3L62.6,77.3z
					"/>
			</g>
		</g>
	</g>
	<g id="Character" transform="translate(56.88 123.21)">
		<g id="Group_5866" transform="translate(0 0)">
			<g id="Group_5858">
				<path id="Path_10850" class="st11" d="M45.4,8.8c0.6-1.3,0.9-2.7,0.8-4.2c0-2.6-3.2-4.2-6.9-4.6s-5.4,1.1-4.9,2.1
					c0.6,0.8,1.3,1.5,2.1,2.1c0,0-3.7-2.1-6.2-0.4s1.1,1,0.4,2.6s-4.6,1-5.5,5.4s1.8,8.9-0.7,10.8s-10-0.7-12.2,4.2s0.9,7-4.4,10.1
					s-9.1,6-7.6,13.5s6.5,10.1,16.4,7.5s9.2-8.6,12.3-14.7s8.2-4.9,9.7-8.3s-0.4-7.6-0.3-10.8s3.3-3.9,4.6-7.6S45.4,8.8,45.4,8.8z"
					/>
				<path id="Path_10851" class="st12" d="M1.5,50.3c-0.3,0.5-0.4,1.1-0.4,1.7"/>
				<path id="Path_10852" class="st12" d="M40.1,6c0,0-1.7-2,1.6-1.1c4.2,1.2-0.7,6-2.6,7c-3.8,2-8.8,1.3-11.8,4.9
					c-2.7,3.2,0.9,6.5-0.7,9.1s-8,1.1-10.2,4.1s3.9,9.6-2.3,13.2C9.7,45.9,4.9,46.9,2.5,49"/>
				<path id="Path_10853" class="st12" d="M30.1,17.9c-0.4,0.9-0.5,1.8-0.3,2.7c0.5,2.3,3.6,6.5,0.8,8.9s-7.6,2.3-8.4,5.1
					s0.8,10.6-1.9,14.2s-7.9,3.3-10.7,5.7s-2.4,3.7-2.4,3.7"/>
				<path id="Path_10854" class="st12" d="M31.6,15.3c-0.2,0.3-0.5,0.7-0.7,1.1"/>
			</g>
			<path id="Path_10855" class="st7" d="M47.2,50.1l0.7,5.3c0,0,3.5,3.5,6.1,5.7s9.3,6.8,9.3,6.8l-3.4,1c0,0-11-6.5-13.2-7.1
				s-3.8-3.7-4.5-4.6S45.5,49.1,47.2,50.1z"/>
			<g id="Group_5859" transform="translate(48.855 135.713)">
				<path id="Path_10856" class="st7" d="M5.1,0.7c0,0,3.3,2.8,4.7,3.8s3,1.4,2.7,1.9s-0.9,1-4.2,0.6C6.7,6.7,5,6.1,3.6,5.2
					C3,5,1.5,5.4,0.4,4.8S1.1,0,1.1,0C2.1,1.2,3.8,1.5,5.1,0.7z"/>
				<path id="Path_10857" class="st7" d="M12.5,6.3C12.6,6.3,12.6,6.2,12.5,6.3C10.7,6.4,8.8,6.2,7,5.7C4.9,5.2,4.3,4.1,2.3,4.1
					C1.5,4.1,0.7,4,0,3.7c0,0.4,0.1,0.8,0.4,1.1C1.5,5.4,3,5,3.6,5.2C5,6.1,6.7,6.7,8.4,6.9C11.6,7.3,12.3,6.8,12.5,6.3z"/>
			</g>
			<g id="Group_5860" transform="translate(10.209 22.505)">
				<path id="Path_10858" class="st7" d="M26.3,0c0,0,0.6,4.3-0.2,6.1S22.7,8,20.5,8.4c-2.2,0.4-7.3,2.3-6.7,7.3s6.9,15.7,6.9,18.8
					s-1.9,4.6-4,10.5s-1.8,16.8-1.2,23.9c0.5,4.7,1.4,9.3,2.8,13.8c0,0-5.3,8.6-7.6,12.2S0,114.5,0,114.5s0,0.6,1.3,0.9
					c0.9,0.2,1.8,0.3,2.8,0.2c0,0,15.8-19,18.8-22.3s5.7-8.8,6.1-11.4s-0.1-18.3-0.1-18.3c1.7,4.1,3.7,8.1,5.9,12
					c1.6,2.5,3,5,4.3,7.6c-0.4,3.3-0.4,6.7,0,10c0.6,4.6,0.1,19.4,0.7,20.6s3.1,0.7,3.7,0.1s0.8-4.1,0.8-4.1s1.1-11.2,1.7-16.5
					c0.6-5.2,1.7-9.7,1.4-10.9s-2.7-14-4.4-20S35.9,45,34.7,42s-1.8-5.6-1.7-6.5s3.8-6.4,4.7-7.9c1.1-2,1.2-4.4,0.2-6.5
					c-1.1-2.4,0-5.6-0.2-7.5s-3-2.8-4.5-3.5c-1.3-0.8-2.1-2.2-2-3.8C31.3,5.1,31.5,4,32,2.9C32,2.9,27.5,0,26.3,0z"/>
				<path id="Path_10859" class="st6" d="M37.4,19.7c-0.5-1.2-0.9-2.5-1.2-3.8"/>
				<path id="Path_10860" class="st6" d="M25.5,29.9c0,0,1.7,0.4,5-1.3"/>
			</g>
			<path id="Path_10861" class="st11" d="M53.2,84.9c-1.7-5.8-6.6-16.4-8.1-19.9c-7.1,2.7-13.7,0.4-16.8-1.1c-0.5,1-0.9,2.1-1.4,3.5
				c-2.1,5.9-1.8,16.8-1.2,23.9c0.5,4.7,1.4,9.3,2.8,13.8c0,0-5.3,8.5-7.6,12.2S10.2,137,10.2,137s0,0.6,1.3,0.9
				c0.9,0.2,1.8,0.3,2.8,0.2c0,0,15.8-19,18.8-22.3s5.7-8.8,6.1-11.4S39,86.1,39,86.1c1.7,4.1,3.7,8.1,5.9,12c1.6,2.5,3,5,4.3,7.6
				c-0.4,3.3-0.4,6.7,0,10c0.6,4.6,0.1,19.4,0.7,20.6s3.1,0.7,3.7,0.1s0.8-4.1,0.8-4.1s1.1-11.2,1.7-16.5s1.7-9.7,1.4-10.9
				S54.9,90.9,53.2,84.9z"/>
			<g id="Group_5861" transform="translate(3.682 55.082)">
				<path id="Path_10862" class="st10" d="M85.5,23.9v-1.2h1v-9.4h-12v9.4h1v1.2h-1v2.2h3.9v-0.7h4.2v0.7h3.9v-2.2H85.5z"/>
				<path id="Rectangle_3608" class="st10" d="M21.2,10.5h68.6c1,0,1.8,0.8,1.8,1.8v0.6c0,1-0.8,1.8-1.8,1.8H21.2l0,0V10.5
					L21.2,10.5z"/>
				<path id="Rectangle_3609" class="st10" d="M67.2,9.8h3.4c0.5,0,1,0.4,1,1v3.5c0,0.5-0.4,1-1,1h-3.4c-0.5,0-1-0.4-1-1v-3.5
					C66.2,10.3,66.6,9.8,67.2,9.8z"/>
				<circle id="Ellipse_563" class="st10" cx="12.6" cy="12.6" r="11"/>
				<path id="Path_10863" class="st7" d="M14.8,12.6C16.1,12,17,10.7,17,9.2c-0.3-2.4-2.5-4.2-5-3.9c-2,0.3-3.6,1.8-3.9,3.9
					c0,1.4,0.9,2.7,2.2,3.3c-1.3,0.6-2.1,1.9-2.2,3.3c0.3,2.4,2.5,4.2,5,3.9c2-0.3,3.6-1.8,3.9-3.9C17,14.5,16.1,13.2,14.8,12.6z"/>
			</g>
			<g id="Group_5862" transform="translate(61.132 66.8)">
				<path id="Path_10864" class="st7" d="M0,3.1c1.4,0.6,2.9,1.1,4.5,1.4c1.3-0.2,2.4-1.1,2.9-2.4C8,0.9,8,0.2,7.6,0.5L6.8,1.2
					c0,0,0.6-1.3-0.1-1.1C6.3,0.2,5.9,0.5,5.7,0.9c0,0-0.1-1.1-0.7-0.6C4.6,0.7,4.3,1.1,4,1.5c0,0-0.1-1.4-0.5-1.1S1.7,2.9,1.7,2.9
					L0,3.1z"/>
				<path id="Path_10865" class="st7" d="M4,1.5c0,0-0.2,1.8-1.4,2.1"/>
				<path id="Path_10866" class="st7" d="M5.7,0.9c0,0-0.6,2.9-1.5,3.3"/>
				<path id="Path_10867" class="st7" d="M6.8,1.2c-0.3,1.1-0.7,2.1-1.2,3"/>
			</g>
			<path id="Path_10868" class="st7" d="M43.2,32.4c-1.2-0.8-1.9-2.2-1.8-3.7c0.1-1.1,0.4-2.3,0.8-3.3c0,0-4.5-2.9-5.7-2.9
				c0,0,0.6,4.3-0.2,6.1c-0.3,0.5-0.7,1-1.3,1.2c1.1,2.9,2.6,5.7,4.4,8.3C41.1,40.1,42,35.8,43.2,32.4z"/>
			<g id="Group_5863" transform="translate(14.895 31.47)">
				<path id="Path_10869" class="st7" d="M14.4,0c-2.3,0.4-4.3,1.8-5.3,3.9C7.3,7.4-0.6,23.3,0,24.2c3.9,5.4,17.9,9.3,19.3,10.7
					c1.4,1.5,3,2.8,4.7,4c1.4,0.9,4.3,0.5,4.8,0.3s0.9-1.4,0-1.4c-0.7,0-1.3-0.5-1.5-1.2c-0.1-0.5,1.4,0.5,2.2,0.1S27.8,35,27,34.3
					s-1.4-1.6-2.5-1.6s-3,0-3,0s-4.8-3.5-7.7-6c-2.2-2-4.7-3.8-7.3-5.3L15.3,7"/>
				<path id="Path_10870" class="st7" d="M27,34.3c-0.8-0.6-1.4-1.6-2.5-1.6s-3,0-3,0s-4.8-3.5-7.7-6c-2.2-2-4.7-3.8-7.3-5.3
					l3.5-5.8c-1.8-1.1-3.8-1.7-5.9-1.7C1.8,18.8-0.3,23.7,0,24.2c3.9,5.4,17.9,9.3,19.3,10.7c1.4,1.5,3,2.8,4.7,4
					c1.4,0.9,4.3,0.5,4.8,0.3s0.9-1.4,0-1.4c-0.7,0-1.3-0.5-1.5-1.2c-0.1-0.5,1.4,0.5,2.2,0.1S27.8,35,27,34.3z"/>
			</g>
			<g id="Group_5864" transform="translate(32.75 8.803)">
				<path id="Path_10871" class="st7" d="M13.9,7.4c-0.4-0.9-0.5-2-0.3-2.9C13.8,3.1,12.7,0,12.7,0l0,0C11.5,2,8.3,3.1,6.8,3.6
					C5.3,4,7.6,5.1,7.3,6.6S3.9,8.9,3.9,8.9S3,7,1.7,7s-2.2,2.9-1.5,4.5c0.4,0.9,1.3,1.4,2.3,1.2c0,0-0.1,2.8,1.7,3.6
					c1.9,0.9,3.8,1.6,5.8,2.1c1.1,0.2,2.2-0.4,2.7-2c0.4-1.7,0.6-3.4,0.7-5.1c0.8-0.5,1.5-1.1,2.1-1.7C16,8.9,14.3,8.3,13.9,7.4z"/>
				<path id="Path_10872" class="st8" d="M12.1,7.4c0,0.5-0.2,0.9-0.4,0.9s-0.4-0.4-0.4-0.9s0.2-0.9,0.4-0.9S12.1,6.9,12.1,7.4z"/>
				<path id="Path_10873" class="st6" d="M10.5,5.9c0,0,1-1.1,1.7-0.9"/>
				<path id="Path_10874" class="st6" d="M12.2,13.4c-0.9,0.3-1.9,0-2.6-0.6"/>
			</g>
			<g id="Group_5865" transform="translate(8.093 136.997)">
				<path id="Path_10875" class="st7" d="M2.1,0c0,0-2.2,4.4-2.1,5s4.4,3.8,6.5,4.9s5.7,1.3,5.5-0.3S8.2,7.1,7.3,4.8
					C6.9,3.6,6.5,2.3,6.2,1.1C4.7,1.1,3.3,0.7,2.1,0z"/>
				<path id="Path_10876" class="st7" d="M12,9.6c-1.6,0.2-3.2,0-4.6-0.7c-2.6-1.3-5-3-7.1-5C0.1,4.3,0,4.7,0,5
					c0.1,0.6,4.4,3.8,6.5,4.9S12.2,11.2,12,9.6z"/>
			</g>
		</g>
	</g>
</g>
</svg>
